<?xml version="1.0" encoding="utf-8"?>
<svg xmlns="http://www.w3.org/2000/svg" xmlns:xlink="http://www.w3.org/1999/xlink" width="600" height="400" viewBox="0 0 2400 1600">
<defs>
  <clipPath id="clip320">
    <rect x="0" y="0" width="2400" height="1600"/>
  </clipPath>
</defs>
<path clip-path="url(#clip320)" d="
M0 1600 L2400 1600 L2400 0 L0 0  Z
  " fill="#ffffff" fill-rule="evenodd" fill-opacity="1"/>
<defs>
  <clipPath id="clip321">
    <rect x="480" y="0" width="1681" height="1600"/>
  </clipPath>
</defs>
<defs>
  <clipPath id="clip322">
    <rect x="219" y="47" width="2134" height="1377"/>
  </clipPath>
</defs>
<path clip-path="url(#clip320)" d="
M219.38 1423.18 L2352.76 1423.18 L2352.76 47.2441 L219.38 47.2441  Z
  " fill="#ffffff" fill-rule="evenodd" fill-opacity="1"/>
<polyline clip-path="url(#clip322)" style="stroke:#000000; stroke-linecap:butt; stroke-linejoin:round; stroke-width:2; stroke-opacity:0.1; fill:none" points="
  219.38,1423.18 219.38,47.2441 
  "/>
<polyline clip-path="url(#clip322)" style="stroke:#000000; stroke-linecap:butt; stroke-linejoin:round; stroke-width:2; stroke-opacity:0.1; fill:none" points="
  693.464,1423.18 693.464,47.2441 
  "/>
<polyline clip-path="url(#clip322)" style="stroke:#000000; stroke-linecap:butt; stroke-linejoin:round; stroke-width:2; stroke-opacity:0.1; fill:none" points="
  1167.55,1423.18 1167.55,47.2441 
  "/>
<polyline clip-path="url(#clip322)" style="stroke:#000000; stroke-linecap:butt; stroke-linejoin:round; stroke-width:2; stroke-opacity:0.1; fill:none" points="
  1641.63,1423.18 1641.63,47.2441 
  "/>
<polyline clip-path="url(#clip322)" style="stroke:#000000; stroke-linecap:butt; stroke-linejoin:round; stroke-width:2; stroke-opacity:0.1; fill:none" points="
  2115.71,1423.18 2115.71,47.2441 
  "/>
<polyline clip-path="url(#clip320)" style="stroke:#000000; stroke-linecap:butt; stroke-linejoin:round; stroke-width:4; stroke-opacity:1; fill:none" points="
  219.38,1423.18 2352.76,1423.18 
  "/>
<polyline clip-path="url(#clip320)" style="stroke:#000000; stroke-linecap:butt; stroke-linejoin:round; stroke-width:4; stroke-opacity:1; fill:none" points="
  219.38,1423.18 219.38,1404.28 
  "/>
<polyline clip-path="url(#clip320)" style="stroke:#000000; stroke-linecap:butt; stroke-linejoin:round; stroke-width:4; stroke-opacity:1; fill:none" points="
  693.464,1423.18 693.464,1404.28 
  "/>
<polyline clip-path="url(#clip320)" style="stroke:#000000; stroke-linecap:butt; stroke-linejoin:round; stroke-width:4; stroke-opacity:1; fill:none" points="
  1167.55,1423.18 1167.55,1404.28 
  "/>
<polyline clip-path="url(#clip320)" style="stroke:#000000; stroke-linecap:butt; stroke-linejoin:round; stroke-width:4; stroke-opacity:1; fill:none" points="
  1641.63,1423.18 1641.63,1404.28 
  "/>
<polyline clip-path="url(#clip320)" style="stroke:#000000; stroke-linecap:butt; stroke-linejoin:round; stroke-width:4; stroke-opacity:1; fill:none" points="
  2115.71,1423.18 2115.71,1404.28 
  "/>
<path clip-path="url(#clip320)" d="M219.38 1454.1 Q215.769 1454.1 213.94 1457.66 Q212.135 1461.2 212.135 1468.33 Q212.135 1475.44 213.94 1479.01 Q215.769 1482.55 219.38 1482.55 Q223.014 1482.55 224.82 1479.01 Q226.649 1475.44 226.649 1468.33 Q226.649 1461.2 224.82 1457.66 Q223.014 1454.1 219.38 1454.1 M219.38 1450.39 Q225.19 1450.39 228.246 1455 Q231.325 1459.58 231.325 1468.33 Q231.325 1477.06 228.246 1481.67 Q225.19 1486.25 219.38 1486.25 Q213.57 1486.25 210.491 1481.67 Q207.436 1477.06 207.436 1468.33 Q207.436 1459.58 210.491 1455 Q213.57 1450.39 219.38 1450.39 Z" fill="#000000" fill-rule="evenodd" fill-opacity="1" /><path clip-path="url(#clip320)" d="M683.846 1481.64 L691.485 1481.64 L691.485 1455.28 L683.174 1456.95 L683.174 1452.69 L691.438 1451.02 L696.114 1451.02 L696.114 1481.64 L703.753 1481.64 L703.753 1485.58 L683.846 1485.58 L683.846 1481.64 Z" fill="#000000" fill-rule="evenodd" fill-opacity="1" /><path clip-path="url(#clip320)" d="M1162.2 1481.64 L1178.52 1481.64 L1178.52 1485.58 L1156.57 1485.58 L1156.57 1481.64 Q1159.24 1478.89 1163.82 1474.26 Q1168.43 1469.61 1169.61 1468.27 Q1171.85 1465.74 1172.73 1464.01 Q1173.64 1462.25 1173.64 1460.56 Q1173.64 1457.8 1171.69 1456.07 Q1169.77 1454.33 1166.67 1454.33 Q1164.47 1454.33 1162.01 1455.09 Q1159.58 1455.86 1156.81 1457.41 L1156.81 1452.69 Q1159.63 1451.55 1162.08 1450.97 Q1164.54 1450.39 1166.57 1450.39 Q1171.95 1450.39 1175.14 1453.08 Q1178.33 1455.77 1178.33 1460.26 Q1178.33 1462.39 1177.52 1464.31 Q1176.74 1466.2 1174.63 1468.8 Q1174.05 1469.47 1170.95 1472.69 Q1167.85 1475.88 1162.2 1481.64 Z" fill="#000000" fill-rule="evenodd" fill-opacity="1" /><path clip-path="url(#clip320)" d="M1645.88 1466.95 Q1649.23 1467.66 1651.11 1469.93 Q1653.01 1472.2 1653.01 1475.53 Q1653.01 1480.65 1649.49 1483.45 Q1645.97 1486.25 1639.49 1486.25 Q1637.31 1486.25 1635 1485.81 Q1632.71 1485.39 1630.25 1484.54 L1630.25 1480.02 Q1632.2 1481.16 1634.51 1481.74 Q1636.83 1482.32 1639.35 1482.32 Q1643.75 1482.32 1646.04 1480.58 Q1648.36 1478.84 1648.36 1475.53 Q1648.36 1472.48 1646.2 1470.77 Q1644.07 1469.03 1640.25 1469.03 L1636.23 1469.03 L1636.23 1465.19 L1640.44 1465.19 Q1643.89 1465.19 1645.72 1463.82 Q1647.54 1462.43 1647.54 1459.84 Q1647.54 1457.18 1645.65 1455.77 Q1643.77 1454.33 1640.25 1454.33 Q1638.33 1454.33 1636.13 1454.75 Q1633.93 1455.16 1631.3 1456.04 L1631.3 1451.88 Q1633.96 1451.14 1636.27 1450.77 Q1638.61 1450.39 1640.67 1450.39 Q1645.99 1450.39 1649.1 1452.83 Q1652.2 1455.23 1652.2 1459.35 Q1652.2 1462.22 1650.55 1464.21 Q1648.91 1466.18 1645.88 1466.95 Z" fill="#000000" fill-rule="evenodd" fill-opacity="1" /><path clip-path="url(#clip320)" d="M2118.72 1455.09 L2106.92 1473.54 L2118.72 1473.54 L2118.72 1455.09 M2117.5 1451.02 L2123.38 1451.02 L2123.38 1473.54 L2128.31 1473.54 L2128.31 1477.43 L2123.38 1477.43 L2123.38 1485.58 L2118.72 1485.58 L2118.72 1477.43 L2103.12 1477.43 L2103.12 1472.92 L2117.5 1451.02 Z" fill="#000000" fill-rule="evenodd" fill-opacity="1" /><path clip-path="url(#clip320)" d="M1298 1545.85 Q1298 1551.26 1296.26 1557.35 Q1294.56 1563.4 1291.85 1568.3 Q1289.15 1573.16 1285.6 1576.38 Q1282.06 1579.57 1278.68 1579.57 Q1276.52 1579.57 1274.91 1578.38 Q1273.33 1577.15 1272.46 1575.12 Q1271.59 1573.06 1271.18 1570.81 Q1270.76 1568.52 1270.76 1566.04 Q1270.76 1562.34 1271.56 1558.31 Q1272.37 1554.25 1273.72 1550.58 Q1275.07 1546.88 1276.97 1543.53 Q1278.87 1540.15 1280.97 1537.7 Q1283.09 1535.22 1285.47 1533.77 Q1287.86 1532.32 1290.08 1532.32 Q1291.69 1532.32 1292.98 1533.03 Q1294.3 1533.71 1295.14 1534.9 Q1295.97 1536.06 1296.55 1537.44 Q1297.17 1538.83 1297.46 1540.44 Q1297.75 1542.02 1297.87 1543.34 Q1298 1544.63 1298 1545.85 M1293.66 1541.76 Q1293.66 1540.12 1293.53 1538.89 Q1293.4 1537.64 1293.04 1536.38 Q1292.69 1535.12 1291.92 1534.45 Q1291.18 1533.77 1290.02 1533.77 Q1286.63 1533.77 1282.83 1540.7 Q1281.61 1542.85 1280.52 1545.78 Q1279.42 1548.72 1279.03 1550.1 Q1278.65 1551.49 1277.75 1554.9 L1291.53 1554.9 Q1293.66 1546.11 1293.66 1541.76 M1290.95 1556.99 L1277.23 1556.99 Q1275.1 1565.04 1275.1 1570.07 Q1275.1 1574.45 1276.01 1576.28 Q1276.94 1578.09 1278.68 1578.09 Q1280.68 1578.09 1282.54 1576.09 Q1284.41 1574.06 1286.31 1570.39 Q1288.82 1565.62 1290.95 1556.99 Z" fill="#000000" fill-rule="evenodd" fill-opacity="1" /><polyline clip-path="url(#clip322)" style="stroke:#000000; stroke-linecap:butt; stroke-linejoin:round; stroke-width:2; stroke-opacity:0.1; fill:none" points="
  219.38,1384.28 2352.76,1384.28 
  "/>
<polyline clip-path="url(#clip322)" style="stroke:#000000; stroke-linecap:butt; stroke-linejoin:round; stroke-width:2; stroke-opacity:0.1; fill:none" points="
  219.38,1059.76 2352.76,1059.76 
  "/>
<polyline clip-path="url(#clip322)" style="stroke:#000000; stroke-linecap:butt; stroke-linejoin:round; stroke-width:2; stroke-opacity:0.1; fill:none" points="
  219.38,735.234 2352.76,735.234 
  "/>
<polyline clip-path="url(#clip322)" style="stroke:#000000; stroke-linecap:butt; stroke-linejoin:round; stroke-width:2; stroke-opacity:0.1; fill:none" points="
  219.38,410.71 2352.76,410.71 
  "/>
<polyline clip-path="url(#clip322)" style="stroke:#000000; stroke-linecap:butt; stroke-linejoin:round; stroke-width:2; stroke-opacity:0.1; fill:none" points="
  219.38,86.1857 2352.76,86.1857 
  "/>
<polyline clip-path="url(#clip320)" style="stroke:#000000; stroke-linecap:butt; stroke-linejoin:round; stroke-width:4; stroke-opacity:1; fill:none" points="
  219.38,1423.18 219.38,47.2441 
  "/>
<polyline clip-path="url(#clip320)" style="stroke:#000000; stroke-linecap:butt; stroke-linejoin:round; stroke-width:4; stroke-opacity:1; fill:none" points="
  219.38,1384.28 238.278,1384.28 
  "/>
<polyline clip-path="url(#clip320)" style="stroke:#000000; stroke-linecap:butt; stroke-linejoin:round; stroke-width:4; stroke-opacity:1; fill:none" points="
  219.38,1059.76 238.278,1059.76 
  "/>
<polyline clip-path="url(#clip320)" style="stroke:#000000; stroke-linecap:butt; stroke-linejoin:round; stroke-width:4; stroke-opacity:1; fill:none" points="
  219.38,735.234 238.278,735.234 
  "/>
<polyline clip-path="url(#clip320)" style="stroke:#000000; stroke-linecap:butt; stroke-linejoin:round; stroke-width:4; stroke-opacity:1; fill:none" points="
  219.38,410.71 238.278,410.71 
  "/>
<polyline clip-path="url(#clip320)" style="stroke:#000000; stroke-linecap:butt; stroke-linejoin:round; stroke-width:4; stroke-opacity:1; fill:none" points="
  219.38,86.1857 238.278,86.1857 
  "/>
<path clip-path="url(#clip320)" d="M126.205 1370.08 Q122.593 1370.08 120.765 1373.65 Q118.959 1377.19 118.959 1384.32 Q118.959 1391.42 120.765 1394.99 Q122.593 1398.53 126.205 1398.53 Q129.839 1398.53 131.644 1394.99 Q133.473 1391.42 133.473 1384.32 Q133.473 1377.19 131.644 1373.65 Q129.839 1370.08 126.205 1370.08 M126.205 1366.38 Q132.015 1366.38 135.07 1370.98 Q138.149 1375.57 138.149 1384.32 Q138.149 1393.04 135.07 1397.65 Q132.015 1402.23 126.205 1402.23 Q120.394 1402.23 117.316 1397.65 Q114.26 1393.04 114.26 1384.32 Q114.26 1375.57 117.316 1370.98 Q120.394 1366.38 126.205 1366.38 Z" fill="#000000" fill-rule="evenodd" fill-opacity="1" /><path clip-path="url(#clip320)" d="M146.366 1395.68 L151.251 1395.68 L151.251 1401.56 L146.366 1401.56 L146.366 1395.68 Z" fill="#000000" fill-rule="evenodd" fill-opacity="1" /><path clip-path="url(#clip320)" d="M171.436 1370.08 Q167.825 1370.08 165.996 1373.65 Q164.19 1377.19 164.19 1384.32 Q164.19 1391.42 165.996 1394.99 Q167.825 1398.53 171.436 1398.53 Q175.07 1398.53 176.876 1394.99 Q178.704 1391.42 178.704 1384.32 Q178.704 1377.19 176.876 1373.65 Q175.07 1370.08 171.436 1370.08 M171.436 1366.38 Q177.246 1366.38 180.301 1370.98 Q183.38 1375.57 183.38 1384.32 Q183.38 1393.04 180.301 1397.65 Q177.246 1402.23 171.436 1402.23 Q165.626 1402.23 162.547 1397.65 Q159.491 1393.04 159.491 1384.32 Q159.491 1375.57 162.547 1370.98 Q165.626 1366.38 171.436 1366.38 Z" fill="#000000" fill-rule="evenodd" fill-opacity="1" /><path clip-path="url(#clip320)" d="M127.2 1045.56 Q123.589 1045.56 121.76 1049.12 Q119.955 1052.66 119.955 1059.79 Q119.955 1066.9 121.76 1070.46 Q123.589 1074.01 127.2 1074.01 Q130.834 1074.01 132.64 1070.46 Q134.468 1066.9 134.468 1059.79 Q134.468 1052.66 132.64 1049.12 Q130.834 1045.56 127.2 1045.56 M127.2 1041.85 Q133.01 1041.85 136.066 1046.46 Q139.144 1051.04 139.144 1059.79 Q139.144 1068.52 136.066 1073.13 Q133.01 1077.71 127.2 1077.71 Q121.39 1077.71 118.311 1073.13 Q115.256 1068.52 115.256 1059.79 Q115.256 1051.04 118.311 1046.46 Q121.39 1041.85 127.2 1041.85 Z" fill="#000000" fill-rule="evenodd" fill-opacity="1" /><path clip-path="url(#clip320)" d="M147.362 1071.16 L152.246 1071.16 L152.246 1077.04 L147.362 1077.04 L147.362 1071.16 Z" fill="#000000" fill-rule="evenodd" fill-opacity="1" /><path clip-path="url(#clip320)" d="M162.477 1042.48 L180.834 1042.48 L180.834 1046.41 L166.76 1046.41 L166.76 1054.88 Q167.778 1054.54 168.797 1054.38 Q169.815 1054.19 170.834 1054.19 Q176.621 1054.19 180.001 1057.36 Q183.38 1060.53 183.38 1065.95 Q183.38 1071.53 179.908 1074.63 Q176.436 1077.71 170.116 1077.71 Q167.94 1077.71 165.672 1077.34 Q163.427 1076.97 161.019 1076.23 L161.019 1071.53 Q163.102 1072.66 165.325 1073.22 Q167.547 1073.77 170.024 1073.77 Q174.028 1073.77 176.366 1071.67 Q178.704 1069.56 178.704 1065.95 Q178.704 1062.34 176.366 1060.23 Q174.028 1058.13 170.024 1058.13 Q168.149 1058.13 166.274 1058.54 Q164.422 1058.96 162.477 1059.84 L162.477 1042.48 Z" fill="#000000" fill-rule="evenodd" fill-opacity="1" /><path clip-path="url(#clip320)" d="M117.015 748.578 L124.654 748.578 L124.654 722.213 L116.343 723.879 L116.343 719.62 L124.607 717.954 L129.283 717.954 L129.283 748.578 L136.922 748.578 L136.922 752.514 L117.015 752.514 L117.015 748.578 Z" fill="#000000" fill-rule="evenodd" fill-opacity="1" /><path clip-path="url(#clip320)" d="M146.366 746.634 L151.251 746.634 L151.251 752.514 L146.366 752.514 L146.366 746.634 Z" fill="#000000" fill-rule="evenodd" fill-opacity="1" /><path clip-path="url(#clip320)" d="M171.436 721.032 Q167.825 721.032 165.996 724.597 Q164.19 728.139 164.19 735.268 Q164.19 742.375 165.996 745.94 Q167.825 749.481 171.436 749.481 Q175.07 749.481 176.876 745.94 Q178.704 742.375 178.704 735.268 Q178.704 728.139 176.876 724.597 Q175.07 721.032 171.436 721.032 M171.436 717.329 Q177.246 717.329 180.301 721.935 Q183.38 726.518 183.38 735.268 Q183.38 743.995 180.301 748.602 Q177.246 753.185 171.436 753.185 Q165.626 753.185 162.547 748.602 Q159.491 743.995 159.491 735.268 Q159.491 726.518 162.547 721.935 Q165.626 717.329 171.436 717.329 Z" fill="#000000" fill-rule="evenodd" fill-opacity="1" /><path clip-path="url(#clip320)" d="M118.01 424.054 L125.649 424.054 L125.649 397.689 L117.339 399.356 L117.339 395.096 L125.603 393.43 L130.279 393.43 L130.279 424.054 L137.917 424.054 L137.917 427.99 L118.01 427.99 L118.01 424.054 Z" fill="#000000" fill-rule="evenodd" fill-opacity="1" /><path clip-path="url(#clip320)" d="M147.362 422.11 L152.246 422.11 L152.246 427.99 L147.362 427.99 L147.362 422.11 Z" fill="#000000" fill-rule="evenodd" fill-opacity="1" /><path clip-path="url(#clip320)" d="M162.477 393.43 L180.834 393.43 L180.834 397.365 L166.76 397.365 L166.76 405.837 Q167.778 405.49 168.797 405.328 Q169.815 405.143 170.834 405.143 Q176.621 405.143 180.001 408.314 Q183.38 411.485 183.38 416.902 Q183.38 422.48 179.908 425.582 Q176.436 428.661 170.116 428.661 Q167.94 428.661 165.672 428.291 Q163.427 427.92 161.019 427.179 L161.019 422.48 Q163.102 423.615 165.325 424.17 Q167.547 424.726 170.024 424.726 Q174.028 424.726 176.366 422.619 Q178.704 420.513 178.704 416.902 Q178.704 413.291 176.366 411.184 Q174.028 409.078 170.024 409.078 Q168.149 409.078 166.274 409.494 Q164.422 409.911 162.477 410.791 L162.477 393.43 Z" fill="#000000" fill-rule="evenodd" fill-opacity="1" /><path clip-path="url(#clip320)" d="M120.232 99.5305 L136.552 99.5305 L136.552 103.466 L114.607 103.466 L114.607 99.5305 Q117.269 96.7759 121.853 92.1463 Q126.459 87.4935 127.64 86.151 Q129.885 83.6278 130.765 81.8917 Q131.667 80.1325 131.667 78.4427 Q131.667 75.688 129.723 73.9519 Q127.802 72.2158 124.7 72.2158 Q122.501 72.2158 120.047 72.9797 Q117.617 73.7436 114.839 75.2945 L114.839 70.5723 Q117.663 69.4381 120.117 68.8594 Q122.57 68.2807 124.607 68.2807 Q129.978 68.2807 133.172 70.9658 Q136.367 73.651 136.367 78.1417 Q136.367 80.2714 135.556 82.1926 Q134.769 84.0908 132.663 86.6834 Q132.084 87.3546 128.982 90.5722 Q125.88 93.7667 120.232 99.5305 Z" fill="#000000" fill-rule="evenodd" fill-opacity="1" /><path clip-path="url(#clip320)" d="M146.366 97.5861 L151.251 97.5861 L151.251 103.466 L146.366 103.466 L146.366 97.5861 Z" fill="#000000" fill-rule="evenodd" fill-opacity="1" /><path clip-path="url(#clip320)" d="M171.436 71.9844 Q167.825 71.9844 165.996 75.5492 Q164.19 79.0908 164.19 86.2204 Q164.19 93.3268 165.996 96.8916 Q167.825 100.433 171.436 100.433 Q175.07 100.433 176.876 96.8916 Q178.704 93.3268 178.704 86.2204 Q178.704 79.0908 176.876 75.5492 Q175.07 71.9844 171.436 71.9844 M171.436 68.2807 Q177.246 68.2807 180.301 72.8871 Q183.38 77.4704 183.38 86.2204 Q183.38 94.9472 180.301 99.5537 Q177.246 104.137 171.436 104.137 Q165.626 104.137 162.547 99.5537 Q159.491 94.9472 159.491 86.2204 Q159.491 77.4704 162.547 72.8871 Q165.626 68.2807 171.436 68.2807 Z" fill="#000000" fill-rule="evenodd" fill-opacity="1" /><path clip-path="url(#clip320)" d="M21.7677 848.522 L58.7206 848.522 L58.7206 840.755 Q58.7206 830.92 54.2646 826.369 Q49.8086 821.786 40.1964 821.786 Q30.6479 821.786 26.2237 826.369 Q21.7677 830.92 21.7677 840.755 L21.7677 848.522 M16.4842 854.951 L16.4842 841.742 Q16.4842 827.928 22.2451 821.467 Q27.9743 815.006 40.1964 815.006 Q52.4822 815.006 58.2432 821.499 Q64.0042 827.992 64.0042 841.742 L64.0042 854.951 L16.4842 854.951 Z" fill="#000000" fill-rule="evenodd" fill-opacity="1" /><path clip-path="url(#clip320)" d="M44.7161 774.52 L47.5806 774.52 L47.5806 801.447 Q53.6281 801.065 56.8109 797.819 Q59.9619 794.54 59.9619 788.716 Q59.9619 785.342 59.1344 782.191 Q58.3069 779.008 56.6518 775.889 L62.1899 775.889 Q63.5267 779.04 64.227 782.35 Q64.9272 785.66 64.9272 789.066 Q64.9272 797.596 59.9619 802.593 Q54.9967 807.558 46.5303 807.558 Q37.7774 807.558 32.6531 802.848 Q27.4968 798.105 27.4968 790.084 Q27.4968 782.891 32.1438 778.722 Q36.7589 774.52 44.7161 774.52 M42.9973 780.377 Q38.1912 780.44 35.3266 783.082 Q32.4621 785.692 32.4621 790.021 Q32.4621 794.922 35.2312 797.882 Q38.0002 800.811 43.0292 801.256 L42.9973 780.377 Z" fill="#000000" fill-rule="evenodd" fill-opacity="1" /><path clip-path="url(#clip320)" d="M42.4881 735.276 L64.0042 735.276 L64.0042 741.132 L42.679 741.132 Q37.6183 741.132 35.1038 743.105 Q32.5894 745.079 32.5894 749.026 Q32.5894 753.768 35.6131 756.505 Q38.6368 759.243 43.8567 759.243 L64.0042 759.243 L64.0042 765.131 L28.3562 765.131 L28.3562 759.243 L33.8944 759.243 Q30.6797 757.142 29.0883 754.309 Q27.4968 751.445 27.4968 747.721 Q27.4968 741.578 31.3163 738.427 Q35.1038 735.276 42.4881 735.276 Z" fill="#000000" fill-rule="evenodd" fill-opacity="1" /><path clip-path="url(#clip320)" d="M29.4065 700.869 L34.9447 700.869 Q33.6716 703.352 33.035 706.025 Q32.3984 708.699 32.3984 711.563 Q32.3984 715.924 33.7352 718.12 Q35.072 720.284 37.7456 720.284 Q39.7826 720.284 40.9603 718.725 Q42.1061 717.165 43.1565 712.455 L43.6021 710.449 Q44.9389 704.211 47.3897 701.601 Q49.8086 698.959 54.1691 698.959 Q59.1344 698.959 62.0308 702.906 Q64.9272 706.821 64.9272 713.696 Q64.9272 716.56 64.3543 719.68 Q63.8132 722.767 62.6992 726.204 L56.6518 726.204 Q58.3387 722.958 59.198 719.807 Q60.0256 716.656 60.0256 713.569 Q60.0256 709.431 58.6251 707.203 Q57.1929 704.975 54.6147 704.975 Q52.2276 704.975 50.9545 706.598 Q49.6813 708.19 48.5037 713.632 L48.0262 715.669 Q46.8804 721.112 44.5251 723.531 Q42.138 725.95 38.0002 725.95 Q32.9713 725.95 30.2341 722.385 Q27.4968 718.82 27.4968 712.264 Q27.4968 709.017 27.9743 706.153 Q28.4517 703.288 29.4065 700.869 Z" fill="#000000" fill-rule="evenodd" fill-opacity="1" /><path clip-path="url(#clip320)" d="M28.3562 689.634 L28.3562 683.777 L64.0042 683.777 L64.0042 689.634 L28.3562 689.634 M14.479 689.634 L14.479 683.777 L21.895 683.777 L21.895 689.634 L14.479 689.634 Z" fill="#000000" fill-rule="evenodd" fill-opacity="1" /><path clip-path="url(#clip320)" d="M18.2347 665.73 L28.3562 665.73 L28.3562 653.667 L32.9077 653.667 L32.9077 665.73 L52.2594 665.73 Q56.6199 665.73 57.8613 664.553 Q59.1026 663.343 59.1026 659.683 L59.1026 653.667 L64.0042 653.667 L64.0042 659.683 Q64.0042 666.462 61.4897 669.04 Q58.9434 671.619 52.2594 671.619 L32.9077 671.619 L32.9077 675.915 L28.3562 675.915 L28.3562 671.619 L18.2347 671.619 L18.2347 665.73 Z" fill="#000000" fill-rule="evenodd" fill-opacity="1" /><path clip-path="url(#clip320)" d="M67.3143 631.133 Q73.68 633.615 75.6216 635.971 Q77.5631 638.326 77.5631 642.273 L77.5631 646.951 L72.6615 646.951 L72.6615 643.514 Q72.6615 641.095 71.5157 639.758 Q70.3699 638.421 66.1048 636.798 L63.4312 635.748 L28.3562 650.166 L28.3562 643.96 L56.238 632.82 L28.3562 621.68 L28.3562 615.473 L67.3143 631.133 Z" fill="#000000" fill-rule="evenodd" fill-opacity="1" /><polyline clip-path="url(#clip322)" style="stroke:#009af9; stroke-linecap:butt; stroke-linejoin:round; stroke-width:20; stroke-opacity:1; fill:none" points="
  219.38,735.234 230.041,749.666 240.701,763.777 251.362,777.574 262.022,791.065 311.308,849.638 360.594,902.429 409.88,950.007 459.166,992.887 508.453,1031.53 
  557.739,1066.36 607.025,1097.75 656.311,1126.05 715.548,1156.38 774.786,1183.15 834.024,1206.77 893.262,1227.62 993.431,1257.46 1093.6,1281.62 1202.41,1302.67 
  1311.22,1319.41 1411.54,1331.78 1511.85,1341.79 1726.95,1357.29 1976.16,1368.33 2197.63,1374.28 2391.84,1377.64 2603.58,1380.03 2816.58,1381.57 3052.07,1382.63 
  3276.14,1383.25 3509.12,1383.65 3705.24,1383.87 3944.68,1384.03 4169.76,1384.13 4530.36,1384.21 4585.85,1384.22 
  "/>
<polyline clip-path="url(#clip322)" style="stroke:#e26f46; stroke-linecap:butt; stroke-linejoin:round; stroke-width:20; stroke-opacity:1; fill:none" points="
  219.38,86.1857 224.71,115.05 230.041,143.272 235.371,170.867 240.701,197.848 265.344,314.995 289.987,420.576 314.63,515.731 339.273,601.491 363.916,678.784 
  388.559,748.444 413.202,811.226 437.845,867.809 467.464,928.474 497.083,982.014 526.702,1029.26 556.321,1070.97 606.406,1130.64 656.49,1178.95 710.896,1221.06 
  765.302,1254.53 815.46,1279.28 865.618,1299.3 973.166,1330.3 1097.77,1352.37 1208.51,1364.28 1305.61,1371 1411.48,1375.79 1517.98,1378.86 1635.73,1380.98 
  1747.76,1382.23 1864.25,1383.02 1962.31,1383.45 2082.03,1383.78 2194.57,1383.97 2374.87,1384.14 2402.62,1384.15 
  "/>
<polyline clip-path="url(#clip322)" style="stroke:#3da44d; stroke-linecap:butt; stroke-linejoin:round; stroke-width:20; stroke-opacity:1; fill:none" points="
  219.38,951.583 235.371,961.204 251.362,970.612 267.353,979.81 283.343,988.804 357.272,1027.85 431.202,1063.05 505.131,1094.76 579.06,1123.35 652.989,1149.12 
  726.918,1172.34 800.847,1193.26 874.776,1212.12 963.632,1232.35 1052.49,1250.19 1141.35,1265.94 1230.2,1279.84 1380.46,1299.73 1530.71,1315.84 1693.93,1329.87 
  1857.15,1341.03 2007.62,1349.28 2158.09,1355.96 2480.74,1366.29 2854.55,1373.64 3186.76,1377.61 3478.07,1379.86 3795.68,1381.45 4115.18,1382.47 4468.42,1383.18 
  4804.52,1383.6 5153.99,1383.86 5448.17,1384 5807.33,1384.11 6144.95,1384.18 6685.84,1384.23 6769.09,1384.24 
  "/>
<path clip-path="url(#clip320)" d="
M1892.68 300.469 L2281.64 300.469 L2281.64 93.1086 L1892.68 93.1086  Z
  " fill="#ffffff" fill-rule="evenodd" fill-opacity="1"/>
<polyline clip-path="url(#clip320)" style="stroke:#000000; stroke-linecap:butt; stroke-linejoin:round; stroke-width:4; stroke-opacity:1; fill:none" points="
  1892.68,300.469 2281.64,300.469 2281.64,93.1086 1892.68,93.1086 1892.68,300.469 
  "/>
<polyline clip-path="url(#clip320)" style="stroke:#009af9; stroke-linecap:butt; stroke-linejoin:round; stroke-width:4; stroke-opacity:1; fill:none" points="
  1916.38,144.949 2058.61,144.949 
  "/>
<path clip-path="url(#clip320)" d="M2106.04 168.072 Q2106.04 168.517 2105.52 168.563 L2104.47 168.563 Q2103.39 168.563 2102.92 168.399 Q2102.46 168.235 2101.92 167.486 Q2101.59 167.018 2100.77 164.839 Q2099.97 162.638 2098.8 159.312 Q2097.65 155.986 2096.88 154.018 L2085.33 167.65 Q2084.54 168.657 2083.74 168.657 Q2083.16 168.657 2082.73 168.259 Q2082.31 167.861 2082.31 167.252 Q2082.31 166.807 2082.48 166.549 Q2082.66 166.291 2083.16 165.776 L2096.41 152.636 L2091.75 139.59 Q2090.86 137.177 2090.35 136.568 Q2089.85 135.959 2088.64 135.749 Q2088.19 135.631 2088.19 135.257 Q2088.19 134.741 2089.06 134.741 Q2093.7 134.741 2094.91 138.138 L2104.7 165.425 Q2105.24 166.994 2105.8 167.65 Q2106.04 167.954 2106.04 168.072 Z" fill="#000000" fill-rule="evenodd" fill-opacity="1" /><path clip-path="url(#clip320)" d="M2123.29 160.74 Q2123.33 160.155 2124.25 160.155 L2153.64 160.155 Q2155.02 160.155 2155.05 160.693 Q2155.05 161.279 2153.74 161.256 L2124.57 161.256 Q2123.29 161.279 2123.29 160.74 M2123.29 151.371 Q2123.29 150.786 2124.29 150.809 L2153.59 150.809 Q2155.02 150.809 2155.05 151.371 Q2155.05 151.91 2153.83 151.91 L2124.25 151.91 Q2123.29 151.91 2123.29 151.371 Z" fill="#000000" fill-rule="evenodd" fill-opacity="1" /><path clip-path="url(#clip320)" d="M2173.54 140.644 L2173.54 139.145 Q2179.3 139.145 2182.27 136.076 Q2183.09 136.076 2183.23 136.264 Q2183.38 136.451 2183.38 137.318 L2183.38 164.23 Q2183.38 165.659 2184.08 166.104 Q2184.78 166.549 2187.85 166.549 L2189.37 166.549 L2189.37 168.025 Q2187.69 167.884 2181.6 167.884 Q2175.51 167.884 2173.84 168.025 L2173.84 166.549 L2175.36 166.549 Q2178.39 166.549 2179.11 166.127 Q2179.84 165.682 2179.84 164.23 L2179.84 139.379 Q2177.33 140.644 2173.54 140.644 Z" fill="#000000" fill-rule="evenodd" fill-opacity="1" /><polyline clip-path="url(#clip320)" style="stroke:#e26f46; stroke-linecap:butt; stroke-linejoin:round; stroke-width:4; stroke-opacity:1; fill:none" points="
  1916.38,196.789 2058.61,196.789 
  "/>
<path clip-path="url(#clip320)" d="M2106.04 219.701 Q2106.04 220.146 2105.52 220.192 L2104.47 220.192 Q2103.39 220.192 2102.92 220.029 Q2102.46 219.865 2101.92 219.115 Q2101.59 218.647 2100.77 216.468 Q2099.97 214.267 2098.8 210.941 Q2097.65 207.615 2096.88 205.647 L2085.33 219.279 Q2084.54 220.286 2083.74 220.286 Q2083.16 220.286 2082.73 219.888 Q2082.31 219.49 2082.31 218.881 Q2082.31 218.436 2082.48 218.178 Q2082.66 217.92 2083.16 217.405 L2096.41 204.265 L2091.75 191.219 Q2090.86 188.806 2090.35 188.197 Q2089.85 187.588 2088.64 187.378 Q2088.19 187.261 2088.19 186.886 Q2088.19 186.37 2089.06 186.37 Q2093.7 186.37 2094.91 189.767 L2104.7 217.054 Q2105.24 218.623 2105.8 219.279 Q2106.04 219.583 2106.04 219.701 Z" fill="#000000" fill-rule="evenodd" fill-opacity="1" /><path clip-path="url(#clip320)" d="M2123.29 212.369 Q2123.33 211.784 2124.25 211.784 L2153.64 211.784 Q2155.02 211.784 2155.05 212.323 Q2155.05 212.908 2153.74 212.885 L2124.57 212.885 Q2123.29 212.908 2123.29 212.369 M2123.29 203 Q2123.29 202.415 2124.29 202.438 L2153.59 202.438 Q2155.02 202.438 2155.05 203 Q2155.05 203.539 2153.83 203.539 L2124.25 203.539 Q2123.29 203.539 2123.29 203 Z" fill="#000000" fill-rule="evenodd" fill-opacity="1" /><path clip-path="url(#clip320)" d="M2173.54 204.312 Q2173.54 197.262 2175.32 193.421 Q2177.8 187.706 2183.66 187.706 Q2184.9 187.706 2186.19 188.057 Q2187.5 188.385 2189.14 189.673 Q2190.8 190.961 2191.81 193.069 Q2193.73 197.145 2193.73 204.312 Q2193.73 211.315 2191.95 215.133 Q2189.35 220.708 2183.61 220.708 Q2181.45 220.708 2179.25 219.607 Q2177.07 218.506 2175.69 215.859 Q2173.54 211.901 2173.54 204.312 M2177.52 203.726 Q2177.52 210.964 2178.04 213.845 Q2178.62 216.96 2180.21 218.319 Q2181.83 219.654 2183.61 219.654 Q2185.53 219.654 2187.12 218.225 Q2188.74 216.773 2189.23 213.658 Q2189.77 210.589 2189.75 203.726 Q2189.75 197.051 2189.28 194.381 Q2188.65 191.266 2186.96 190.024 Q2185.3 188.76 2183.61 188.76 Q2182.98 188.76 2182.3 188.947 Q2181.64 189.134 2180.68 189.673 Q2179.72 190.212 2178.97 191.547 Q2178.25 192.882 2177.89 194.896 Q2177.52 197.496 2177.52 203.726 Z" fill="#000000" fill-rule="evenodd" fill-opacity="1" /><path clip-path="url(#clip320)" d="M2198.01 218.881 Q2197.29 218.108 2197.29 217.101 Q2197.29 216.094 2198.01 215.367 Q2198.74 214.618 2199.84 214.618 Q2200.9 214.618 2201.6 215.321 Q2202.32 216 2202.32 217.124 Q2202.32 218.225 2201.55 218.951 Q2200.8 219.654 2199.84 219.654 Q2198.74 219.654 2198.01 218.881 Z" fill="#000000" fill-rule="evenodd" fill-opacity="1" /><path clip-path="url(#clip320)" d="M2210.49 211.924 Q2210.49 210.496 2211.26 209.957 Q2212.03 209.395 2212.85 209.395 Q2213.95 209.395 2214.58 210.097 Q2215.24 210.777 2215.24 211.737 Q2215.24 212.697 2214.58 213.4 Q2213.95 214.079 2212.85 214.079 Q2212.31 214.079 2212.03 213.986 Q2212.66 216.187 2214.58 217.78 Q2216.53 219.373 2219.08 219.373 Q2222.29 219.373 2224.21 216.257 Q2225.36 214.243 2225.36 209.676 Q2225.36 205.647 2224.49 203.633 Q2223.16 200.564 2220.42 200.564 Q2216.53 200.564 2214.23 203.914 Q2213.95 204.335 2213.62 204.359 Q2213.16 204.359 2213.04 204.101 Q2212.94 203.82 2212.94 203.094 L2212.94 188.9 Q2212.94 187.752 2213.41 187.752 Q2213.6 187.752 2214 187.893 Q2217.02 189.228 2220.37 189.251 Q2223.81 189.251 2226.9 187.846 Q2227.14 187.706 2227.28 187.706 Q2227.75 187.706 2227.77 188.244 Q2227.77 188.432 2227.37 188.994 Q2227 189.532 2226.18 190.259 Q2225.36 190.961 2224.3 191.641 Q2223.25 192.32 2221.7 192.788 Q2220.18 193.233 2218.5 193.233 Q2216.48 193.233 2214.42 192.601 L2214.42 201.946 Q2216.9 199.51 2220.51 199.51 Q2224.35 199.51 2227 202.602 Q2229.64 205.694 2229.64 210.004 Q2229.64 214.524 2226.51 217.616 Q2223.39 220.708 2219.17 220.708 Q2215.33 220.708 2212.9 217.967 Q2210.49 215.227 2210.49 211.924 Z" fill="#000000" fill-rule="evenodd" fill-opacity="1" /><polyline clip-path="url(#clip320)" style="stroke:#3da44d; stroke-linecap:butt; stroke-linejoin:round; stroke-width:4; stroke-opacity:1; fill:none" points="
  1916.38,248.629 2058.61,248.629 
  "/>
<path clip-path="url(#clip320)" d="M2106.04 271.752 Q2106.04 272.197 2105.52 272.243 L2104.47 272.243 Q2103.39 272.243 2102.92 272.079 Q2102.46 271.915 2101.92 271.166 Q2101.59 270.698 2100.77 268.519 Q2099.97 266.318 2098.8 262.992 Q2097.65 259.666 2096.88 257.698 L2085.33 271.33 Q2084.54 272.337 2083.74 272.337 Q2083.16 272.337 2082.73 271.939 Q2082.31 271.541 2082.31 270.932 Q2082.31 270.487 2082.48 270.229 Q2082.66 269.971 2083.16 269.456 L2096.41 256.316 L2091.75 243.27 Q2090.86 240.857 2090.35 240.248 Q2089.85 239.639 2088.64 239.429 Q2088.19 239.311 2088.19 238.937 Q2088.19 238.421 2089.06 238.421 Q2093.7 238.421 2094.91 241.818 L2104.7 269.105 Q2105.24 270.674 2105.8 271.33 Q2106.04 271.634 2106.04 271.752 Z" fill="#000000" fill-rule="evenodd" fill-opacity="1" /><path clip-path="url(#clip320)" d="M2123.29 264.42 Q2123.33 263.835 2124.25 263.835 L2153.64 263.835 Q2155.02 263.835 2155.05 264.373 Q2155.05 264.959 2153.74 264.936 L2124.57 264.936 Q2123.29 264.959 2123.29 264.42 M2123.29 255.051 Q2123.29 254.466 2124.29 254.489 L2153.59 254.489 Q2155.02 254.489 2155.05 255.051 Q2155.05 255.59 2153.83 255.59 L2124.25 255.59 Q2123.29 255.59 2123.29 255.051 Z" fill="#000000" fill-rule="evenodd" fill-opacity="1" /><path clip-path="url(#clip320)" d="M2173.54 271.705 Q2173.54 270.838 2173.61 270.58 Q2173.7 270.323 2174.08 269.925 L2183.28 259.666 Q2188.32 253.997 2188.32 249.055 Q2188.32 245.846 2186.63 243.551 Q2184.97 241.256 2181.9 241.256 Q2179.79 241.256 2178.01 242.544 Q2176.23 243.832 2175.41 246.127 Q2175.55 246.081 2176.04 246.081 Q2177.24 246.081 2177.89 246.83 Q2178.57 247.58 2178.57 248.587 Q2178.57 249.875 2177.73 250.507 Q2176.91 251.116 2176.09 251.116 Q2175.76 251.116 2175.32 251.046 Q2174.9 250.976 2174.22 250.32 Q2173.54 249.641 2173.54 248.446 Q2173.54 245.097 2176.07 242.427 Q2178.62 239.756 2182.51 239.756 Q2186.91 239.756 2189.79 242.38 Q2192.7 244.98 2192.7 249.055 Q2192.7 250.484 2192.25 251.796 Q2191.83 253.084 2191.25 254.091 Q2190.68 255.098 2189.14 256.714 Q2187.59 258.33 2186.35 259.478 Q2185.11 260.626 2182.32 263.062 L2177.24 268.004 L2185.88 268.004 Q2190.1 268.004 2190.43 267.629 Q2190.89 266.95 2191.48 263.366 L2192.7 263.366 L2191.34 271.705 L2173.54 271.705 Z" fill="#000000" fill-rule="evenodd" fill-opacity="1" /></svg>
