<?xml version="1.0" encoding="utf-8"?>
<svg xmlns="http://www.w3.org/2000/svg" xmlns:xlink="http://www.w3.org/1999/xlink" width="600" height="400" viewBox="0 0 2400 1600">
<defs>
  <clipPath id="clip260">
    <rect x="0" y="0" width="2400" height="1600"/>
  </clipPath>
</defs>
<path clip-path="url(#clip260)" d="
M0 1600 L2400 1600 L2400 0 L0 0  Z
  " fill="#ffffff" fill-rule="evenodd" fill-opacity="1"/>
<defs>
  <clipPath id="clip261">
    <rect x="480" y="0" width="1681" height="1600"/>
  </clipPath>
</defs>
<defs>
  <clipPath id="clip262">
    <rect x="219" y="47" width="2134" height="1377"/>
  </clipPath>
</defs>
<path clip-path="url(#clip260)" d="
M219.866 1423.18 L2352.76 1423.18 L2352.76 47.2441 L219.866 47.2441  Z
  " fill="#ffffff" fill-rule="evenodd" fill-opacity="1"/>
<polyline clip-path="url(#clip262)" style="stroke:#000000; stroke-linecap:butt; stroke-linejoin:round; stroke-width:2; stroke-opacity:0.1; fill:none" points="
  219.866,1423.18 219.866,47.2441 
  "/>
<polyline clip-path="url(#clip262)" style="stroke:#000000; stroke-linecap:butt; stroke-linejoin:round; stroke-width:2; stroke-opacity:0.1; fill:none" points="
  753.089,1423.18 753.089,47.2441 
  "/>
<polyline clip-path="url(#clip262)" style="stroke:#000000; stroke-linecap:butt; stroke-linejoin:round; stroke-width:2; stroke-opacity:0.1; fill:none" points="
  1286.31,1423.18 1286.31,47.2441 
  "/>
<polyline clip-path="url(#clip262)" style="stroke:#000000; stroke-linecap:butt; stroke-linejoin:round; stroke-width:2; stroke-opacity:0.1; fill:none" points="
  1819.53,1423.18 1819.53,47.2441 
  "/>
<polyline clip-path="url(#clip262)" style="stroke:#000000; stroke-linecap:butt; stroke-linejoin:round; stroke-width:2; stroke-opacity:0.1; fill:none" points="
  2352.76,1423.18 2352.76,47.2441 
  "/>
<polyline clip-path="url(#clip260)" style="stroke:#000000; stroke-linecap:butt; stroke-linejoin:round; stroke-width:4; stroke-opacity:1; fill:none" points="
  219.866,1423.18 2352.76,1423.18 
  "/>
<polyline clip-path="url(#clip260)" style="stroke:#000000; stroke-linecap:butt; stroke-linejoin:round; stroke-width:4; stroke-opacity:1; fill:none" points="
  219.866,1423.18 219.866,1404.28 
  "/>
<polyline clip-path="url(#clip260)" style="stroke:#000000; stroke-linecap:butt; stroke-linejoin:round; stroke-width:4; stroke-opacity:1; fill:none" points="
  753.089,1423.18 753.089,1404.28 
  "/>
<polyline clip-path="url(#clip260)" style="stroke:#000000; stroke-linecap:butt; stroke-linejoin:round; stroke-width:4; stroke-opacity:1; fill:none" points="
  1286.31,1423.18 1286.31,1404.28 
  "/>
<polyline clip-path="url(#clip260)" style="stroke:#000000; stroke-linecap:butt; stroke-linejoin:round; stroke-width:4; stroke-opacity:1; fill:none" points="
  1819.53,1423.18 1819.53,1404.28 
  "/>
<polyline clip-path="url(#clip260)" style="stroke:#000000; stroke-linecap:butt; stroke-linejoin:round; stroke-width:4; stroke-opacity:1; fill:none" points="
  2352.76,1423.18 2352.76,1404.28 
  "/>
<path clip-path="url(#clip260)" d="M188.767 1468.75 L218.443 1468.75 L218.443 1472.69 L188.767 1472.69 L188.767 1468.75 Z" fill="#000000" fill-rule="evenodd" fill-opacity="1" /><path clip-path="url(#clip260)" d="M241.382 1455.09 L229.577 1473.54 L241.382 1473.54 L241.382 1455.09 M240.156 1451.02 L246.035 1451.02 L246.035 1473.54 L250.966 1473.54 L250.966 1477.43 L246.035 1477.43 L246.035 1485.58 L241.382 1485.58 L241.382 1477.43 L225.781 1477.43 L225.781 1472.92 L240.156 1451.02 Z" fill="#000000" fill-rule="evenodd" fill-opacity="1" /><path clip-path="url(#clip260)" d="M723.031 1468.75 L752.707 1468.75 L752.707 1472.69 L723.031 1472.69 L723.031 1468.75 Z" fill="#000000" fill-rule="evenodd" fill-opacity="1" /><path clip-path="url(#clip260)" d="M766.827 1481.64 L783.146 1481.64 L783.146 1485.58 L761.202 1485.58 L761.202 1481.64 Q763.864 1478.89 768.447 1474.26 Q773.054 1469.61 774.234 1468.27 Q776.48 1465.74 777.359 1464.01 Q778.262 1462.25 778.262 1460.56 Q778.262 1457.8 776.318 1456.07 Q774.396 1454.33 771.295 1454.33 Q769.096 1454.33 766.642 1455.09 Q764.211 1455.86 761.434 1457.41 L761.434 1452.69 Q764.258 1451.55 766.711 1450.97 Q769.165 1450.39 771.202 1450.39 Q776.572 1450.39 779.767 1453.08 Q782.961 1455.77 782.961 1460.26 Q782.961 1462.39 782.151 1464.31 Q781.364 1466.2 779.258 1468.8 Q778.679 1469.47 775.577 1472.69 Q772.475 1475.88 766.827 1481.64 Z" fill="#000000" fill-rule="evenodd" fill-opacity="1" /><path clip-path="url(#clip260)" d="M1286.31 1454.1 Q1282.7 1454.1 1280.87 1457.66 Q1279.07 1461.2 1279.07 1468.33 Q1279.07 1475.44 1280.87 1479.01 Q1282.7 1482.55 1286.31 1482.55 Q1289.95 1482.55 1291.75 1479.01 Q1293.58 1475.44 1293.58 1468.33 Q1293.58 1461.2 1291.75 1457.66 Q1289.95 1454.1 1286.31 1454.1 M1286.31 1450.39 Q1292.12 1450.39 1295.18 1455 Q1298.26 1459.58 1298.26 1468.33 Q1298.26 1477.06 1295.18 1481.67 Q1292.12 1486.25 1286.31 1486.25 Q1280.5 1486.25 1277.42 1481.67 Q1274.37 1477.06 1274.37 1468.33 Q1274.37 1459.58 1277.42 1455 Q1280.5 1450.39 1286.31 1450.39 Z" fill="#000000" fill-rule="evenodd" fill-opacity="1" /><path clip-path="url(#clip260)" d="M1814.19 1481.64 L1830.51 1481.64 L1830.51 1485.58 L1808.56 1485.58 L1808.56 1481.64 Q1811.22 1478.89 1815.81 1474.26 Q1820.41 1469.61 1821.59 1468.27 Q1823.84 1465.74 1824.72 1464.01 Q1825.62 1462.25 1825.62 1460.56 Q1825.62 1457.8 1823.68 1456.07 Q1821.76 1454.33 1818.65 1454.33 Q1816.45 1454.33 1814 1455.09 Q1811.57 1455.86 1808.79 1457.41 L1808.79 1452.69 Q1811.62 1451.55 1814.07 1450.97 Q1816.52 1450.39 1818.56 1450.39 Q1823.93 1450.39 1827.13 1453.08 Q1830.32 1455.77 1830.32 1460.26 Q1830.32 1462.39 1829.51 1464.31 Q1828.72 1466.2 1826.62 1468.8 Q1826.04 1469.47 1822.94 1472.69 Q1819.83 1475.88 1814.19 1481.64 Z" fill="#000000" fill-rule="evenodd" fill-opacity="1" /><path clip-path="url(#clip260)" d="M2355.77 1455.09 L2343.96 1473.54 L2355.77 1473.54 L2355.77 1455.09 M2354.54 1451.02 L2360.42 1451.02 L2360.42 1473.54 L2365.35 1473.54 L2365.35 1477.43 L2360.42 1477.43 L2360.42 1485.58 L2355.77 1485.58 L2355.77 1477.43 L2340.16 1477.43 L2340.16 1472.92 L2354.54 1451.02 Z" fill="#000000" fill-rule="evenodd" fill-opacity="1" /><path clip-path="url(#clip260)" d="M1298.25 1545.85 Q1298.25 1551.26 1296.51 1557.35 Q1294.8 1563.4 1292.09 1568.3 Q1289.39 1573.16 1285.85 1576.38 Q1282.3 1579.57 1278.92 1579.57 Q1276.76 1579.57 1275.15 1578.38 Q1273.58 1577.15 1272.71 1575.12 Q1271.84 1573.06 1271.42 1570.81 Q1271 1568.52 1271 1566.04 Q1271 1562.34 1271.8 1558.31 Q1272.61 1554.25 1273.96 1550.58 Q1275.32 1546.88 1277.22 1543.53 Q1279.12 1540.15 1281.21 1537.7 Q1283.33 1535.22 1285.72 1533.77 Q1288.1 1532.32 1290.32 1532.32 Q1291.93 1532.32 1293.22 1533.03 Q1294.54 1533.71 1295.38 1534.9 Q1296.22 1536.06 1296.8 1537.44 Q1297.41 1538.83 1297.7 1540.44 Q1297.99 1542.02 1298.12 1543.34 Q1298.25 1544.63 1298.25 1545.85 M1293.9 1541.76 Q1293.9 1540.12 1293.77 1538.89 Q1293.64 1537.64 1293.29 1536.38 Q1292.93 1535.12 1292.16 1534.45 Q1291.42 1533.77 1290.26 1533.77 Q1286.88 1533.77 1283.08 1540.7 Q1281.85 1542.85 1280.76 1545.78 Q1279.66 1548.72 1279.28 1550.1 Q1278.89 1551.49 1277.99 1554.9 L1291.77 1554.9 Q1293.9 1546.11 1293.9 1541.76 M1291.19 1556.99 L1277.47 1556.99 Q1275.35 1565.04 1275.35 1570.07 Q1275.35 1574.45 1276.25 1576.28 Q1277.18 1578.09 1278.92 1578.09 Q1280.92 1578.09 1282.79 1576.09 Q1284.66 1574.06 1286.56 1570.39 Q1289.07 1565.62 1291.19 1556.99 Z" fill="#000000" fill-rule="evenodd" fill-opacity="1" /><polyline clip-path="url(#clip262)" style="stroke:#000000; stroke-linecap:butt; stroke-linejoin:round; stroke-width:2; stroke-opacity:0.1; fill:none" points="
  219.866,1384.56 2352.76,1384.56 
  "/>
<polyline clip-path="url(#clip262)" style="stroke:#000000; stroke-linecap:butt; stroke-linejoin:round; stroke-width:2; stroke-opacity:0.1; fill:none" points="
  219.866,1059.05 2352.76,1059.05 
  "/>
<polyline clip-path="url(#clip262)" style="stroke:#000000; stroke-linecap:butt; stroke-linejoin:round; stroke-width:2; stroke-opacity:0.1; fill:none" points="
  219.866,733.542 2352.76,733.542 
  "/>
<polyline clip-path="url(#clip262)" style="stroke:#000000; stroke-linecap:butt; stroke-linejoin:round; stroke-width:2; stroke-opacity:0.1; fill:none" points="
  219.866,408.033 2352.76,408.033 
  "/>
<polyline clip-path="url(#clip262)" style="stroke:#000000; stroke-linecap:butt; stroke-linejoin:round; stroke-width:2; stroke-opacity:0.1; fill:none" points="
  219.866,82.524 2352.76,82.524 
  "/>
<polyline clip-path="url(#clip260)" style="stroke:#000000; stroke-linecap:butt; stroke-linejoin:round; stroke-width:4; stroke-opacity:1; fill:none" points="
  219.866,1423.18 219.866,47.2441 
  "/>
<polyline clip-path="url(#clip260)" style="stroke:#000000; stroke-linecap:butt; stroke-linejoin:round; stroke-width:4; stroke-opacity:1; fill:none" points="
  219.866,1384.56 238.764,1384.56 
  "/>
<polyline clip-path="url(#clip260)" style="stroke:#000000; stroke-linecap:butt; stroke-linejoin:round; stroke-width:4; stroke-opacity:1; fill:none" points="
  219.866,1059.05 238.764,1059.05 
  "/>
<polyline clip-path="url(#clip260)" style="stroke:#000000; stroke-linecap:butt; stroke-linejoin:round; stroke-width:4; stroke-opacity:1; fill:none" points="
  219.866,733.542 238.764,733.542 
  "/>
<polyline clip-path="url(#clip260)" style="stroke:#000000; stroke-linecap:butt; stroke-linejoin:round; stroke-width:4; stroke-opacity:1; fill:none" points="
  219.866,408.033 238.764,408.033 
  "/>
<polyline clip-path="url(#clip260)" style="stroke:#000000; stroke-linecap:butt; stroke-linejoin:round; stroke-width:4; stroke-opacity:1; fill:none" points="
  219.866,82.524 238.764,82.524 
  "/>
<path clip-path="url(#clip260)" d="M126.691 1370.36 Q123.08 1370.36 121.251 1373.92 Q119.445 1377.47 119.445 1384.6 Q119.445 1391.7 121.251 1395.27 Q123.08 1398.81 126.691 1398.81 Q130.325 1398.81 132.13 1395.27 Q133.959 1391.7 133.959 1384.6 Q133.959 1377.47 132.13 1373.92 Q130.325 1370.36 126.691 1370.36 M126.691 1366.66 Q132.501 1366.66 135.556 1371.26 Q138.635 1375.85 138.635 1384.6 Q138.635 1393.32 135.556 1397.93 Q132.501 1402.51 126.691 1402.51 Q120.88 1402.51 117.802 1397.93 Q114.746 1393.32 114.746 1384.6 Q114.746 1375.85 117.802 1371.26 Q120.88 1366.66 126.691 1366.66 Z" fill="#000000" fill-rule="evenodd" fill-opacity="1" /><path clip-path="url(#clip260)" d="M146.853 1395.96 L151.737 1395.96 L151.737 1401.84 L146.853 1401.84 L146.853 1395.96 Z" fill="#000000" fill-rule="evenodd" fill-opacity="1" /><path clip-path="url(#clip260)" d="M171.922 1370.36 Q168.311 1370.36 166.482 1373.92 Q164.677 1377.47 164.677 1384.6 Q164.677 1391.7 166.482 1395.27 Q168.311 1398.81 171.922 1398.81 Q175.556 1398.81 177.362 1395.27 Q179.19 1391.7 179.19 1384.6 Q179.19 1377.47 177.362 1373.92 Q175.556 1370.36 171.922 1370.36 M171.922 1366.66 Q177.732 1366.66 180.788 1371.26 Q183.866 1375.85 183.866 1384.6 Q183.866 1393.32 180.788 1397.93 Q177.732 1402.51 171.922 1402.51 Q166.112 1402.51 163.033 1397.93 Q159.978 1393.32 159.978 1384.6 Q159.978 1375.85 163.033 1371.26 Q166.112 1366.66 171.922 1366.66 Z" fill="#000000" fill-rule="evenodd" fill-opacity="1" /><path clip-path="url(#clip260)" d="M128.288 1044.85 Q124.677 1044.85 122.848 1048.41 Q121.043 1051.96 121.043 1059.09 Q121.043 1066.19 122.848 1069.76 Q124.677 1073.3 128.288 1073.3 Q131.922 1073.3 133.728 1069.76 Q135.556 1066.19 135.556 1059.09 Q135.556 1051.96 133.728 1048.41 Q131.922 1044.85 128.288 1044.85 M128.288 1041.15 Q134.098 1041.15 137.154 1045.75 Q140.232 1050.34 140.232 1059.09 Q140.232 1067.81 137.154 1072.42 Q134.098 1077 128.288 1077 Q122.478 1077 119.399 1072.42 Q116.343 1067.81 116.343 1059.09 Q116.343 1050.34 119.399 1045.75 Q122.478 1041.15 128.288 1041.15 Z" fill="#000000" fill-rule="evenodd" fill-opacity="1" /><path clip-path="url(#clip260)" d="M148.45 1070.45 L153.334 1070.45 L153.334 1076.33 L148.45 1076.33 L148.45 1070.45 Z" fill="#000000" fill-rule="evenodd" fill-opacity="1" /><path clip-path="url(#clip260)" d="M167.547 1072.4 L183.866 1072.4 L183.866 1076.33 L161.922 1076.33 L161.922 1072.4 Q164.584 1069.64 169.167 1065.01 Q173.774 1060.36 174.954 1059.02 Q177.2 1056.49 178.079 1054.76 Q178.982 1053 178.982 1051.31 Q178.982 1048.55 177.038 1046.82 Q175.116 1045.08 172.014 1045.08 Q169.815 1045.08 167.362 1045.85 Q164.931 1046.61 162.153 1048.16 L162.153 1043.44 Q164.977 1042.3 167.431 1041.72 Q169.885 1041.15 171.922 1041.15 Q177.292 1041.15 180.487 1043.83 Q183.681 1046.52 183.681 1051.01 Q183.681 1053.14 182.871 1055.06 Q182.084 1056.96 179.977 1059.55 Q179.399 1060.22 176.297 1063.44 Q173.195 1066.63 167.547 1072.4 Z" fill="#000000" fill-rule="evenodd" fill-opacity="1" /><path clip-path="url(#clip260)" d="M126.205 719.341 Q122.593 719.341 120.765 722.906 Q118.959 726.447 118.959 733.577 Q118.959 740.683 120.765 744.248 Q122.593 747.79 126.205 747.79 Q129.839 747.79 131.644 744.248 Q133.473 740.683 133.473 733.577 Q133.473 726.447 131.644 722.906 Q129.839 719.341 126.205 719.341 M126.205 715.637 Q132.015 715.637 135.07 720.244 Q138.149 724.827 138.149 733.577 Q138.149 742.304 135.07 746.91 Q132.015 751.493 126.205 751.493 Q120.394 751.493 117.316 746.91 Q114.26 742.304 114.26 733.577 Q114.26 724.827 117.316 720.244 Q120.394 715.637 126.205 715.637 Z" fill="#000000" fill-rule="evenodd" fill-opacity="1" /><path clip-path="url(#clip260)" d="M146.366 744.943 L151.251 744.943 L151.251 750.822 L146.366 750.822 L146.366 744.943 Z" fill="#000000" fill-rule="evenodd" fill-opacity="1" /><path clip-path="url(#clip260)" d="M174.283 720.336 L162.477 738.785 L174.283 738.785 L174.283 720.336 M173.056 716.262 L178.936 716.262 L178.936 738.785 L183.866 738.785 L183.866 742.674 L178.936 742.674 L178.936 750.822 L174.283 750.822 L174.283 742.674 L158.681 742.674 L158.681 738.16 L173.056 716.262 Z" fill="#000000" fill-rule="evenodd" fill-opacity="1" /><path clip-path="url(#clip260)" d="M126.529 393.832 Q122.918 393.832 121.089 397.397 Q119.283 400.938 119.283 408.068 Q119.283 415.174 121.089 418.739 Q122.918 422.281 126.529 422.281 Q130.163 422.281 131.968 418.739 Q133.797 415.174 133.797 408.068 Q133.797 400.938 131.968 397.397 Q130.163 393.832 126.529 393.832 M126.529 390.128 Q132.339 390.128 135.394 394.735 Q138.473 399.318 138.473 408.068 Q138.473 416.795 135.394 421.401 Q132.339 425.984 126.529 425.984 Q120.718 425.984 117.64 421.401 Q114.584 416.795 114.584 408.068 Q114.584 399.318 117.64 394.735 Q120.718 390.128 126.529 390.128 Z" fill="#000000" fill-rule="evenodd" fill-opacity="1" /><path clip-path="url(#clip260)" d="M146.691 419.433 L151.575 419.433 L151.575 425.313 L146.691 425.313 L146.691 419.433 Z" fill="#000000" fill-rule="evenodd" fill-opacity="1" /><path clip-path="url(#clip260)" d="M172.339 406.17 Q169.19 406.17 167.339 408.322 Q165.51 410.475 165.51 414.225 Q165.51 417.952 167.339 420.128 Q169.19 422.281 172.339 422.281 Q175.487 422.281 177.315 420.128 Q179.167 417.952 179.167 414.225 Q179.167 410.475 177.315 408.322 Q175.487 406.17 172.339 406.17 M181.621 391.517 L181.621 395.776 Q179.862 394.943 178.056 394.503 Q176.274 394.063 174.514 394.063 Q169.885 394.063 167.431 397.188 Q165.001 400.313 164.653 406.633 Q166.019 404.619 168.079 403.554 Q170.139 402.466 172.616 402.466 Q177.825 402.466 180.834 405.637 Q183.866 408.785 183.866 414.225 Q183.866 419.549 180.718 422.767 Q177.57 425.984 172.339 425.984 Q166.343 425.984 163.172 421.401 Q160.001 416.795 160.001 408.068 Q160.001 399.873 163.89 395.012 Q167.778 390.128 174.329 390.128 Q176.089 390.128 177.871 390.475 Q179.676 390.823 181.621 391.517 Z" fill="#000000" fill-rule="evenodd" fill-opacity="1" /><path clip-path="url(#clip260)" d="M126.783 68.3227 Q123.172 68.3227 121.343 71.8875 Q119.538 75.4291 119.538 82.5587 Q119.538 89.6651 121.343 93.2299 Q123.172 96.7716 126.783 96.7716 Q130.417 96.7716 132.223 93.2299 Q134.052 89.6651 134.052 82.5587 Q134.052 75.4291 132.223 71.8875 Q130.417 68.3227 126.783 68.3227 M126.783 64.619 Q132.593 64.619 135.649 69.2254 Q138.728 73.8087 138.728 82.5587 Q138.728 91.2855 135.649 95.892 Q132.593 100.475 126.783 100.475 Q120.973 100.475 117.894 95.892 Q114.839 91.2855 114.839 82.5587 Q114.839 73.8087 117.894 69.2254 Q120.973 64.619 126.783 64.619 Z" fill="#000000" fill-rule="evenodd" fill-opacity="1" /><path clip-path="url(#clip260)" d="M146.945 93.9244 L151.829 93.9244 L151.829 99.804 L146.945 99.804 L146.945 93.9244 Z" fill="#000000" fill-rule="evenodd" fill-opacity="1" /><path clip-path="url(#clip260)" d="M172.014 83.392 Q168.681 83.392 166.76 85.1744 Q164.862 86.9568 164.862 90.0818 Q164.862 93.2068 166.76 94.9892 Q168.681 96.7716 172.014 96.7716 Q175.348 96.7716 177.269 94.9892 Q179.19 93.1836 179.19 90.0818 Q179.19 86.9568 177.269 85.1744 Q175.371 83.392 172.014 83.392 M167.339 81.4013 Q164.329 80.6606 162.64 78.6004 Q160.973 76.5402 160.973 73.5773 Q160.973 69.4338 163.913 67.0264 Q166.876 64.619 172.014 64.619 Q177.176 64.619 180.116 67.0264 Q183.056 69.4338 183.056 73.5773 Q183.056 76.5402 181.366 78.6004 Q179.7 80.6606 176.714 81.4013 Q180.093 82.1883 181.968 84.48 Q183.866 86.7716 183.866 90.0818 Q183.866 95.1049 180.788 97.7901 Q177.732 100.475 172.014 100.475 Q166.297 100.475 163.218 97.7901 Q160.163 95.1049 160.163 90.0818 Q160.163 86.7716 162.061 84.48 Q163.959 82.1883 167.339 81.4013 M165.626 74.0171 Q165.626 76.7022 167.292 78.2069 Q168.982 79.7115 172.014 79.7115 Q175.024 79.7115 176.714 78.2069 Q178.426 76.7022 178.426 74.0171 Q178.426 71.3319 176.714 69.8273 Q175.024 68.3227 172.014 68.3227 Q168.982 68.3227 167.292 69.8273 Q165.626 71.3319 165.626 74.0171 Z" fill="#000000" fill-rule="evenodd" fill-opacity="1" /><path clip-path="url(#clip260)" d="M21.7677 848.522 L58.7206 848.522 L58.7206 840.755 Q58.7206 830.92 54.2646 826.369 Q49.8086 821.786 40.1964 821.786 Q30.6479 821.786 26.2237 826.369 Q21.7677 830.92 21.7677 840.755 L21.7677 848.522 M16.4842 854.951 L16.4842 841.742 Q16.4842 827.928 22.2451 821.467 Q27.9743 815.006 40.1964 815.006 Q52.4822 815.006 58.2432 821.499 Q64.0042 827.992 64.0042 841.742 L64.0042 854.951 L16.4842 854.951 Z" fill="#000000" fill-rule="evenodd" fill-opacity="1" /><path clip-path="url(#clip260)" d="M44.7161 774.52 L47.5806 774.52 L47.5806 801.447 Q53.6281 801.065 56.8109 797.819 Q59.9619 794.54 59.9619 788.716 Q59.9619 785.342 59.1344 782.191 Q58.3069 779.008 56.6518 775.889 L62.1899 775.889 Q63.5267 779.04 64.227 782.35 Q64.9272 785.66 64.9272 789.066 Q64.9272 797.596 59.9619 802.593 Q54.9967 807.558 46.5303 807.558 Q37.7774 807.558 32.6531 802.848 Q27.4968 798.105 27.4968 790.084 Q27.4968 782.891 32.1438 778.722 Q36.7589 774.52 44.7161 774.52 M42.9973 780.377 Q38.1912 780.44 35.3266 783.082 Q32.4621 785.692 32.4621 790.021 Q32.4621 794.922 35.2312 797.882 Q38.0002 800.811 43.0292 801.256 L42.9973 780.377 Z" fill="#000000" fill-rule="evenodd" fill-opacity="1" /><path clip-path="url(#clip260)" d="M42.4881 735.276 L64.0042 735.276 L64.0042 741.132 L42.679 741.132 Q37.6183 741.132 35.1038 743.105 Q32.5894 745.079 32.5894 749.026 Q32.5894 753.768 35.6131 756.505 Q38.6368 759.243 43.8567 759.243 L64.0042 759.243 L64.0042 765.131 L28.3562 765.131 L28.3562 759.243 L33.8944 759.243 Q30.6797 757.142 29.0883 754.309 Q27.4968 751.445 27.4968 747.721 Q27.4968 741.578 31.3163 738.427 Q35.1038 735.276 42.4881 735.276 Z" fill="#000000" fill-rule="evenodd" fill-opacity="1" /><path clip-path="url(#clip260)" d="M29.4065 700.869 L34.9447 700.869 Q33.6716 703.352 33.035 706.025 Q32.3984 708.699 32.3984 711.563 Q32.3984 715.924 33.7352 718.12 Q35.072 720.284 37.7456 720.284 Q39.7826 720.284 40.9603 718.725 Q42.1061 717.165 43.1565 712.455 L43.6021 710.449 Q44.9389 704.211 47.3897 701.601 Q49.8086 698.959 54.1691 698.959 Q59.1344 698.959 62.0308 702.906 Q64.9272 706.821 64.9272 713.696 Q64.9272 716.56 64.3543 719.68 Q63.8132 722.767 62.6992 726.204 L56.6518 726.204 Q58.3387 722.958 59.198 719.807 Q60.0256 716.656 60.0256 713.569 Q60.0256 709.431 58.6251 707.203 Q57.1929 704.975 54.6147 704.975 Q52.2276 704.975 50.9545 706.598 Q49.6813 708.19 48.5037 713.632 L48.0262 715.669 Q46.8804 721.112 44.5251 723.531 Q42.138 725.95 38.0002 725.95 Q32.9713 725.95 30.2341 722.385 Q27.4968 718.82 27.4968 712.264 Q27.4968 709.017 27.9743 706.153 Q28.4517 703.288 29.4065 700.869 Z" fill="#000000" fill-rule="evenodd" fill-opacity="1" /><path clip-path="url(#clip260)" d="M28.3562 689.634 L28.3562 683.777 L64.0042 683.777 L64.0042 689.634 L28.3562 689.634 M14.479 689.634 L14.479 683.777 L21.895 683.777 L21.895 689.634 L14.479 689.634 Z" fill="#000000" fill-rule="evenodd" fill-opacity="1" /><path clip-path="url(#clip260)" d="M18.2347 665.73 L28.3562 665.73 L28.3562 653.667 L32.9077 653.667 L32.9077 665.73 L52.2594 665.73 Q56.6199 665.73 57.8613 664.553 Q59.1026 663.343 59.1026 659.683 L59.1026 653.667 L64.0042 653.667 L64.0042 659.683 Q64.0042 666.462 61.4897 669.04 Q58.9434 671.619 52.2594 671.619 L32.9077 671.619 L32.9077 675.915 L28.3562 675.915 L28.3562 671.619 L18.2347 671.619 L18.2347 665.73 Z" fill="#000000" fill-rule="evenodd" fill-opacity="1" /><path clip-path="url(#clip260)" d="M67.3143 631.133 Q73.68 633.615 75.6216 635.971 Q77.5631 638.326 77.5631 642.273 L77.5631 646.951 L72.6615 646.951 L72.6615 643.514 Q72.6615 641.095 71.5157 639.758 Q70.3699 638.421 66.1048 636.798 L63.4312 635.748 L28.3562 650.166 L28.3562 643.96 L56.238 632.82 L28.3562 621.68 L28.3562 615.473 L67.3143 631.133 Z" fill="#000000" fill-rule="evenodd" fill-opacity="1" /><polyline clip-path="url(#clip262)" style="stroke:#009af9; stroke-linecap:butt; stroke-linejoin:round; stroke-width:20; stroke-opacity:1; fill:none" points="
  294.78,1383.92 304.463,1383.82 314.146,1383.72 403.68,1381.85 493.215,1376.78 547.021,1370.67 600.828,1360.74 646.32,1348.15 691.813,1330.52 716.522,1318.39 
  741.231,1304.25 765.94,1287.91 790.648,1269.24 813.428,1249.88 836.207,1228.41 858.987,1204.84 881.766,1179.21 930.61,1117.92 979.454,1049.76 1036.04,966.63 
  1092.63,885.846 1117.78,852.849 1142.93,822.69 1168.07,796.078 1193.22,773.664 1215.27,757.912 1237.32,746.135 1259.37,738.571 1281.42,735.373 1305.46,736.936 
  1329.5,743.727 1353.54,755.582 1377.58,772.216 1401.76,793.376 1425.95,818.481 1450.13,846.961 1474.31,878.192 1527.79,953.732 1581.27,1032.46 1632.15,1104.62 
  1683.03,1169.95 1709.48,1200.32 1735.93,1227.94 1762.39,1252.72 1788.84,1274.67 1833.37,1305.46 1877.91,1329.19 1932.28,1350.07 1986.65,1363.95 2037.76,1372.33 
  2088.87,1377.57 2170.76,1381.91 2252.64,1383.65 2265.24,1383.79 2277.84,1383.92 
  "/>
<polyline clip-path="url(#clip262)" style="stroke:#e26f46; stroke-linecap:butt; stroke-linejoin:round; stroke-width:20; stroke-opacity:1; fill:none" points="
  790.545,1383.27 795.387,1383.09 800.228,1382.88 844.996,1379.15 889.763,1369 916.666,1356.78 943.569,1336.92 966.316,1311.75 989.062,1276.47 1001.42,1252.23 
  1013.77,1223.93 1026.13,1191.25 1038.48,1153.92 1049.87,1115.2 1061.26,1072.26 1072.65,1025.12 1084.04,973.867 1108.46,851.279 1132.88,714.955 1161.18,548.7 
  1189.47,387.131 1202.05,321.138 1214.62,260.82 1227.19,207.596 1239.76,162.768 1250.79,131.263 1261.81,107.71 1272.84,92.5814 1283.86,86.1857 1295.88,89.3115 
  1307.91,102.893 1319.93,126.603 1331.95,159.872 1344.04,202.191 1356.13,252.401 1368.22,309.362 1380.31,371.824 1407.05,522.904 1433.79,680.355 1459.23,824.679 
  1484.67,955.345 1497.9,1016.07 1511.12,1071.31 1524.35,1120.88 1537.58,1164.77 1559.84,1226.36 1582.11,1273.82 1609.3,1315.58 1636.48,1343.34 1662.04,1360.1 
  1687.59,1370.57 1728.53,1379.27 1769.48,1382.74 1775.78,1383.03 1782.08,1383.27 
  "/>
<polyline clip-path="url(#clip262)" style="stroke:#3da44d; stroke-linecap:butt; stroke-linejoin:round; stroke-width:20; stroke-opacity:1; fill:none" points="
  -696.752,1384.24 -677.386,1384.19 -658.019,1384.14 -478.951,1383.21 -299.882,1380.67 -192.269,1377.61 -84.656,1372.65 6.32929,1366.36 97.3146,1357.54 146.732,1351.48 
  196.15,1344.4 245.568,1336.23 294.986,1326.9 340.545,1317.22 386.103,1306.49 431.662,1294.7 477.221,1281.89 574.909,1251.24 672.597,1217.16 785.777,1175.6 
  898.958,1135.2 949.249,1118.7 999.54,1103.63 1049.83,1090.32 1100.12,1079.11 1144.22,1071.24 1188.32,1065.35 1232.42,1061.57 1276.52,1059.97 1324.61,1060.75 
  1372.69,1064.14 1420.77,1070.07 1468.85,1078.39 1517.22,1088.97 1565.58,1101.52 1613.95,1115.76 1662.32,1131.38 1769.27,1169.15 1876.22,1208.51 1977.99,1244.59 
  2079.75,1277.26 2132.65,1292.44 2185.56,1306.25 2238.46,1318.64 2291.37,1329.61 2380.44,1345.01 2469.5,1356.88 2578.25,1367.31 2686.99,1374.26 2789.21,1378.45 
  2891.43,1381.06 3055.2,1383.24 3218.97,1384.1 3244.17,1384.18 3269.37,1384.24 
  "/>
<path clip-path="url(#clip260)" d="
M1893.31 300.469 L2281.66 300.469 L2281.66 93.1086 L1893.31 93.1086  Z
  " fill="#ffffff" fill-rule="evenodd" fill-opacity="1"/>
<polyline clip-path="url(#clip260)" style="stroke:#000000; stroke-linecap:butt; stroke-linejoin:round; stroke-width:4; stroke-opacity:1; fill:none" points="
  1893.31,300.469 2281.66,300.469 2281.66,93.1086 1893.31,93.1086 1893.31,300.469 
  "/>
<polyline clip-path="url(#clip260)" style="stroke:#009af9; stroke-linecap:butt; stroke-linejoin:round; stroke-width:4; stroke-opacity:1; fill:none" points="
  1917,144.949 2059.2,144.949 
  "/>
<path clip-path="url(#clip260)" d="M2108.26 147.881 Q2108.26 149.521 2105.92 149.521 L2100.65 149.521 Q2102.13 151.629 2102.13 154.744 Q2102.13 157.414 2101.02 159.92 Q2099.95 162.403 2098.21 164.136 Q2096.5 165.869 2094.35 166.923 Q2092.19 167.954 2090.09 167.954 Q2086.88 167.954 2084.89 165.776 Q2082.9 163.597 2082.9 160.365 Q2082.9 158.655 2083.48 156.758 Q2084.09 154.861 2085.24 153.104 Q2086.39 151.324 2087.88 149.895 Q2089.41 148.467 2091.37 147.6 Q2093.37 146.733 2095.45 146.733 L2106.39 146.733 Q2106.97 146.733 2107.28 146.78 Q2107.61 146.804 2107.93 147.085 Q2108.26 147.342 2108.26 147.881 M2099.06 154.182 Q2099.06 153.619 2098.99 153.128 Q2098.92 152.612 2098.66 151.933 Q2098.4 151.23 2097.96 150.739 Q2097.51 150.223 2096.64 149.872 Q2095.8 149.521 2094.65 149.521 Q2093.04 149.521 2091.26 150.411 Q2089.48 151.301 2088.12 153.502 Q2086.99 155.376 2086.43 157.812 Q2085.87 160.248 2085.87 161.7 Q2085.87 164.183 2087.06 165.542 Q2088.28 166.877 2090.13 166.877 Q2091.66 166.877 2093.39 165.846 Q2095.12 164.792 2096.46 162.801 Q2097.63 161.068 2098.33 158.538 Q2099.06 156.009 2099.06 154.182 Z" fill="#000000" fill-rule="evenodd" fill-opacity="1" /><path clip-path="url(#clip260)" d="M2123.31 160.131 Q2123.36 159.545 2124.27 159.545 L2153.67 159.545 Q2155.05 159.545 2155.07 160.084 Q2155.07 160.67 2153.76 160.646 L2124.6 160.646 Q2123.31 160.67 2123.31 160.131 M2123.31 150.762 Q2123.31 150.176 2124.32 150.2 L2153.62 150.2 Q2155.05 150.2 2155.07 150.762 Q2155.07 151.301 2153.86 151.301 L2124.27 151.301 Q2123.31 151.301 2123.31 150.762 Z" fill="#000000" fill-rule="evenodd" fill-opacity="1" /><path clip-path="url(#clip260)" d="M2173.57 140.034 L2173.57 138.535 Q2179.33 138.535 2182.3 135.467 Q2183.12 135.467 2183.26 135.654 Q2183.4 135.842 2183.4 136.708 L2183.4 163.621 Q2183.4 165.05 2184.11 165.495 Q2184.81 165.94 2187.88 165.94 L2189.4 165.94 L2189.4 167.415 Q2187.71 167.275 2181.62 167.275 Q2175.53 167.275 2173.87 167.415 L2173.87 165.94 L2175.39 165.94 Q2178.41 165.94 2179.14 165.518 Q2179.87 165.073 2179.87 163.621 L2179.87 138.77 Q2177.36 140.034 2173.57 140.034 Z" fill="#000000" fill-rule="evenodd" fill-opacity="1" /><polyline clip-path="url(#clip260)" style="stroke:#e26f46; stroke-linecap:butt; stroke-linejoin:round; stroke-width:4; stroke-opacity:1; fill:none" points="
  1917,196.789 2059.2,196.789 
  "/>
<path clip-path="url(#clip260)" d="M2108.26 199.463 Q2108.26 201.103 2105.92 201.103 L2100.65 201.103 Q2102.13 203.211 2102.13 206.326 Q2102.13 208.996 2101.02 211.502 Q2099.95 213.985 2098.21 215.718 Q2096.5 217.452 2094.35 218.506 Q2092.19 219.536 2090.09 219.536 Q2086.88 219.536 2084.89 217.358 Q2082.9 215.18 2082.9 211.947 Q2082.9 210.238 2083.48 208.34 Q2084.09 206.443 2085.24 204.686 Q2086.39 202.906 2087.88 201.478 Q2089.41 200.049 2091.37 199.182 Q2093.37 198.315 2095.45 198.315 L2106.39 198.315 Q2106.97 198.315 2107.28 198.362 Q2107.61 198.386 2107.93 198.667 Q2108.26 198.924 2108.26 199.463 M2099.06 205.764 Q2099.06 205.202 2098.99 204.71 Q2098.92 204.195 2098.66 203.515 Q2098.4 202.813 2097.96 202.321 Q2097.51 201.805 2096.64 201.454 Q2095.8 201.103 2094.65 201.103 Q2093.04 201.103 2091.26 201.993 Q2089.48 202.883 2088.12 205.085 Q2086.99 206.958 2086.43 209.394 Q2085.87 211.83 2085.87 213.282 Q2085.87 215.765 2087.06 217.124 Q2088.28 218.459 2090.13 218.459 Q2091.66 218.459 2093.39 217.428 Q2095.12 216.374 2096.46 214.383 Q2097.63 212.65 2098.33 210.12 Q2099.06 207.591 2099.06 205.764 Z" fill="#000000" fill-rule="evenodd" fill-opacity="1" /><path clip-path="url(#clip260)" d="M2123.31 211.713 Q2123.36 211.128 2124.27 211.128 L2153.67 211.128 Q2155.05 211.128 2155.07 211.666 Q2155.07 212.252 2153.76 212.228 L2124.6 212.228 Q2123.31 212.252 2123.31 211.713 M2123.31 202.344 Q2123.31 201.759 2124.32 201.782 L2153.62 201.782 Q2155.05 201.782 2155.07 202.344 Q2155.07 202.883 2153.86 202.883 L2124.27 202.883 Q2123.31 202.883 2123.31 202.344 Z" fill="#000000" fill-rule="evenodd" fill-opacity="1" /><path clip-path="url(#clip260)" d="M2173.57 203.656 Q2173.57 196.606 2175.35 192.764 Q2177.83 187.049 2183.68 187.049 Q2184.92 187.049 2186.21 187.401 Q2187.52 187.729 2189.16 189.017 Q2190.83 190.305 2191.83 192.413 Q2193.76 196.489 2193.76 203.656 Q2193.76 210.659 2191.98 214.477 Q2189.38 220.052 2183.64 220.052 Q2181.48 220.052 2179.28 218.951 Q2177.1 217.85 2175.72 215.203 Q2173.57 211.245 2173.57 203.656 M2177.55 203.07 Q2177.55 210.308 2178.06 213.189 Q2178.65 216.304 2180.24 217.662 Q2181.86 218.997 2183.64 218.997 Q2185.56 218.997 2187.15 217.569 Q2188.77 216.117 2189.26 213.001 Q2189.8 209.933 2189.77 203.07 Q2189.77 196.395 2189.3 193.725 Q2188.67 190.609 2186.99 189.368 Q2185.32 188.103 2183.64 188.103 Q2183 188.103 2182.33 188.291 Q2181.67 188.478 2180.71 189.017 Q2179.75 189.555 2179 190.891 Q2178.27 192.226 2177.92 194.24 Q2177.55 196.84 2177.55 203.07 Z" fill="#000000" fill-rule="evenodd" fill-opacity="1" /><path clip-path="url(#clip260)" d="M2198.04 218.225 Q2197.32 217.452 2197.32 216.444 Q2197.32 215.437 2198.04 214.711 Q2198.77 213.962 2199.87 213.962 Q2200.92 213.962 2201.62 214.664 Q2202.35 215.344 2202.35 216.468 Q2202.35 217.569 2201.58 218.295 Q2200.83 218.997 2199.87 218.997 Q2198.77 218.997 2198.04 218.225 Z" fill="#000000" fill-rule="evenodd" fill-opacity="1" /><path clip-path="url(#clip260)" d="M2210.51 211.268 Q2210.51 209.839 2211.28 209.301 Q2212.06 208.738 2212.88 208.738 Q2213.98 208.738 2214.61 209.441 Q2215.27 210.12 2215.27 211.081 Q2215.27 212.041 2214.61 212.744 Q2213.98 213.423 2212.88 213.423 Q2212.34 213.423 2212.06 213.329 Q2212.69 215.531 2214.61 217.124 Q2216.56 218.716 2219.11 218.716 Q2222.32 218.716 2224.24 215.601 Q2225.39 213.587 2225.39 209.02 Q2225.39 204.991 2224.52 202.977 Q2223.18 199.908 2220.44 199.908 Q2216.56 199.908 2214.26 203.258 Q2213.98 203.679 2213.65 203.703 Q2213.18 203.703 2213.07 203.445 Q2212.97 203.164 2212.97 202.438 L2212.97 188.244 Q2212.97 187.096 2213.44 187.096 Q2213.63 187.096 2214.03 187.237 Q2217.05 188.572 2220.4 188.595 Q2223.84 188.595 2226.93 187.19 Q2227.17 187.049 2227.31 187.049 Q2227.77 187.049 2227.8 187.588 Q2227.8 187.775 2227.4 188.338 Q2227.02 188.876 2226.21 189.602 Q2225.39 190.305 2224.33 190.984 Q2223.28 191.664 2221.73 192.132 Q2220.21 192.577 2218.52 192.577 Q2216.51 192.577 2214.45 191.945 L2214.45 201.29 Q2216.93 198.854 2220.54 198.854 Q2224.38 198.854 2227.02 201.946 Q2229.67 205.038 2229.67 209.347 Q2229.67 213.868 2226.53 216.96 Q2223.42 220.052 2219.2 220.052 Q2215.36 220.052 2212.92 217.311 Q2210.51 214.571 2210.51 211.268 Z" fill="#000000" fill-rule="evenodd" fill-opacity="1" /><polyline clip-path="url(#clip260)" style="stroke:#3da44d; stroke-linecap:butt; stroke-linejoin:round; stroke-width:4; stroke-opacity:1; fill:none" points="
  1917,248.629 2059.2,248.629 
  "/>
<path clip-path="url(#clip260)" d="M2108.26 251.561 Q2108.26 253.201 2105.92 253.201 L2100.65 253.201 Q2102.13 255.309 2102.13 258.424 Q2102.13 261.094 2101.02 263.6 Q2099.95 266.083 2098.21 267.816 Q2096.5 269.549 2094.35 270.603 Q2092.19 271.634 2090.09 271.634 Q2086.88 271.634 2084.89 269.456 Q2082.9 267.277 2082.9 264.045 Q2082.9 262.335 2083.48 260.438 Q2084.09 258.541 2085.24 256.784 Q2086.39 255.004 2087.88 253.575 Q2089.41 252.147 2091.37 251.28 Q2093.37 250.413 2095.45 250.413 L2106.39 250.413 Q2106.97 250.413 2107.28 250.46 Q2107.61 250.484 2107.93 250.765 Q2108.26 251.022 2108.26 251.561 M2099.06 257.862 Q2099.06 257.299 2098.99 256.808 Q2098.92 256.292 2098.66 255.613 Q2098.4 254.91 2097.96 254.419 Q2097.51 253.903 2096.64 253.552 Q2095.8 253.201 2094.65 253.201 Q2093.04 253.201 2091.26 254.091 Q2089.48 254.981 2088.12 257.182 Q2086.99 259.056 2086.43 261.492 Q2085.87 263.928 2085.87 265.38 Q2085.87 267.863 2087.06 269.222 Q2088.28 270.557 2090.13 270.557 Q2091.66 270.557 2093.39 269.526 Q2095.12 268.472 2096.46 266.481 Q2097.63 264.748 2098.33 262.218 Q2099.06 259.689 2099.06 257.862 Z" fill="#000000" fill-rule="evenodd" fill-opacity="1" /><path clip-path="url(#clip260)" d="M2123.31 263.811 Q2123.36 263.225 2124.27 263.225 L2153.67 263.225 Q2155.05 263.225 2155.07 263.764 Q2155.07 264.35 2153.76 264.326 L2124.6 264.326 Q2123.31 264.35 2123.31 263.811 M2123.31 254.442 Q2123.31 253.856 2124.32 253.88 L2153.62 253.88 Q2155.05 253.88 2155.07 254.442 Q2155.07 254.981 2153.86 254.981 L2124.27 254.981 Q2123.31 254.981 2123.31 254.442 Z" fill="#000000" fill-rule="evenodd" fill-opacity="1" /><path clip-path="url(#clip260)" d="M2173.57 271.095 Q2173.57 270.229 2173.64 269.971 Q2173.73 269.713 2174.1 269.315 L2183.31 259.056 Q2188.34 253.388 2188.34 248.446 Q2188.34 245.237 2186.66 242.942 Q2185 240.646 2181.93 240.646 Q2179.82 240.646 2178.04 241.934 Q2176.26 243.223 2175.44 245.518 Q2175.58 245.471 2176.07 245.471 Q2177.27 245.471 2177.92 246.221 Q2178.6 246.97 2178.6 247.977 Q2178.6 249.266 2177.76 249.898 Q2176.94 250.507 2176.12 250.507 Q2175.79 250.507 2175.35 250.437 Q2174.92 250.366 2174.24 249.711 Q2173.57 249.031 2173.57 247.837 Q2173.57 244.487 2176.09 241.817 Q2178.65 239.147 2182.54 239.147 Q2186.94 239.147 2189.82 241.77 Q2192.72 244.37 2192.72 248.446 Q2192.72 249.875 2192.28 251.186 Q2191.86 252.474 2191.27 253.482 Q2190.71 254.489 2189.16 256.105 Q2187.62 257.721 2186.38 258.869 Q2185.14 260.016 2182.35 262.452 L2177.27 267.395 L2185.91 267.395 Q2190.12 267.395 2190.45 267.02 Q2190.92 266.341 2191.51 262.757 L2192.72 262.757 L2191.37 271.095 L2173.57 271.095 Z" fill="#000000" fill-rule="evenodd" fill-opacity="1" /></svg>
