<?xml version="1.0" encoding="utf-8"?>
<svg xmlns="http://www.w3.org/2000/svg" xmlns:xlink="http://www.w3.org/1999/xlink" width="600" height="400" viewBox="0 0 2400 1600">
<defs>
  <clipPath id="clip350">
    <rect x="0" y="0" width="2400" height="1600"/>
  </clipPath>
</defs>
<path clip-path="url(#clip350)" d="
M0 1600 L2400 1600 L2400 0 L0 0  Z
  " fill="#ffffff" fill-rule="evenodd" fill-opacity="1"/>
<defs>
  <clipPath id="clip351">
    <rect x="480" y="0" width="1681" height="1600"/>
  </clipPath>
</defs>
<defs>
  <clipPath id="clip352">
    <rect x="219" y="47" width="2134" height="1377"/>
  </clipPath>
</defs>
<path clip-path="url(#clip350)" d="
M219.866 1423.18 L2352.76 1423.18 L2352.76 47.2441 L219.866 47.2441  Z
  " fill="#ffffff" fill-rule="evenodd" fill-opacity="1"/>
<polyline clip-path="url(#clip352)" style="stroke:#000000; stroke-linecap:butt; stroke-linejoin:round; stroke-width:2; stroke-opacity:0.1; fill:none" points="
  219.866,1423.18 219.866,47.2441 
  "/>
<polyline clip-path="url(#clip352)" style="stroke:#000000; stroke-linecap:butt; stroke-linejoin:round; stroke-width:2; stroke-opacity:0.1; fill:none" points="
  753.089,1423.18 753.089,47.2441 
  "/>
<polyline clip-path="url(#clip352)" style="stroke:#000000; stroke-linecap:butt; stroke-linejoin:round; stroke-width:2; stroke-opacity:0.1; fill:none" points="
  1286.31,1423.18 1286.31,47.2441 
  "/>
<polyline clip-path="url(#clip352)" style="stroke:#000000; stroke-linecap:butt; stroke-linejoin:round; stroke-width:2; stroke-opacity:0.1; fill:none" points="
  1819.53,1423.18 1819.53,47.2441 
  "/>
<polyline clip-path="url(#clip352)" style="stroke:#000000; stroke-linecap:butt; stroke-linejoin:round; stroke-width:2; stroke-opacity:0.1; fill:none" points="
  2352.76,1423.18 2352.76,47.2441 
  "/>
<polyline clip-path="url(#clip350)" style="stroke:#000000; stroke-linecap:butt; stroke-linejoin:round; stroke-width:4; stroke-opacity:1; fill:none" points="
  219.866,1423.18 2352.76,1423.18 
  "/>
<polyline clip-path="url(#clip350)" style="stroke:#000000; stroke-linecap:butt; stroke-linejoin:round; stroke-width:4; stroke-opacity:1; fill:none" points="
  219.866,1423.18 219.866,1404.28 
  "/>
<polyline clip-path="url(#clip350)" style="stroke:#000000; stroke-linecap:butt; stroke-linejoin:round; stroke-width:4; stroke-opacity:1; fill:none" points="
  753.089,1423.18 753.089,1404.28 
  "/>
<polyline clip-path="url(#clip350)" style="stroke:#000000; stroke-linecap:butt; stroke-linejoin:round; stroke-width:4; stroke-opacity:1; fill:none" points="
  1286.31,1423.18 1286.31,1404.28 
  "/>
<polyline clip-path="url(#clip350)" style="stroke:#000000; stroke-linecap:butt; stroke-linejoin:round; stroke-width:4; stroke-opacity:1; fill:none" points="
  1819.53,1423.18 1819.53,1404.28 
  "/>
<polyline clip-path="url(#clip350)" style="stroke:#000000; stroke-linecap:butt; stroke-linejoin:round; stroke-width:4; stroke-opacity:1; fill:none" points="
  2352.76,1423.18 2352.76,1404.28 
  "/>
<path clip-path="url(#clip350)" d="M188.767 1468.75 L218.443 1468.75 L218.443 1472.69 L188.767 1472.69 L188.767 1468.75 Z" fill="#000000" fill-rule="evenodd" fill-opacity="1" /><path clip-path="url(#clip350)" d="M241.382 1455.09 L229.577 1473.54 L241.382 1473.54 L241.382 1455.09 M240.156 1451.02 L246.035 1451.02 L246.035 1473.54 L250.966 1473.54 L250.966 1477.43 L246.035 1477.43 L246.035 1485.58 L241.382 1485.58 L241.382 1477.43 L225.781 1477.43 L225.781 1472.92 L240.156 1451.02 Z" fill="#000000" fill-rule="evenodd" fill-opacity="1" /><path clip-path="url(#clip350)" d="M723.031 1468.75 L752.707 1468.75 L752.707 1472.69 L723.031 1472.69 L723.031 1468.75 Z" fill="#000000" fill-rule="evenodd" fill-opacity="1" /><path clip-path="url(#clip350)" d="M766.827 1481.64 L783.146 1481.64 L783.146 1485.58 L761.202 1485.58 L761.202 1481.64 Q763.864 1478.89 768.447 1474.26 Q773.054 1469.61 774.234 1468.27 Q776.48 1465.74 777.359 1464.01 Q778.262 1462.25 778.262 1460.56 Q778.262 1457.8 776.318 1456.07 Q774.396 1454.33 771.295 1454.33 Q769.096 1454.33 766.642 1455.09 Q764.211 1455.86 761.434 1457.41 L761.434 1452.69 Q764.258 1451.55 766.711 1450.97 Q769.165 1450.39 771.202 1450.39 Q776.572 1450.39 779.767 1453.08 Q782.961 1455.77 782.961 1460.26 Q782.961 1462.39 782.151 1464.31 Q781.364 1466.2 779.258 1468.8 Q778.679 1469.47 775.577 1472.69 Q772.475 1475.88 766.827 1481.64 Z" fill="#000000" fill-rule="evenodd" fill-opacity="1" /><path clip-path="url(#clip350)" d="M1286.31 1454.1 Q1282.7 1454.1 1280.87 1457.66 Q1279.07 1461.2 1279.07 1468.33 Q1279.07 1475.44 1280.87 1479.01 Q1282.7 1482.55 1286.31 1482.55 Q1289.95 1482.55 1291.75 1479.01 Q1293.58 1475.44 1293.58 1468.33 Q1293.58 1461.2 1291.75 1457.66 Q1289.95 1454.1 1286.31 1454.1 M1286.31 1450.39 Q1292.12 1450.39 1295.18 1455 Q1298.26 1459.58 1298.26 1468.33 Q1298.26 1477.06 1295.18 1481.67 Q1292.12 1486.25 1286.31 1486.25 Q1280.5 1486.25 1277.42 1481.67 Q1274.37 1477.06 1274.37 1468.33 Q1274.37 1459.58 1277.42 1455 Q1280.5 1450.39 1286.31 1450.39 Z" fill="#000000" fill-rule="evenodd" fill-opacity="1" /><path clip-path="url(#clip350)" d="M1814.19 1481.64 L1830.51 1481.64 L1830.51 1485.58 L1808.56 1485.58 L1808.56 1481.64 Q1811.22 1478.89 1815.81 1474.26 Q1820.41 1469.61 1821.59 1468.27 Q1823.84 1465.74 1824.72 1464.01 Q1825.62 1462.25 1825.62 1460.56 Q1825.62 1457.8 1823.68 1456.07 Q1821.76 1454.33 1818.65 1454.33 Q1816.45 1454.33 1814 1455.09 Q1811.57 1455.86 1808.79 1457.41 L1808.79 1452.69 Q1811.62 1451.55 1814.07 1450.97 Q1816.52 1450.39 1818.56 1450.39 Q1823.93 1450.39 1827.13 1453.08 Q1830.32 1455.77 1830.32 1460.26 Q1830.32 1462.39 1829.51 1464.31 Q1828.72 1466.2 1826.62 1468.8 Q1826.04 1469.47 1822.94 1472.69 Q1819.83 1475.88 1814.19 1481.64 Z" fill="#000000" fill-rule="evenodd" fill-opacity="1" /><path clip-path="url(#clip350)" d="M2355.77 1455.09 L2343.96 1473.54 L2355.77 1473.54 L2355.77 1455.09 M2354.54 1451.02 L2360.42 1451.02 L2360.42 1473.54 L2365.35 1473.54 L2365.35 1477.43 L2360.42 1477.43 L2360.42 1485.58 L2355.77 1485.58 L2355.77 1477.43 L2340.16 1477.43 L2340.16 1472.92 L2354.54 1451.02 Z" fill="#000000" fill-rule="evenodd" fill-opacity="1" /><path clip-path="url(#clip350)" d="M1298.25 1545.85 Q1298.25 1551.26 1296.51 1557.35 Q1294.8 1563.4 1292.09 1568.3 Q1289.39 1573.16 1285.85 1576.38 Q1282.3 1579.57 1278.92 1579.57 Q1276.76 1579.57 1275.15 1578.38 Q1273.58 1577.15 1272.71 1575.12 Q1271.84 1573.06 1271.42 1570.81 Q1271 1568.52 1271 1566.04 Q1271 1562.34 1271.8 1558.31 Q1272.61 1554.25 1273.96 1550.58 Q1275.32 1546.88 1277.22 1543.53 Q1279.12 1540.15 1281.21 1537.7 Q1283.33 1535.22 1285.72 1533.77 Q1288.1 1532.32 1290.32 1532.32 Q1291.93 1532.32 1293.22 1533.03 Q1294.54 1533.71 1295.38 1534.9 Q1296.22 1536.06 1296.8 1537.44 Q1297.41 1538.83 1297.7 1540.44 Q1297.99 1542.02 1298.12 1543.34 Q1298.25 1544.63 1298.25 1545.85 M1293.9 1541.76 Q1293.9 1540.12 1293.77 1538.89 Q1293.64 1537.64 1293.29 1536.38 Q1292.93 1535.12 1292.16 1534.45 Q1291.42 1533.77 1290.26 1533.77 Q1286.88 1533.77 1283.08 1540.7 Q1281.85 1542.85 1280.76 1545.78 Q1279.66 1548.72 1279.28 1550.1 Q1278.89 1551.49 1277.99 1554.9 L1291.77 1554.9 Q1293.9 1546.11 1293.9 1541.76 M1291.19 1556.99 L1277.47 1556.99 Q1275.35 1565.04 1275.35 1570.07 Q1275.35 1574.45 1276.25 1576.28 Q1277.18 1578.09 1278.92 1578.09 Q1280.92 1578.09 1282.79 1576.09 Q1284.66 1574.06 1286.56 1570.39 Q1289.07 1565.62 1291.19 1556.99 Z" fill="#000000" fill-rule="evenodd" fill-opacity="1" /><polyline clip-path="url(#clip352)" style="stroke:#000000; stroke-linecap:butt; stroke-linejoin:round; stroke-width:2; stroke-opacity:0.1; fill:none" points="
  219.866,1384.25 2352.76,1384.25 
  "/>
<polyline clip-path="url(#clip352)" style="stroke:#000000; stroke-linecap:butt; stroke-linejoin:round; stroke-width:2; stroke-opacity:0.1; fill:none" points="
  219.866,1056.08 2352.76,1056.08 
  "/>
<polyline clip-path="url(#clip352)" style="stroke:#000000; stroke-linecap:butt; stroke-linejoin:round; stroke-width:2; stroke-opacity:0.1; fill:none" points="
  219.866,727.903 2352.76,727.903 
  "/>
<polyline clip-path="url(#clip352)" style="stroke:#000000; stroke-linecap:butt; stroke-linejoin:round; stroke-width:2; stroke-opacity:0.1; fill:none" points="
  219.866,399.731 2352.76,399.731 
  "/>
<polyline clip-path="url(#clip352)" style="stroke:#000000; stroke-linecap:butt; stroke-linejoin:round; stroke-width:2; stroke-opacity:0.1; fill:none" points="
  219.866,71.5588 2352.76,71.5588 
  "/>
<polyline clip-path="url(#clip350)" style="stroke:#000000; stroke-linecap:butt; stroke-linejoin:round; stroke-width:4; stroke-opacity:1; fill:none" points="
  219.866,1423.18 219.866,47.2441 
  "/>
<polyline clip-path="url(#clip350)" style="stroke:#000000; stroke-linecap:butt; stroke-linejoin:round; stroke-width:4; stroke-opacity:1; fill:none" points="
  219.866,1384.25 238.764,1384.25 
  "/>
<polyline clip-path="url(#clip350)" style="stroke:#000000; stroke-linecap:butt; stroke-linejoin:round; stroke-width:4; stroke-opacity:1; fill:none" points="
  219.866,1056.08 238.764,1056.08 
  "/>
<polyline clip-path="url(#clip350)" style="stroke:#000000; stroke-linecap:butt; stroke-linejoin:round; stroke-width:4; stroke-opacity:1; fill:none" points="
  219.866,727.903 238.764,727.903 
  "/>
<polyline clip-path="url(#clip350)" style="stroke:#000000; stroke-linecap:butt; stroke-linejoin:round; stroke-width:4; stroke-opacity:1; fill:none" points="
  219.866,399.731 238.764,399.731 
  "/>
<polyline clip-path="url(#clip350)" style="stroke:#000000; stroke-linecap:butt; stroke-linejoin:round; stroke-width:4; stroke-opacity:1; fill:none" points="
  219.866,71.5588 238.764,71.5588 
  "/>
<path clip-path="url(#clip350)" d="M126.691 1370.05 Q123.08 1370.05 121.251 1373.61 Q119.445 1377.15 119.445 1384.28 Q119.445 1391.39 121.251 1394.95 Q123.08 1398.5 126.691 1398.5 Q130.325 1398.5 132.13 1394.95 Q133.959 1391.39 133.959 1384.28 Q133.959 1377.15 132.13 1373.61 Q130.325 1370.05 126.691 1370.05 M126.691 1366.34 Q132.501 1366.34 135.556 1370.95 Q138.635 1375.53 138.635 1384.28 Q138.635 1393.01 135.556 1397.62 Q132.501 1402.2 126.691 1402.2 Q120.88 1402.2 117.802 1397.62 Q114.746 1393.01 114.746 1384.28 Q114.746 1375.53 117.802 1370.95 Q120.88 1366.34 126.691 1366.34 Z" fill="#000000" fill-rule="evenodd" fill-opacity="1" /><path clip-path="url(#clip350)" d="M146.853 1395.65 L151.737 1395.65 L151.737 1401.53 L146.853 1401.53 L146.853 1395.65 Z" fill="#000000" fill-rule="evenodd" fill-opacity="1" /><path clip-path="url(#clip350)" d="M171.922 1370.05 Q168.311 1370.05 166.482 1373.61 Q164.677 1377.15 164.677 1384.28 Q164.677 1391.39 166.482 1394.95 Q168.311 1398.5 171.922 1398.5 Q175.556 1398.5 177.362 1394.95 Q179.19 1391.39 179.19 1384.28 Q179.19 1377.15 177.362 1373.61 Q175.556 1370.05 171.922 1370.05 M171.922 1366.34 Q177.732 1366.34 180.788 1370.95 Q183.866 1375.53 183.866 1384.28 Q183.866 1393.01 180.788 1397.62 Q177.732 1402.2 171.922 1402.2 Q166.112 1402.2 163.033 1397.62 Q159.978 1393.01 159.978 1384.28 Q159.978 1375.53 163.033 1370.95 Q166.112 1366.34 171.922 1366.34 Z" fill="#000000" fill-rule="evenodd" fill-opacity="1" /><path clip-path="url(#clip350)" d="M127.917 1041.87 Q124.306 1041.87 122.478 1045.44 Q120.672 1048.98 120.672 1056.11 Q120.672 1063.22 122.478 1066.78 Q124.306 1070.32 127.917 1070.32 Q131.552 1070.32 133.357 1066.78 Q135.186 1063.22 135.186 1056.11 Q135.186 1048.98 133.357 1045.44 Q131.552 1041.87 127.917 1041.87 M127.917 1038.17 Q133.728 1038.17 136.783 1042.78 Q139.862 1047.36 139.862 1056.11 Q139.862 1064.84 136.783 1069.44 Q133.728 1074.03 127.917 1074.03 Q122.107 1074.03 119.029 1069.44 Q115.973 1064.84 115.973 1056.11 Q115.973 1047.36 119.029 1042.78 Q122.107 1038.17 127.917 1038.17 Z" fill="#000000" fill-rule="evenodd" fill-opacity="1" /><path clip-path="url(#clip350)" d="M148.079 1067.48 L152.964 1067.48 L152.964 1073.36 L148.079 1073.36 L148.079 1067.48 Z" fill="#000000" fill-rule="evenodd" fill-opacity="1" /><path clip-path="url(#clip350)" d="M163.959 1069.42 L171.598 1069.42 L171.598 1043.05 L163.288 1044.72 L163.288 1040.46 L171.552 1038.8 L176.227 1038.8 L176.227 1069.42 L183.866 1069.42 L183.866 1073.36 L163.959 1073.36 L163.959 1069.42 Z" fill="#000000" fill-rule="evenodd" fill-opacity="1" /><path clip-path="url(#clip350)" d="M128.288 713.702 Q124.677 713.702 122.848 717.267 Q121.043 720.808 121.043 727.938 Q121.043 735.044 122.848 738.609 Q124.677 742.151 128.288 742.151 Q131.922 742.151 133.728 738.609 Q135.556 735.044 135.556 727.938 Q135.556 720.808 133.728 717.267 Q131.922 713.702 128.288 713.702 M128.288 709.998 Q134.098 709.998 137.154 714.605 Q140.232 719.188 140.232 727.938 Q140.232 736.665 137.154 741.271 Q134.098 745.854 128.288 745.854 Q122.478 745.854 119.399 741.271 Q116.343 736.665 116.343 727.938 Q116.343 719.188 119.399 714.605 Q122.478 709.998 128.288 709.998 Z" fill="#000000" fill-rule="evenodd" fill-opacity="1" /><path clip-path="url(#clip350)" d="M148.45 739.304 L153.334 739.304 L153.334 745.183 L148.45 745.183 L148.45 739.304 Z" fill="#000000" fill-rule="evenodd" fill-opacity="1" /><path clip-path="url(#clip350)" d="M167.547 741.248 L183.866 741.248 L183.866 745.183 L161.922 745.183 L161.922 741.248 Q164.584 738.493 169.167 733.864 Q173.774 729.211 174.954 727.868 Q177.2 725.345 178.079 723.609 Q178.982 721.85 178.982 720.16 Q178.982 717.406 177.038 715.669 Q175.116 713.933 172.014 713.933 Q169.815 713.933 167.362 714.697 Q164.931 715.461 162.153 717.012 L162.153 712.29 Q164.977 711.156 167.431 710.577 Q169.885 709.998 171.922 709.998 Q177.292 709.998 180.487 712.683 Q183.681 715.369 183.681 719.859 Q183.681 721.989 182.871 723.91 Q182.084 725.808 179.977 728.401 Q179.399 729.072 176.297 732.29 Q173.195 735.484 167.547 741.248 Z" fill="#000000" fill-rule="evenodd" fill-opacity="1" /><path clip-path="url(#clip350)" d="M127.339 385.53 Q123.728 385.53 121.899 389.095 Q120.093 392.636 120.093 399.766 Q120.093 406.872 121.899 410.437 Q123.728 413.979 127.339 413.979 Q130.973 413.979 132.779 410.437 Q134.607 406.872 134.607 399.766 Q134.607 392.636 132.779 389.095 Q130.973 385.53 127.339 385.53 M127.339 381.826 Q133.149 381.826 136.204 386.432 Q139.283 391.016 139.283 399.766 Q139.283 408.493 136.204 413.099 Q133.149 417.682 127.339 417.682 Q121.529 417.682 118.45 413.099 Q115.394 408.493 115.394 399.766 Q115.394 391.016 118.45 386.432 Q121.529 381.826 127.339 381.826 Z" fill="#000000" fill-rule="evenodd" fill-opacity="1" /><path clip-path="url(#clip350)" d="M147.501 411.131 L152.385 411.131 L152.385 417.011 L147.501 417.011 L147.501 411.131 Z" fill="#000000" fill-rule="evenodd" fill-opacity="1" /><path clip-path="url(#clip350)" d="M176.737 398.377 Q180.093 399.094 181.968 401.363 Q183.866 403.631 183.866 406.965 Q183.866 412.08 180.348 414.881 Q176.829 417.682 170.348 417.682 Q168.172 417.682 165.857 417.242 Q163.565 416.826 161.112 415.969 L161.112 411.455 Q163.056 412.59 165.371 413.168 Q167.686 413.747 170.209 413.747 Q174.607 413.747 176.899 412.011 Q179.214 410.275 179.214 406.965 Q179.214 403.909 177.061 402.196 Q174.931 400.46 171.112 400.46 L167.084 400.46 L167.084 396.618 L171.297 396.618 Q174.746 396.618 176.575 395.252 Q178.403 393.863 178.403 391.27 Q178.403 388.608 176.505 387.196 Q174.63 385.761 171.112 385.761 Q169.19 385.761 166.991 386.178 Q164.792 386.595 162.153 387.474 L162.153 383.307 Q164.815 382.567 167.13 382.196 Q169.468 381.826 171.528 381.826 Q176.852 381.826 179.954 384.257 Q183.056 386.664 183.056 390.784 Q183.056 393.655 181.413 395.645 Q179.769 397.613 176.737 398.377 Z" fill="#000000" fill-rule="evenodd" fill-opacity="1" /><path clip-path="url(#clip350)" d="M126.205 57.3575 Q122.593 57.3575 120.765 60.9223 Q118.959 64.464 118.959 71.5936 Q118.959 78.7 120.765 82.2648 Q122.593 85.8065 126.205 85.8065 Q129.839 85.8065 131.644 82.2648 Q133.473 78.7 133.473 71.5936 Q133.473 64.464 131.644 60.9223 Q129.839 57.3575 126.205 57.3575 M126.205 53.6538 Q132.015 53.6538 135.07 58.2603 Q138.149 62.8436 138.149 71.5936 Q138.149 80.3204 135.07 84.9268 Q132.015 89.5101 126.205 89.5101 Q120.394 89.5101 117.316 84.9268 Q114.26 80.3204 114.26 71.5936 Q114.26 62.8436 117.316 58.2603 Q120.394 53.6538 126.205 53.6538 Z" fill="#000000" fill-rule="evenodd" fill-opacity="1" /><path clip-path="url(#clip350)" d="M146.366 82.9592 L151.251 82.9592 L151.251 88.8388 L146.366 88.8388 L146.366 82.9592 Z" fill="#000000" fill-rule="evenodd" fill-opacity="1" /><path clip-path="url(#clip350)" d="M174.283 58.3529 L162.477 76.8019 L174.283 76.8019 L174.283 58.3529 M173.056 54.2788 L178.936 54.2788 L178.936 76.8019 L183.866 76.8019 L183.866 80.6907 L178.936 80.6907 L178.936 88.8388 L174.283 88.8388 L174.283 80.6907 L158.681 80.6907 L158.681 76.1769 L173.056 54.2788 Z" fill="#000000" fill-rule="evenodd" fill-opacity="1" /><path clip-path="url(#clip350)" d="M21.7677 848.522 L58.7206 848.522 L58.7206 840.755 Q58.7206 830.92 54.2646 826.369 Q49.8086 821.786 40.1964 821.786 Q30.6479 821.786 26.2237 826.369 Q21.7677 830.92 21.7677 840.755 L21.7677 848.522 M16.4842 854.951 L16.4842 841.742 Q16.4842 827.928 22.2451 821.467 Q27.9743 815.006 40.1964 815.006 Q52.4822 815.006 58.2432 821.499 Q64.0042 827.992 64.0042 841.742 L64.0042 854.951 L16.4842 854.951 Z" fill="#000000" fill-rule="evenodd" fill-opacity="1" /><path clip-path="url(#clip350)" d="M44.7161 774.52 L47.5806 774.52 L47.5806 801.447 Q53.6281 801.065 56.8109 797.819 Q59.9619 794.54 59.9619 788.716 Q59.9619 785.342 59.1344 782.191 Q58.3069 779.008 56.6518 775.889 L62.1899 775.889 Q63.5267 779.04 64.227 782.35 Q64.9272 785.66 64.9272 789.066 Q64.9272 797.596 59.9619 802.593 Q54.9967 807.558 46.5303 807.558 Q37.7774 807.558 32.6531 802.848 Q27.4968 798.105 27.4968 790.084 Q27.4968 782.891 32.1438 778.722 Q36.7589 774.52 44.7161 774.52 M42.9973 780.377 Q38.1912 780.44 35.3266 783.082 Q32.4621 785.692 32.4621 790.021 Q32.4621 794.922 35.2312 797.882 Q38.0002 800.811 43.0292 801.256 L42.9973 780.377 Z" fill="#000000" fill-rule="evenodd" fill-opacity="1" /><path clip-path="url(#clip350)" d="M42.4881 735.276 L64.0042 735.276 L64.0042 741.132 L42.679 741.132 Q37.6183 741.132 35.1038 743.105 Q32.5894 745.079 32.5894 749.026 Q32.5894 753.768 35.6131 756.505 Q38.6368 759.243 43.8567 759.243 L64.0042 759.243 L64.0042 765.131 L28.3562 765.131 L28.3562 759.243 L33.8944 759.243 Q30.6797 757.142 29.0883 754.309 Q27.4968 751.445 27.4968 747.721 Q27.4968 741.578 31.3163 738.427 Q35.1038 735.276 42.4881 735.276 Z" fill="#000000" fill-rule="evenodd" fill-opacity="1" /><path clip-path="url(#clip350)" d="M29.4065 700.869 L34.9447 700.869 Q33.6716 703.352 33.035 706.025 Q32.3984 708.699 32.3984 711.563 Q32.3984 715.924 33.7352 718.12 Q35.072 720.284 37.7456 720.284 Q39.7826 720.284 40.9603 718.725 Q42.1061 717.165 43.1565 712.455 L43.6021 710.449 Q44.9389 704.211 47.3897 701.601 Q49.8086 698.959 54.1691 698.959 Q59.1344 698.959 62.0308 702.906 Q64.9272 706.821 64.9272 713.696 Q64.9272 716.56 64.3543 719.68 Q63.8132 722.767 62.6992 726.204 L56.6518 726.204 Q58.3387 722.958 59.198 719.807 Q60.0256 716.656 60.0256 713.569 Q60.0256 709.431 58.6251 707.203 Q57.1929 704.975 54.6147 704.975 Q52.2276 704.975 50.9545 706.598 Q49.6813 708.19 48.5037 713.632 L48.0262 715.669 Q46.8804 721.112 44.5251 723.531 Q42.138 725.95 38.0002 725.95 Q32.9713 725.95 30.2341 722.385 Q27.4968 718.82 27.4968 712.264 Q27.4968 709.017 27.9743 706.153 Q28.4517 703.288 29.4065 700.869 Z" fill="#000000" fill-rule="evenodd" fill-opacity="1" /><path clip-path="url(#clip350)" d="M28.3562 689.634 L28.3562 683.777 L64.0042 683.777 L64.0042 689.634 L28.3562 689.634 M14.479 689.634 L14.479 683.777 L21.895 683.777 L21.895 689.634 L14.479 689.634 Z" fill="#000000" fill-rule="evenodd" fill-opacity="1" /><path clip-path="url(#clip350)" d="M18.2347 665.73 L28.3562 665.73 L28.3562 653.667 L32.9077 653.667 L32.9077 665.73 L52.2594 665.73 Q56.6199 665.73 57.8613 664.553 Q59.1026 663.343 59.1026 659.683 L59.1026 653.667 L64.0042 653.667 L64.0042 659.683 Q64.0042 666.462 61.4897 669.04 Q58.9434 671.619 52.2594 671.619 L32.9077 671.619 L32.9077 675.915 L28.3562 675.915 L28.3562 671.619 L18.2347 671.619 L18.2347 665.73 Z" fill="#000000" fill-rule="evenodd" fill-opacity="1" /><path clip-path="url(#clip350)" d="M67.3143 631.133 Q73.68 633.615 75.6216 635.971 Q77.5631 638.326 77.5631 642.273 L77.5631 646.951 L72.6615 646.951 L72.6615 643.514 Q72.6615 641.095 71.5157 639.758 Q70.3699 638.421 66.1048 636.798 L63.4312 635.748 L28.3562 650.166 L28.3562 643.96 L56.238 632.82 L28.3562 621.68 L28.3562 615.473 L67.3143 631.133 Z" fill="#000000" fill-rule="evenodd" fill-opacity="1" /><polyline clip-path="url(#clip352)" style="stroke:#009af9; stroke-linecap:butt; stroke-linejoin:round; stroke-width:20; stroke-opacity:1; fill:none" points="
  -17563.1,1384.24 -17195,1384.24 -13790.8,1384.23 -11745,1384.22 -10015.4,1384.2 -8136.45,1384.17 -6404.26,1384.11 -4547.18,1383.94 -2395.56,1383.02 -1917.53,1382.4 
  -1439.51,1381.26 -961.483,1378.99 -483.458,1373.75 -273.865,1369.21 -64.2728,1361.69 40.5236,1356.04 145.32,1348.41 250.116,1337.86 354.912,1322.95 459.709,1301.32 
  564.505,1269.09 616.903,1247.11 669.301,1219.75 721.7,1185.52 774.098,1142.52 826.496,1088.46 878.894,1020.68 905.093,980.786 931.292,936.488 957.491,887.56 
  983.69,833.908 1036.09,713.092 1088.49,578.593 1114.69,509.482 1140.88,441.902 1167.08,378.538 1193.28,322.405 1207.56,295.959 1221.85,273.06 1236.13,254.144 
  1250.41,239.585 1264.69,229.682 1278.98,224.642 1293.26,224.574 1307.54,229.479 1321.82,239.251 1336.1,253.687 1350.39,272.489 1364.67,295.284 1393.23,351.078 
  1421.8,417.201 1478.92,564.835 1536.05,711.904 1564.62,779.965 1593.18,842.926 1621.74,900.354 1650.31,952.179 1678.87,998.58 1707.44,1039.89 1736,1076.51 
  1764.56,1108.91 1821.69,1162.75 1878.82,1204.71 1935.95,1237.49 1993.08,1263.25 2050.2,1283.65 2107.33,1299.91 2221.59,1323.6 2335.84,1339.41 2450.1,1350.28 
  2564.36,1357.96 2792.87,1367.64 3021.38,1373.14 3481.12,1378.62 3940.86,1381.02 4400.6,1382.23 4860.34,1382.91 6893.55,1383.9 8828.1,1384.1 10839.6,1384.18 
  12532.8,1384.2 14600.1,1384.22 16543.3,1384.23 19656.6,1384.24 20135.7,1384.24 
  "/>
<polyline clip-path="url(#clip352)" style="stroke:#e26f46; stroke-linecap:butt; stroke-linejoin:round; stroke-width:20; stroke-opacity:1; fill:none" points="
  -431.198,1383.9 -397.652,1383.84 -87.4734,1382.49 98.9313,1379.61 256.534,1373.12 342.135,1366.03 427.735,1354.13 506.651,1336.1 585.567,1307.16 627.87,1285.17 
  670.173,1257.17 712.476,1221.81 754.78,1177.62 803.792,1113.37 852.804,1033.14 877.31,986.588 901.817,935.663 926.323,880.453 950.829,821.196 994.385,707.284 
  1037.94,585.886 1081.5,462.997 1125.05,346.506 1144.15,299.756 1163.25,256.767 1182.35,218.305 1201.44,185.086 1220.54,157.754 1239.64,136.855 1258.74,122.816 
  1277.83,115.93 1298.66,116.738 1319.48,126.197 1340.3,144.072 1361.12,169.922 1381.94,203.125 1402.76,242.906 1423.58,288.369 1444.41,338.539 1528.19,567.486 
  1611.97,796.386 1635.12,853.914 1658.28,907.974 1681.44,958.296 1704.6,1004.74 1750.91,1085.98 1797.23,1152.42 1841.3,1203.3 1885.36,1243.86 1929.43,1275.79 
  1973.5,1300.69 2065.14,1335.86 2156.78,1356.17 2233.92,1366.39 2311.06,1372.79 2499.42,1380.2 2676.49,1382.63 2960.16,1383.83 3003.82,1383.9 
  "/>
<polyline clip-path="url(#clip352)" style="stroke:#3da44d; stroke-linecap:butt; stroke-linejoin:round; stroke-width:20; stroke-opacity:1; fill:none" points="
  157.483,1383.34 179.531,1383.1 383.395,1375.66 444.652,1369.02 505.909,1357.81 557.701,1342.85 609.493,1320.64 665.754,1285.19 722.014,1234.1 747.948,1204.14 
  773.882,1169.62 799.815,1130.21 825.749,1085.68 853.553,1032.09 881.356,972.467 909.16,907.035 936.964,836.28 1001.39,656.657 1065.82,468.78 1094.44,388.439 
  1123.07,313.231 1151.7,245.485 1180.33,187.432 1205.43,146.095 1230.53,114.904 1255.64,94.7405 1280.74,86.1857 1308.11,90.3689 1335.48,108.496 1362.85,139.944 
  1390.22,183.652 1417.75,238.534 1445.28,302.602 1472.82,373.888 1500.35,450.328 1561.23,627.521 1622.11,800.09 1651.07,876.125 1680.04,946.718 1709,1011.19 
  1737.96,1069.17 1768.08,1122.48 1798.19,1168.84 1828.31,1208.61 1858.42,1242.29 1883.77,1266.35 1909.12,1286.89 1934.48,1304.29 1959.83,1318.92 2021.73,1345.18 
  2083.63,1361.49 2141.81,1370.85 2200,1376.49 2293.22,1381.12 2386.45,1383.02 2400.79,1383.19 2415.14,1383.34 
  "/>
<path clip-path="url(#clip350)" d="
M1909.97 300.469 L2281.66 300.469 L2281.66 93.1086 L1909.97 93.1086  Z
  " fill="#ffffff" fill-rule="evenodd" fill-opacity="1"/>
<polyline clip-path="url(#clip350)" style="stroke:#000000; stroke-linecap:butt; stroke-linejoin:round; stroke-width:4; stroke-opacity:1; fill:none" points="
  1909.97,300.469 2281.66,300.469 2281.66,93.1086 1909.97,93.1086 1909.97,300.469 
  "/>
<polyline clip-path="url(#clip350)" style="stroke:#009af9; stroke-linecap:butt; stroke-linejoin:round; stroke-width:4; stroke-opacity:1; fill:none" points="
  1933.67,144.949 2075.87,144.949 
  "/>
<path clip-path="url(#clip350)" d="M2122.14 147.772 Q2122.14 147.983 2121.96 148.709 Q2121.79 149.411 2121.25 150.793 Q2120.74 152.152 2119.94 153.674 Q2119.17 155.173 2117.74 157.071 Q2116.31 158.968 2114.53 160.631 Q2111.18 163.769 2107.6 165.456 Q2104.04 167.142 2100.99 167.681 L2100.31 167.681 Q2099.57 167.681 2099.57 167.095 L2100.08 164.941 L2103.01 153.206 Q2103.92 149.622 2103.92 149.318 Q2103.92 149.037 2103.8 148.896 Q2103.71 148.732 2103.15 148.615 Q2102.61 148.498 2101.53 148.498 Q2101.09 148.498 2100.88 148.475 Q2100.69 148.451 2100.53 148.334 Q2100.36 148.193 2100.36 147.912 Q2100.36 147.514 2100.53 147.303 Q2100.71 147.069 2100.85 147.022 Q2100.99 146.975 2101.27 146.952 Q2101.67 146.929 2103.01 146.812 Q2104.34 146.671 2105.49 146.577 Q2106.64 146.484 2107.13 146.484 Q2107.41 146.484 2107.58 146.624 Q2107.74 146.741 2107.74 146.882 L2107.76 146.999 L2103.06 166.088 Q2104.79 165.526 2106.5 164.589 Q2108.23 163.652 2110.11 162.106 Q2111.98 160.537 2113.57 158.593 Q2115.16 156.649 2116.57 153.932 Q2118 151.192 2118.89 148.053 Q2119.05 147.421 2119.45 147.046 Q2119.87 146.671 2120.18 146.577 Q2120.48 146.484 2120.76 146.484 Q2121.39 146.484 2121.77 146.835 Q2122.14 147.163 2122.14 147.772 Z" fill="#000000" fill-rule="evenodd" fill-opacity="1" /><path clip-path="url(#clip350)" d="M2136.32 160.397 Q2136.37 159.811 2137.28 159.811 L2166.67 159.811 Q2168.06 159.811 2168.08 160.35 Q2168.08 160.935 2166.77 160.912 L2137.61 160.912 Q2136.32 160.935 2136.32 160.397 M2136.32 151.028 Q2136.32 150.442 2137.33 150.465 L2166.63 150.465 Q2168.06 150.465 2168.08 151.028 Q2168.08 151.566 2166.86 151.566 L2137.28 151.566 Q2136.32 151.566 2136.32 151.028 Z" fill="#000000" fill-rule="evenodd" fill-opacity="1" /><path clip-path="url(#clip350)" d="M2186.57 167.681 Q2186.57 166.814 2186.64 166.557 Q2186.73 166.299 2187.11 165.901 L2196.31 155.642 Q2201.35 149.974 2201.35 145.031 Q2201.35 141.823 2199.66 139.527 Q2198 137.232 2194.93 137.232 Q2192.82 137.232 2191.04 138.52 Q2189.26 139.808 2188.44 142.104 Q2188.58 142.057 2189.08 142.057 Q2190.27 142.057 2190.93 142.806 Q2191.61 143.556 2191.61 144.563 Q2191.61 145.851 2190.76 146.484 Q2189.94 147.093 2189.12 147.093 Q2188.8 147.093 2188.35 147.022 Q2187.93 146.952 2187.25 146.296 Q2186.57 145.617 2186.57 144.422 Q2186.57 141.073 2189.1 138.403 Q2191.65 135.733 2195.54 135.733 Q2199.94 135.733 2202.83 138.356 Q2205.73 140.956 2205.73 145.031 Q2205.73 146.46 2205.28 147.772 Q2204.86 149.06 2204.28 150.067 Q2203.72 151.074 2202.17 152.691 Q2200.62 154.307 2199.38 155.454 Q2198.14 156.602 2195.35 159.038 L2190.27 163.98 L2198.91 163.98 Q2203.13 163.98 2203.46 163.605 Q2203.93 162.926 2204.51 159.343 L2205.73 159.343 L2204.37 167.681 L2186.57 167.681 Z" fill="#000000" fill-rule="evenodd" fill-opacity="1" /><polyline clip-path="url(#clip350)" style="stroke:#e26f46; stroke-linecap:butt; stroke-linejoin:round; stroke-width:4; stroke-opacity:1; fill:none" points="
  1933.67,196.789 2075.87,196.789 
  "/>
<path clip-path="url(#clip350)" d="M2122.14 199.088 Q2122.14 199.299 2121.96 200.025 Q2121.79 200.728 2121.25 202.11 Q2120.74 203.468 2119.94 204.991 Q2119.17 206.49 2117.74 208.387 Q2116.31 210.284 2114.53 211.947 Q2111.18 215.086 2107.6 216.772 Q2104.04 218.459 2100.99 218.997 L2100.31 218.997 Q2099.57 218.997 2099.57 218.412 L2100.08 216.257 L2103.01 204.522 Q2103.92 200.939 2103.92 200.634 Q2103.92 200.353 2103.8 200.213 Q2103.71 200.049 2103.15 199.932 Q2102.61 199.815 2101.53 199.815 Q2101.09 199.815 2100.88 199.791 Q2100.69 199.768 2100.53 199.651 Q2100.36 199.51 2100.36 199.229 Q2100.36 198.831 2100.53 198.62 Q2100.71 198.386 2100.85 198.339 Q2100.99 198.292 2101.27 198.269 Q2101.67 198.245 2103.01 198.128 Q2104.34 197.988 2105.49 197.894 Q2106.64 197.8 2107.13 197.8 Q2107.41 197.8 2107.58 197.941 Q2107.74 198.058 2107.74 198.198 L2107.76 198.315 L2103.06 217.405 Q2104.79 216.843 2106.5 215.906 Q2108.23 214.969 2110.11 213.423 Q2111.98 211.854 2113.57 209.91 Q2115.16 207.966 2116.57 205.249 Q2118 202.508 2118.89 199.369 Q2119.05 198.737 2119.45 198.362 Q2119.87 197.988 2120.18 197.894 Q2120.48 197.8 2120.76 197.8 Q2121.39 197.8 2121.77 198.152 Q2122.14 198.479 2122.14 199.088 Z" fill="#000000" fill-rule="evenodd" fill-opacity="1" /><path clip-path="url(#clip350)" d="M2136.32 211.713 Q2136.37 211.128 2137.28 211.128 L2166.67 211.128 Q2168.06 211.128 2168.08 211.666 Q2168.08 212.252 2166.77 212.228 L2137.61 212.228 Q2136.32 212.252 2136.32 211.713 M2136.32 202.344 Q2136.32 201.759 2137.33 201.782 L2166.63 201.782 Q2168.06 201.782 2168.08 202.344 Q2168.08 202.883 2166.86 202.883 L2137.28 202.883 Q2136.32 202.883 2136.32 202.344 Z" fill="#000000" fill-rule="evenodd" fill-opacity="1" /><path clip-path="url(#clip350)" d="M2186.57 211.76 Q2186.57 206.396 2193.48 202.93 Q2190.51 200.915 2189.97 200.33 Q2187.86 197.988 2187.86 195.06 Q2187.86 191.71 2190.39 189.392 Q2192.94 187.049 2196.55 187.049 Q2199.99 187.049 2202.59 189.04 Q2205.19 191.031 2205.19 194.193 Q2205.19 198.643 2199.38 201.641 Q2203.22 204.031 2204.14 205.038 Q2206.48 207.638 2206.48 210.94 Q2206.48 214.781 2203.53 217.428 Q2200.58 220.052 2196.5 220.052 Q2192.52 220.052 2189.54 217.733 Q2186.57 215.414 2186.57 211.76 M2188.96 211.76 Q2188.96 214.735 2191.18 216.726 Q2193.43 218.716 2196.55 218.716 Q2199.57 218.716 2201.82 216.983 Q2204.09 215.25 2204.09 212.673 Q2204.09 211.666 2203.74 210.8 Q2203.41 209.933 2202.73 209.254 Q2202.08 208.551 2201.65 208.247 Q2201.26 207.919 2200.48 207.38 L2194.58 203.656 Q2188.96 206.771 2188.96 211.76 M2189.97 193.186 Q2189.97 195.481 2192.38 197.074 L2198.33 200.915 Q2203.08 198.128 2203.08 194.193 Q2203.08 191.64 2201.14 189.954 Q2199.19 188.244 2196.5 188.244 Q2193.85 188.244 2191.91 189.649 Q2189.97 191.031 2189.97 193.186 Z" fill="#000000" fill-rule="evenodd" fill-opacity="1" /><polyline clip-path="url(#clip350)" style="stroke:#3da44d; stroke-linecap:butt; stroke-linejoin:round; stroke-width:4; stroke-opacity:1; fill:none" points="
  1933.67,248.629 2075.87,248.629 
  "/>
<path clip-path="url(#clip350)" d="M2122.14 250.928 Q2122.14 251.139 2121.96 251.865 Q2121.79 252.568 2121.25 253.95 Q2120.74 255.308 2119.94 256.831 Q2119.17 258.33 2117.74 260.227 Q2116.31 262.124 2114.53 263.787 Q2111.18 266.926 2107.6 268.612 Q2104.04 270.299 2100.99 270.837 L2100.31 270.837 Q2099.57 270.837 2099.57 270.252 L2100.08 268.097 L2103.01 256.362 Q2103.92 252.779 2103.92 252.474 Q2103.92 252.193 2103.8 252.053 Q2103.71 251.889 2103.15 251.772 Q2102.61 251.655 2101.53 251.655 Q2101.09 251.655 2100.88 251.631 Q2100.69 251.608 2100.53 251.491 Q2100.36 251.35 2100.36 251.069 Q2100.36 250.671 2100.53 250.46 Q2100.71 250.226 2100.85 250.179 Q2100.99 250.132 2101.27 250.109 Q2101.67 250.085 2103.01 249.968 Q2104.34 249.828 2105.49 249.734 Q2106.64 249.64 2107.13 249.64 Q2107.41 249.64 2107.58 249.781 Q2107.74 249.898 2107.74 250.038 L2107.76 250.155 L2103.06 269.245 Q2104.79 268.683 2106.5 267.746 Q2108.23 266.809 2110.11 265.263 Q2111.98 263.694 2113.57 261.75 Q2115.16 259.806 2116.57 257.089 Q2118 254.348 2118.89 251.209 Q2119.05 250.577 2119.45 250.202 Q2119.87 249.828 2120.18 249.734 Q2120.48 249.64 2120.76 249.64 Q2121.39 249.64 2121.77 249.992 Q2122.14 250.319 2122.14 250.928 Z" fill="#000000" fill-rule="evenodd" fill-opacity="1" /><path clip-path="url(#clip350)" d="M2136.32 263.553 Q2136.37 262.968 2137.28 262.968 L2166.67 262.968 Q2168.06 262.968 2168.08 263.506 Q2168.08 264.092 2166.77 264.068 L2137.61 264.068 Q2136.32 264.092 2136.32 263.553 M2136.32 254.184 Q2136.32 253.599 2137.33 253.622 L2166.63 253.622 Q2168.06 253.622 2168.08 254.184 Q2168.08 254.723 2166.86 254.723 L2137.28 254.723 Q2136.32 254.723 2136.32 254.184 Z" fill="#000000" fill-rule="evenodd" fill-opacity="1" /><path clip-path="url(#clip350)" d="M2186.57 264.373 Q2186.57 262.944 2187.39 262.265 Q2188.21 261.586 2189.26 261.586 Q2190.36 261.586 2191.14 262.312 Q2191.93 263.014 2191.93 264.256 Q2191.93 265.591 2191 266.34 Q2190.08 267.09 2188.77 266.903 Q2189.92 268.823 2192.03 269.69 Q2194.16 270.556 2196.13 270.556 Q2198.19 270.556 2199.85 268.776 Q2201.54 266.996 2201.54 262.64 Q2201.54 258.939 2200.08 256.807 Q2198.66 254.676 2195.82 254.676 L2193.71 254.676 Q2192.99 254.676 2192.78 254.606 Q2192.57 254.535 2192.57 254.137 Q2192.57 253.669 2193.29 253.575 Q2194.02 253.575 2195.17 253.435 Q2197.95 253.341 2199.43 250.928 Q2200.76 248.68 2200.76 245.471 Q2200.76 242.543 2199.36 241.325 Q2197.98 240.084 2196.17 240.084 Q2194.49 240.084 2192.64 240.786 Q2190.79 241.489 2189.78 243.058 Q2192.75 243.058 2192.75 245.471 Q2192.75 246.525 2192.07 247.228 Q2191.42 247.907 2190.32 247.907 Q2189.26 247.907 2188.56 247.251 Q2187.86 246.572 2187.86 245.424 Q2187.86 242.684 2190.29 240.786 Q2192.75 238.889 2196.36 238.889 Q2199.92 238.889 2202.54 240.763 Q2205.19 242.637 2205.19 245.518 Q2205.19 248.352 2203.32 250.671 Q2201.44 252.99 2198.47 253.95 Q2202.12 254.676 2204.3 257.159 Q2206.48 259.618 2206.48 262.64 Q2206.48 266.387 2203.53 269.151 Q2200.58 271.892 2196.27 271.892 Q2192.29 271.892 2189.43 269.737 Q2186.57 267.582 2186.57 264.373 Z" fill="#000000" fill-rule="evenodd" fill-opacity="1" /><path clip-path="url(#clip350)" d="M2210.51 255.496 Q2210.51 248.446 2212.29 244.604 Q2214.77 238.889 2220.63 238.889 Q2221.87 238.889 2223.16 239.241 Q2224.47 239.569 2226.11 240.857 Q2227.77 242.145 2228.78 244.253 Q2230.7 248.329 2230.7 255.496 Q2230.7 262.499 2228.92 266.317 Q2226.32 271.892 2220.58 271.892 Q2218.43 271.892 2216.23 270.791 Q2214.05 269.69 2212.67 267.043 Q2210.51 263.085 2210.51 255.496 M2214.49 254.91 Q2214.49 262.148 2215.01 265.029 Q2215.59 268.144 2217.19 269.502 Q2218.8 270.837 2220.58 270.837 Q2222.5 270.837 2224.1 269.409 Q2225.71 267.957 2226.21 264.841 Q2226.74 261.773 2226.72 254.91 Q2226.72 248.235 2226.25 245.565 Q2225.62 242.449 2223.93 241.208 Q2222.27 239.943 2220.58 239.943 Q2219.95 239.943 2219.27 240.131 Q2218.62 240.318 2217.66 240.857 Q2216.7 241.395 2215.95 242.731 Q2215.22 244.066 2214.87 246.08 Q2214.49 248.68 2214.49 254.91 Z" fill="#000000" fill-rule="evenodd" fill-opacity="1" /></svg>
