<?xml version="1.0" encoding="utf-8"?>
<svg xmlns="http://www.w3.org/2000/svg" xmlns:xlink="http://www.w3.org/1999/xlink" width="600" height="400" viewBox="0 0 2400 1600">
<defs>
  <clipPath id="clip620">
    <rect x="0" y="0" width="2400" height="1600"/>
  </clipPath>
</defs>
<path clip-path="url(#clip620)" d="
M0 1600 L2400 1600 L2400 0 L0 0  Z
  " fill="#ffffff" fill-rule="evenodd" fill-opacity="1"/>
<defs>
  <clipPath id="clip621">
    <rect x="480" y="0" width="1681" height="1600"/>
  </clipPath>
</defs>
<defs>
  <clipPath id="clip622">
    <rect x="219" y="47" width="2134" height="1377"/>
  </clipPath>
</defs>
<path clip-path="url(#clip620)" d="
M219.866 1423.18 L2352.76 1423.18 L2352.76 47.2441 L219.866 47.2441  Z
  " fill="#ffffff" fill-rule="evenodd" fill-opacity="1"/>
<polyline clip-path="url(#clip622)" style="stroke:#000000; stroke-linecap:butt; stroke-linejoin:round; stroke-width:2; stroke-opacity:0.1; fill:none" points="
  219.866,1423.18 219.866,47.2441 
  "/>
<polyline clip-path="url(#clip622)" style="stroke:#000000; stroke-linecap:butt; stroke-linejoin:round; stroke-width:2; stroke-opacity:0.1; fill:none" points="
  753.089,1423.18 753.089,47.2441 
  "/>
<polyline clip-path="url(#clip622)" style="stroke:#000000; stroke-linecap:butt; stroke-linejoin:round; stroke-width:2; stroke-opacity:0.1; fill:none" points="
  1286.31,1423.18 1286.31,47.2441 
  "/>
<polyline clip-path="url(#clip622)" style="stroke:#000000; stroke-linecap:butt; stroke-linejoin:round; stroke-width:2; stroke-opacity:0.1; fill:none" points="
  1819.53,1423.18 1819.53,47.2441 
  "/>
<polyline clip-path="url(#clip622)" style="stroke:#000000; stroke-linecap:butt; stroke-linejoin:round; stroke-width:2; stroke-opacity:0.1; fill:none" points="
  2352.76,1423.18 2352.76,47.2441 
  "/>
<polyline clip-path="url(#clip620)" style="stroke:#000000; stroke-linecap:butt; stroke-linejoin:round; stroke-width:4; stroke-opacity:1; fill:none" points="
  219.866,1423.18 2352.76,1423.18 
  "/>
<polyline clip-path="url(#clip620)" style="stroke:#000000; stroke-linecap:butt; stroke-linejoin:round; stroke-width:4; stroke-opacity:1; fill:none" points="
  219.866,1423.18 219.866,1404.28 
  "/>
<polyline clip-path="url(#clip620)" style="stroke:#000000; stroke-linecap:butt; stroke-linejoin:round; stroke-width:4; stroke-opacity:1; fill:none" points="
  753.089,1423.18 753.089,1404.28 
  "/>
<polyline clip-path="url(#clip620)" style="stroke:#000000; stroke-linecap:butt; stroke-linejoin:round; stroke-width:4; stroke-opacity:1; fill:none" points="
  1286.31,1423.18 1286.31,1404.28 
  "/>
<polyline clip-path="url(#clip620)" style="stroke:#000000; stroke-linecap:butt; stroke-linejoin:round; stroke-width:4; stroke-opacity:1; fill:none" points="
  1819.53,1423.18 1819.53,1404.28 
  "/>
<polyline clip-path="url(#clip620)" style="stroke:#000000; stroke-linecap:butt; stroke-linejoin:round; stroke-width:4; stroke-opacity:1; fill:none" points="
  2352.76,1423.18 2352.76,1404.28 
  "/>
<path clip-path="url(#clip620)" d="M188.767 1468.75 L218.443 1468.75 L218.443 1472.69 L188.767 1472.69 L188.767 1468.75 Z" fill="#000000" fill-rule="evenodd" fill-opacity="1" /><path clip-path="url(#clip620)" d="M241.382 1455.09 L229.577 1473.54 L241.382 1473.54 L241.382 1455.09 M240.156 1451.02 L246.035 1451.02 L246.035 1473.54 L250.966 1473.54 L250.966 1477.43 L246.035 1477.43 L246.035 1485.58 L241.382 1485.58 L241.382 1477.43 L225.781 1477.43 L225.781 1472.92 L240.156 1451.02 Z" fill="#000000" fill-rule="evenodd" fill-opacity="1" /><path clip-path="url(#clip620)" d="M723.031 1468.75 L752.707 1468.75 L752.707 1472.69 L723.031 1472.69 L723.031 1468.75 Z" fill="#000000" fill-rule="evenodd" fill-opacity="1" /><path clip-path="url(#clip620)" d="M766.827 1481.64 L783.146 1481.64 L783.146 1485.58 L761.202 1485.58 L761.202 1481.64 Q763.864 1478.89 768.447 1474.26 Q773.054 1469.61 774.234 1468.27 Q776.48 1465.74 777.359 1464.01 Q778.262 1462.25 778.262 1460.56 Q778.262 1457.8 776.318 1456.07 Q774.396 1454.33 771.295 1454.33 Q769.096 1454.33 766.642 1455.09 Q764.211 1455.86 761.434 1457.41 L761.434 1452.69 Q764.258 1451.55 766.711 1450.97 Q769.165 1450.39 771.202 1450.39 Q776.572 1450.39 779.767 1453.08 Q782.961 1455.77 782.961 1460.26 Q782.961 1462.39 782.151 1464.31 Q781.364 1466.2 779.258 1468.8 Q778.679 1469.47 775.577 1472.69 Q772.475 1475.88 766.827 1481.64 Z" fill="#000000" fill-rule="evenodd" fill-opacity="1" /><path clip-path="url(#clip620)" d="M1286.31 1454.1 Q1282.7 1454.1 1280.87 1457.66 Q1279.07 1461.2 1279.07 1468.33 Q1279.07 1475.44 1280.87 1479.01 Q1282.7 1482.55 1286.31 1482.55 Q1289.95 1482.55 1291.75 1479.01 Q1293.58 1475.44 1293.58 1468.33 Q1293.58 1461.2 1291.75 1457.66 Q1289.95 1454.1 1286.31 1454.1 M1286.31 1450.39 Q1292.12 1450.39 1295.18 1455 Q1298.26 1459.58 1298.26 1468.33 Q1298.26 1477.06 1295.18 1481.67 Q1292.12 1486.25 1286.31 1486.25 Q1280.5 1486.25 1277.42 1481.67 Q1274.37 1477.06 1274.37 1468.33 Q1274.37 1459.58 1277.42 1455 Q1280.5 1450.39 1286.31 1450.39 Z" fill="#000000" fill-rule="evenodd" fill-opacity="1" /><path clip-path="url(#clip620)" d="M1814.19 1481.64 L1830.51 1481.64 L1830.51 1485.58 L1808.56 1485.58 L1808.56 1481.64 Q1811.22 1478.89 1815.81 1474.26 Q1820.41 1469.61 1821.59 1468.27 Q1823.84 1465.74 1824.72 1464.01 Q1825.62 1462.25 1825.62 1460.56 Q1825.62 1457.8 1823.68 1456.07 Q1821.76 1454.33 1818.65 1454.33 Q1816.45 1454.33 1814 1455.09 Q1811.57 1455.86 1808.79 1457.41 L1808.79 1452.69 Q1811.62 1451.55 1814.07 1450.97 Q1816.52 1450.39 1818.56 1450.39 Q1823.93 1450.39 1827.13 1453.08 Q1830.32 1455.77 1830.32 1460.26 Q1830.32 1462.39 1829.51 1464.31 Q1828.72 1466.2 1826.62 1468.8 Q1826.04 1469.47 1822.94 1472.69 Q1819.83 1475.88 1814.19 1481.64 Z" fill="#000000" fill-rule="evenodd" fill-opacity="1" /><path clip-path="url(#clip620)" d="M2355.77 1455.09 L2343.96 1473.54 L2355.77 1473.54 L2355.77 1455.09 M2354.54 1451.02 L2360.42 1451.02 L2360.42 1473.54 L2365.35 1473.54 L2365.35 1477.43 L2360.42 1477.43 L2360.42 1485.58 L2355.77 1485.58 L2355.77 1477.43 L2340.16 1477.43 L2340.16 1472.92 L2354.54 1451.02 Z" fill="#000000" fill-rule="evenodd" fill-opacity="1" /><path clip-path="url(#clip620)" d="M1300.48 1545.44 Q1300.48 1547.24 1299.36 1548.27 Q1298.23 1549.27 1296.94 1549.27 Q1295.72 1549.27 1295.07 1548.56 Q1294.43 1547.85 1294.43 1546.95 Q1294.43 1545.73 1295.33 1544.66 Q1296.23 1543.6 1297.59 1543.37 Q1296.27 1542.54 1294.3 1542.54 Q1293.01 1542.54 1291.89 1543.21 Q1290.79 1543.89 1290.11 1544.76 Q1289.47 1545.63 1288.89 1546.88 Q1288.34 1548.11 1288.12 1548.85 Q1287.92 1549.56 1287.76 1550.33 L1285.51 1559.35 Q1284.41 1563.63 1284.41 1565.15 Q1284.41 1567.01 1285.32 1568.27 Q1286.22 1569.49 1288.02 1569.49 Q1288.73 1569.49 1289.53 1569.3 Q1290.34 1569.07 1291.37 1568.5 Q1292.43 1567.88 1293.37 1566.98 Q1294.33 1566.05 1295.27 1564.47 Q1296.2 1562.89 1296.81 1560.86 Q1297.01 1560.15 1297.65 1560.15 Q1298.46 1560.15 1298.46 1560.8 Q1298.46 1561.35 1298 1562.5 Q1297.59 1563.63 1296.65 1565.11 Q1295.75 1566.56 1294.56 1567.88 Q1293.37 1569.17 1291.6 1570.07 Q1289.82 1570.97 1287.89 1570.97 Q1285.12 1570.97 1283.29 1569.49 Q1281.45 1568.01 1280.77 1565.95 Q1280.61 1566.24 1280.39 1566.63 Q1280.16 1567.01 1279.49 1567.88 Q1278.84 1568.72 1278.1 1569.36 Q1277.36 1569.98 1276.2 1570.46 Q1275.07 1570.97 1273.85 1570.97 Q1272.3 1570.97 1270.92 1570.52 Q1269.57 1570.07 1268.6 1569.04 Q1267.63 1568.01 1267.63 1566.59 Q1267.63 1565.02 1268.7 1563.92 Q1269.79 1562.79 1271.27 1562.79 Q1272.21 1562.79 1272.95 1563.34 Q1273.72 1563.89 1273.72 1565.08 Q1273.72 1566.4 1272.82 1567.4 Q1271.92 1568.4 1270.63 1568.66 Q1271.95 1569.49 1273.91 1569.49 Q1276.04 1569.49 1277.71 1567.63 Q1279.39 1565.76 1280.19 1562.63 Q1282.19 1555.13 1282.96 1551.78 Q1283.74 1548.4 1283.74 1546.95 Q1283.74 1545.6 1283.38 1544.66 Q1283.03 1543.73 1282.42 1543.31 Q1281.84 1542.86 1281.29 1542.7 Q1280.77 1542.54 1280.19 1542.54 Q1279.23 1542.54 1278.13 1542.92 Q1277.07 1543.31 1275.78 1544.21 Q1274.53 1545.08 1273.33 1546.88 Q1272.14 1548.69 1271.34 1551.17 Q1271.18 1551.91 1270.47 1551.91 Q1269.7 1551.88 1269.7 1551.23 Q1269.7 1550.69 1270.11 1549.56 Q1270.57 1548.4 1271.47 1546.95 Q1272.4 1545.5 1273.59 1544.21 Q1274.82 1542.89 1276.59 1541.99 Q1278.39 1541.09 1280.32 1541.09 Q1281.19 1541.09 1282.03 1541.28 Q1282.9 1541.44 1283.93 1541.93 Q1284.99 1542.41 1285.93 1543.47 Q1286.86 1544.53 1287.44 1546.08 Q1287.83 1545.34 1288.34 1544.63 Q1288.89 1543.92 1289.73 1543.05 Q1290.6 1542.15 1291.79 1541.64 Q1293.01 1541.09 1294.37 1541.09 Q1295.69 1541.09 1296.97 1541.44 Q1298.26 1541.76 1299.36 1542.83 Q1300.48 1543.86 1300.48 1545.44 Z" fill="#000000" fill-rule="evenodd" fill-opacity="1" /><polyline clip-path="url(#clip622)" style="stroke:#000000; stroke-linecap:butt; stroke-linejoin:round; stroke-width:2; stroke-opacity:0.1; fill:none" points="
  219.866,1384.25 2352.76,1384.25 
  "/>
<polyline clip-path="url(#clip622)" style="stroke:#000000; stroke-linecap:butt; stroke-linejoin:round; stroke-width:2; stroke-opacity:0.1; fill:none" points="
  219.866,1058.82 2352.76,1058.82 
  "/>
<polyline clip-path="url(#clip622)" style="stroke:#000000; stroke-linecap:butt; stroke-linejoin:round; stroke-width:2; stroke-opacity:0.1; fill:none" points="
  219.866,733.386 2352.76,733.386 
  "/>
<polyline clip-path="url(#clip622)" style="stroke:#000000; stroke-linecap:butt; stroke-linejoin:round; stroke-width:2; stroke-opacity:0.1; fill:none" points="
  219.866,407.956 2352.76,407.956 
  "/>
<polyline clip-path="url(#clip622)" style="stroke:#000000; stroke-linecap:butt; stroke-linejoin:round; stroke-width:2; stroke-opacity:0.1; fill:none" points="
  219.866,82.5249 2352.76,82.5249 
  "/>
<polyline clip-path="url(#clip620)" style="stroke:#000000; stroke-linecap:butt; stroke-linejoin:round; stroke-width:4; stroke-opacity:1; fill:none" points="
  219.866,1423.18 219.866,47.2441 
  "/>
<polyline clip-path="url(#clip620)" style="stroke:#000000; stroke-linecap:butt; stroke-linejoin:round; stroke-width:4; stroke-opacity:1; fill:none" points="
  219.866,1384.25 238.764,1384.25 
  "/>
<polyline clip-path="url(#clip620)" style="stroke:#000000; stroke-linecap:butt; stroke-linejoin:round; stroke-width:4; stroke-opacity:1; fill:none" points="
  219.866,1058.82 238.764,1058.82 
  "/>
<polyline clip-path="url(#clip620)" style="stroke:#000000; stroke-linecap:butt; stroke-linejoin:round; stroke-width:4; stroke-opacity:1; fill:none" points="
  219.866,733.386 238.764,733.386 
  "/>
<polyline clip-path="url(#clip620)" style="stroke:#000000; stroke-linecap:butt; stroke-linejoin:round; stroke-width:4; stroke-opacity:1; fill:none" points="
  219.866,407.956 238.764,407.956 
  "/>
<polyline clip-path="url(#clip620)" style="stroke:#000000; stroke-linecap:butt; stroke-linejoin:round; stroke-width:4; stroke-opacity:1; fill:none" points="
  219.866,82.5249 238.764,82.5249 
  "/>
<path clip-path="url(#clip620)" d="M126.691 1370.05 Q123.08 1370.05 121.251 1373.61 Q119.445 1377.15 119.445 1384.28 Q119.445 1391.39 121.251 1394.95 Q123.08 1398.5 126.691 1398.5 Q130.325 1398.5 132.13 1394.95 Q133.959 1391.39 133.959 1384.28 Q133.959 1377.15 132.13 1373.61 Q130.325 1370.05 126.691 1370.05 M126.691 1366.34 Q132.501 1366.34 135.556 1370.95 Q138.635 1375.53 138.635 1384.28 Q138.635 1393.01 135.556 1397.62 Q132.501 1402.2 126.691 1402.2 Q120.88 1402.2 117.802 1397.62 Q114.746 1393.01 114.746 1384.28 Q114.746 1375.53 117.802 1370.95 Q120.88 1366.34 126.691 1366.34 Z" fill="#000000" fill-rule="evenodd" fill-opacity="1" /><path clip-path="url(#clip620)" d="M146.853 1395.65 L151.737 1395.65 L151.737 1401.53 L146.853 1401.53 L146.853 1395.65 Z" fill="#000000" fill-rule="evenodd" fill-opacity="1" /><path clip-path="url(#clip620)" d="M171.922 1370.05 Q168.311 1370.05 166.482 1373.61 Q164.677 1377.15 164.677 1384.28 Q164.677 1391.39 166.482 1394.95 Q168.311 1398.5 171.922 1398.5 Q175.556 1398.5 177.362 1394.95 Q179.19 1391.39 179.19 1384.28 Q179.19 1377.15 177.362 1373.61 Q175.556 1370.05 171.922 1370.05 M171.922 1366.34 Q177.732 1366.34 180.788 1370.95 Q183.866 1375.53 183.866 1384.28 Q183.866 1393.01 180.788 1397.62 Q177.732 1402.2 171.922 1402.2 Q166.112 1402.2 163.033 1397.62 Q159.978 1393.01 159.978 1384.28 Q159.978 1375.53 163.033 1370.95 Q166.112 1366.34 171.922 1366.34 Z" fill="#000000" fill-rule="evenodd" fill-opacity="1" /><path clip-path="url(#clip620)" d="M127.917 1044.62 Q124.306 1044.62 122.478 1048.18 Q120.672 1051.72 120.672 1058.85 Q120.672 1065.96 122.478 1069.52 Q124.306 1073.06 127.917 1073.06 Q131.552 1073.06 133.357 1069.52 Q135.186 1065.96 135.186 1058.85 Q135.186 1051.72 133.357 1048.18 Q131.552 1044.62 127.917 1044.62 M127.917 1040.91 Q133.728 1040.91 136.783 1045.52 Q139.862 1050.1 139.862 1058.85 Q139.862 1067.58 136.783 1072.18 Q133.728 1076.77 127.917 1076.77 Q122.107 1076.77 119.029 1072.18 Q115.973 1067.58 115.973 1058.85 Q115.973 1050.1 119.029 1045.52 Q122.107 1040.91 127.917 1040.91 Z" fill="#000000" fill-rule="evenodd" fill-opacity="1" /><path clip-path="url(#clip620)" d="M148.079 1070.22 L152.964 1070.22 L152.964 1076.1 L148.079 1076.1 L148.079 1070.22 Z" fill="#000000" fill-rule="evenodd" fill-opacity="1" /><path clip-path="url(#clip620)" d="M163.959 1072.16 L171.598 1072.16 L171.598 1045.8 L163.288 1047.46 L163.288 1043.2 L171.552 1041.54 L176.227 1041.54 L176.227 1072.16 L183.866 1072.16 L183.866 1076.1 L163.959 1076.1 L163.959 1072.16 Z" fill="#000000" fill-rule="evenodd" fill-opacity="1" /><path clip-path="url(#clip620)" d="M128.288 719.185 Q124.677 719.185 122.848 722.75 Q121.043 726.291 121.043 733.421 Q121.043 740.527 122.848 744.092 Q124.677 747.634 128.288 747.634 Q131.922 747.634 133.728 744.092 Q135.556 740.527 135.556 733.421 Q135.556 726.291 133.728 722.75 Q131.922 719.185 128.288 719.185 M128.288 715.481 Q134.098 715.481 137.154 720.088 Q140.232 724.671 140.232 733.421 Q140.232 742.148 137.154 746.754 Q134.098 751.337 128.288 751.337 Q122.478 751.337 119.399 746.754 Q116.343 742.148 116.343 733.421 Q116.343 724.671 119.399 720.088 Q122.478 715.481 128.288 715.481 Z" fill="#000000" fill-rule="evenodd" fill-opacity="1" /><path clip-path="url(#clip620)" d="M148.45 744.787 L153.334 744.787 L153.334 750.666 L148.45 750.666 L148.45 744.787 Z" fill="#000000" fill-rule="evenodd" fill-opacity="1" /><path clip-path="url(#clip620)" d="M167.547 746.731 L183.866 746.731 L183.866 750.666 L161.922 750.666 L161.922 746.731 Q164.584 743.976 169.167 739.347 Q173.774 734.694 174.954 733.351 Q177.2 730.828 178.079 729.092 Q178.982 727.333 178.982 725.643 Q178.982 722.889 177.038 721.152 Q175.116 719.416 172.014 719.416 Q169.815 719.416 167.362 720.18 Q164.931 720.944 162.153 722.495 L162.153 717.773 Q164.977 716.639 167.431 716.06 Q169.885 715.481 171.922 715.481 Q177.292 715.481 180.487 718.166 Q183.681 720.852 183.681 725.342 Q183.681 727.472 182.871 729.393 Q182.084 731.291 179.977 733.884 Q179.399 734.555 176.297 737.773 Q173.195 740.967 167.547 746.731 Z" fill="#000000" fill-rule="evenodd" fill-opacity="1" /><path clip-path="url(#clip620)" d="M127.339 393.754 Q123.728 393.754 121.899 397.319 Q120.093 400.861 120.093 407.99 Q120.093 415.097 121.899 418.661 Q123.728 422.203 127.339 422.203 Q130.973 422.203 132.779 418.661 Q134.607 415.097 134.607 407.99 Q134.607 400.861 132.779 397.319 Q130.973 393.754 127.339 393.754 M127.339 390.051 Q133.149 390.051 136.204 394.657 Q139.283 399.24 139.283 407.99 Q139.283 416.717 136.204 421.323 Q133.149 425.907 127.339 425.907 Q121.529 425.907 118.45 421.323 Q115.394 416.717 115.394 407.99 Q115.394 399.24 118.45 394.657 Q121.529 390.051 127.339 390.051 Z" fill="#000000" fill-rule="evenodd" fill-opacity="1" /><path clip-path="url(#clip620)" d="M147.501 419.356 L152.385 419.356 L152.385 425.236 L147.501 425.236 L147.501 419.356 Z" fill="#000000" fill-rule="evenodd" fill-opacity="1" /><path clip-path="url(#clip620)" d="M176.737 406.601 Q180.093 407.319 181.968 409.587 Q183.866 411.856 183.866 415.189 Q183.866 420.305 180.348 423.106 Q176.829 425.907 170.348 425.907 Q168.172 425.907 165.857 425.467 Q163.565 425.05 161.112 424.194 L161.112 419.68 Q163.056 420.814 165.371 421.393 Q167.686 421.972 170.209 421.972 Q174.607 421.972 176.899 420.236 Q179.214 418.499 179.214 415.189 Q179.214 412.134 177.061 410.421 Q174.931 408.685 171.112 408.685 L167.084 408.685 L167.084 404.842 L171.297 404.842 Q174.746 404.842 176.575 403.476 Q178.403 402.087 178.403 399.495 Q178.403 396.833 176.505 395.421 Q174.63 393.986 171.112 393.986 Q169.19 393.986 166.991 394.402 Q164.792 394.819 162.153 395.699 L162.153 391.532 Q164.815 390.791 167.13 390.421 Q169.468 390.051 171.528 390.051 Q176.852 390.051 179.954 392.481 Q183.056 394.888 183.056 399.009 Q183.056 401.879 181.413 403.87 Q179.769 405.837 176.737 406.601 Z" fill="#000000" fill-rule="evenodd" fill-opacity="1" /><path clip-path="url(#clip620)" d="M126.205 68.3235 Q122.593 68.3235 120.765 71.8883 Q118.959 75.43 118.959 82.5596 Q118.959 89.666 120.765 93.2308 Q122.593 96.7725 126.205 96.7725 Q129.839 96.7725 131.644 93.2308 Q133.473 89.666 133.473 82.5596 Q133.473 75.43 131.644 71.8883 Q129.839 68.3235 126.205 68.3235 M126.205 64.6199 Q132.015 64.6199 135.07 69.2263 Q138.149 73.8096 138.149 82.5596 Q138.149 91.2864 135.07 95.8928 Q132.015 100.476 126.205 100.476 Q120.394 100.476 117.316 95.8928 Q114.26 91.2864 114.26 82.5596 Q114.26 73.8096 117.316 69.2263 Q120.394 64.6199 126.205 64.6199 Z" fill="#000000" fill-rule="evenodd" fill-opacity="1" /><path clip-path="url(#clip620)" d="M146.366 93.9253 L151.251 93.9253 L151.251 99.8049 L146.366 99.8049 L146.366 93.9253 Z" fill="#000000" fill-rule="evenodd" fill-opacity="1" /><path clip-path="url(#clip620)" d="M174.283 69.3189 L162.477 87.7679 L174.283 87.7679 L174.283 69.3189 M173.056 65.2449 L178.936 65.2449 L178.936 87.7679 L183.866 87.7679 L183.866 91.6568 L178.936 91.6568 L178.936 99.8049 L174.283 99.8049 L174.283 91.6568 L158.681 91.6568 L158.681 87.1429 L173.056 65.2449 Z" fill="#000000" fill-rule="evenodd" fill-opacity="1" /><path clip-path="url(#clip620)" d="M21.7677 848.522 L58.7206 848.522 L58.7206 840.755 Q58.7206 830.92 54.2646 826.369 Q49.8086 821.786 40.1964 821.786 Q30.6479 821.786 26.2237 826.369 Q21.7677 830.92 21.7677 840.755 L21.7677 848.522 M16.4842 854.951 L16.4842 841.742 Q16.4842 827.928 22.2451 821.467 Q27.9743 815.006 40.1964 815.006 Q52.4822 815.006 58.2432 821.499 Q64.0042 827.992 64.0042 841.742 L64.0042 854.951 L16.4842 854.951 Z" fill="#000000" fill-rule="evenodd" fill-opacity="1" /><path clip-path="url(#clip620)" d="M44.7161 774.52 L47.5806 774.52 L47.5806 801.447 Q53.6281 801.065 56.8109 797.819 Q59.9619 794.54 59.9619 788.716 Q59.9619 785.342 59.1344 782.191 Q58.3069 779.008 56.6518 775.889 L62.1899 775.889 Q63.5267 779.04 64.227 782.35 Q64.9272 785.66 64.9272 789.066 Q64.9272 797.596 59.9619 802.593 Q54.9967 807.558 46.5303 807.558 Q37.7774 807.558 32.6531 802.848 Q27.4968 798.105 27.4968 790.084 Q27.4968 782.891 32.1438 778.722 Q36.7589 774.52 44.7161 774.52 M42.9973 780.377 Q38.1912 780.44 35.3266 783.082 Q32.4621 785.692 32.4621 790.021 Q32.4621 794.922 35.2312 797.882 Q38.0002 800.811 43.0292 801.256 L42.9973 780.377 Z" fill="#000000" fill-rule="evenodd" fill-opacity="1" /><path clip-path="url(#clip620)" d="M42.4881 735.276 L64.0042 735.276 L64.0042 741.132 L42.679 741.132 Q37.6183 741.132 35.1038 743.105 Q32.5894 745.079 32.5894 749.026 Q32.5894 753.768 35.6131 756.505 Q38.6368 759.243 43.8567 759.243 L64.0042 759.243 L64.0042 765.131 L28.3562 765.131 L28.3562 759.243 L33.8944 759.243 Q30.6797 757.142 29.0883 754.309 Q27.4968 751.445 27.4968 747.721 Q27.4968 741.578 31.3163 738.427 Q35.1038 735.276 42.4881 735.276 Z" fill="#000000" fill-rule="evenodd" fill-opacity="1" /><path clip-path="url(#clip620)" d="M29.4065 700.869 L34.9447 700.869 Q33.6716 703.352 33.035 706.025 Q32.3984 708.699 32.3984 711.563 Q32.3984 715.924 33.7352 718.12 Q35.072 720.284 37.7456 720.284 Q39.7826 720.284 40.9603 718.725 Q42.1061 717.165 43.1565 712.455 L43.6021 710.449 Q44.9389 704.211 47.3897 701.601 Q49.8086 698.959 54.1691 698.959 Q59.1344 698.959 62.0308 702.906 Q64.9272 706.821 64.9272 713.696 Q64.9272 716.56 64.3543 719.68 Q63.8132 722.767 62.6992 726.204 L56.6518 726.204 Q58.3387 722.958 59.198 719.807 Q60.0256 716.656 60.0256 713.569 Q60.0256 709.431 58.6251 707.203 Q57.1929 704.975 54.6147 704.975 Q52.2276 704.975 50.9545 706.598 Q49.6813 708.19 48.5037 713.632 L48.0262 715.669 Q46.8804 721.112 44.5251 723.531 Q42.138 725.95 38.0002 725.95 Q32.9713 725.95 30.2341 722.385 Q27.4968 718.82 27.4968 712.264 Q27.4968 709.017 27.9743 706.153 Q28.4517 703.288 29.4065 700.869 Z" fill="#000000" fill-rule="evenodd" fill-opacity="1" /><path clip-path="url(#clip620)" d="M28.3562 689.634 L28.3562 683.777 L64.0042 683.777 L64.0042 689.634 L28.3562 689.634 M14.479 689.634 L14.479 683.777 L21.895 683.777 L21.895 689.634 L14.479 689.634 Z" fill="#000000" fill-rule="evenodd" fill-opacity="1" /><path clip-path="url(#clip620)" d="M18.2347 665.73 L28.3562 665.73 L28.3562 653.667 L32.9077 653.667 L32.9077 665.73 L52.2594 665.73 Q56.6199 665.73 57.8613 664.553 Q59.1026 663.343 59.1026 659.683 L59.1026 653.667 L64.0042 653.667 L64.0042 659.683 Q64.0042 666.462 61.4897 669.04 Q58.9434 671.619 52.2594 671.619 L32.9077 671.619 L32.9077 675.915 L28.3562 675.915 L28.3562 671.619 L18.2347 671.619 L18.2347 665.73 Z" fill="#000000" fill-rule="evenodd" fill-opacity="1" /><path clip-path="url(#clip620)" d="M67.3143 631.133 Q73.68 633.615 75.6216 635.971 Q77.5631 638.326 77.5631 642.273 L77.5631 646.951 L72.6615 646.951 L72.6615 643.514 Q72.6615 641.095 71.5157 639.758 Q70.3699 638.421 66.1048 636.798 L63.4312 635.748 L28.3562 650.166 L28.3562 643.96 L56.238 632.82 L28.3562 621.68 L28.3562 615.473 L67.3143 631.133 Z" fill="#000000" fill-rule="evenodd" fill-opacity="1" /><polyline clip-path="url(#clip622)" style="stroke:#009af9; stroke-linecap:butt; stroke-linejoin:round; stroke-width:20; stroke-opacity:1; fill:none" points="
  294.78,1382.96 304.463,1382.77 314.146,1382.56 403.68,1378.83 493.215,1368.69 547.021,1356.47 600.828,1336.61 646.32,1311.45 691.813,1276.18 716.522,1251.95 
  741.231,1223.66 765.94,1190.99 790.648,1153.66 813.428,1114.95 836.207,1072.02 858.987,1024.89 881.766,973.653 930.61,851.094 979.454,714.803 1036.04,548.588 
  1092.63,387.059 1117.78,321.082 1142.93,260.777 1168.07,207.566 1193.22,162.749 1215.27,131.252 1237.32,107.704 1259.37,92.5799 1281.42,86.1857 1305.46,89.3107 
  1329.5,102.889 1353.54,126.593 1377.58,159.854 1401.76,202.163 1425.95,252.361 1450.13,309.308 1474.31,371.755 1527.79,522.799 1581.27,680.212 1632.15,824.501 
  1683.03,955.136 1709.48,1015.85 1735.93,1071.07 1762.39,1120.63 1788.84,1164.51 1833.37,1226.08 1877.91,1273.54 1932.28,1315.28 1986.65,1343.04 2037.76,1359.79 
  2088.87,1370.26 2170.76,1378.95 2252.64,1382.42 2265.24,1382.71 2277.84,1382.96 
  "/>
<polyline clip-path="url(#clip622)" style="stroke:#e26f46; stroke-linecap:butt; stroke-linejoin:round; stroke-width:20; stroke-opacity:1; fill:none" points="
  -17563.1,1384.24 -17195,1384.24 -13790.8,1384.23 -11745,1384.22 -10015.4,1384.2 -8136.45,1384.17 -6404.26,1384.11 -4547.18,1383.94 -2395.56,1383.03 -1917.53,1382.41 
  -1439.51,1381.29 -961.483,1379.04 -483.458,1373.84 -273.865,1369.33 -64.2728,1361.88 40.5236,1356.28 145.32,1348.71 250.116,1338.25 354.912,1323.46 459.709,1302.01 
  564.505,1270.05 616.903,1248.25 669.301,1221.13 721.7,1187.18 774.098,1144.54 826.496,1090.93 878.894,1023.71 905.093,984.156 931.292,940.228 957.491,891.709 
  983.69,838.505 1036.09,718.698 1088.49,585.323 1114.69,516.79 1140.88,449.774 1167.08,386.939 1193.28,331.275 1207.56,305.05 1221.85,282.343 1236.13,263.585 
  1250.41,249.147 1264.69,239.327 1278.98,234.329 1293.26,234.262 1307.54,239.125 1321.82,248.816 1336.1,263.131 1350.39,281.776 1364.67,304.381 1393.23,359.709 
  1421.8,425.28 1478.92,571.68 1536.05,717.521 1564.62,785.013 1593.18,847.448 1621.74,904.396 1650.31,955.789 1678.87,1001.8 1707.44,1042.76 1736,1079.08 
  1764.56,1111.21 1821.69,1164.6 1878.82,1206.21 1935.95,1238.72 1993.08,1264.27 2050.2,1284.49 2107.33,1300.62 2221.59,1324.11 2335.84,1339.78 2450.1,1350.56 
  2564.36,1358.18 2792.87,1367.78 3021.38,1373.23 3481.12,1378.66 3940.86,1381.05 4400.6,1382.25 4860.34,1382.92 6893.55,1383.9 8828.1,1384.1 10839.6,1384.18 
  12532.8,1384.2 14600.1,1384.22 16543.3,1384.23 19656.6,1384.24 20135.7,1384.24 
  "/>
<path clip-path="url(#clip620)" d="
M1862.31 248.629 L2281.66 248.629 L2281.66 93.1086 L1862.31 93.1086  Z
  " fill="#ffffff" fill-rule="evenodd" fill-opacity="1"/>
<polyline clip-path="url(#clip620)" style="stroke:#000000; stroke-linecap:butt; stroke-linejoin:round; stroke-width:4; stroke-opacity:1; fill:none" points="
  1862.31,248.629 2281.66,248.629 2281.66,93.1086 1862.31,93.1086 1862.31,248.629 
  "/>
<polyline clip-path="url(#clip620)" style="stroke:#009af9; stroke-linecap:butt; stroke-linejoin:round; stroke-width:4; stroke-opacity:1; fill:none" points="
  1886.01,144.949 2028.2,144.949 
  "/>
<path clip-path="url(#clip620)" d="M2051.9 127.669 L2058.2 127.669 L2073.52 156.581 L2073.52 127.669 L2078.06 127.669 L2078.06 162.229 L2071.76 162.229 L2056.44 133.317 L2056.44 162.229 L2051.9 162.229 L2051.9 127.669 Z" fill="#000000" fill-rule="evenodd" fill-opacity="1" /><path clip-path="url(#clip620)" d="M2097.23 139.289 Q2093.8 139.289 2091.81 141.974 Q2089.82 144.636 2089.82 149.289 Q2089.82 153.942 2091.79 156.627 Q2093.78 159.289 2097.23 159.289 Q2100.63 159.289 2102.62 156.604 Q2104.61 153.918 2104.61 149.289 Q2104.61 144.682 2102.62 141.997 Q2100.63 139.289 2097.23 139.289 M2097.23 135.678 Q2102.78 135.678 2105.95 139.289 Q2109.12 142.9 2109.12 149.289 Q2109.12 155.655 2105.95 159.289 Q2102.78 162.9 2097.23 162.9 Q2091.65 162.9 2088.48 159.289 Q2085.33 155.655 2085.33 149.289 Q2085.33 142.9 2088.48 139.289 Q2091.65 135.678 2097.23 135.678 Z" fill="#000000" fill-rule="evenodd" fill-opacity="1" /><path clip-path="url(#clip620)" d="M2131.21 140.284 Q2130.49 139.868 2129.63 139.682 Q2128.8 139.474 2127.78 139.474 Q2124.17 139.474 2122.23 141.835 Q2120.3 144.173 2120.3 148.571 L2120.3 162.229 L2116.02 162.229 L2116.02 136.303 L2120.3 136.303 L2120.3 140.331 Q2121.65 137.969 2123.8 136.835 Q2125.95 135.678 2129.03 135.678 Q2129.47 135.678 2130 135.747 Q2130.54 135.794 2131.18 135.909 L2131.21 140.284 Z" fill="#000000" fill-rule="evenodd" fill-opacity="1" /><path clip-path="url(#clip620)" d="M2155.03 141.28 Q2156.62 138.409 2158.85 137.044 Q2161.07 135.678 2164.08 135.678 Q2168.13 135.678 2170.33 138.525 Q2172.53 141.349 2172.53 146.581 L2172.53 162.229 L2168.24 162.229 L2168.24 146.719 Q2168.24 142.993 2166.92 141.187 Q2165.6 139.382 2162.9 139.382 Q2159.59 139.382 2157.67 141.581 Q2155.74 143.78 2155.74 147.576 L2155.74 162.229 L2151.46 162.229 L2151.46 146.719 Q2151.46 142.969 2150.14 141.187 Q2148.82 139.382 2146.07 139.382 Q2142.8 139.382 2140.88 141.604 Q2138.96 143.803 2138.96 147.576 L2138.96 162.229 L2134.68 162.229 L2134.68 136.303 L2138.96 136.303 L2138.96 140.331 Q2140.42 137.946 2142.46 136.812 Q2144.49 135.678 2147.29 135.678 Q2150.12 135.678 2152.09 137.113 Q2154.08 138.548 2155.03 141.28 Z" fill="#000000" fill-rule="evenodd" fill-opacity="1" /><path clip-path="url(#clip620)" d="M2192.8 149.196 Q2187.64 149.196 2185.65 150.377 Q2183.66 151.557 2183.66 154.405 Q2183.66 156.673 2185.14 158.016 Q2186.65 159.335 2189.22 159.335 Q2192.76 159.335 2194.89 156.835 Q2197.04 154.312 2197.04 150.145 L2197.04 149.196 L2192.8 149.196 M2201.3 147.437 L2201.3 162.229 L2197.04 162.229 L2197.04 158.293 Q2195.58 160.655 2193.41 161.789 Q2191.23 162.9 2188.08 162.9 Q2184.1 162.9 2181.74 160.678 Q2179.4 158.432 2179.4 154.682 Q2179.4 150.307 2182.32 148.085 Q2185.26 145.863 2191.07 145.863 L2197.04 145.863 L2197.04 145.446 Q2197.04 142.507 2195.1 140.909 Q2193.17 139.289 2189.68 139.289 Q2187.46 139.289 2185.35 139.821 Q2183.24 140.354 2181.3 141.419 L2181.3 137.483 Q2183.64 136.581 2185.84 136.141 Q2188.04 135.678 2190.12 135.678 Q2195.74 135.678 2198.52 138.594 Q2201.3 141.511 2201.3 147.437 Z" fill="#000000" fill-rule="evenodd" fill-opacity="1" /><path clip-path="url(#clip620)" d="M2210.07 126.21 L2214.33 126.21 L2214.33 162.229 L2210.07 162.229 L2210.07 126.21 Z" fill="#000000" fill-rule="evenodd" fill-opacity="1" /><polyline clip-path="url(#clip620)" style="stroke:#e26f46; stroke-linecap:butt; stroke-linejoin:round; stroke-width:4; stroke-opacity:1; fill:none" points="
  1886.01,196.789 2028.2,196.789 
  "/>
<path clip-path="url(#clip620)" d="M2074.15 180.643 L2074.15 185.203 Q2071.49 183.93 2069.12 183.305 Q2066.76 182.68 2064.56 182.68 Q2060.74 182.68 2058.66 184.161 Q2056.6 185.643 2056.6 188.374 Q2056.6 190.666 2057.97 191.847 Q2059.36 193.004 2063.2 193.722 L2066.02 194.3 Q2071.25 195.296 2073.73 197.819 Q2076.23 200.319 2076.23 204.532 Q2076.23 209.555 2072.85 212.147 Q2069.49 214.74 2062.99 214.74 Q2060.54 214.74 2057.76 214.184 Q2055 213.629 2052.04 212.541 L2052.04 207.726 Q2054.89 209.323 2057.62 210.133 Q2060.35 210.944 2062.99 210.944 Q2066.99 210.944 2069.17 209.37 Q2071.35 207.796 2071.35 204.879 Q2071.35 202.333 2069.77 200.897 Q2068.22 199.462 2064.66 198.745 L2061.81 198.189 Q2056.58 197.147 2054.24 194.925 Q2051.9 192.703 2051.9 188.745 Q2051.9 184.161 2055.12 181.522 Q2058.36 178.884 2064.03 178.884 Q2066.46 178.884 2068.99 179.323 Q2071.51 179.763 2074.15 180.643 Z" fill="#000000" fill-rule="evenodd" fill-opacity="1" /><path clip-path="url(#clip620)" d="M2087.55 180.782 L2087.55 188.143 L2096.32 188.143 L2096.32 191.453 L2087.55 191.453 L2087.55 205.527 Q2087.55 208.698 2088.41 209.601 Q2089.29 210.504 2091.95 210.504 L2096.32 210.504 L2096.32 214.069 L2091.95 214.069 Q2087.02 214.069 2085.14 212.24 Q2083.27 210.388 2083.27 205.527 L2083.27 191.453 L2080.14 191.453 L2080.14 188.143 L2083.27 188.143 L2083.27 180.782 L2087.55 180.782 Z" fill="#000000" fill-rule="evenodd" fill-opacity="1" /><path clip-path="url(#clip620)" d="M2101.48 203.837 L2101.48 188.143 L2105.74 188.143 L2105.74 203.675 Q2105.74 207.356 2107.18 209.208 Q2108.61 211.036 2111.48 211.036 Q2114.93 211.036 2116.92 208.837 Q2118.94 206.638 2118.94 202.842 L2118.94 188.143 L2123.2 188.143 L2123.2 214.069 L2118.94 214.069 L2118.94 210.087 Q2117.39 212.448 2115.33 213.606 Q2113.29 214.74 2110.58 214.74 Q2106.11 214.74 2103.8 211.962 Q2101.48 209.184 2101.48 203.837 M2112.2 187.518 L2112.2 187.518 Z" fill="#000000" fill-rule="evenodd" fill-opacity="1" /><path clip-path="url(#clip620)" d="M2149.03 192.078 L2149.03 178.05 L2153.29 178.05 L2153.29 214.069 L2149.03 214.069 L2149.03 210.18 Q2147.69 212.495 2145.63 213.629 Q2143.59 214.74 2140.72 214.74 Q2136.02 214.74 2133.06 210.99 Q2130.12 207.24 2130.12 201.129 Q2130.12 195.018 2133.06 191.268 Q2136.02 187.518 2140.72 187.518 Q2143.59 187.518 2145.63 188.652 Q2147.69 189.763 2149.03 192.078 M2134.52 201.129 Q2134.52 205.828 2136.44 208.513 Q2138.38 211.175 2141.76 211.175 Q2145.14 211.175 2147.09 208.513 Q2149.03 205.828 2149.03 201.129 Q2149.03 196.43 2147.09 193.768 Q2145.14 191.083 2141.76 191.083 Q2138.38 191.083 2136.44 193.768 Q2134.52 196.43 2134.52 201.129 Z" fill="#000000" fill-rule="evenodd" fill-opacity="1" /><path clip-path="url(#clip620)" d="M2184.24 200.041 L2184.24 202.124 L2164.66 202.124 Q2164.93 206.522 2167.29 208.837 Q2169.68 211.129 2173.92 211.129 Q2176.37 211.129 2178.66 210.527 Q2180.98 209.925 2183.24 208.721 L2183.24 212.749 Q2180.95 213.721 2178.54 214.231 Q2176.14 214.74 2173.66 214.74 Q2167.46 214.74 2163.82 211.129 Q2160.21 207.518 2160.21 201.36 Q2160.21 194.995 2163.64 191.268 Q2167.09 187.518 2172.92 187.518 Q2178.15 187.518 2181.18 190.897 Q2184.24 194.254 2184.24 200.041 M2179.98 198.791 Q2179.93 195.296 2178.01 193.212 Q2176.11 191.129 2172.97 191.129 Q2169.4 191.129 2167.25 193.143 Q2165.12 195.157 2164.79 198.814 L2179.98 198.791 Z" fill="#000000" fill-rule="evenodd" fill-opacity="1" /><path clip-path="url(#clip620)" d="M2212.78 198.421 L2212.78 214.069 L2208.52 214.069 L2208.52 198.559 Q2208.52 194.879 2207.09 193.05 Q2205.65 191.222 2202.78 191.222 Q2199.33 191.222 2197.34 193.421 Q2195.35 195.62 2195.35 199.416 L2195.35 214.069 L2191.07 214.069 L2191.07 188.143 L2195.35 188.143 L2195.35 192.171 Q2196.88 189.833 2198.94 188.675 Q2201.02 187.518 2203.73 187.518 Q2208.2 187.518 2210.49 190.296 Q2212.78 193.05 2212.78 198.421 Z" fill="#000000" fill-rule="evenodd" fill-opacity="1" /><path clip-path="url(#clip620)" d="M2225.49 180.782 L2225.49 188.143 L2234.26 188.143 L2234.26 191.453 L2225.49 191.453 L2225.49 205.527 Q2225.49 208.698 2226.35 209.601 Q2227.23 210.504 2229.89 210.504 L2234.26 210.504 L2234.26 214.069 L2229.89 214.069 Q2224.96 214.069 2223.08 212.24 Q2221.21 210.388 2221.21 205.527 L2221.21 191.453 L2218.08 191.453 L2218.08 188.143 L2221.21 188.143 L2221.21 180.782 L2225.49 180.782 Z" fill="#000000" fill-rule="evenodd" fill-opacity="1" /></svg>
