<?xml version="1.0" encoding="utf-8"?>
<svg xmlns="http://www.w3.org/2000/svg" xmlns:xlink="http://www.w3.org/1999/xlink" width="600" height="400" viewBox="0 0 2400 1600">
<defs>
  <clipPath id="clip560">
    <rect x="0" y="0" width="2400" height="1600"/>
  </clipPath>
</defs>
<path clip-path="url(#clip560)" d="
M0 1600 L2400 1600 L2400 0 L0 0  Z
  " fill="#ffffff" fill-rule="evenodd" fill-opacity="1"/>
<defs>
  <clipPath id="clip561">
    <rect x="480" y="0" width="1681" height="1600"/>
  </clipPath>
</defs>
<defs>
  <clipPath id="clip562">
    <rect x="896" y="1261" width="686" height="235"/>
  </clipPath>
</defs>
<path clip-path="url(#clip560)" d="
M219.866 1423.18 L2352.76 1423.18 L2352.76 47.2441 L219.866 47.2441  Z
  " fill="#ffffff" fill-rule="evenodd" fill-opacity="1"/>
<defs>
  <clipPath id="clip563">
    <rect x="219" y="47" width="2134" height="1377"/>
  </clipPath>
</defs>
<polyline clip-path="url(#clip563)" style="stroke:#000000; stroke-linecap:butt; stroke-linejoin:round; stroke-width:2; stroke-opacity:0.1; fill:none" points="
  474.742,1423.18 474.742,47.2441 
  "/>
<polyline clip-path="url(#clip563)" style="stroke:#000000; stroke-linecap:butt; stroke-linejoin:round; stroke-width:2; stroke-opacity:0.1; fill:none" points="
  745.265,1423.18 745.265,47.2441 
  "/>
<polyline clip-path="url(#clip563)" style="stroke:#000000; stroke-linecap:butt; stroke-linejoin:round; stroke-width:2; stroke-opacity:0.1; fill:none" points="
  1015.79,1423.18 1015.79,47.2441 
  "/>
<polyline clip-path="url(#clip563)" style="stroke:#000000; stroke-linecap:butt; stroke-linejoin:round; stroke-width:2; stroke-opacity:0.1; fill:none" points="
  1286.31,1423.18 1286.31,47.2441 
  "/>
<polyline clip-path="url(#clip563)" style="stroke:#000000; stroke-linecap:butt; stroke-linejoin:round; stroke-width:2; stroke-opacity:0.1; fill:none" points="
  1556.83,1423.18 1556.83,47.2441 
  "/>
<polyline clip-path="url(#clip563)" style="stroke:#000000; stroke-linecap:butt; stroke-linejoin:round; stroke-width:2; stroke-opacity:0.1; fill:none" points="
  1827.36,1423.18 1827.36,47.2441 
  "/>
<polyline clip-path="url(#clip563)" style="stroke:#000000; stroke-linecap:butt; stroke-linejoin:round; stroke-width:2; stroke-opacity:0.1; fill:none" points="
  2097.88,1423.18 2097.88,47.2441 
  "/>
<polyline clip-path="url(#clip560)" style="stroke:#000000; stroke-linecap:butt; stroke-linejoin:round; stroke-width:4; stroke-opacity:1; fill:none" points="
  219.866,1423.18 2352.76,1423.18 
  "/>
<polyline clip-path="url(#clip560)" style="stroke:#000000; stroke-linecap:butt; stroke-linejoin:round; stroke-width:4; stroke-opacity:1; fill:none" points="
  474.742,1423.18 474.742,1404.28 
  "/>
<polyline clip-path="url(#clip560)" style="stroke:#000000; stroke-linecap:butt; stroke-linejoin:round; stroke-width:4; stroke-opacity:1; fill:none" points="
  745.265,1423.18 745.265,1404.28 
  "/>
<polyline clip-path="url(#clip560)" style="stroke:#000000; stroke-linecap:butt; stroke-linejoin:round; stroke-width:4; stroke-opacity:1; fill:none" points="
  1015.79,1423.18 1015.79,1404.28 
  "/>
<polyline clip-path="url(#clip560)" style="stroke:#000000; stroke-linecap:butt; stroke-linejoin:round; stroke-width:4; stroke-opacity:1; fill:none" points="
  1286.31,1423.18 1286.31,1404.28 
  "/>
<polyline clip-path="url(#clip560)" style="stroke:#000000; stroke-linecap:butt; stroke-linejoin:round; stroke-width:4; stroke-opacity:1; fill:none" points="
  1556.83,1423.18 1556.83,1404.28 
  "/>
<polyline clip-path="url(#clip560)" style="stroke:#000000; stroke-linecap:butt; stroke-linejoin:round; stroke-width:4; stroke-opacity:1; fill:none" points="
  1827.36,1423.18 1827.36,1404.28 
  "/>
<polyline clip-path="url(#clip560)" style="stroke:#000000; stroke-linecap:butt; stroke-linejoin:round; stroke-width:4; stroke-opacity:1; fill:none" points="
  2097.88,1423.18 2097.88,1404.28 
  "/>
<path clip-path="url(#clip560)" d="M444.209 1468.75 L473.885 1468.75 L473.885 1472.69 L444.209 1472.69 L444.209 1468.75 Z" fill="#000000" fill-rule="evenodd" fill-opacity="1" /><path clip-path="url(#clip560)" d="M498.144 1466.95 Q501.501 1467.66 503.376 1469.93 Q505.274 1472.2 505.274 1475.53 Q505.274 1480.65 501.755 1483.45 Q498.237 1486.25 491.755 1486.25 Q489.58 1486.25 487.265 1485.81 Q484.973 1485.39 482.519 1484.54 L482.519 1480.02 Q484.464 1481.16 486.779 1481.74 Q489.093 1482.32 491.617 1482.32 Q496.015 1482.32 498.306 1480.58 Q500.621 1478.84 500.621 1475.53 Q500.621 1472.48 498.468 1470.77 Q496.339 1469.03 492.519 1469.03 L488.492 1469.03 L488.492 1465.19 L492.705 1465.19 Q496.154 1465.19 497.982 1463.82 Q499.811 1462.43 499.811 1459.84 Q499.811 1457.18 497.913 1455.77 Q496.038 1454.33 492.519 1454.33 Q490.598 1454.33 488.399 1454.75 Q486.2 1455.16 483.561 1456.04 L483.561 1451.88 Q486.223 1451.14 488.538 1450.77 Q490.876 1450.39 492.936 1450.39 Q498.26 1450.39 501.362 1452.83 Q504.464 1455.23 504.464 1459.35 Q504.464 1462.22 502.82 1464.21 Q501.177 1466.18 498.144 1466.95 Z" fill="#000000" fill-rule="evenodd" fill-opacity="1" /><path clip-path="url(#clip560)" d="M715.207 1468.75 L744.883 1468.75 L744.883 1472.69 L715.207 1472.69 L715.207 1468.75 Z" fill="#000000" fill-rule="evenodd" fill-opacity="1" /><path clip-path="url(#clip560)" d="M759.003 1481.64 L775.323 1481.64 L775.323 1485.58 L753.378 1485.58 L753.378 1481.64 Q756.04 1478.89 760.624 1474.26 Q765.23 1469.61 766.411 1468.27 Q768.656 1465.74 769.536 1464.01 Q770.438 1462.25 770.438 1460.56 Q770.438 1457.8 768.494 1456.07 Q766.573 1454.33 763.471 1454.33 Q761.272 1454.33 758.818 1455.09 Q756.387 1455.86 753.61 1457.41 L753.61 1452.69 Q756.434 1451.55 758.887 1450.97 Q761.341 1450.39 763.378 1450.39 Q768.748 1450.39 771.943 1453.08 Q775.137 1455.77 775.137 1460.26 Q775.137 1462.39 774.327 1464.31 Q773.54 1466.2 771.434 1468.8 Q770.855 1469.47 767.753 1472.69 Q764.651 1475.88 759.003 1481.64 Z" fill="#000000" fill-rule="evenodd" fill-opacity="1" /><path clip-path="url(#clip560)" d="M985.545 1468.75 L1015.22 1468.75 L1015.22 1472.69 L985.545 1472.69 L985.545 1468.75 Z" fill="#000000" fill-rule="evenodd" fill-opacity="1" /><path clip-path="url(#clip560)" d="M1026.12 1481.64 L1033.76 1481.64 L1033.76 1455.28 L1025.45 1456.95 L1025.45 1452.69 L1033.72 1451.02 L1038.39 1451.02 L1038.39 1481.64 L1046.03 1481.64 L1046.03 1485.58 L1026.12 1485.58 L1026.12 1481.64 Z" fill="#000000" fill-rule="evenodd" fill-opacity="1" /><path clip-path="url(#clip560)" d="M1286.31 1454.1 Q1282.7 1454.1 1280.87 1457.66 Q1279.07 1461.2 1279.07 1468.33 Q1279.07 1475.44 1280.87 1479.01 Q1282.7 1482.55 1286.31 1482.55 Q1289.95 1482.55 1291.75 1479.01 Q1293.58 1475.44 1293.58 1468.33 Q1293.58 1461.2 1291.75 1457.66 Q1289.95 1454.1 1286.31 1454.1 M1286.31 1450.39 Q1292.12 1450.39 1295.18 1455 Q1298.26 1459.58 1298.26 1468.33 Q1298.26 1477.06 1295.18 1481.67 Q1292.12 1486.25 1286.31 1486.25 Q1280.5 1486.25 1277.42 1481.67 Q1274.37 1477.06 1274.37 1468.33 Q1274.37 1459.58 1277.42 1455 Q1280.5 1450.39 1286.31 1450.39 Z" fill="#000000" fill-rule="evenodd" fill-opacity="1" /><path clip-path="url(#clip560)" d="M1547.22 1481.64 L1554.86 1481.64 L1554.86 1455.28 L1546.54 1456.95 L1546.54 1452.69 L1554.81 1451.02 L1559.48 1451.02 L1559.48 1481.64 L1567.12 1481.64 L1567.12 1485.58 L1547.22 1485.58 L1547.22 1481.64 Z" fill="#000000" fill-rule="evenodd" fill-opacity="1" /><path clip-path="url(#clip560)" d="M1822.01 1481.64 L1838.33 1481.64 L1838.33 1485.58 L1816.39 1485.58 L1816.39 1481.64 Q1819.05 1478.89 1823.63 1474.26 Q1828.24 1469.61 1829.42 1468.27 Q1831.66 1465.74 1832.54 1464.01 Q1833.45 1462.25 1833.45 1460.56 Q1833.45 1457.8 1831.5 1456.07 Q1829.58 1454.33 1826.48 1454.33 Q1824.28 1454.33 1821.82 1455.09 Q1819.39 1455.86 1816.62 1457.41 L1816.62 1452.69 Q1819.44 1451.55 1821.89 1450.97 Q1824.35 1450.39 1826.39 1450.39 Q1831.76 1450.39 1834.95 1453.08 Q1838.14 1455.77 1838.14 1460.26 Q1838.14 1462.39 1837.33 1464.31 Q1836.55 1466.2 1834.44 1468.8 Q1833.86 1469.47 1830.76 1472.69 Q1827.66 1475.88 1822.01 1481.64 Z" fill="#000000" fill-rule="evenodd" fill-opacity="1" /><path clip-path="url(#clip560)" d="M2102.13 1466.95 Q2105.48 1467.66 2107.36 1469.93 Q2109.26 1472.2 2109.26 1475.53 Q2109.26 1480.65 2105.74 1483.45 Q2102.22 1486.25 2095.74 1486.25 Q2093.56 1486.25 2091.25 1485.81 Q2088.96 1485.39 2086.5 1484.54 L2086.5 1480.02 Q2088.45 1481.16 2090.76 1481.74 Q2093.08 1482.32 2095.6 1482.32 Q2100 1482.32 2102.29 1480.58 Q2104.61 1478.84 2104.61 1475.53 Q2104.61 1472.48 2102.45 1470.77 Q2100.32 1469.03 2096.5 1469.03 L2092.48 1469.03 L2092.48 1465.19 L2096.69 1465.19 Q2100.14 1465.19 2101.97 1463.82 Q2103.79 1462.43 2103.79 1459.84 Q2103.79 1457.18 2101.9 1455.77 Q2100.02 1454.33 2096.5 1454.33 Q2094.58 1454.33 2092.38 1454.75 Q2090.18 1455.16 2087.54 1456.04 L2087.54 1451.88 Q2090.21 1451.14 2092.52 1450.77 Q2094.86 1450.39 2096.92 1450.39 Q2102.24 1450.39 2105.35 1452.83 Q2108.45 1455.23 2108.45 1459.35 Q2108.45 1462.22 2106.8 1464.21 Q2105.16 1466.18 2102.13 1466.95 Z" fill="#000000" fill-rule="evenodd" fill-opacity="1" /><path clip-path="url(#clip560)" d="M1300.48 1545.44 Q1300.48 1547.24 1299.36 1548.27 Q1298.23 1549.27 1296.94 1549.27 Q1295.72 1549.27 1295.07 1548.56 Q1294.43 1547.85 1294.43 1546.95 Q1294.43 1545.73 1295.33 1544.66 Q1296.23 1543.6 1297.59 1543.37 Q1296.27 1542.54 1294.3 1542.54 Q1293.01 1542.54 1291.89 1543.21 Q1290.79 1543.89 1290.11 1544.76 Q1289.47 1545.63 1288.89 1546.88 Q1288.34 1548.11 1288.12 1548.85 Q1287.92 1549.56 1287.76 1550.33 L1285.51 1559.35 Q1284.41 1563.63 1284.41 1565.15 Q1284.41 1567.01 1285.32 1568.27 Q1286.22 1569.49 1288.02 1569.49 Q1288.73 1569.49 1289.53 1569.3 Q1290.34 1569.07 1291.37 1568.5 Q1292.43 1567.88 1293.37 1566.98 Q1294.33 1566.05 1295.27 1564.47 Q1296.2 1562.89 1296.81 1560.86 Q1297.01 1560.15 1297.65 1560.15 Q1298.46 1560.15 1298.46 1560.8 Q1298.46 1561.35 1298 1562.5 Q1297.59 1563.63 1296.65 1565.11 Q1295.75 1566.56 1294.56 1567.88 Q1293.37 1569.17 1291.6 1570.07 Q1289.82 1570.97 1287.89 1570.97 Q1285.12 1570.97 1283.29 1569.49 Q1281.45 1568.01 1280.77 1565.95 Q1280.61 1566.24 1280.39 1566.63 Q1280.16 1567.01 1279.49 1567.88 Q1278.84 1568.72 1278.1 1569.36 Q1277.36 1569.98 1276.2 1570.46 Q1275.07 1570.97 1273.85 1570.97 Q1272.3 1570.97 1270.92 1570.52 Q1269.57 1570.07 1268.6 1569.04 Q1267.63 1568.01 1267.63 1566.59 Q1267.63 1565.02 1268.7 1563.92 Q1269.79 1562.79 1271.27 1562.79 Q1272.21 1562.79 1272.95 1563.34 Q1273.72 1563.89 1273.72 1565.08 Q1273.72 1566.4 1272.82 1567.4 Q1271.92 1568.4 1270.63 1568.66 Q1271.95 1569.49 1273.91 1569.49 Q1276.04 1569.49 1277.71 1567.63 Q1279.39 1565.76 1280.19 1562.63 Q1282.19 1555.13 1282.96 1551.78 Q1283.74 1548.4 1283.74 1546.95 Q1283.74 1545.6 1283.38 1544.66 Q1283.03 1543.73 1282.42 1543.31 Q1281.84 1542.86 1281.29 1542.7 Q1280.77 1542.54 1280.19 1542.54 Q1279.23 1542.54 1278.13 1542.92 Q1277.07 1543.31 1275.78 1544.21 Q1274.53 1545.08 1273.33 1546.88 Q1272.14 1548.69 1271.34 1551.17 Q1271.18 1551.91 1270.47 1551.91 Q1269.7 1551.88 1269.7 1551.23 Q1269.7 1550.69 1270.11 1549.56 Q1270.57 1548.4 1271.47 1546.95 Q1272.4 1545.5 1273.59 1544.21 Q1274.82 1542.89 1276.59 1541.99 Q1278.39 1541.09 1280.32 1541.09 Q1281.19 1541.09 1282.03 1541.28 Q1282.9 1541.44 1283.93 1541.93 Q1284.99 1542.41 1285.93 1543.47 Q1286.86 1544.53 1287.44 1546.08 Q1287.83 1545.34 1288.34 1544.63 Q1288.89 1543.92 1289.73 1543.05 Q1290.6 1542.15 1291.79 1541.64 Q1293.01 1541.09 1294.37 1541.09 Q1295.69 1541.09 1296.97 1541.44 Q1298.26 1541.76 1299.36 1542.83 Q1300.48 1543.86 1300.48 1545.44 Z" fill="#000000" fill-rule="evenodd" fill-opacity="1" /><polyline clip-path="url(#clip563)" style="stroke:#000000; stroke-linecap:butt; stroke-linejoin:round; stroke-width:2; stroke-opacity:0.1; fill:none" points="
  219.866,1385.53 2352.76,1385.53 
  "/>
<polyline clip-path="url(#clip563)" style="stroke:#000000; stroke-linecap:butt; stroke-linejoin:round; stroke-width:2; stroke-opacity:0.1; fill:none" points="
  219.866,1059.78 2352.76,1059.78 
  "/>
<polyline clip-path="url(#clip563)" style="stroke:#000000; stroke-linecap:butt; stroke-linejoin:round; stroke-width:2; stroke-opacity:0.1; fill:none" points="
  219.866,734.024 2352.76,734.024 
  "/>
<polyline clip-path="url(#clip563)" style="stroke:#000000; stroke-linecap:butt; stroke-linejoin:round; stroke-width:2; stroke-opacity:0.1; fill:none" points="
  219.866,408.273 2352.76,408.273 
  "/>
<polyline clip-path="url(#clip563)" style="stroke:#000000; stroke-linecap:butt; stroke-linejoin:round; stroke-width:2; stroke-opacity:0.1; fill:none" points="
  219.866,82.5212 2352.76,82.5212 
  "/>
<polyline clip-path="url(#clip560)" style="stroke:#000000; stroke-linecap:butt; stroke-linejoin:round; stroke-width:4; stroke-opacity:1; fill:none" points="
  219.866,1423.18 219.866,47.2441 
  "/>
<polyline clip-path="url(#clip560)" style="stroke:#000000; stroke-linecap:butt; stroke-linejoin:round; stroke-width:4; stroke-opacity:1; fill:none" points="
  219.866,1385.53 238.764,1385.53 
  "/>
<polyline clip-path="url(#clip560)" style="stroke:#000000; stroke-linecap:butt; stroke-linejoin:round; stroke-width:4; stroke-opacity:1; fill:none" points="
  219.866,1059.78 238.764,1059.78 
  "/>
<polyline clip-path="url(#clip560)" style="stroke:#000000; stroke-linecap:butt; stroke-linejoin:round; stroke-width:4; stroke-opacity:1; fill:none" points="
  219.866,734.024 238.764,734.024 
  "/>
<polyline clip-path="url(#clip560)" style="stroke:#000000; stroke-linecap:butt; stroke-linejoin:round; stroke-width:4; stroke-opacity:1; fill:none" points="
  219.866,408.273 238.764,408.273 
  "/>
<polyline clip-path="url(#clip560)" style="stroke:#000000; stroke-linecap:butt; stroke-linejoin:round; stroke-width:4; stroke-opacity:1; fill:none" points="
  219.866,82.5212 238.764,82.5212 
  "/>
<path clip-path="url(#clip560)" d="M126.691 1371.33 Q123.08 1371.33 121.251 1374.89 Q119.445 1378.43 119.445 1385.56 Q119.445 1392.67 121.251 1396.23 Q123.08 1399.78 126.691 1399.78 Q130.325 1399.78 132.13 1396.23 Q133.959 1392.67 133.959 1385.56 Q133.959 1378.43 132.13 1374.89 Q130.325 1371.33 126.691 1371.33 M126.691 1367.62 Q132.501 1367.62 135.556 1372.23 Q138.635 1376.81 138.635 1385.56 Q138.635 1394.29 135.556 1398.9 Q132.501 1403.48 126.691 1403.48 Q120.88 1403.48 117.802 1398.9 Q114.746 1394.29 114.746 1385.56 Q114.746 1376.81 117.802 1372.23 Q120.88 1367.62 126.691 1367.62 Z" fill="#000000" fill-rule="evenodd" fill-opacity="1" /><path clip-path="url(#clip560)" d="M146.853 1396.93 L151.737 1396.93 L151.737 1402.81 L146.853 1402.81 L146.853 1396.93 Z" fill="#000000" fill-rule="evenodd" fill-opacity="1" /><path clip-path="url(#clip560)" d="M171.922 1371.33 Q168.311 1371.33 166.482 1374.89 Q164.677 1378.43 164.677 1385.56 Q164.677 1392.67 166.482 1396.23 Q168.311 1399.78 171.922 1399.78 Q175.556 1399.78 177.362 1396.23 Q179.19 1392.67 179.19 1385.56 Q179.19 1378.43 177.362 1374.89 Q175.556 1371.33 171.922 1371.33 M171.922 1367.62 Q177.732 1367.62 180.788 1372.23 Q183.866 1376.81 183.866 1385.56 Q183.866 1394.29 180.788 1398.9 Q177.732 1403.48 171.922 1403.48 Q166.112 1403.48 163.033 1398.9 Q159.978 1394.29 159.978 1385.56 Q159.978 1376.81 163.033 1372.23 Q166.112 1367.62 171.922 1367.62 Z" fill="#000000" fill-rule="evenodd" fill-opacity="1" /><path clip-path="url(#clip560)" d="M127.917 1045.57 Q124.306 1045.57 122.478 1049.14 Q120.672 1052.68 120.672 1059.81 Q120.672 1066.92 122.478 1070.48 Q124.306 1074.02 127.917 1074.02 Q131.552 1074.02 133.357 1070.48 Q135.186 1066.92 135.186 1059.81 Q135.186 1052.68 133.357 1049.14 Q131.552 1045.57 127.917 1045.57 M127.917 1041.87 Q133.728 1041.87 136.783 1046.48 Q139.862 1051.06 139.862 1059.81 Q139.862 1068.54 136.783 1073.14 Q133.728 1077.73 127.917 1077.73 Q122.107 1077.73 119.029 1073.14 Q115.973 1068.54 115.973 1059.81 Q115.973 1051.06 119.029 1046.48 Q122.107 1041.87 127.917 1041.87 Z" fill="#000000" fill-rule="evenodd" fill-opacity="1" /><path clip-path="url(#clip560)" d="M148.079 1071.18 L152.964 1071.18 L152.964 1077.06 L148.079 1077.06 L148.079 1071.18 Z" fill="#000000" fill-rule="evenodd" fill-opacity="1" /><path clip-path="url(#clip560)" d="M163.959 1073.12 L171.598 1073.12 L171.598 1046.76 L163.288 1048.42 L163.288 1044.16 L171.552 1042.5 L176.227 1042.5 L176.227 1073.12 L183.866 1073.12 L183.866 1077.06 L163.959 1077.06 L163.959 1073.12 Z" fill="#000000" fill-rule="evenodd" fill-opacity="1" /><path clip-path="url(#clip560)" d="M128.288 719.823 Q124.677 719.823 122.848 723.388 Q121.043 726.93 121.043 734.059 Q121.043 741.166 122.848 744.73 Q124.677 748.272 128.288 748.272 Q131.922 748.272 133.728 744.73 Q135.556 741.166 135.556 734.059 Q135.556 726.93 133.728 723.388 Q131.922 719.823 128.288 719.823 M128.288 716.12 Q134.098 716.12 137.154 720.726 Q140.232 725.309 140.232 734.059 Q140.232 742.786 137.154 747.392 Q134.098 751.976 128.288 751.976 Q122.478 751.976 119.399 747.392 Q116.343 742.786 116.343 734.059 Q116.343 725.309 119.399 720.726 Q122.478 716.12 128.288 716.12 Z" fill="#000000" fill-rule="evenodd" fill-opacity="1" /><path clip-path="url(#clip560)" d="M148.45 745.425 L153.334 745.425 L153.334 751.304 L148.45 751.304 L148.45 745.425 Z" fill="#000000" fill-rule="evenodd" fill-opacity="1" /><path clip-path="url(#clip560)" d="M167.547 747.369 L183.866 747.369 L183.866 751.304 L161.922 751.304 L161.922 747.369 Q164.584 744.615 169.167 739.985 Q173.774 735.332 174.954 733.99 Q177.2 731.467 178.079 729.731 Q178.982 727.971 178.982 726.281 Q178.982 723.527 177.038 721.791 Q175.116 720.055 172.014 720.055 Q169.815 720.055 167.362 720.819 Q164.931 721.582 162.153 723.133 L162.153 718.411 Q164.977 717.277 167.431 716.698 Q169.885 716.12 171.922 716.12 Q177.292 716.12 180.487 718.805 Q183.681 721.49 183.681 725.981 Q183.681 728.11 182.871 730.031 Q182.084 731.93 179.977 734.522 Q179.399 735.193 176.297 738.411 Q173.195 741.605 167.547 747.369 Z" fill="#000000" fill-rule="evenodd" fill-opacity="1" /><path clip-path="url(#clip560)" d="M127.339 394.072 Q123.728 394.072 121.899 397.636 Q120.093 401.178 120.093 408.308 Q120.093 415.414 121.899 418.979 Q123.728 422.52 127.339 422.52 Q130.973 422.52 132.779 418.979 Q134.607 415.414 134.607 408.308 Q134.607 401.178 132.779 397.636 Q130.973 394.072 127.339 394.072 M127.339 390.368 Q133.149 390.368 136.204 394.974 Q139.283 399.558 139.283 408.308 Q139.283 417.034 136.204 421.641 Q133.149 426.224 127.339 426.224 Q121.529 426.224 118.45 421.641 Q115.394 417.034 115.394 408.308 Q115.394 399.558 118.45 394.974 Q121.529 390.368 127.339 390.368 Z" fill="#000000" fill-rule="evenodd" fill-opacity="1" /><path clip-path="url(#clip560)" d="M147.501 419.673 L152.385 419.673 L152.385 425.553 L147.501 425.553 L147.501 419.673 Z" fill="#000000" fill-rule="evenodd" fill-opacity="1" /><path clip-path="url(#clip560)" d="M176.737 406.919 Q180.093 407.636 181.968 409.905 Q183.866 412.173 183.866 415.507 Q183.866 420.622 180.348 423.423 Q176.829 426.224 170.348 426.224 Q168.172 426.224 165.857 425.784 Q163.565 425.368 161.112 424.511 L161.112 419.997 Q163.056 421.132 165.371 421.71 Q167.686 422.289 170.209 422.289 Q174.607 422.289 176.899 420.553 Q179.214 418.817 179.214 415.507 Q179.214 412.451 177.061 410.738 Q174.931 409.002 171.112 409.002 L167.084 409.002 L167.084 405.159 L171.297 405.159 Q174.746 405.159 176.575 403.794 Q178.403 402.405 178.403 399.812 Q178.403 397.15 176.505 395.738 Q174.63 394.303 171.112 394.303 Q169.19 394.303 166.991 394.72 Q164.792 395.136 162.153 396.016 L162.153 391.849 Q164.815 391.109 167.13 390.738 Q169.468 390.368 171.528 390.368 Q176.852 390.368 179.954 392.798 Q183.056 395.206 183.056 399.326 Q183.056 402.197 181.413 404.187 Q179.769 406.155 176.737 406.919 Z" fill="#000000" fill-rule="evenodd" fill-opacity="1" /><path clip-path="url(#clip560)" d="M126.205 68.3199 Q122.593 68.3199 120.765 71.8847 Q118.959 75.4264 118.959 82.556 Q118.959 89.6624 120.765 93.2272 Q122.593 96.7689 126.205 96.7689 Q129.839 96.7689 131.644 93.2272 Q133.473 89.6624 133.473 82.556 Q133.473 75.4264 131.644 71.8847 Q129.839 68.3199 126.205 68.3199 M126.205 64.6163 Q132.015 64.6163 135.07 69.2227 Q138.149 73.806 138.149 82.556 Q138.149 91.2828 135.07 95.8892 Q132.015 100.473 126.205 100.473 Q120.394 100.473 117.316 95.8892 Q114.26 91.2828 114.26 82.556 Q114.26 73.806 117.316 69.2227 Q120.394 64.6163 126.205 64.6163 Z" fill="#000000" fill-rule="evenodd" fill-opacity="1" /><path clip-path="url(#clip560)" d="M146.366 93.9216 L151.251 93.9216 L151.251 99.8012 L146.366 99.8012 L146.366 93.9216 Z" fill="#000000" fill-rule="evenodd" fill-opacity="1" /><path clip-path="url(#clip560)" d="M174.283 69.3153 L162.477 87.7643 L174.283 87.7643 L174.283 69.3153 M173.056 65.2412 L178.936 65.2412 L178.936 87.7643 L183.866 87.7643 L183.866 91.6531 L178.936 91.6531 L178.936 99.8012 L174.283 99.8012 L174.283 91.6531 L158.681 91.6531 L158.681 87.1393 L173.056 65.2412 Z" fill="#000000" fill-rule="evenodd" fill-opacity="1" /><path clip-path="url(#clip560)" d="M21.7677 848.522 L58.7206 848.522 L58.7206 840.755 Q58.7206 830.92 54.2646 826.369 Q49.8086 821.786 40.1964 821.786 Q30.6479 821.786 26.2237 826.369 Q21.7677 830.92 21.7677 840.755 L21.7677 848.522 M16.4842 854.951 L16.4842 841.742 Q16.4842 827.928 22.2451 821.467 Q27.9743 815.006 40.1964 815.006 Q52.4822 815.006 58.2432 821.499 Q64.0042 827.992 64.0042 841.742 L64.0042 854.951 L16.4842 854.951 Z" fill="#000000" fill-rule="evenodd" fill-opacity="1" /><path clip-path="url(#clip560)" d="M44.7161 774.52 L47.5806 774.52 L47.5806 801.447 Q53.6281 801.065 56.8109 797.819 Q59.9619 794.54 59.9619 788.716 Q59.9619 785.342 59.1344 782.191 Q58.3069 779.008 56.6518 775.889 L62.1899 775.889 Q63.5267 779.04 64.227 782.35 Q64.9272 785.66 64.9272 789.066 Q64.9272 797.596 59.9619 802.593 Q54.9967 807.558 46.5303 807.558 Q37.7774 807.558 32.6531 802.848 Q27.4968 798.105 27.4968 790.084 Q27.4968 782.891 32.1438 778.722 Q36.7589 774.52 44.7161 774.52 M42.9973 780.377 Q38.1912 780.44 35.3266 783.082 Q32.4621 785.692 32.4621 790.021 Q32.4621 794.922 35.2312 797.882 Q38.0002 800.811 43.0292 801.256 L42.9973 780.377 Z" fill="#000000" fill-rule="evenodd" fill-opacity="1" /><path clip-path="url(#clip560)" d="M42.4881 735.276 L64.0042 735.276 L64.0042 741.132 L42.679 741.132 Q37.6183 741.132 35.1038 743.105 Q32.5894 745.079 32.5894 749.026 Q32.5894 753.768 35.6131 756.505 Q38.6368 759.243 43.8567 759.243 L64.0042 759.243 L64.0042 765.131 L28.3562 765.131 L28.3562 759.243 L33.8944 759.243 Q30.6797 757.142 29.0883 754.309 Q27.4968 751.445 27.4968 747.721 Q27.4968 741.578 31.3163 738.427 Q35.1038 735.276 42.4881 735.276 Z" fill="#000000" fill-rule="evenodd" fill-opacity="1" /><path clip-path="url(#clip560)" d="M29.4065 700.869 L34.9447 700.869 Q33.6716 703.352 33.035 706.025 Q32.3984 708.699 32.3984 711.563 Q32.3984 715.924 33.7352 718.12 Q35.072 720.284 37.7456 720.284 Q39.7826 720.284 40.9603 718.725 Q42.1061 717.165 43.1565 712.455 L43.6021 710.449 Q44.9389 704.211 47.3897 701.601 Q49.8086 698.959 54.1691 698.959 Q59.1344 698.959 62.0308 702.906 Q64.9272 706.821 64.9272 713.696 Q64.9272 716.56 64.3543 719.68 Q63.8132 722.767 62.6992 726.204 L56.6518 726.204 Q58.3387 722.958 59.198 719.807 Q60.0256 716.656 60.0256 713.569 Q60.0256 709.431 58.6251 707.203 Q57.1929 704.975 54.6147 704.975 Q52.2276 704.975 50.9545 706.598 Q49.6813 708.19 48.5037 713.632 L48.0262 715.669 Q46.8804 721.112 44.5251 723.531 Q42.138 725.95 38.0002 725.95 Q32.9713 725.95 30.2341 722.385 Q27.4968 718.82 27.4968 712.264 Q27.4968 709.017 27.9743 706.153 Q28.4517 703.288 29.4065 700.869 Z" fill="#000000" fill-rule="evenodd" fill-opacity="1" /><path clip-path="url(#clip560)" d="M28.3562 689.634 L28.3562 683.777 L64.0042 683.777 L64.0042 689.634 L28.3562 689.634 M14.479 689.634 L14.479 683.777 L21.895 683.777 L21.895 689.634 L14.479 689.634 Z" fill="#000000" fill-rule="evenodd" fill-opacity="1" /><path clip-path="url(#clip560)" d="M18.2347 665.73 L28.3562 665.73 L28.3562 653.667 L32.9077 653.667 L32.9077 665.73 L52.2594 665.73 Q56.6199 665.73 57.8613 664.553 Q59.1026 663.343 59.1026 659.683 L59.1026 653.667 L64.0042 653.667 L64.0042 659.683 Q64.0042 666.462 61.4897 669.04 Q58.9434 671.619 52.2594 671.619 L32.9077 671.619 L32.9077 675.915 L28.3562 675.915 L28.3562 671.619 L18.2347 671.619 L18.2347 665.73 Z" fill="#000000" fill-rule="evenodd" fill-opacity="1" /><path clip-path="url(#clip560)" d="M67.3143 631.133 Q73.68 633.615 75.6216 635.971 Q77.5631 638.326 77.5631 642.273 L77.5631 646.951 L72.6615 646.951 L72.6615 643.514 Q72.6615 641.095 71.5157 639.758 Q70.3699 638.421 66.1048 636.798 L63.4312 635.748 L28.3562 650.166 L28.3562 643.96 L56.238 632.82 L28.3562 621.68 L28.3562 615.473 L67.3143 631.133 Z" fill="#000000" fill-rule="evenodd" fill-opacity="1" /><polyline clip-path="url(#clip563)" style="stroke:#009af9; stroke-linecap:butt; stroke-linejoin:round; stroke-width:20; stroke-opacity:1; fill:none" points="
  280.231,1384.24 290.056,1384.05 299.881,1383.84 390.73,1380.11 481.578,1369.96 536.174,1357.72 590.77,1337.85 636.93,1312.66 683.09,1277.36 708.161,1253.1 
  733.233,1224.78 758.304,1192.08 783.376,1154.71 806.489,1115.96 829.603,1073 852.717,1025.82 875.83,974.528 925.391,851.849 974.951,715.423 1032.37,549.044 
  1089.79,387.356 1115.31,321.313 1140.82,260.95 1166.34,207.686 1191.85,162.825 1214.22,131.296 1236.6,107.726 1258.97,92.5862 1281.35,86.1857 1305.74,89.3138 
  1330.13,102.906 1354.53,126.633 1378.92,159.927 1403.46,202.277 1428,252.525 1452.54,309.528 1477.07,372.037 1531.33,523.23 1585.6,680.798 1637.22,825.229 
  1688.85,955.993 1715.69,1016.77 1742.53,1072.04 1769.37,1121.65 1796.21,1165.58 1841.4,1227.21 1886.59,1274.71 1941.76,1316.49 1996.93,1344.28 2048.79,1361.05 
  2100.65,1371.53 2183.73,1380.23 2266.82,1383.7 2279.6,1383.99 2292.39,1384.24 
  "/>
</svg>
