<?xml version="1.0" encoding="utf-8"?>
<svg xmlns="http://www.w3.org/2000/svg" xmlns:xlink="http://www.w3.org/1999/xlink" width="600" height="400" viewBox="0 0 2400 1600">
<defs>
  <clipPath id="clip590">
    <rect x="0" y="0" width="2400" height="1600"/>
  </clipPath>
</defs>
<path clip-path="url(#clip590)" d="
M0 1600 L2400 1600 L2400 0 L0 0  Z
  " fill="#ffffff" fill-rule="evenodd" fill-opacity="1"/>
<defs>
  <clipPath id="clip591">
    <rect x="480" y="0" width="1681" height="1600"/>
  </clipPath>
</defs>
<defs>
  <clipPath id="clip592">
    <rect x="219" y="47" width="2134" height="1377"/>
  </clipPath>
</defs>
<path clip-path="url(#clip590)" d="
M219.38 1423.18 L2352.76 1423.18 L2352.76 47.2441 L219.38 47.2441  Z
  " fill="#ffffff" fill-rule="evenodd" fill-opacity="1"/>
<polyline clip-path="url(#clip592)" style="stroke:#000000; stroke-linecap:butt; stroke-linejoin:round; stroke-width:2; stroke-opacity:0.1; fill:none" points="
  219.38,1423.18 219.38,47.2441 
  "/>
<polyline clip-path="url(#clip592)" style="stroke:#000000; stroke-linecap:butt; stroke-linejoin:round; stroke-width:2; stroke-opacity:0.1; fill:none" points="
  752.724,1423.18 752.724,47.2441 
  "/>
<polyline clip-path="url(#clip592)" style="stroke:#000000; stroke-linecap:butt; stroke-linejoin:round; stroke-width:2; stroke-opacity:0.1; fill:none" points="
  1286.07,1423.18 1286.07,47.2441 
  "/>
<polyline clip-path="url(#clip592)" style="stroke:#000000; stroke-linecap:butt; stroke-linejoin:round; stroke-width:2; stroke-opacity:0.1; fill:none" points="
  1819.41,1423.18 1819.41,47.2441 
  "/>
<polyline clip-path="url(#clip592)" style="stroke:#000000; stroke-linecap:butt; stroke-linejoin:round; stroke-width:2; stroke-opacity:0.1; fill:none" points="
  2352.76,1423.18 2352.76,47.2441 
  "/>
<polyline clip-path="url(#clip590)" style="stroke:#000000; stroke-linecap:butt; stroke-linejoin:round; stroke-width:4; stroke-opacity:1; fill:none" points="
  219.38,1423.18 2352.76,1423.18 
  "/>
<polyline clip-path="url(#clip590)" style="stroke:#000000; stroke-linecap:butt; stroke-linejoin:round; stroke-width:4; stroke-opacity:1; fill:none" points="
  219.38,1423.18 219.38,1404.28 
  "/>
<polyline clip-path="url(#clip590)" style="stroke:#000000; stroke-linecap:butt; stroke-linejoin:round; stroke-width:4; stroke-opacity:1; fill:none" points="
  752.724,1423.18 752.724,1404.28 
  "/>
<polyline clip-path="url(#clip590)" style="stroke:#000000; stroke-linecap:butt; stroke-linejoin:round; stroke-width:4; stroke-opacity:1; fill:none" points="
  1286.07,1423.18 1286.07,1404.28 
  "/>
<polyline clip-path="url(#clip590)" style="stroke:#000000; stroke-linecap:butt; stroke-linejoin:round; stroke-width:4; stroke-opacity:1; fill:none" points="
  1819.41,1423.18 1819.41,1404.28 
  "/>
<polyline clip-path="url(#clip590)" style="stroke:#000000; stroke-linecap:butt; stroke-linejoin:round; stroke-width:4; stroke-opacity:1; fill:none" points="
  2352.76,1423.18 2352.76,1404.28 
  "/>
<path clip-path="url(#clip590)" d="M188.281 1468.75 L217.957 1468.75 L217.957 1472.69 L188.281 1472.69 L188.281 1468.75 Z" fill="#000000" fill-rule="evenodd" fill-opacity="1" /><path clip-path="url(#clip590)" d="M240.896 1455.09 L229.091 1473.54 L240.896 1473.54 L240.896 1455.09 M239.669 1451.02 L245.549 1451.02 L245.549 1473.54 L250.48 1473.54 L250.48 1477.43 L245.549 1477.43 L245.549 1485.58 L240.896 1485.58 L240.896 1477.43 L225.294 1477.43 L225.294 1472.92 L239.669 1451.02 Z" fill="#000000" fill-rule="evenodd" fill-opacity="1" /><path clip-path="url(#clip590)" d="M722.666 1468.75 L752.342 1468.75 L752.342 1472.69 L722.666 1472.69 L722.666 1468.75 Z" fill="#000000" fill-rule="evenodd" fill-opacity="1" /><path clip-path="url(#clip590)" d="M766.462 1481.64 L782.782 1481.64 L782.782 1485.58 L760.837 1485.58 L760.837 1481.64 Q763.499 1478.89 768.083 1474.26 Q772.689 1469.61 773.87 1468.27 Q776.115 1465.74 776.995 1464.01 Q777.898 1462.25 777.898 1460.56 Q777.898 1457.8 775.953 1456.07 Q774.032 1454.33 770.93 1454.33 Q768.731 1454.33 766.277 1455.09 Q763.847 1455.86 761.069 1457.41 L761.069 1452.69 Q763.893 1451.55 766.347 1450.97 Q768.8 1450.39 770.837 1450.39 Q776.208 1450.39 779.402 1453.08 Q782.597 1455.77 782.597 1460.26 Q782.597 1462.39 781.786 1464.31 Q780.999 1466.2 778.893 1468.8 Q778.314 1469.47 775.212 1472.69 Q772.111 1475.88 766.462 1481.64 Z" fill="#000000" fill-rule="evenodd" fill-opacity="1" /><path clip-path="url(#clip590)" d="M1286.07 1454.1 Q1282.46 1454.1 1280.63 1457.66 Q1278.82 1461.2 1278.82 1468.33 Q1278.82 1475.44 1280.63 1479.01 Q1282.46 1482.55 1286.07 1482.55 Q1289.7 1482.55 1291.51 1479.01 Q1293.34 1475.44 1293.34 1468.33 Q1293.34 1461.2 1291.51 1457.66 Q1289.7 1454.1 1286.07 1454.1 M1286.07 1450.39 Q1291.88 1450.39 1294.93 1455 Q1298.01 1459.58 1298.01 1468.33 Q1298.01 1477.06 1294.93 1481.67 Q1291.88 1486.25 1286.07 1486.25 Q1280.26 1486.25 1277.18 1481.67 Q1274.12 1477.06 1274.12 1468.33 Q1274.12 1459.58 1277.18 1455 Q1280.26 1450.39 1286.07 1450.39 Z" fill="#000000" fill-rule="evenodd" fill-opacity="1" /><path clip-path="url(#clip590)" d="M1814.06 1481.64 L1830.38 1481.64 L1830.38 1485.58 L1808.44 1485.58 L1808.44 1481.64 Q1811.1 1478.89 1815.69 1474.26 Q1820.29 1469.61 1821.47 1468.27 Q1823.72 1465.74 1824.6 1464.01 Q1825.5 1462.25 1825.5 1460.56 Q1825.5 1457.8 1823.56 1456.07 Q1821.63 1454.33 1818.53 1454.33 Q1816.33 1454.33 1813.88 1455.09 Q1811.45 1455.86 1808.67 1457.41 L1808.67 1452.69 Q1811.5 1451.55 1813.95 1450.97 Q1816.4 1450.39 1818.44 1450.39 Q1823.81 1450.39 1827 1453.08 Q1830.2 1455.77 1830.2 1460.26 Q1830.2 1462.39 1829.39 1464.31 Q1828.6 1466.2 1826.5 1468.8 Q1825.92 1469.47 1822.81 1472.69 Q1819.71 1475.88 1814.06 1481.64 Z" fill="#000000" fill-rule="evenodd" fill-opacity="1" /><path clip-path="url(#clip590)" d="M2355.77 1455.09 L2343.96 1473.54 L2355.77 1473.54 L2355.77 1455.09 M2354.54 1451.02 L2360.42 1451.02 L2360.42 1473.54 L2365.35 1473.54 L2365.35 1477.43 L2360.42 1477.43 L2360.42 1485.58 L2355.77 1485.58 L2355.77 1477.43 L2340.16 1477.43 L2340.16 1472.92 L2354.54 1451.02 Z" fill="#000000" fill-rule="evenodd" fill-opacity="1" /><path clip-path="url(#clip590)" d="M1300.24 1545.44 Q1300.24 1547.24 1299.11 1548.27 Q1297.99 1549.27 1296.7 1549.27 Q1295.47 1549.27 1294.83 1548.56 Q1294.19 1547.85 1294.19 1546.95 Q1294.19 1545.73 1295.09 1544.66 Q1295.99 1543.6 1297.34 1543.37 Q1296.02 1542.54 1294.06 1542.54 Q1292.77 1542.54 1291.64 1543.21 Q1290.55 1543.89 1289.87 1544.76 Q1289.23 1545.63 1288.65 1546.88 Q1288.1 1548.11 1287.87 1548.85 Q1287.68 1549.56 1287.52 1550.33 L1285.27 1559.35 Q1284.17 1563.63 1284.17 1565.15 Q1284.17 1567.01 1285.07 1568.27 Q1285.97 1569.49 1287.78 1569.49 Q1288.49 1569.49 1289.29 1569.3 Q1290.1 1569.07 1291.13 1568.5 Q1292.19 1567.88 1293.12 1566.98 Q1294.09 1566.05 1295.02 1564.47 Q1295.96 1562.89 1296.57 1560.86 Q1296.76 1560.15 1297.41 1560.15 Q1298.21 1560.15 1298.21 1560.8 Q1298.21 1561.35 1297.76 1562.5 Q1297.34 1563.63 1296.41 1565.11 Q1295.51 1566.56 1294.32 1567.88 Q1293.12 1569.17 1291.35 1570.07 Q1289.58 1570.97 1287.65 1570.97 Q1284.88 1570.97 1283.04 1569.49 Q1281.21 1568.01 1280.53 1565.95 Q1280.37 1566.24 1280.14 1566.63 Q1279.92 1567.01 1279.24 1567.88 Q1278.6 1568.72 1277.86 1569.36 Q1277.12 1569.98 1275.96 1570.46 Q1274.83 1570.97 1273.61 1570.97 Q1272.06 1570.97 1270.68 1570.52 Q1269.32 1570.07 1268.36 1569.04 Q1267.39 1568.01 1267.39 1566.59 Q1267.39 1565.02 1268.45 1563.92 Q1269.55 1562.79 1271.03 1562.79 Q1271.96 1562.79 1272.71 1563.34 Q1273.48 1563.89 1273.48 1565.08 Q1273.48 1566.4 1272.58 1567.4 Q1271.67 1568.4 1270.39 1568.66 Q1271.71 1569.49 1273.67 1569.49 Q1275.8 1569.49 1277.47 1567.63 Q1279.15 1565.76 1279.95 1562.63 Q1281.95 1555.13 1282.72 1551.78 Q1283.49 1548.4 1283.49 1546.95 Q1283.49 1545.6 1283.14 1544.66 Q1282.79 1543.73 1282.17 1543.31 Q1281.59 1542.86 1281.05 1542.7 Q1280.53 1542.54 1279.95 1542.54 Q1278.99 1542.54 1277.89 1542.92 Q1276.83 1543.31 1275.54 1544.21 Q1274.28 1545.08 1273.09 1546.88 Q1271.9 1548.69 1271.1 1551.17 Q1270.93 1551.91 1270.23 1551.91 Q1269.45 1551.88 1269.45 1551.23 Q1269.45 1550.69 1269.87 1549.56 Q1270.32 1548.4 1271.22 1546.95 Q1272.16 1545.5 1273.35 1544.21 Q1274.57 1542.89 1276.34 1541.99 Q1278.15 1541.09 1280.08 1541.09 Q1280.95 1541.09 1281.79 1541.28 Q1282.66 1541.44 1283.69 1541.93 Q1284.75 1542.41 1285.68 1543.47 Q1286.62 1544.53 1287.2 1546.08 Q1287.58 1545.34 1288.1 1544.63 Q1288.65 1543.92 1289.48 1543.05 Q1290.35 1542.15 1291.55 1541.64 Q1292.77 1541.09 1294.12 1541.09 Q1295.44 1541.09 1296.73 1541.44 Q1298.02 1541.76 1299.11 1542.83 Q1300.24 1543.86 1300.24 1545.44 Z" fill="#000000" fill-rule="evenodd" fill-opacity="1" /><polyline clip-path="url(#clip592)" style="stroke:#000000; stroke-linecap:butt; stroke-linejoin:round; stroke-width:2; stroke-opacity:0.1; fill:none" points="
  219.38,1384.25 2352.76,1384.25 
  "/>
<polyline clip-path="url(#clip592)" style="stroke:#000000; stroke-linecap:butt; stroke-linejoin:round; stroke-width:2; stroke-opacity:0.1; fill:none" points="
  219.38,1016.91 2352.76,1016.91 
  "/>
<polyline clip-path="url(#clip592)" style="stroke:#000000; stroke-linecap:butt; stroke-linejoin:round; stroke-width:2; stroke-opacity:0.1; fill:none" points="
  219.38,649.58 2352.76,649.58 
  "/>
<polyline clip-path="url(#clip592)" style="stroke:#000000; stroke-linecap:butt; stroke-linejoin:round; stroke-width:2; stroke-opacity:0.1; fill:none" points="
  219.38,282.245 2352.76,282.245 
  "/>
<polyline clip-path="url(#clip590)" style="stroke:#000000; stroke-linecap:butt; stroke-linejoin:round; stroke-width:4; stroke-opacity:1; fill:none" points="
  219.38,1423.18 219.38,47.2441 
  "/>
<polyline clip-path="url(#clip590)" style="stroke:#000000; stroke-linecap:butt; stroke-linejoin:round; stroke-width:4; stroke-opacity:1; fill:none" points="
  219.38,1384.25 238.278,1384.25 
  "/>
<polyline clip-path="url(#clip590)" style="stroke:#000000; stroke-linecap:butt; stroke-linejoin:round; stroke-width:4; stroke-opacity:1; fill:none" points="
  219.38,1016.91 238.278,1016.91 
  "/>
<polyline clip-path="url(#clip590)" style="stroke:#000000; stroke-linecap:butt; stroke-linejoin:round; stroke-width:4; stroke-opacity:1; fill:none" points="
  219.38,649.58 238.278,649.58 
  "/>
<polyline clip-path="url(#clip590)" style="stroke:#000000; stroke-linecap:butt; stroke-linejoin:round; stroke-width:4; stroke-opacity:1; fill:none" points="
  219.38,282.245 238.278,282.245 
  "/>
<path clip-path="url(#clip590)" d="M126.205 1370.05 Q122.593 1370.05 120.765 1373.61 Q118.959 1377.15 118.959 1384.28 Q118.959 1391.39 120.765 1394.95 Q122.593 1398.5 126.205 1398.5 Q129.839 1398.5 131.644 1394.95 Q133.473 1391.39 133.473 1384.28 Q133.473 1377.15 131.644 1373.61 Q129.839 1370.05 126.205 1370.05 M126.205 1366.34 Q132.015 1366.34 135.07 1370.95 Q138.149 1375.53 138.149 1384.28 Q138.149 1393.01 135.07 1397.62 Q132.015 1402.2 126.205 1402.2 Q120.394 1402.2 117.316 1397.62 Q114.26 1393.01 114.26 1384.28 Q114.26 1375.53 117.316 1370.95 Q120.394 1366.34 126.205 1366.34 Z" fill="#000000" fill-rule="evenodd" fill-opacity="1" /><path clip-path="url(#clip590)" d="M146.366 1395.65 L151.251 1395.65 L151.251 1401.53 L146.366 1401.53 L146.366 1395.65 Z" fill="#000000" fill-rule="evenodd" fill-opacity="1" /><path clip-path="url(#clip590)" d="M171.436 1370.05 Q167.825 1370.05 165.996 1373.61 Q164.19 1377.15 164.19 1384.28 Q164.19 1391.39 165.996 1394.95 Q167.825 1398.5 171.436 1398.5 Q175.07 1398.5 176.876 1394.95 Q178.704 1391.39 178.704 1384.28 Q178.704 1377.15 176.876 1373.61 Q175.07 1370.05 171.436 1370.05 M171.436 1366.34 Q177.246 1366.34 180.301 1370.95 Q183.38 1375.53 183.38 1384.28 Q183.38 1393.01 180.301 1397.62 Q177.246 1402.2 171.436 1402.2 Q165.626 1402.2 162.547 1397.62 Q159.491 1393.01 159.491 1384.28 Q159.491 1375.53 162.547 1370.95 Q165.626 1366.34 171.436 1366.34 Z" fill="#000000" fill-rule="evenodd" fill-opacity="1" /><path clip-path="url(#clip590)" d="M127.431 1002.71 Q123.82 1002.71 121.992 1006.28 Q120.186 1009.82 120.186 1016.95 Q120.186 1024.06 121.992 1027.62 Q123.82 1031.16 127.431 1031.16 Q131.066 1031.16 132.871 1027.62 Q134.7 1024.06 134.7 1016.95 Q134.7 1009.82 132.871 1006.28 Q131.066 1002.71 127.431 1002.71 M127.431 999.009 Q133.242 999.009 136.297 1003.62 Q139.376 1008.2 139.376 1016.95 Q139.376 1025.68 136.297 1030.28 Q133.242 1034.87 127.431 1034.87 Q121.621 1034.87 118.543 1030.28 Q115.487 1025.68 115.487 1016.95 Q115.487 1008.2 118.543 1003.62 Q121.621 999.009 127.431 999.009 Z" fill="#000000" fill-rule="evenodd" fill-opacity="1" /><path clip-path="url(#clip590)" d="M147.593 1028.31 L152.478 1028.31 L152.478 1034.19 L147.593 1034.19 L147.593 1028.31 Z" fill="#000000" fill-rule="evenodd" fill-opacity="1" /><path clip-path="url(#clip590)" d="M163.473 1030.26 L171.112 1030.26 L171.112 1003.89 L162.802 1005.56 L162.802 1001.3 L171.065 999.634 L175.741 999.634 L175.741 1030.26 L183.38 1030.26 L183.38 1034.19 L163.473 1034.19 L163.473 1030.26 Z" fill="#000000" fill-rule="evenodd" fill-opacity="1" /><path clip-path="url(#clip590)" d="M127.802 635.378 Q124.191 635.378 122.362 638.943 Q120.556 642.485 120.556 649.614 Q120.556 656.721 122.362 660.285 Q124.191 663.827 127.802 663.827 Q131.436 663.827 133.242 660.285 Q135.07 656.721 135.07 649.614 Q135.07 642.485 133.242 638.943 Q131.436 635.378 127.802 635.378 M127.802 631.675 Q133.612 631.675 136.667 636.281 Q139.746 640.864 139.746 649.614 Q139.746 658.341 136.667 662.947 Q133.612 667.531 127.802 667.531 Q121.992 667.531 118.913 662.947 Q115.857 658.341 115.857 649.614 Q115.857 640.864 118.913 636.281 Q121.992 631.675 127.802 631.675 Z" fill="#000000" fill-rule="evenodd" fill-opacity="1" /><path clip-path="url(#clip590)" d="M147.964 660.98 L152.848 660.98 L152.848 666.86 L147.964 666.86 L147.964 660.98 Z" fill="#000000" fill-rule="evenodd" fill-opacity="1" /><path clip-path="url(#clip590)" d="M167.061 662.924 L183.38 662.924 L183.38 666.86 L161.436 666.86 L161.436 662.924 Q164.098 660.17 168.681 655.54 Q173.288 650.887 174.468 649.545 Q176.714 647.022 177.593 645.286 Q178.496 643.526 178.496 641.836 Q178.496 639.082 176.551 637.346 Q174.63 635.61 171.528 635.61 Q169.329 635.61 166.876 636.374 Q164.445 637.137 161.667 638.688 L161.667 633.966 Q164.491 632.832 166.945 632.253 Q169.399 631.675 171.436 631.675 Q176.806 631.675 180.001 634.36 Q183.195 637.045 183.195 641.536 Q183.195 643.665 182.385 645.586 Q181.598 647.485 179.491 650.077 Q178.913 650.748 175.811 653.966 Q172.709 657.16 167.061 662.924 Z" fill="#000000" fill-rule="evenodd" fill-opacity="1" /><path clip-path="url(#clip590)" d="M126.853 268.044 Q123.242 268.044 121.413 271.608 Q119.607 275.15 119.607 282.28 Q119.607 289.386 121.413 292.951 Q123.242 296.493 126.853 296.493 Q130.487 296.493 132.292 292.951 Q134.121 289.386 134.121 282.28 Q134.121 275.15 132.292 271.608 Q130.487 268.044 126.853 268.044 M126.853 264.34 Q132.663 264.34 135.718 268.946 Q138.797 273.53 138.797 282.28 Q138.797 291.006 135.718 295.613 Q132.663 300.196 126.853 300.196 Q121.043 300.196 117.964 295.613 Q114.908 291.006 114.908 282.28 Q114.908 273.53 117.964 268.946 Q121.043 264.34 126.853 264.34 Z" fill="#000000" fill-rule="evenodd" fill-opacity="1" /><path clip-path="url(#clip590)" d="M147.015 293.645 L151.899 293.645 L151.899 299.525 L147.015 299.525 L147.015 293.645 Z" fill="#000000" fill-rule="evenodd" fill-opacity="1" /><path clip-path="url(#clip590)" d="M176.251 280.891 Q179.607 281.608 181.482 283.877 Q183.38 286.145 183.38 289.479 Q183.38 294.594 179.862 297.395 Q176.343 300.196 169.862 300.196 Q167.686 300.196 165.371 299.756 Q163.079 299.34 160.626 298.483 L160.626 293.969 Q162.57 295.104 164.885 295.682 Q167.2 296.261 169.723 296.261 Q174.121 296.261 176.413 294.525 Q178.727 292.789 178.727 289.479 Q178.727 286.423 176.575 284.71 Q174.445 282.974 170.626 282.974 L166.598 282.974 L166.598 279.132 L170.811 279.132 Q174.26 279.132 176.089 277.766 Q177.917 276.377 177.917 273.784 Q177.917 271.122 176.019 269.71 Q174.144 268.275 170.626 268.275 Q168.704 268.275 166.505 268.692 Q164.306 269.108 161.667 269.988 L161.667 265.821 Q164.329 265.081 166.644 264.71 Q168.982 264.34 171.042 264.34 Q176.366 264.34 179.468 266.77 Q182.57 269.178 182.57 273.298 Q182.57 276.169 180.926 278.159 Q179.283 280.127 176.251 280.891 Z" fill="#000000" fill-rule="evenodd" fill-opacity="1" /><path clip-path="url(#clip590)" d="M21.7677 848.522 L58.7206 848.522 L58.7206 840.755 Q58.7206 830.92 54.2646 826.369 Q49.8086 821.786 40.1964 821.786 Q30.6479 821.786 26.2237 826.369 Q21.7677 830.92 21.7677 840.755 L21.7677 848.522 M16.4842 854.951 L16.4842 841.742 Q16.4842 827.928 22.2451 821.467 Q27.9743 815.006 40.1964 815.006 Q52.4822 815.006 58.2432 821.499 Q64.0042 827.992 64.0042 841.742 L64.0042 854.951 L16.4842 854.951 Z" fill="#000000" fill-rule="evenodd" fill-opacity="1" /><path clip-path="url(#clip590)" d="M44.7161 774.52 L47.5806 774.52 L47.5806 801.447 Q53.6281 801.065 56.8109 797.819 Q59.9619 794.54 59.9619 788.716 Q59.9619 785.342 59.1344 782.191 Q58.3069 779.008 56.6518 775.889 L62.1899 775.889 Q63.5267 779.04 64.227 782.35 Q64.9272 785.66 64.9272 789.066 Q64.9272 797.596 59.9619 802.593 Q54.9967 807.558 46.5303 807.558 Q37.7774 807.558 32.6531 802.848 Q27.4968 798.105 27.4968 790.084 Q27.4968 782.891 32.1438 778.722 Q36.7589 774.52 44.7161 774.52 M42.9973 780.377 Q38.1912 780.44 35.3266 783.082 Q32.4621 785.692 32.4621 790.021 Q32.4621 794.922 35.2312 797.882 Q38.0002 800.811 43.0292 801.256 L42.9973 780.377 Z" fill="#000000" fill-rule="evenodd" fill-opacity="1" /><path clip-path="url(#clip590)" d="M42.4881 735.276 L64.0042 735.276 L64.0042 741.132 L42.679 741.132 Q37.6183 741.132 35.1038 743.105 Q32.5894 745.079 32.5894 749.026 Q32.5894 753.768 35.6131 756.505 Q38.6368 759.243 43.8567 759.243 L64.0042 759.243 L64.0042 765.131 L28.3562 765.131 L28.3562 759.243 L33.8944 759.243 Q30.6797 757.142 29.0883 754.309 Q27.4968 751.445 27.4968 747.721 Q27.4968 741.578 31.3163 738.427 Q35.1038 735.276 42.4881 735.276 Z" fill="#000000" fill-rule="evenodd" fill-opacity="1" /><path clip-path="url(#clip590)" d="M29.4065 700.869 L34.9447 700.869 Q33.6716 703.352 33.035 706.025 Q32.3984 708.699 32.3984 711.563 Q32.3984 715.924 33.7352 718.12 Q35.072 720.284 37.7456 720.284 Q39.7826 720.284 40.9603 718.725 Q42.1061 717.165 43.1565 712.455 L43.6021 710.449 Q44.9389 704.211 47.3897 701.601 Q49.8086 698.959 54.1691 698.959 Q59.1344 698.959 62.0308 702.906 Q64.9272 706.821 64.9272 713.696 Q64.9272 716.56 64.3543 719.68 Q63.8132 722.767 62.6992 726.204 L56.6518 726.204 Q58.3387 722.958 59.198 719.807 Q60.0256 716.656 60.0256 713.569 Q60.0256 709.431 58.6251 707.203 Q57.1929 704.975 54.6147 704.975 Q52.2276 704.975 50.9545 706.598 Q49.6813 708.19 48.5037 713.632 L48.0262 715.669 Q46.8804 721.112 44.5251 723.531 Q42.138 725.95 38.0002 725.95 Q32.9713 725.95 30.2341 722.385 Q27.4968 718.82 27.4968 712.264 Q27.4968 709.017 27.9743 706.153 Q28.4517 703.288 29.4065 700.869 Z" fill="#000000" fill-rule="evenodd" fill-opacity="1" /><path clip-path="url(#clip590)" d="M28.3562 689.634 L28.3562 683.777 L64.0042 683.777 L64.0042 689.634 L28.3562 689.634 M14.479 689.634 L14.479 683.777 L21.895 683.777 L21.895 689.634 L14.479 689.634 Z" fill="#000000" fill-rule="evenodd" fill-opacity="1" /><path clip-path="url(#clip590)" d="M18.2347 665.73 L28.3562 665.73 L28.3562 653.667 L32.9077 653.667 L32.9077 665.73 L52.2594 665.73 Q56.6199 665.73 57.8613 664.553 Q59.1026 663.343 59.1026 659.683 L59.1026 653.667 L64.0042 653.667 L64.0042 659.683 Q64.0042 666.462 61.4897 669.04 Q58.9434 671.619 52.2594 671.619 L32.9077 671.619 L32.9077 675.915 L28.3562 675.915 L28.3562 671.619 L18.2347 671.619 L18.2347 665.73 Z" fill="#000000" fill-rule="evenodd" fill-opacity="1" /><path clip-path="url(#clip590)" d="M67.3143 631.133 Q73.68 633.615 75.6216 635.971 Q77.5631 638.326 77.5631 642.273 L77.5631 646.951 L72.6615 646.951 L72.6615 643.514 Q72.6615 641.095 71.5157 639.758 Q70.3699 638.421 66.1048 636.798 L63.4312 635.748 L28.3562 650.166 L28.3562 643.96 L56.238 632.82 L28.3562 621.68 L28.3562 615.473 L67.3143 631.133 Z" fill="#000000" fill-rule="evenodd" fill-opacity="1" /><polyline clip-path="url(#clip592)" style="stroke:#009af9; stroke-linecap:butt; stroke-linejoin:round; stroke-width:20; stroke-opacity:1; fill:none" points="
  -17567.7,1384.24 -17199.4,1384.24 -13794.5,1384.23 -11748.2,1384.22 -10018.2,1384.2 -8138.84,1384.17 -6406.26,1384.1 -4548.75,1383.9 -2396.64,1382.88 -1918.51,1382.18 
  -1440.37,1380.91 -962.239,1378.37 -484.104,1372.5 -274.464,1367.41 -64.8236,1359 39.9966,1352.68 144.817,1344.13 249.637,1332.32 354.457,1315.63 459.277,1291.42 
  564.098,1255.35 616.508,1230.74 668.918,1200.12 721.328,1161.81 773.738,1113.68 826.148,1053.16 878.558,977.29 904.763,932.64 930.968,883.055 957.173,828.289 
  983.378,768.234 1035.79,633 1088.2,482.451 1114.4,405.094 1140.61,329.448 1166.81,258.523 1193.02,195.691 1207.3,166.089 1221.59,140.458 1235.87,119.284 
  1250.16,102.988 1264.45,91.9026 1278.73,86.2619 1293.02,86.1857 1307.3,91.6755 1321.59,102.614 1335.87,118.773 1350.16,139.818 1364.44,165.334 1393.01,227.786 
  1421.58,301.8 1478.72,467.051 1535.87,631.671 1564.44,707.854 1593.01,778.329 1621.58,842.609 1650.15,900.62 1678.72,952.558 1707.29,998.795 1735.86,1039.79 
  1764.43,1076.05 1821.57,1136.32 1878.71,1183.28 1935.85,1219.98 1992.99,1248.82 2050.13,1271.64 2107.28,1289.85 2221.56,1316.36 2335.84,1334.06 2450.12,1346.23 
  2564.4,1354.83 2792.97,1365.66 3021.53,1371.81 3481.38,1377.95 3941.22,1380.64 4401.07,1381.99 4860.91,1382.75 6894.59,1383.86 8829.57,1384.09 10841.5,1384.17 
  12535.1,1384.2 14602.9,1384.22 16546.6,1384.23 19660.6,1384.24 20139.8,1384.24 
  "/>
</svg>
