<?xml version="1.0" encoding="utf-8"?>
<svg xmlns="http://www.w3.org/2000/svg" xmlns:xlink="http://www.w3.org/1999/xlink" width="600" height="400" viewBox="0 0 2400 1600">
<defs>
  <clipPath id="clip980">
    <rect x="0" y="0" width="2400" height="1600"/>
  </clipPath>
</defs>
<path clip-path="url(#clip980)" d="
M0 1600 L2400 1600 L2400 0 L0 0  Z
  " fill="#ffffff" fill-rule="evenodd" fill-opacity="1"/>
<defs>
  <clipPath id="clip981">
    <rect x="480" y="0" width="1681" height="1600"/>
  </clipPath>
</defs>
<path clip-path="url(#clip980)" d="
M210.376 175.389 L2053.48 175.389 L2053.48 47.2441 L210.376 47.2441  Z
  " fill="#ffffff" fill-rule="evenodd" fill-opacity="1"/>
<defs>
  <clipPath id="clip982">
    <rect x="210" y="47" width="1844" height="129"/>
  </clipPath>
</defs>
<polyline clip-path="url(#clip980)" style="stroke:#000000; stroke-linecap:butt; stroke-linejoin:round; stroke-width:4; stroke-opacity:1; fill:none" points="
  210.376,175.389 2053.48,175.389 
  "/>
<polyline clip-path="url(#clip980)" style="stroke:#000000; stroke-linecap:butt; stroke-linejoin:round; stroke-width:4; stroke-opacity:1; fill:none" points="
  210.376,175.389 210.376,47.2441 
  "/>
<polyline clip-path="url(#clip982)" style="stroke:#009af9; stroke-linecap:butt; stroke-linejoin:round; stroke-width:4; stroke-opacity:1; fill:none" points="
  -429.189,175.389 -417.143,175.389 -405.097,175.389 -393.051,175.388 -381.005,175.388 -368.959,175.388 -356.913,175.387 -344.867,175.386 -332.821,175.384 -320.776,175.382 
  -308.73,175.38 -296.684,175.376 -284.638,175.37 -272.592,175.363 -260.546,175.354 -248.5,175.343 -236.454,175.329 -224.408,175.311 -212.362,175.29 -200.317,175.265 
  -188.271,175.237 -176.225,175.204 -164.179,175.168 -152.133,175.128 -140.087,175.085 -128.041,175.039 -115.995,174.989 -103.949,174.937 -91.9035,174.882 -79.8576,174.824 
  -67.8117,174.761 -55.7658,174.692 -43.7199,174.615 -31.674,174.528 -19.6281,174.427 -7.58223,174.308 4.46366,174.169 16.5096,174.004 28.5555,173.811 40.6014,173.586 
  52.6473,173.325 64.6932,173.025 76.739,172.686 88.7849,172.304 100.831,171.879 112.877,171.409 124.923,170.893 136.969,170.329 149.014,169.714 161.06,169.045 
  173.106,168.317 185.152,167.524 197.198,166.659 209.244,165.717 221.29,164.69 233.336,163.572 245.382,162.357 257.428,161.041 269.473,159.62 281.519,158.093 
  293.565,156.459 305.611,154.721 317.657,152.881 329.703,150.943 341.749,148.91 353.795,146.788 365.841,144.583 377.886,142.303 389.932,139.955 401.978,137.551 
  414.024,135.102 426.07,132.626 438.116,130.14 450.162,127.665 462.208,125.226 474.254,122.848 486.3,120.561 498.345,118.393 510.391,116.371 522.437,114.523 
  534.483,112.872 546.529,111.439 558.575,110.239 570.621,109.283 582.667,108.576 594.713,108.119 606.759,107.909 618.804,107.937 630.85,108.194 642.896,108.668 
  654.942,109.345 666.988,110.213 679.034,111.262 691.08,112.479 703.126,113.856 715.172,115.383 727.217,117.052 739.263,118.854 751.309,120.778 763.355,122.81 
  775.401,124.937 787.447,127.14 799.493,129.399 811.539,131.694 823.585,134.001 835.631,136.3 847.676,138.569 859.722,140.789 871.768,142.947 883.814,145.028 
  895.86,147.023 907.906,148.927 919.952,150.733 931.998,152.438 944.044,154.04 956.09,155.533 968.135,156.911 980.181,158.165 992.227,159.284 1004.27,160.251 
  1016.32,161.048 1028.36,161.651 1040.41,162.034 1052.46,162.166 1064.5,162.012 1076.55,161.537 1088.59,160.7 1100.64,159.46 1112.69,157.775 1124.73,155.606 
  1136.78,152.917 1148.82,149.678 1160.87,145.87 1172.92,141.484 1184.96,136.531 1197.01,131.04 1209.05,125.06 1221.1,118.665 1233.15,111.952 1245.19,105.04 
  1257.24,98.0706 1269.28,91.1983 1281.33,84.5906 1293.37,78.4193 1305.42,72.8542 1317.47,68.0553 1329.51,64.1656 1341.56,61.305 1353.6,59.5637 1365.65,58.9985 
  1377.7,59.63 1389.74,61.4416 1401.79,64.3805 1413.83,68.3606 1425.88,73.2663 1437.93,78.9586 1449.97,85.2817 1462.02,92.0694 1474.06,99.153 1486.11,106.368 
  1498.15,113.558 1510.2,120.586 1522.25,127.33 1534.29,133.692 1546.34,139.598 1558.38,144.996 1570.43,149.855 1582.48,154.167 1594.52,157.939 1606.57,161.195 
  1618.61,163.966 1630.66,166.294 1642.71,168.225 1654.75,169.805 1666.8,171.083 1678.84,172.104 1690.89,172.909 1702.94,173.537 1714.98,174.02 1727.03,174.388 
  1739.07,174.665 1751.12,174.871 1763.16,175.022 1775.21,175.132 1787.26,175.211 1799.3,175.267 1811.35,175.306 1823.39,175.334 1835.44,175.352 1847.49,175.365 
  1859.53,175.373 1871.58,175.379 1883.62,175.383 1895.67,175.385 1907.72,175.386 1919.76,175.387 1931.81,175.388 1943.85,175.388 1955.9,175.389 1967.94,175.389 
  
  "/>
<path clip-path="url(#clip980)" d="
M210.376 1423.18 L2053.48 1423.18 L2053.48 269.877 L210.376 269.877  Z
  " fill="#ffffff" fill-rule="evenodd" fill-opacity="1"/>
<defs>
  <clipPath id="clip983">
    <rect x="210" y="269" width="1844" height="1154"/>
  </clipPath>
</defs>
<polyline clip-path="url(#clip983)" style="stroke:#000000; stroke-linecap:butt; stroke-linejoin:round; stroke-width:2; stroke-opacity:0.1; fill:none" points="
  259.613,1423.18 259.613,269.877 
  "/>
<polyline clip-path="url(#clip983)" style="stroke:#000000; stroke-linecap:butt; stroke-linejoin:round; stroke-width:2; stroke-opacity:0.1; fill:none" points="
  628.094,1423.18 628.094,269.877 
  "/>
<polyline clip-path="url(#clip983)" style="stroke:#000000; stroke-linecap:butt; stroke-linejoin:round; stroke-width:2; stroke-opacity:0.1; fill:none" points="
  996.575,1423.18 996.575,269.877 
  "/>
<polyline clip-path="url(#clip983)" style="stroke:#000000; stroke-linecap:butt; stroke-linejoin:round; stroke-width:2; stroke-opacity:0.1; fill:none" points="
  1365.06,1423.18 1365.06,269.877 
  "/>
<polyline clip-path="url(#clip983)" style="stroke:#000000; stroke-linecap:butt; stroke-linejoin:round; stroke-width:2; stroke-opacity:0.1; fill:none" points="
  1733.54,1423.18 1733.54,269.877 
  "/>
<polyline clip-path="url(#clip980)" style="stroke:#000000; stroke-linecap:butt; stroke-linejoin:round; stroke-width:4; stroke-opacity:1; fill:none" points="
  210.376,1423.18 2053.48,1423.18 
  "/>
<polyline clip-path="url(#clip980)" style="stroke:#000000; stroke-linecap:butt; stroke-linejoin:round; stroke-width:4; stroke-opacity:1; fill:none" points="
  259.613,1423.18 259.613,1404.28 
  "/>
<polyline clip-path="url(#clip980)" style="stroke:#000000; stroke-linecap:butt; stroke-linejoin:round; stroke-width:4; stroke-opacity:1; fill:none" points="
  628.094,1423.18 628.094,1404.28 
  "/>
<polyline clip-path="url(#clip980)" style="stroke:#000000; stroke-linecap:butt; stroke-linejoin:round; stroke-width:4; stroke-opacity:1; fill:none" points="
  996.575,1423.18 996.575,1404.28 
  "/>
<polyline clip-path="url(#clip980)" style="stroke:#000000; stroke-linecap:butt; stroke-linejoin:round; stroke-width:4; stroke-opacity:1; fill:none" points="
  1365.06,1423.18 1365.06,1404.28 
  "/>
<polyline clip-path="url(#clip980)" style="stroke:#000000; stroke-linecap:butt; stroke-linejoin:round; stroke-width:4; stroke-opacity:1; fill:none" points="
  1733.54,1423.18 1733.54,1404.28 
  "/>
<path clip-path="url(#clip980)" d="M229.255 1468.75 L258.93 1468.75 L258.93 1472.69 L229.255 1472.69 L229.255 1468.75 Z" fill="#000000" fill-rule="evenodd" fill-opacity="1" /><path clip-path="url(#clip980)" d="M269.069 1451.02 L287.426 1451.02 L287.426 1454.96 L273.352 1454.96 L273.352 1463.43 Q274.37 1463.08 275.389 1462.92 Q276.407 1462.73 277.426 1462.73 Q283.213 1462.73 286.592 1465.9 Q289.972 1469.08 289.972 1474.49 Q289.972 1480.07 286.5 1483.17 Q283.027 1486.25 276.708 1486.25 Q274.532 1486.25 272.264 1485.88 Q270.018 1485.51 267.611 1484.77 L267.611 1480.07 Q269.694 1481.2 271.916 1481.76 Q274.139 1482.32 276.615 1482.32 Q280.62 1482.32 282.958 1480.21 Q285.296 1478.1 285.296 1474.49 Q285.296 1470.88 282.958 1468.77 Q280.62 1466.67 276.615 1466.67 Q274.74 1466.67 272.865 1467.08 Q271.014 1467.5 269.069 1468.38 L269.069 1451.02 Z" fill="#000000" fill-rule="evenodd" fill-opacity="1" /><path clip-path="url(#clip980)" d="M628.094 1454.1 Q624.483 1454.1 622.655 1457.66 Q620.849 1461.2 620.849 1468.33 Q620.849 1475.44 622.655 1479.01 Q624.483 1482.55 628.094 1482.55 Q631.729 1482.55 633.534 1479.01 Q635.363 1475.44 635.363 1468.33 Q635.363 1461.2 633.534 1457.66 Q631.729 1454.1 628.094 1454.1 M628.094 1450.39 Q633.905 1450.39 636.96 1455 Q640.039 1459.58 640.039 1468.33 Q640.039 1477.06 636.96 1481.67 Q633.905 1486.25 628.094 1486.25 Q622.284 1486.25 619.206 1481.67 Q616.15 1477.06 616.15 1468.33 Q616.15 1459.58 619.206 1455 Q622.284 1450.39 628.094 1450.39 Z" fill="#000000" fill-rule="evenodd" fill-opacity="1" /><path clip-path="url(#clip980)" d="M986.853 1451.02 L1005.21 1451.02 L1005.21 1454.96 L991.136 1454.96 L991.136 1463.43 Q992.154 1463.08 993.173 1462.92 Q994.191 1462.73 995.21 1462.73 Q1001 1462.73 1004.38 1465.9 Q1007.76 1469.08 1007.76 1474.49 Q1007.76 1480.07 1004.28 1483.17 Q1000.81 1486.25 994.492 1486.25 Q992.316 1486.25 990.048 1485.88 Q987.802 1485.51 985.395 1484.77 L985.395 1480.07 Q987.478 1481.2 989.701 1481.76 Q991.923 1482.32 994.4 1482.32 Q998.404 1482.32 1000.74 1480.21 Q1003.08 1478.1 1003.08 1474.49 Q1003.08 1470.88 1000.74 1468.77 Q998.404 1466.67 994.4 1466.67 Q992.525 1466.67 990.65 1467.08 Q988.798 1467.5 986.853 1468.38 L986.853 1451.02 Z" fill="#000000" fill-rule="evenodd" fill-opacity="1" /><path clip-path="url(#clip980)" d="M1339.74 1481.64 L1347.38 1481.64 L1347.38 1455.28 L1339.07 1456.95 L1339.07 1452.69 L1347.34 1451.02 L1352.01 1451.02 L1352.01 1481.64 L1359.65 1481.64 L1359.65 1485.58 L1339.74 1485.58 L1339.74 1481.64 Z" fill="#000000" fill-rule="evenodd" fill-opacity="1" /><path clip-path="url(#clip980)" d="M1379.1 1454.1 Q1375.48 1454.1 1373.66 1457.66 Q1371.85 1461.2 1371.85 1468.33 Q1371.85 1475.44 1373.66 1479.01 Q1375.48 1482.55 1379.1 1482.55 Q1382.73 1482.55 1384.54 1479.01 Q1386.36 1475.44 1386.36 1468.33 Q1386.36 1461.2 1384.54 1457.66 Q1382.73 1454.1 1379.1 1454.1 M1379.1 1450.39 Q1384.91 1450.39 1387.96 1455 Q1391.04 1459.58 1391.04 1468.33 Q1391.04 1477.06 1387.96 1481.67 Q1384.91 1486.25 1379.1 1486.25 Q1373.29 1486.25 1370.21 1481.67 Q1367.15 1477.06 1367.15 1468.33 Q1367.15 1459.58 1370.21 1455 Q1373.29 1450.39 1379.1 1450.39 Z" fill="#000000" fill-rule="evenodd" fill-opacity="1" /><path clip-path="url(#clip980)" d="M1708.72 1481.64 L1716.36 1481.64 L1716.36 1455.28 L1708.05 1456.95 L1708.05 1452.69 L1716.32 1451.02 L1720.99 1451.02 L1720.99 1481.64 L1728.63 1481.64 L1728.63 1485.58 L1708.72 1485.58 L1708.72 1481.64 Z" fill="#000000" fill-rule="evenodd" fill-opacity="1" /><path clip-path="url(#clip980)" d="M1738.12 1451.02 L1756.48 1451.02 L1756.48 1454.96 L1742.4 1454.96 L1742.4 1463.43 Q1743.42 1463.08 1744.44 1462.92 Q1745.46 1462.73 1746.48 1462.73 Q1752.26 1462.73 1755.64 1465.9 Q1759.02 1469.08 1759.02 1474.49 Q1759.02 1480.07 1755.55 1483.17 Q1752.08 1486.25 1745.76 1486.25 Q1743.58 1486.25 1741.32 1485.88 Q1739.07 1485.51 1736.66 1484.77 L1736.66 1480.07 Q1738.75 1481.2 1740.97 1481.76 Q1743.19 1482.32 1745.67 1482.32 Q1749.67 1482.32 1752.01 1480.21 Q1754.35 1478.1 1754.35 1474.49 Q1754.35 1470.88 1752.01 1468.77 Q1749.67 1466.67 1745.67 1466.67 Q1743.79 1466.67 1741.92 1467.08 Q1740.07 1467.5 1738.12 1468.38 L1738.12 1451.02 Z" fill="#000000" fill-rule="evenodd" fill-opacity="1" /><path clip-path="url(#clip980)" d="M1159.26 1534.16 Q1159.26 1534.74 1159.03 1535.06 Q1158.84 1535.35 1158.61 1535.42 Q1158.39 1535.45 1157.81 1535.48 Q1153.2 1535.71 1149.43 1538.83 Q1148.5 1539.64 1146.15 1542.15 Q1143.83 1544.66 1140.74 1548.01 Q1137.68 1551.36 1135.91 1553.16 L1144.41 1573.52 Q1144.76 1574.32 1144.89 1574.68 Q1145.05 1575 1145.38 1575.42 Q1145.73 1575.84 1145.99 1575.96 Q1146.28 1576.09 1146.89 1576.25 Q1147.53 1576.38 1148.18 1576.42 Q1148.85 1576.42 1150.08 1576.45 Q1150.46 1576.45 1150.63 1576.48 Q1150.82 1576.48 1151.04 1576.67 Q1151.27 1576.83 1151.27 1577.22 Q1151.27 1577.8 1151.01 1578.12 Q1150.79 1578.41 1150.56 1578.44 Q1150.37 1578.48 1150.01 1578.48 Q1149.18 1578.48 1146.34 1578.38 Q1143.51 1578.28 1142.7 1578.28 L1134.39 1578.48 Q1133.4 1578.48 1133.4 1577.67 Q1133.4 1577.25 1133.46 1577.03 Q1133.56 1576.77 1133.78 1576.67 Q1134.01 1576.54 1134.17 1576.51 Q1134.33 1576.48 1134.72 1576.45 Q1135.91 1576.32 1136.81 1575.96 Q1137.74 1575.58 1138.13 1575.19 Q1138.55 1574.8 1138.55 1574.52 L1138.23 1573.58 L1131.56 1557.83 L1125.6 1564.31 L1118.87 1571.42 Q1117.1 1573.32 1117.1 1574.39 Q1117.1 1576.16 1119.74 1576.45 Q1120.55 1576.51 1120.55 1577.16 Q1120.55 1577.77 1120.29 1578.09 Q1120.06 1578.38 1119.84 1578.44 Q1119.64 1578.48 1119.35 1578.48 Q1118.16 1578.48 1115.65 1578.38 Q1113.17 1578.28 1111.95 1578.28 Q1110.92 1578.28 1108.82 1578.38 Q1106.73 1578.48 1105.76 1578.48 Q1105.38 1578.48 1105.15 1578.28 Q1104.93 1578.09 1104.93 1577.9 L1104.89 1577.74 Q1104.89 1577.28 1104.96 1577.03 Q1105.05 1576.77 1105.31 1576.64 Q1105.6 1576.51 1105.73 1576.51 Q1105.86 1576.48 1106.34 1576.45 Q1109.08 1576.29 1111.4 1575.22 Q1113.75 1574.16 1116.04 1571.68 Q1116.23 1571.52 1116.45 1571.33 Q1116.71 1571.13 1116.91 1570.97 L1130.82 1556 L1123.02 1537.57 Q1122.67 1536.74 1122.35 1536.38 Q1122.03 1536 1121.03 1535.74 Q1120.03 1535.48 1118.1 1535.48 Q1117.55 1535.48 1117.29 1535.45 Q1117.03 1535.42 1116.81 1535.26 Q1116.58 1535.1 1116.58 1534.74 Q1116.58 1534.13 1116.81 1533.84 Q1117.07 1533.52 1117.26 1533.48 Q1117.49 1533.42 1117.78 1533.42 Q1118.58 1533.42 1121.45 1533.52 Q1124.31 1533.61 1125.15 1533.61 Q1126.54 1533.61 1129.31 1533.52 Q1132.11 1533.42 1133.46 1533.42 Q1134.46 1533.42 1134.46 1534.23 Q1134.46 1534.74 1134.23 1535.03 Q1134.01 1535.32 1133.78 1535.38 Q1133.56 1535.45 1133.14 1535.48 Q1131.88 1535.61 1130.92 1536.03 Q1129.98 1536.42 1129.59 1536.8 Q1129.24 1537.16 1129.24 1537.38 L1129.56 1538.25 L1135.1 1551.36 L1145.79 1539.89 Q1147.05 1538.48 1147.05 1537.51 Q1147.05 1535.77 1144.41 1535.48 Q1143.6 1535.35 1143.6 1534.74 Q1143.6 1534.13 1143.86 1533.84 Q1144.12 1533.52 1144.31 1533.48 Q1144.54 1533.42 1144.86 1533.42 Q1146.05 1533.42 1148.5 1533.52 Q1150.98 1533.61 1152.2 1533.61 Q1153.23 1533.61 1155.33 1533.52 Q1157.42 1533.42 1158.39 1533.42 Q1158.77 1533.42 1159 1533.61 Q1159.22 1533.77 1159.22 1533.97 L1159.26 1534.16 Z" fill="#000000" fill-rule="evenodd" fill-opacity="1" /><polyline clip-path="url(#clip983)" style="stroke:#000000; stroke-linecap:butt; stroke-linejoin:round; stroke-width:2; stroke-opacity:0.1; fill:none" points="
  210.376,1177.2 2053.48,1177.2 
  "/>
<polyline clip-path="url(#clip983)" style="stroke:#000000; stroke-linecap:butt; stroke-linejoin:round; stroke-width:2; stroke-opacity:0.1; fill:none" points="
  210.376,919.357 2053.48,919.357 
  "/>
<polyline clip-path="url(#clip983)" style="stroke:#000000; stroke-linecap:butt; stroke-linejoin:round; stroke-width:2; stroke-opacity:0.1; fill:none" points="
  210.376,661.518 2053.48,661.518 
  "/>
<polyline clip-path="url(#clip983)" style="stroke:#000000; stroke-linecap:butt; stroke-linejoin:round; stroke-width:2; stroke-opacity:0.1; fill:none" points="
  210.376,403.68 2053.48,403.68 
  "/>
<polyline clip-path="url(#clip980)" style="stroke:#000000; stroke-linecap:butt; stroke-linejoin:round; stroke-width:4; stroke-opacity:1; fill:none" points="
  210.376,1423.18 210.376,269.877 
  "/>
<polyline clip-path="url(#clip980)" style="stroke:#000000; stroke-linecap:butt; stroke-linejoin:round; stroke-width:4; stroke-opacity:1; fill:none" points="
  210.376,1177.2 229.273,1177.2 
  "/>
<polyline clip-path="url(#clip980)" style="stroke:#000000; stroke-linecap:butt; stroke-linejoin:round; stroke-width:4; stroke-opacity:1; fill:none" points="
  210.376,919.357 229.273,919.357 
  "/>
<polyline clip-path="url(#clip980)" style="stroke:#000000; stroke-linecap:butt; stroke-linejoin:round; stroke-width:4; stroke-opacity:1; fill:none" points="
  210.376,661.518 229.273,661.518 
  "/>
<polyline clip-path="url(#clip980)" style="stroke:#000000; stroke-linecap:butt; stroke-linejoin:round; stroke-width:4; stroke-opacity:1; fill:none" points="
  210.376,403.68 229.273,403.68 
  "/>
<path clip-path="url(#clip980)" d="M114.26 1177.65 L143.936 1177.65 L143.936 1181.58 L114.26 1181.58 L114.26 1177.65 Z" fill="#000000" fill-rule="evenodd" fill-opacity="1" /><path clip-path="url(#clip980)" d="M158.056 1190.54 L174.376 1190.54 L174.376 1194.48 L152.431 1194.48 L152.431 1190.54 Q155.093 1187.79 159.677 1183.16 Q164.283 1178.5 165.464 1177.16 Q167.709 1174.64 168.589 1172.9 Q169.491 1171.14 169.491 1169.45 Q169.491 1166.7 167.547 1164.96 Q165.626 1163.23 162.524 1163.23 Q160.325 1163.23 157.871 1163.99 Q155.44 1164.75 152.663 1166.3 L152.663 1161.58 Q155.487 1160.45 157.94 1159.87 Q160.394 1159.29 162.431 1159.29 Q167.802 1159.29 170.996 1161.98 Q174.19 1164.66 174.19 1169.15 Q174.19 1171.28 173.38 1173.2 Q172.593 1175.1 170.487 1177.69 Q169.908 1178.36 166.806 1181.58 Q163.704 1184.78 158.056 1190.54 Z" fill="#000000" fill-rule="evenodd" fill-opacity="1" /><path clip-path="url(#clip980)" d="M162.431 905.155 Q158.82 905.155 156.991 908.72 Q155.186 912.262 155.186 919.391 Q155.186 926.498 156.991 930.063 Q158.82 933.604 162.431 933.604 Q166.065 933.604 167.871 930.063 Q169.7 926.498 169.7 919.391 Q169.7 912.262 167.871 908.72 Q166.065 905.155 162.431 905.155 M162.431 901.452 Q168.241 901.452 171.297 906.058 Q174.376 910.641 174.376 919.391 Q174.376 928.118 171.297 932.725 Q168.241 937.308 162.431 937.308 Q156.621 937.308 153.542 932.725 Q150.487 928.118 150.487 919.391 Q150.487 910.641 153.542 906.058 Q156.621 901.452 162.431 901.452 Z" fill="#000000" fill-rule="evenodd" fill-opacity="1" /><path clip-path="url(#clip980)" d="M158.056 674.863 L174.376 674.863 L174.376 678.798 L152.431 678.798 L152.431 674.863 Q155.093 672.108 159.677 667.479 Q164.283 662.826 165.464 661.484 Q167.709 658.96 168.589 657.224 Q169.491 655.465 169.491 653.775 Q169.491 651.021 167.547 649.285 Q165.626 647.548 162.524 647.548 Q160.325 647.548 157.871 648.312 Q155.44 649.076 152.663 650.627 L152.663 645.905 Q155.487 644.771 157.94 644.192 Q160.394 643.613 162.431 643.613 Q167.802 643.613 170.996 646.298 Q174.19 648.984 174.19 653.474 Q174.19 655.604 173.38 657.525 Q172.593 659.423 170.487 662.016 Q169.908 662.687 166.806 665.905 Q163.704 669.099 158.056 674.863 Z" fill="#000000" fill-rule="evenodd" fill-opacity="1" /><path clip-path="url(#clip980)" d="M164.792 390.474 L152.987 408.923 L164.792 408.923 L164.792 390.474 M163.565 386.4 L169.445 386.4 L169.445 408.923 L174.376 408.923 L174.376 412.812 L169.445 412.812 L169.445 420.96 L164.792 420.96 L164.792 412.812 L149.191 412.812 L149.191 408.298 L163.565 386.4 Z" fill="#000000" fill-rule="evenodd" fill-opacity="1" /><path clip-path="url(#clip980)" d="M30.1858 817.538 Q30.6045 817.538 30.8621 817.634 Q31.1198 817.699 31.2486 817.956 Q31.3452 818.182 31.3774 818.343 Q31.4096 818.472 31.4418 818.858 Q31.5707 820.436 31.9893 821.757 Q32.3758 823.077 33.1487 824.204 Q33.9217 825.299 34.437 825.911 Q34.9523 826.491 35.9829 827.521 L36.9168 828.423 L55.6928 844.784 Q56.337 845.363 57.754 845.718 L67.0615 848.037 Q70.9262 848.938 71.2161 848.938 Q71.7958 848.938 71.989 848.616 Q72.15 848.262 72.2467 847.167 L72.4077 844.655 Q72.4077 843.173 72.6653 842.948 Q72.8264 842.819 73.1162 842.819 Q73.7281 842.819 74.0502 843.077 Q74.34 843.302 74.4045 843.528 Q74.4367 843.721 74.4367 844.075 L74.2434 852.513 L74.4367 860.822 Q74.4367 861.756 73.6959 861.756 Q73.2128 861.756 72.9552 861.692 Q72.6653 861.595 72.5687 861.305 Q72.4399 861.015 72.4399 860.79 Q72.4077 860.565 72.4077 859.953 Q72.3755 858.471 72.3755 857.73 Q72.3433 856.958 72.15 856.217 Q71.9568 855.476 71.828 855.218 Q71.667 854.929 71.1195 854.607 Q70.5397 854.252 70.0889 854.156 Q69.638 854.027 68.5108 853.769 Q67.5124 853.512 62.0696 852.159 Q56.6268 850.806 56.498 850.806 Q56.1437 850.806 55.3708 851.064 L33.664 859.18 Q32.6979 859.534 32.3114 859.824 Q31.9249 860.114 31.6995 861.08 Q31.4418 862.046 31.4418 863.978 Q31.4418 864.526 31.4096 864.784 Q31.3774 865.041 31.2164 865.267 Q31.0554 865.492 30.7011 865.492 Q30.0892 865.492 29.7993 865.234 Q29.4773 864.977 29.4451 864.784 Q29.3807 864.558 29.3807 864.236 Q29.3807 863.431 29.4773 860.565 Q29.5739 857.698 29.5739 856.861 L29.3807 848.552 Q29.3807 847.553 30.1214 847.553 Q31.0232 847.553 31.2486 847.908 Q31.4418 848.262 31.4418 849.132 Q31.4418 853.028 33.0199 853.028 Q33.2132 853.028 34.1471 852.642 L53.7283 845.396 L36.1117 830.098 L35.854 829.872 Q35.5964 829.679 35.4032 829.518 Q35.2099 829.357 34.8557 829.099 Q34.5014 828.842 34.2115 828.713 Q33.9217 828.552 33.5674 828.423 Q33.2132 828.294 32.9555 828.294 Q32.4724 828.294 32.1504 828.584 Q31.7961 828.874 31.6673 829.325 Q31.5385 829.776 31.5062 830.098 Q31.4418 830.42 31.4418 830.678 Q31.4418 831.676 30.6367 831.676 Q30.057 831.676 29.7671 831.418 Q29.4451 831.161 29.4129 830.967 Q29.3807 830.742 29.3807 830.42 Q29.3807 829.357 29.4773 827.135 Q29.5739 824.913 29.5739 823.818 Q29.5739 822.916 29.4773 821.08 Q29.3807 819.244 29.3807 818.407 Q29.3807 817.538 30.1858 817.538 Z" fill="#000000" fill-rule="evenodd" fill-opacity="1" /><polyline clip-path="url(#clip983)" style="stroke:#1c0c43; stroke-linecap:butt; stroke-linejoin:round; stroke-width:4; stroke-opacity:1; fill:none" points="
  301.574,1073.22 304.052,1075.9 307.011,1079.13 312.728,1085.03 313.453,1085.77 318.419,1090.94 322.853,1095.63 323.985,1096.85 329.134,1102.76 332.254,1106.65 
  333.82,1108.66 337.905,1114.57 341.477,1120.48 341.654,1120.82 344.458,1126.38 347.032,1132.29 349.304,1138.2 351.055,1143.16 351.389,1144.11 353.402,1150.01 
  355.546,1155.92 357.995,1161.83 360.455,1166.8 360.948,1167.74 364.658,1173.64 369.471,1179.55 369.856,1179.95 375.984,1185.46 379.256,1187.82 385.156,1191.37 
  388.657,1193.13 398.057,1196.89 399.265,1197.27 407.458,1199.6 416.858,1201.59 426.259,1203.02 427.675,1203.18 435.66,1204.04 445.06,1204.71 454.461,1205.11 
  463.861,1205.27 473.262,1205.23 482.662,1205 492.063,1204.61 501.463,1204.05 510.864,1203.34 512.497,1203.18 520.264,1202.48 529.665,1201.47 539.065,1200.27 
  548.466,1198.87 557.716,1197.27 557.866,1197.25 567.267,1195.45 576.667,1193.38 584.707,1191.37 586.068,1191.03 595.468,1188.42 604.869,1185.46 604.886,1185.46 
  614.269,1182.21 621.195,1179.55 623.67,1178.57 633.071,1174.57 635.103,1173.64 642.471,1170.16 647.289,1167.74 651.872,1165.32 658.197,1161.83 661.272,1160.03 
  668.124,1155.92 670.673,1154.29 677.29,1150.01 680.073,1148.1 685.868,1144.11 689.474,1141.47 693.995,1138.2 698.874,1134.47 701.789,1132.29 708.275,1127.21 
  709.355,1126.38 716.843,1120.48 717.675,1119.81 724.361,1114.57 727.076,1112.41 731.928,1108.66 736.476,1105.14 739.616,1102.76 745.877,1098.04 747.488,1096.85 
  755.277,1091.17 755.593,1090.94 763.992,1085.03 764.678,1084.56 772.674,1079.13 774.078,1078.2 781.638,1073.22 783.479,1072.05 790.874,1067.31 792.879,1066.07 
  800.35,1061.4 802.28,1060.24 810.008,1055.5 811.68,1054.5 819.759,1049.59 821.081,1048.8 829.49,1043.68 830.482,1043.08 839.067,1037.77 839.882,1037.27 
  848.353,1031.87 849.283,1031.26 857.221,1025.96 858.683,1024.95 865.566,1020.05 868.084,1018.17 873.316,1014.14 877.484,1010.73 880.436,1008.24 886.885,1002.36 
  886.917,1002.33 892.877,996.423 896.285,992.723 898.284,990.516 903.262,984.608 905.686,981.512 907.877,978.701 912.225,972.794 915.086,968.688 916.356,966.886 
  920.421,960.979 924.351,955.071 924.487,954.868 928.412,949.164 932.435,943.257 933.887,941.133 936.596,937.349 940.826,931.442 943.288,927.985 945.133,925.535 
  949.522,919.627 952.688,915.233 953.848,913.72 958.165,907.813 962.089,902.049 962.193,901.905 966.074,895.998 969.486,890.091 971.489,885.992 972.432,884.183 
  974.908,878.276 976.787,872.369 978.087,866.461 978.849,860.554 979.141,854.647 979.061,848.739 978.729,842.832 978.293,836.925 977.911,831.017 977.74,825.11 
  977.922,819.203 978.561,813.295 979.715,807.388 980.89,803.229 981.42,801.481 983.697,795.573 986.353,789.666 989.246,783.759 990.29,781.686 992.35,777.851 
  995.417,771.944 998.211,766.037 999.691,762.35 1000.66,760.129 1002.62,754.222 1003.86,748.315 1004.25,742.407 1003.65,736.5 1001.87,730.593 999.691,726.479 
  998.761,724.685 994.288,718.778 990.29,714.93 988.136,712.87 980.89,707.378 980.328,706.963 971.489,701.413 970.899,701.056 962.089,696.283 959.899,695.148 
  952.688,691.662 947.434,689.241 943.288,687.398 933.887,683.426 933.661,683.334 924.487,679.616 918.762,677.426 915.086,676.011 905.686,672.572 902.658,671.519 
  896.285,669.272 886.885,666.19 885.023,665.612 877.484,663.236 868.084,660.533 864.982,659.704 858.683,657.998 849.283,655.695 840.533,653.797 839.882,653.653 
  830.482,651.751 821.081,650.109 811.68,648.712 805.14,647.89 802.28,647.516 792.879,646.483 783.479,645.667 774.078,645.054 764.678,644.631 755.277,644.388 
  745.877,644.313 736.476,644.398 727.076,644.638 717.675,645.029 708.275,645.571 698.874,646.269 689.474,647.131 682.59,647.89 680.073,648.144 670.673,649.269 
  661.272,650.595 651.872,652.15 643.318,653.797 642.471,653.951 633.071,655.898 623.67,658.163 618.06,659.704 614.269,660.712 604.869,663.535 598.774,665.612 
  595.468,666.717 586.068,670.222 582.916,671.519 576.667,674.075 569.259,677.426 567.267,678.33 557.866,682.949 557.131,683.334 548.466,687.918 546.114,689.241 
  539.065,693.267 535.925,695.148 529.665,698.969 526.363,701.056 520.264,704.986 517.268,706.963 510.864,711.266 508.506,712.87 501.463,717.737 499.96,718.778 
  492.063,724.313 491.528,724.685 483.092,730.593 482.662,730.895 474.565,736.5 473.262,737.405 465.904,742.407 463.861,743.798 457.064,748.315 454.461,750.046 
  448.023,754.222 445.06,756.148 438.791,760.129 435.66,762.13 429.415,766.037 426.259,768.034 419.978,771.944 416.858,773.922 410.589,777.851 407.458,779.866 
  401.368,783.759 398.057,785.951 392.433,789.666 388.657,792.273 383.883,795.573 379.256,798.945 375.788,801.481 369.856,806.09 368.193,807.388 361.1,813.295 
  360.455,813.868 354.471,819.203 351.055,822.497 348.349,825.11 342.695,831.017 341.654,832.188 337.434,836.925 332.631,842.832 332.254,843.332 328.142,848.739 
  324.06,854.647 322.853,856.539 320.266,860.554 316.782,866.461 313.615,872.369 313.453,872.695 310.615,878.276 307.863,884.183 305.334,890.091 304.052,893.306 
  302.947,895.998 300.668,901.905 298.541,907.813 296.548,913.72 294.678,919.627 294.652,919.714 292.818,925.535 291.073,931.442 289.444,937.349 287.934,943.257 
  286.542,949.164 285.268,955.071 285.251,955.157 284.033,960.979 282.917,966.886 281.917,972.794 281.029,978.701 280.25,984.608 279.581,990.516 279.028,996.423 
  278.607,1002.33 278.34,1008.24 278.262,1014.14 278.421,1020.05 278.878,1025.96 279.709,1031.87 280.999,1037.77 282.839,1043.68 285.251,1049.43 285.316,1049.59 
  288.36,1055.5 292.14,1061.4 294.652,1064.75 296.576,1067.31 301.574,1073.22 
  "/>
<polyline clip-path="url(#clip983)" style="stroke:#370961; stroke-linecap:butt; stroke-linejoin:round; stroke-width:4; stroke-opacity:1; fill:none" points="
  349.264,1049.59 351.055,1051.7 354.346,1055.5 359.995,1061.4 360.455,1061.86 366.01,1067.31 369.856,1070.95 372.282,1073.22 378.586,1079.13 379.256,1079.77 
  384.687,1085.03 388.657,1089.08 390.478,1090.94 395.812,1096.85 398.057,1099.58 400.668,1102.76 405.066,1108.66 407.458,1112.19 409.094,1114.57 412.877,1120.48 
  416.582,1126.38 416.858,1126.82 420.472,1132.29 424.77,1138.2 426.259,1140.02 429.92,1144.11 435.66,1149.43 436.371,1150.01 445.06,1155.89 445.121,1155.92 
  454.461,1160.37 458.316,1161.83 463.861,1163.63 473.262,1165.96 482.662,1167.63 483.537,1167.74 492.063,1168.67 501.463,1169.25 510.864,1169.39 520.264,1169.15 
  529.665,1168.53 537.263,1167.74 539.065,1167.54 548.466,1166.14 557.866,1164.36 567.267,1162.19 568.583,1161.83 576.667,1159.51 586.068,1156.39 587.319,1155.92 
  595.468,1152.68 601.446,1150.01 604.869,1148.38 613.07,1144.11 614.269,1143.44 622.976,1138.2 623.67,1137.75 631.704,1132.29 633.071,1131.31 639.631,1126.38 
  642.471,1124.15 647.023,1120.48 651.872,1116.43 654.077,1114.57 660.951,1108.66 661.272,1108.39 667.814,1102.76 670.673,1100.31 674.763,1096.85 680.073,1092.43 
  681.882,1090.94 689.257,1085.03 689.474,1084.86 697.007,1079.13 698.874,1077.75 705.144,1073.22 708.275,1071.03 713.722,1067.31 717.675,1064.7 722.782,1061.4 
  727.076,1058.73 732.343,1055.5 736.476,1053.05 742.391,1049.59 745.877,1047.61 752.861,1043.68 755.277,1042.36 763.635,1037.77 764.678,1037.21 774.078,1032.13 
  774.552,1031.87 783.479,1027.03 785.415,1025.96 792.879,1021.83 796.012,1020.05 802.28,1016.46 806.171,1014.14 811.68,1010.81 815.766,1008.24 821.081,1004.79 
  824.717,1002.33 830.482,998.268 832.989,996.423 839.882,991.084 840.585,990.516 847.55,984.608 849.283,983.049 853.936,978.701 858.683,973.934 859.785,972.794 
  865.199,966.886 868.084,963.512 870.213,960.979 874.901,955.071 877.484,951.606 879.304,949.164 883.483,943.257 886.885,938.126 887.409,937.349 891.21,931.442 
  894.762,925.535 896.285,922.81 898.143,919.627 901.314,913.72 904.182,907.813 905.686,904.281 906.759,901.905 909.003,895.998 910.798,890.091 912.103,884.183 
  912.886,878.276 913.133,872.369 912.858,866.461 912.108,860.554 910.969,854.647 909.563,848.739 908.039,842.832 906.556,836.925 905.686,832.914 905.279,831.017 
  904.338,825.11 903.802,819.203 903.712,813.295 904.069,807.388 904.83,801.481 905.686,796.832 905.926,795.573 907.275,789.666 908.725,783.759 910.127,777.851 
  911.315,771.944 912.103,766.037 912.293,760.129 911.672,754.222 910.016,748.315 907.098,742.407 905.686,740.446 902.742,736.5 896.743,730.593 896.285,730.229 
  889.058,724.685 886.885,723.29 879.647,718.778 877.484,717.598 868.59,712.87 868.084,712.628 858.683,708.181 856.04,706.963 849.283,704.085 841.883,701.056 
  839.882,700.287 830.482,696.797 825.773,695.148 821.081,693.589 811.68,690.681 806.593,689.241 802.28,688.068 792.879,685.755 783.479,683.755 781.222,683.334 
  774.078,682.029 764.678,680.592 755.277,679.443 745.877,678.569 736.476,677.957 727.076,677.598 717.675,677.485 708.275,677.613 698.874,677.982 689.474,678.597 
  680.073,679.467 670.673,680.606 661.272,682.034 654.209,683.334 651.872,683.756 642.471,685.749 633.071,688.099 629.073,689.241 623.67,690.788 614.269,693.851 
  610.706,695.148 604.869,697.309 595.812,701.056 595.468,701.202 586.068,705.516 583.156,706.963 576.667,710.3 571.978,712.87 567.267,715.556 561.875,718.778 
  557.866,721.274 552.56,724.685 548.466,727.426 543.821,730.593 539.065,733.956 535.49,736.5 529.665,740.777 527.435,742.407 520.264,747.783 519.546,748.315 
  511.701,754.222 510.864,754.862 503.823,760.129 501.463,761.916 495.88,766.037 492.063,768.881 487.841,771.944 482.662,775.736 479.699,777.851 473.262,782.5 
  471.479,783.759 463.861,789.224 463.232,789.666 455.02,795.573 454.461,795.986 446.928,801.481 445.06,802.891 439.062,807.388 435.66,810.049 431.497,813.295 
  426.259,817.589 424.29,819.203 417.468,825.11 416.858,825.666 411.008,831.017 407.458,834.48 404.961,836.925 399.295,842.832 398.057,844.2 393.964,848.739 
  389.01,854.647 388.657,855.09 384.327,860.554 379.991,866.461 379.256,867.52 375.9,872.369 372.103,878.276 369.856,882.023 368.56,884.183 365.22,890.091 
  362.122,895.998 360.455,899.372 359.196,901.905 356.403,907.813 353.768,913.72 351.268,919.627 351.055,920.143 348.798,925.535 346.427,931.442 344.159,937.349 
  341.998,943.257 341.654,944.233 339.885,949.164 337.903,955.071 336.092,960.979 334.477,966.886 333.083,972.794 332.254,977.061 331.925,978.701 331.019,984.608 
  330.427,990.516 330.178,996.423 330.302,1002.33 330.834,1008.24 331.816,1014.14 332.254,1015.93 333.261,1020.05 335.226,1025.96 337.782,1031.87 340.983,1037.77 
  341.654,1038.83 344.785,1043.68 349.264,1049.59 
  "/>
<polyline clip-path="url(#clip983)" style="stroke:#570f6d; stroke-linecap:butt; stroke-linejoin:round; stroke-width:4; stroke-opacity:1; fill:none" points="
  395.133,1031.87 398.057,1035.19 400.43,1037.77 406.495,1043.68 407.458,1044.55 413.275,1049.59 416.858,1052.53 420.633,1055.5 426.259,1059.82 428.412,1061.4 
  435.66,1066.77 436.432,1067.31 444.547,1073.22 445.06,1073.61 452.662,1079.13 454.461,1080.52 460.709,1085.03 463.861,1087.48 468.731,1090.94 473.262,1094.39 
  476.905,1096.85 482.662,1100.95 485.646,1102.76 492.063,1106.74 495.917,1108.66 501.463,1111.4 510.324,1114.57 510.864,1114.75 520.264,1116.83 529.665,1117.74 
  539.065,1117.57 548.466,1116.41 556.748,1114.57 557.866,1114.32 567.267,1111.31 573.74,1108.66 576.667,1107.48 586.068,1102.86 586.248,1102.76 595.468,1097.6 
  596.654,1096.85 604.869,1091.82 606.17,1090.94 614.269,1085.67 615.174,1085.03 623.67,1079.29 623.897,1079.13 632.465,1073.22 633.071,1072.82 641.019,1067.31 
  642.471,1066.34 649.66,1061.4 651.872,1059.94 658.47,1055.5 661.272,1053.68 667.533,1049.59 670.673,1047.61 676.934,1043.68 680.073,1041.78 686.754,1037.77 
  689.474,1036.2 697.05,1031.87 698.874,1030.86 707.842,1025.96 708.275,1025.73 717.675,1020.8 719.113,1020.05 727.076,1016 730.719,1014.14 736.476,1011.26 
  742.45,1008.24 745.877,1006.52 754.066,1002.33 755.277,1001.71 764.678,996.773 765.323,996.423 774.078,991.624 776.014,990.516 783.479,986.158 786.005,984.608 
  792.879,980.266 795.231,978.701 802.28,973.813 803.676,972.794 811.355,966.886 811.68,966.622 818.306,960.979 821.081,958.424 824.582,955.071 830.22,949.164 
  830.482,948.865 835.277,943.257 839.76,937.349 839.882,937.169 843.734,931.442 847.17,925.535 849.283,921.239 850.088,919.627 852.499,913.72 854.355,907.813 
  855.638,901.905 856.325,895.998 856.395,890.091 855.834,884.183 854.644,878.276 852.858,872.369 850.548,866.461 849.283,863.654 847.843,860.554 844.9,854.647 
  841.895,848.739 839.882,844.56 839.03,842.832 836.486,836.925 834.396,831.017 832.838,825.11 831.823,819.203 831.304,813.295 831.185,807.388 831.34,801.481 
  831.619,795.573 831.862,789.666 831.905,783.759 831.579,777.851 830.717,771.944 830.482,771.04 829.166,766.037 826.769,760.129 823.368,754.222 821.081,751.218 
  818.836,748.315 813.046,742.407 811.68,741.261 805.842,736.5 802.28,734.06 796.981,730.593 792.879,728.281 786.04,724.685 783.479,723.501 774.078,719.536 
  772.069,718.778 764.678,716.277 755.277,713.57 752.379,712.87 745.877,711.43 736.476,709.786 727.076,708.589 717.675,707.825 708.275,707.485 698.874,707.557 
  689.474,708.037 680.073,708.922 670.673,710.217 661.272,711.928 657.102,712.87 651.872,714.104 642.471,716.755 636.314,718.778 633.071,719.906 623.67,723.61 
  621.212,724.685 614.269,727.928 609.038,730.593 604.869,732.871 598.648,736.5 595.468,738.492 589.497,742.407 586.068,744.813 581.217,748.315 576.667,751.8 
  573.549,754.222 567.267,759.341 566.301,760.129 559.331,766.037 557.866,767.312 552.493,771.944 548.466,775.455 545.673,777.851 539.065,783.528 538.791,783.759 
  531.795,789.666 529.665,791.444 524.639,795.573 520.264,799.125 517.327,801.481 510.864,806.623 509.895,807.388 502.412,813.295 501.463,814.044 494.956,819.203 
  492.063,821.513 487.603,825.11 482.662,829.161 480.428,831.017 473.491,836.925 473.262,837.124 466.829,842.832 463.861,845.551 460.451,848.739 454.461,854.56 
  454.373,854.647 448.575,860.554 445.06,864.298 443.066,866.461 437.832,872.369 435.66,874.926 432.861,878.276 428.157,884.183 426.259,886.677 423.697,890.091 
  419.481,895.998 416.858,899.874 415.497,901.905 411.708,907.813 408.136,913.72 407.458,914.883 404.706,919.627 401.445,925.535 398.35,931.442 398.057,932.021 
  395.363,937.349 392.54,943.257 389.899,949.164 388.657,952.159 387.442,955.071 385.213,960.979 383.272,966.886 381.665,972.794 380.44,978.701 379.65,984.608 
  379.346,990.516 379.582,996.423 380.411,1002.33 381.883,1008.24 384.05,1014.14 386.957,1020.05 388.657,1022.83 390.645,1025.96 395.133,1031.87 
  "/>
<polyline clip-path="url(#clip983)" style="stroke:#6e186e; stroke-linecap:butt; stroke-linejoin:round; stroke-width:4; stroke-opacity:1; fill:none" points="
  423.897,1014.14 426.259,1017.42 428.282,1020.05 433.711,1025.96 435.66,1027.81 440.256,1031.87 445.06,1035.69 447.9,1037.77 454.461,1042.28 456.696,1043.68 
  463.861,1048.02 466.722,1049.59 473.262,1053.14 478.142,1055.5 482.662,1057.71 491.34,1061.4 492.063,1061.72 501.463,1065.2 508.65,1067.31 510.864,1067.99 
  520.264,1070.1 529.665,1071.38 539.065,1071.82 548.466,1071.41 557.866,1070.15 567.267,1068.06 569.697,1067.31 576.667,1065.26 586.068,1061.76 586.879,1061.4 
  595.468,1057.73 600.044,1055.5 604.869,1053.21 611.766,1049.59 614.269,1048.31 622.694,1043.68 623.67,1043.16 633.071,1037.87 633.231,1037.77 642.471,1032.55 
  643.654,1031.87 651.872,1027.28 654.215,1025.96 661.272,1022.12 665.071,1020.05 670.673,1017.11 676.325,1014.14 680.073,1012.25 688.017,1008.24 689.474,1007.53 
  698.874,1002.93 700.107,1002.33 708.275,998.432 712.45,996.423 717.675,993.951 724.81,990.516 727.076,989.434 736.476,984.829 736.915,984.608 745.877,980.069 
  748.47,978.701 755.277,975.046 759.279,972.794 764.678,969.657 769.205,966.886 774.078,963.759 778.186,960.979 783.479,957.153 786.213,955.071 792.879,949.541 
  793.313,949.164 799.486,943.257 802.28,940.208 804.812,937.349 809.305,931.442 811.68,927.664 812.997,925.535 815.884,919.627 817.983,913.72 819.281,907.813 
  819.76,901.905 819.402,895.998 818.194,890.091 816.144,884.183 813.286,878.276 811.68,875.567 809.674,872.369 805.439,866.461 802.28,862.389 800.766,860.554 
  795.861,854.647 792.879,850.928 791.013,848.739 786.465,842.832 783.479,838.322 782.496,836.925 779.206,831.017 776.774,825.11 775.172,819.203 774.293,813.295 
  774.078,809.367 773.964,807.388 773.995,801.481 774.078,798.514 774.157,795.573 774.218,789.666 774.078,786.422 773.957,783.759 773.136,777.851 771.558,771.944 
  769.03,766.037 765.361,760.129 764.678,759.313 760.032,754.222 755.277,750.224 752.717,748.315 745.877,744.255 742.188,742.407 736.476,740.056 727.076,737.007 
  724.944,736.5 717.675,735.035 708.275,733.865 698.874,733.412 689.474,733.654 680.073,734.564 670.673,736.117 669.026,736.5 661.272,738.501 651.872,741.56 
  649.701,742.407 642.471,745.554 636.912,748.315 633.071,750.445 626.897,754.222 623.67,756.411 618.562,760.129 614.269,763.54 611.273,766.037 604.869,771.723 
  604.627,771.944 598.532,777.851 595.468,780.856 592.548,783.759 586.509,789.666 586.068,790.089 580.387,795.573 576.667,798.94 573.873,801.481 567.267,807.078 
  566.904,807.388 559.558,813.295 557.866,814.561 551.787,819.203 548.466,821.586 543.69,825.11 539.065,828.362 535.42,831.017 529.665,835.07 527.136,836.925 
  520.264,841.866 518.979,842.832 511.06,848.739 510.864,848.885 503.482,854.647 501.463,856.234 496.23,860.554 492.063,864.054 489.321,866.461 482.764,872.369 
  482.662,872.462 476.585,878.276 473.262,881.579 470.732,884.183 465.215,890.091 463.861,891.597 460.02,895.998 455.134,901.905 454.461,902.754 450.539,907.813 
  446.224,913.72 445.06,915.394 442.164,919.627 438.351,925.535 435.66,929.957 434.765,931.442 431.405,937.349 428.274,943.257 426.259,947.366 425.382,949.164 
  422.764,955.071 420.455,960.979 418.5,966.886 416.958,972.794 416.858,973.357 415.913,978.701 415.423,984.608 415.56,990.516 416.394,996.423 416.858,998.164 
  418.021,1002.33 420.51,1008.24 423.897,1014.14 
  "/>
<polyline clip-path="url(#clip983)" style="stroke:#85206a; stroke-linecap:butt; stroke-linejoin:round; stroke-width:4; stroke-opacity:1; fill:none" points="
  463.108,1008.24 463.861,1009.06 469.09,1014.14 473.262,1017.53 476.819,1020.05 482.662,1023.69 486.953,1025.96 492.063,1028.43 500.706,1031.87 501.463,1032.15 
  510.864,1034.94 520.264,1036.93 526.83,1037.77 529.665,1038.13 539.065,1038.55 548.466,1038.19 552.03,1037.77 557.866,1037.09 567.267,1035.28 576.667,1032.8 
  579.52,1031.87 586.068,1029.75 595.468,1026.2 596.026,1025.96 604.869,1022.28 609.777,1020.05 614.269,1018.08 622.701,1014.14 623.67,1013.71 633.071,1009.28 
  635.217,1008.24 642.471,1004.85 647.766,1002.33 651.872,1000.45 660.56,996.423 661.272,996.103 670.673,991.836 673.563,990.516 680.073,987.61 686.741,984.608 
  689.474,983.396 698.874,979.165 699.887,978.701 708.275,974.857 712.663,972.794 717.675,970.405 724.812,966.886 727.076,965.736 736.058,960.979 736.476,960.746 
  745.877,955.261 746.185,955.071 755.12,949.164 755.277,949.049 762.807,943.257 764.678,941.612 769.297,937.349 774.078,932.104 774.657,931.442 778.801,925.535 
  781.863,919.627 783.479,914.725 783.803,913.72 784.583,907.813 784.228,901.905 783.479,898.923 782.692,895.998 779.929,890.091 775.999,884.183 774.078,881.86 
  770.839,878.276 764.678,872.431 764.605,872.369 757.235,866.461 755.277,864.94 749.004,860.554 745.877,858.32 740.109,854.647 736.476,852.167 730.771,848.739 
  727.076,846.253 721.193,842.832 717.675,840.445 711.502,836.925 708.275,834.695 701.649,831.017 698.874,829.091 691.157,825.11 689.474,824.004 680.073,820.019 
  676.11,819.203 670.673,817.842 661.272,817.699 651.872,819.195 651.848,819.203 642.471,821.371 633.071,824.299 631.003,825.11 623.67,827.435 614.269,830.936 
  614.083,831.017 604.869,834.452 599,836.925 595.468,838.245 586.068,842.226 584.785,842.832 576.667,846.378 571.806,848.739 567.267,850.826 559.783,854.647 
  557.866,855.593 548.769,860.554 548.466,860.717 539.065,866.253 538.74,866.461 529.665,872.29 529.551,872.369 521.143,878.276 520.264,878.909 513.421,884.183 
  510.864,886.225 506.299,890.091 501.463,894.372 499.718,895.998 493.671,901.905 492.063,903.565 488.111,907.813 482.961,913.72 482.662,914.085 478.269,919.627 
  473.921,925.535 473.262,926.502 469.972,931.442 466.357,937.349 463.861,941.82 463.073,943.257 460.18,949.164 457.643,955.071 455.501,960.979 454.461,964.656 
  453.839,966.886 452.74,972.794 452.257,978.701 452.489,984.608 453.539,990.516 454.461,993.322 455.576,996.423 458.759,1002.33 463.108,1008.24 
  "/>
<polyline clip-path="url(#clip983)" style="stroke:#a02a62; stroke-linecap:butt; stroke-linejoin:round; stroke-width:4; stroke-opacity:1; fill:none" points="
  508.393,978.701 510.864,982.387 512.774,984.608 520.177,990.516 520.264,990.569 529.665,994.674 536.513,996.423 539.065,996.968 548.466,997.87 557.866,997.781 
  567.267,996.882 569.941,996.423 576.667,995.283 586.068,993.15 595.468,990.623 595.81,990.516 604.869,987.729 614.269,984.635 614.343,984.608 623.67,981.32 
  630.849,978.701 633.071,977.901 642.471,974.359 646.506,972.794 651.872,970.714 661.272,967 661.549,966.886 670.673,963.085 675.626,960.979 680.073,959.018 
  688.783,955.071 689.474,954.739 698.874,950.03 700.536,949.164 708.275,944.742 710.76,943.257 717.675,938.547 719.348,937.349 726.217,931.442 727.076,930.482 
  731.268,925.535 734.659,919.627 736.299,913.72 736.05,907.813 733.801,901.905 729.492,895.998 727.076,893.697 722.702,890.091 717.675,886.813 712.915,884.183 
  708.275,881.96 698.97,878.276 698.874,878.241 689.474,875.416 680.073,873.241 674.889,872.369 670.673,871.671 661.272,870.667 651.872,870.203 642.471,870.263 
  633.071,870.835 623.67,871.915 620.98,872.369 614.269,873.496 604.869,875.581 595.468,878.184 595.19,878.276 586.068,881.35 578.871,884.183 576.667,885.083 
  567.267,889.457 566.052,890.091 557.866,894.578 555.52,895.998 548.466,900.543 546.521,901.905 539.065,907.529 538.715,907.813 532.02,913.72 529.665,916.012 
  526.157,919.627 521.007,925.535 520.264,926.509 516.672,931.442 512.94,937.349 510.864,941.275 509.854,943.257 507.512,949.164 505.833,955.071 504.912,960.979 
  504.892,966.886 505.968,972.794 508.393,978.701 
  "/>
<polyline clip-path="url(#clip983)" style="stroke:#b73456; stroke-linecap:butt; stroke-linejoin:round; stroke-width:4; stroke-opacity:1; fill:none" points="
  585.05,937.349 586.068,939.433 589.845,943.257 595.468,945.159 604.869,945.792 614.269,944.916 623.174,943.257 623.67,943.145 633.071,940.102 640.632,937.349 
  642.471,936.479 651.872,931.478 651.932,931.442 658.28,925.535 660.53,919.627 655.947,913.72 651.872,911.938 642.471,909.945 633.071,909.701 623.67,910.763 
  614.269,912.836 611.529,913.72 604.869,916.48 598.651,919.627 595.468,921.836 590.898,925.535 586.09,931.442 586.068,931.552 585.05,937.349 
  "/>
<polyline clip-path="url(#clip983)" style="stroke:#1c0c43; stroke-linecap:butt; stroke-linejoin:round; stroke-width:4; stroke-opacity:1; fill:none" points="
  1092.92,718.778 1093.7,720.214 1095.69,724.685 1098.88,730.593 1102.72,736.5 1103.1,737.036 1106.25,742.407 1110.17,748.315 1112.5,751.555 1114.11,754.222 
  1117.91,760.129 1121.9,765.847 1122.01,766.037 1125.63,771.944 1129.54,777.851 1131.3,780.376 1133.37,783.759 1137.22,789.666 1140.7,794.541 1141.36,795.573 
  1145.36,801.481 1149.84,807.388 1150.1,807.718 1154.18,813.295 1159.02,819.203 1159.5,819.755 1163.77,825.11 1168.9,830.964 1168.94,831.017 1173.88,836.925 
  1178.3,841.927 1179.05,842.832 1183.93,848.739 1187.7,853.271 1188.78,854.647 1193.24,860.554 1197.1,865.835 1197.54,866.461 1201.36,872.369 1205.01,878.276 
  1206.5,880.811 1208.4,884.183 1211.65,890.091 1214.96,895.998 1215.9,897.605 1218.37,901.905 1222.11,907.813 1225.3,912.244 1226.38,913.72 1231.31,919.627 
  1234.7,923.09 1237.2,925.535 1244.1,931.281 1244.31,931.442 1253.06,937.349 1253.51,937.613 1262.91,942.668 1264.15,943.257 1272.31,946.756 1278.95,949.164 
  1281.71,950.097 1291.11,952.771 1300.51,954.882 1301.6,955.071 1309.91,956.48 1319.31,957.601 1328.71,958.269 1338.11,958.5 1347.51,958.302 1356.91,957.676 
  1366.31,956.615 1375.71,955.102 1375.86,955.071 1385.11,953.161 1394.51,950.74 1399.65,949.164 1403.91,947.828 1413.31,944.417 1416.15,943.257 1422.71,940.49 
  1429.39,937.349 1432.12,936.03 1440.79,931.442 1441.52,931.045 1450.92,925.558 1450.95,925.535 1460.28,919.627 1460.32,919.606 1469.01,913.72 1469.72,913.232 
  1477.28,907.813 1479.12,906.464 1485.15,901.905 1488.52,899.29 1492.65,895.998 1497.92,891.647 1499.76,890.091 1506.48,884.183 1507.32,883.418 1512.84,878.276 
  1516.72,874.399 1518.72,872.369 1524.19,866.461 1526.12,864.218 1529.25,860.554 1533.87,854.647 1535.52,852.377 1538.17,848.739 1542.12,842.832 1544.92,838.247 
  1545.74,836.925 1549.24,831.017 1552.45,825.11 1554.32,821.485 1555.54,819.203 1558.62,813.295 1561.56,807.388 1563.72,802.938 1564.47,801.481 1567.52,795.573 
  1570.53,789.666 1573.12,784.504 1573.52,783.759 1576.75,777.851 1579.92,771.944 1582.52,766.99 1583.06,766.037 1586.37,760.129 1589.52,754.222 1591.92,749.445 
  1592.54,748.315 1595.59,742.407 1598.37,736.5 1600.86,730.593 1601.32,729.391 1603.28,724.685 1605.43,718.778 1607.27,712.87 1608.8,706.963 1610.06,701.056 
  1610.73,697.129 1611.1,695.148 1611.95,689.241 1612.54,683.334 1612.89,677.426 1613,671.519 1612.89,665.612 1612.55,659.704 1612.01,653.797 1611.25,647.89 
  1610.73,644.598 1610.35,641.982 1609.34,636.075 1608.18,630.168 1606.88,624.26 1605.46,618.353 1603.96,612.446 1602.38,606.538 1601.32,602.646 1600.82,600.631 
  1599.36,594.724 1597.88,588.816 1596.37,582.909 1594.81,577.002 1593.17,571.094 1591.92,566.902 1591.45,565.187 1589.69,559.28 1587.69,553.372 1585.39,547.465 
  1582.74,541.558 1582.52,541.134 1579.92,535.65 1576.69,529.743 1573.12,524.055 1572.99,523.836 1569.14,517.928 1564.81,512.021 1563.72,510.629 1560.3,506.114 
  1555.44,500.206 1554.32,498.899 1550.48,494.299 1545.24,488.392 1544.92,488.034 1540.04,482.484 1535.52,477.54 1534.65,476.577 1529.32,470.669 1526.12,467.185 
  1523.91,464.762 1518.51,458.855 1516.72,456.893 1513.12,452.947 1507.65,447.04 1507.32,446.682 1502.2,441.133 1497.92,436.614 1496.58,435.225 1490.8,429.318 
  1488.52,427.049 1484.73,423.411 1479.12,418.293 1478.21,417.503 1471.1,411.596 1469.72,410.514 1463.11,405.689 1460.32,403.78 1453.9,399.781 1450.92,398.035 
  1442.94,393.874 1441.52,393.168 1432.12,389.044 1429.27,387.967 1422.71,385.562 1413.31,382.673 1410.94,382.059 1403.91,380.262 1394.51,378.327 1385.11,376.847 
  1378.97,376.152 1375.71,375.773 1366.31,375.091 1356.91,374.827 1347.51,374.985 1338.11,375.577 1332.91,376.152 1328.71,376.603 1319.31,378.07 1309.91,380.048 
  1302.41,382.059 1300.51,382.573 1291.11,385.647 1285.2,387.967 1281.71,389.39 1272.31,393.873 1272.3,393.874 1262.91,399.224 1262.03,399.781 1253.51,405.643 
  1253.44,405.689 1246.13,411.596 1244.1,413.399 1239.75,417.503 1234.7,422.787 1234.13,423.411 1229.04,429.318 1225.3,434.071 1224.41,435.225 1220.02,441.133 
  1215.92,447.04 1215.9,447.063 1211.82,452.947 1207.87,458.855 1206.5,460.906 1203.87,464.762 1199.89,470.669 1197.1,474.878 1195.93,476.577 1191.88,482.484 
  1187.96,488.392 1187.7,488.79 1183.89,494.299 1179.97,500.206 1178.3,502.785 1176.02,506.114 1172.09,512.021 1168.9,517.006 1168.27,517.928 1164.27,523.836 
  1160.41,529.743 1159.5,531.147 1156.35,535.65 1152.29,541.558 1150.1,544.788 1148.14,547.465 1143.85,553.372 1140.7,557.819 1139.58,559.28 1135.13,565.187 
  1131.3,570.523 1130.85,571.094 1126.4,577.002 1122.28,582.909 1121.9,583.484 1118.06,588.816 1114.22,594.724 1112.5,597.635 1110.55,600.631 1107.1,606.538 
  1104.08,612.446 1103.1,614.591 1101.19,618.353 1098.54,624.26 1096.26,630.168 1094.3,636.075 1093.7,638.129 1092.4,641.982 1090.68,647.89 1089.21,653.797 
  1087.98,659.704 1086.99,665.612 1086.24,671.519 1085.74,677.426 1085.53,683.334 1085.62,689.241 1086.08,695.148 1086.96,701.056 1088.33,706.963 1090.28,712.87 
  1092.92,718.778 
  "/>
<polyline clip-path="url(#clip983)" style="stroke:#370961; stroke-linecap:butt; stroke-linejoin:round; stroke-width:4; stroke-opacity:1; fill:none" points="
  1130.76,701.056 1131.3,702.598 1132.66,706.963 1134.86,712.87 1137.44,718.778 1140.4,724.685 1140.7,725.246 1143.32,730.593 1146.52,736.5 1150.01,742.407 
  1150.1,742.558 1153.32,748.315 1156.87,754.222 1159.5,758.386 1160.53,760.129 1164.09,766.037 1167.9,771.944 1168.9,773.453 1171.65,777.851 1175.55,783.759 
  1178.3,787.677 1179.63,789.666 1183.77,795.573 1187.7,800.738 1188.25,801.481 1192.76,807.388 1197.1,812.612 1197.66,813.295 1202.62,819.203 1206.5,823.544 
  1207.88,825.11 1213.23,831.017 1215.9,833.888 1218.71,836.925 1224.24,842.832 1225.3,843.995 1229.66,848.739 1234.7,854.273 1235.05,854.647 1240.2,860.554 
  1244.1,865.195 1245.2,866.461 1249.99,872.369 1253.51,876.877 1254.65,878.276 1259.26,884.183 1262.91,888.84 1263.96,890.091 1269.01,895.998 1272.31,899.597 
  1274.66,901.905 1281.32,907.813 1281.71,908.124 1289.85,913.72 1291.11,914.478 1300.51,919.165 1301.69,919.627 1309.91,922.511 1319.31,924.868 1323.45,925.535 
  1328.71,926.317 1338.11,926.985 1347.51,926.955 1356.91,926.264 1362.08,925.535 1366.31,924.926 1375.71,922.956 1385.11,920.39 1387.4,919.627 1394.51,917.228 
  1403.36,913.72 1403.91,913.499 1413.31,909.248 1416.16,907.813 1422.71,904.52 1427.46,901.905 1432.12,899.355 1437.77,895.998 1441.52,893.793 1447.36,890.091 
  1450.92,887.851 1456.36,884.183 1460.32,881.507 1464.81,878.276 1469.72,874.691 1472.72,872.369 1479.12,867.277 1480.09,866.461 1486.92,860.554 1488.52,859.118 
  1493.25,854.647 1497.92,849.931 1499.06,848.739 1504.42,842.832 1507.32,839.403 1509.36,836.925 1513.94,831.017 1516.72,827.156 1518.18,825.11 1522.2,819.203 
  1525.92,813.295 1526.12,812.977 1529.61,807.388 1533.1,801.481 1535.52,797.258 1536.51,795.573 1539.96,789.666 1543.32,783.759 1544.92,780.93 1546.73,777.851 
  1550.18,771.944 1553.54,766.037 1554.32,764.668 1557.02,760.129 1560.41,754.222 1563.63,748.315 1563.72,748.137 1566.92,742.407 1569.96,736.5 1572.74,730.593 
  1573.12,729.708 1575.44,724.685 1577.85,718.778 1579.95,712.87 1581.74,706.963 1582.52,703.872 1583.3,701.056 1584.63,695.148 1585.66,689.241 1586.4,683.334 
  1586.88,677.426 1587.09,671.519 1587.05,665.612 1586.76,659.704 1586.23,653.797 1585.47,647.89 1584.48,641.982 1583.27,636.075 1582.52,632.921 1581.92,630.168 
  1580.48,624.26 1578.89,618.353 1577.18,612.446 1575.36,606.538 1573.46,600.631 1573.12,599.579 1571.64,594.724 1569.8,588.816 1567.89,582.909 1565.91,577.002 
  1563.82,571.094 1563.72,570.829 1561.74,565.187 1559.47,559.28 1556.95,553.372 1554.32,547.883 1554.13,547.465 1551.13,541.558 1547.73,535.65 1544.92,531.305 
  1543.93,529.743 1539.85,523.836 1535.52,518.215 1535.3,517.928 1530.53,512.021 1526.12,507.012 1525.33,506.114 1519.92,500.206 1516.72,496.873 1514.23,494.299 
  1508.31,488.392 1507.32,487.412 1502.26,482.484 1497.92,478.35 1496.01,476.577 1489.65,470.669 1488.52,469.61 1483.17,464.762 1479.12,461.102 1476.53,458.855 
  1469.72,452.948 1469.72,452.947 1462.65,447.04 1460.32,445.108 1455.21,441.133 1450.92,437.833 1447.25,435.225 1441.52,431.23 1438.49,429.318 1432.12,425.382 
  1428.52,423.411 1422.71,420.327 1416.57,417.503 1413.31,416.057 1403.91,412.53 1400.87,411.596 1394.51,409.697 1385.11,407.521 1375.71,405.964 1373.04,405.689 
  1366.31,405.004 1356.91,404.634 1347.51,404.858 1338.15,405.689 1338.11,405.693 1328.71,407.18 1319.31,409.364 1312.12,411.596 1309.91,412.318 1300.51,416.16 
  1297.78,417.503 1291.11,421.024 1287.23,423.411 1281.71,427.077 1278.72,429.318 1272.31,434.5 1271.49,435.225 1265.19,441.133 1262.91,443.391 1259.46,447.04 
  1254.13,452.947 1253.51,453.651 1249.08,458.855 1244.24,464.762 1244.1,464.932 1239.52,470.669 1234.95,476.577 1234.7,476.895 1230.43,482.484 1226.1,488.392 
  1225.3,489.494 1221.82,494.299 1217.72,500.206 1215.9,502.928 1213.73,506.114 1209.85,512.021 1206.5,517.36 1206.13,517.928 1202.37,523.836 1198.75,529.743 
  1197.1,532.453 1195.07,535.65 1191.34,541.558 1187.7,547.383 1187.65,547.465 1183.69,553.372 1179.77,559.28 1178.3,561.465 1175.68,565.187 1171.57,571.094 
  1168.9,574.988 1167.46,577.002 1163.3,582.909 1159.5,588.6 1159.35,588.816 1155.32,594.724 1151.61,600.631 1150.1,603.194 1148.02,606.538 1144.64,612.446 
  1141.61,618.353 1140.7,620.289 1138.71,624.26 1136.08,630.168 1133.81,636.075 1131.87,641.982 1131.3,644.048 1130.13,647.89 1128.69,653.797 1127.62,659.704 
  1126.9,665.612 1126.56,671.519 1126.6,677.426 1127.02,683.334 1127.85,689.241 1129.09,695.148 1130.76,701.056 
  "/>
<polyline clip-path="url(#clip983)" style="stroke:#570f6d; stroke-linecap:butt; stroke-linejoin:round; stroke-width:4; stroke-opacity:1; fill:none" points="
  1158.29,695.148 1159.5,699.3 1159.97,701.056 1161.91,706.963 1164.23,712.87 1166.91,718.778 1168.9,722.7 1169.85,724.685 1172.92,730.593 1176.28,736.5 
  1178.3,739.822 1179.8,742.407 1183.39,748.315 1187.24,754.222 1187.7,754.923 1191.04,760.129 1195.05,766.037 1197.1,768.951 1199.16,771.944 1203.38,777.851 
  1206.5,782.001 1207.81,783.759 1212.36,789.666 1215.9,793.993 1217.19,795.573 1222.22,801.481 1225.3,804.895 1227.57,807.388 1233.22,813.295 1234.7,814.8 
  1239.15,819.203 1244.1,823.897 1245.43,825.11 1251.98,831.017 1253.51,832.379 1258.83,836.925 1262.91,840.394 1265.95,842.832 1272.31,847.976 1273.33,848.739 
  1281,854.647 1281.71,855.214 1289.09,860.554 1291.11,862.067 1297.79,866.461 1300.51,868.325 1307.52,872.369 1309.91,873.796 1319.3,878.276 1319.31,878.283 
  1328.71,881.81 1338.11,884.147 1338.36,884.183 1347.51,885.529 1356.91,885.934 1366.31,885.466 1375.71,884.208 1375.83,884.183 1385.11,882.327 1394.51,879.782 
  1398.94,878.276 1403.91,876.681 1413.31,873.03 1414.78,872.369 1422.71,868.909 1427.58,866.461 1432.12,864.235 1438.7,860.554 1441.52,858.992 1448.49,854.647 
  1450.92,853.115 1457.18,848.739 1460.32,846.489 1464.98,842.832 1469.72,838.94 1472,836.925 1478.33,831.017 1479.12,830.254 1484.1,825.11 1488.52,820.202 
  1489.38,819.203 1494.27,813.295 1497.92,808.58 1498.82,807.388 1503.14,801.481 1507.22,795.573 1507.32,795.426 1511.24,789.666 1515.1,783.759 1516.72,781.251 
  1518.94,777.851 1522.74,771.944 1526.12,766.554 1526.45,766.037 1530.24,760.129 1533.89,754.222 1535.52,751.516 1537.5,748.315 1541.01,742.407 1544.29,736.5 
  1544.92,735.306 1547.49,730.593 1550.42,724.685 1553.05,718.778 1554.32,715.554 1555.43,712.87 1557.57,706.963 1559.38,701.056 1560.85,695.148 1562.01,689.241 
  1562.87,683.334 1563.43,677.426 1563.7,671.519 1563.7,665.612 1563.44,659.704 1562.9,653.797 1562.11,647.89 1561.08,641.982 1559.8,636.075 1558.29,630.168 
  1556.57,624.26 1554.67,618.353 1554.32,617.341 1552.71,612.446 1550.65,606.538 1548.47,600.631 1546.2,594.724 1544.92,591.481 1543.9,588.816 1541.59,582.909 
  1539.17,577.002 1536.63,571.094 1535.52,568.63 1533.99,565.187 1531.2,559.28 1528.13,553.372 1526.12,549.824 1524.79,547.465 1521.15,541.558 1517.1,535.65 
  1516.72,535.137 1512.71,529.743 1507.85,523.836 1507.32,523.23 1502.61,517.928 1497.92,513.045 1496.91,512.021 1490.82,506.114 1488.52,503.976 1484.31,500.206 
  1479.12,495.71 1477.41,494.299 1470.13,488.392 1469.72,488.057 1462.43,482.484 1460.32,480.868 1454.3,476.577 1450.92,474.145 1445.67,470.669 1441.52,467.877 
  1436.41,464.762 1432.12,462.09 1426.28,458.855 1422.71,456.834 1414.84,452.947 1413.31,452.177 1403.91,448.145 1400.75,447.04 1394.51,444.81 1385.11,442.223 
  1379.46,441.133 1375.71,440.396 1366.31,439.348 1356.91,439.118 1347.51,439.739 1338.87,441.133 1338.11,441.256 1328.71,443.705 1319.7,447.04 1319.31,447.186 
  1309.91,451.704 1307.79,452.947 1300.51,457.311 1298.31,458.855 1291.11,463.999 1290.16,464.762 1282.94,470.669 1281.71,471.696 1276.36,476.577 1272.31,480.382 
  1270.22,482.484 1264.53,488.392 1262.91,490.13 1259.21,494.299 1254.23,500.206 1253.51,501.102 1249.56,506.114 1245.2,512.021 1244.1,513.569 1241.05,517.928 
  1237.12,523.836 1234.7,527.606 1233.32,529.743 1229.58,535.65 1225.9,541.558 1225.3,542.509 1222.12,547.465 1218.28,553.372 1215.9,556.958 1214.33,559.28 
  1210.21,565.187 1206.5,570.445 1206.03,571.094 1201.67,577.002 1197.36,582.909 1197.1,583.264 1192.94,588.816 1188.69,594.724 1187.7,596.12 1184.46,600.631 
  1180.45,606.538 1178.3,609.918 1176.65,612.446 1173.04,618.353 1169.8,624.26 1168.9,626.055 1166.76,630.168 1164.05,636.075 1161.73,641.982 1159.8,647.89 
  1159.5,649.021 1158.15,653.797 1156.89,659.704 1156.06,665.612 1155.66,671.519 1155.67,677.426 1156.12,683.334 1156.99,689.241 1158.29,695.148 
  "/>
<polyline clip-path="url(#clip983)" style="stroke:#6e186e; stroke-linecap:butt; stroke-linejoin:round; stroke-width:4; stroke-opacity:1; fill:none" points="
  1177.46,701.056 1178.3,703.397 1179.5,706.963 1181.86,712.87 1184.59,718.778 1187.68,724.685 1187.7,724.728 1190.87,730.593 1194.37,736.5 1197.1,740.79 
  1198.1,742.407 1201.93,748.315 1206.01,754.222 1206.5,754.918 1210.14,760.129 1214.49,766.037 1215.9,767.897 1218.96,771.944 1223.64,777.851 1225.3,779.879 
  1228.51,783.759 1233.65,789.666 1234.7,790.841 1239.04,795.573 1244.1,800.776 1244.81,801.481 1250.94,807.388 1253.51,809.759 1257.52,813.295 1262.91,817.866 
  1264.58,819.203 1272.18,825.11 1272.31,825.208 1280.44,831.017 1281.71,831.919 1289.47,836.925 1291.11,837.992 1299.5,842.832 1300.51,843.428 1309.91,848.223 
  1311.12,848.739 1319.31,852.366 1325.84,854.647 1328.71,855.697 1338.11,858.284 1347.51,860 1353.17,860.554 1356.91,860.942 1366.31,861.112 1375.01,860.554 
  1375.71,860.512 1385.11,859.253 1394.51,857.295 1403.84,854.647 1403.91,854.626 1413.31,851.388 1419.58,848.739 1422.71,847.43 1431.96,842.832 1432.12,842.754 
  1441.52,837.313 1442.11,836.925 1450.83,831.017 1450.92,830.958 1458.42,825.11 1460.32,823.556 1465.19,819.203 1469.72,814.9 1471.3,813.295 1476.85,807.388 
  1479.12,804.844 1481.99,801.481 1486.79,795.573 1488.52,793.371 1491.35,789.666 1495.73,783.759 1497.92,780.741 1499.99,777.851 1504.16,771.944 1507.32,767.369 
  1508.24,766.037 1512.3,760.129 1516.22,754.222 1516.72,753.468 1520.13,748.315 1523.86,742.407 1526.12,738.65 1527.43,736.5 1530.85,730.593 1533.96,724.685 
  1535.52,721.449 1536.84,718.778 1539.47,712.87 1541.74,706.963 1543.66,701.056 1544.92,696.38 1545.27,695.148 1546.6,689.241 1547.6,683.334 1548.25,677.426 
  1548.58,671.519 1548.6,665.612 1548.31,659.704 1547.72,653.797 1546.83,647.89 1545.65,641.982 1544.92,639.001 1544.24,636.075 1542.62,630.168 1540.77,624.26 
  1538.71,618.353 1536.46,612.446 1535.52,610.101 1534.12,606.538 1531.68,600.631 1529.12,594.724 1526.46,588.816 1526.12,588.077 1523.77,582.909 1520.98,577.002 
  1518.04,571.094 1516.72,568.542 1514.97,565.187 1511.71,559.28 1508.16,553.372 1507.32,552.052 1504.33,547.465 1500.13,541.558 1497.92,538.69 1495.51,535.65 
  1490.43,529.743 1488.52,527.664 1484.85,523.836 1479.12,518.26 1478.76,517.928 1472.08,512.021 1469.72,510.016 1464.81,506.114 1460.32,502.648 1456.9,500.206 
  1450.92,495.998 1448.27,494.299 1441.52,489.972 1438.77,488.392 1432.12,484.525 1428.13,482.484 1422.71,479.654 1415.88,476.577 1413.31,475.39 1403.91,471.737 
  1400.48,470.669 1394.51,468.735 1385.11,466.454 1375.71,464.95 1373.19,464.762 1366.31,464.218 1356.91,464.344 1353.06,464.762 1347.51,465.353 1338.11,467.275 
  1328.71,470.201 1327.57,470.669 1319.31,474.073 1314.5,476.577 1309.91,478.985 1304.34,482.484 1300.51,484.95 1295.86,488.392 1291.11,492.044 1288.48,494.299 
  1281.93,500.206 1281.71,500.413 1276.12,506.114 1272.31,510.289 1270.81,512.021 1265.98,517.928 1262.91,521.932 1261.49,523.836 1257.28,529.743 1253.51,535.262 
  1253.24,535.65 1249.28,541.558 1245.34,547.465 1244.1,549.28 1241.32,553.372 1237.19,559.28 1234.7,562.718 1232.91,565.187 1228.47,571.094 1225.3,575.215 
  1223.92,577.002 1219.25,582.909 1215.9,587.149 1214.58,588.816 1209.9,594.724 1206.5,599.15 1205.36,600.631 1200.92,606.538 1197.1,611.973 1196.77,612.446 
  1192.76,618.353 1189.14,624.26 1187.7,626.821 1185.79,630.168 1182.77,636.075 1180.19,641.982 1178.3,647.117 1178.01,647.89 1176.15,653.797 1174.74,659.704 
  1173.79,665.612 1173.29,671.519 1173.24,677.426 1173.64,683.334 1174.47,689.241 1175.75,695.148 1177.46,701.056 
  "/>
<polyline clip-path="url(#clip983)" style="stroke:#85206a; stroke-linecap:butt; stroke-linejoin:round; stroke-width:4; stroke-opacity:1; fill:none" points="
  1194.31,706.963 1196.84,712.87 1197.1,713.412 1199.62,718.778 1202.76,724.685 1206.25,730.593 1206.5,731.002 1209.89,736.5 1213.84,742.407 1215.9,745.346 
  1217.98,748.315 1222.31,754.222 1225.3,758.113 1226.87,760.129 1231.58,766.037 1234.7,769.787 1236.54,771.944 1241.71,777.851 1244.1,780.483 1247.18,783.759 
  1252.98,789.666 1253.51,790.19 1259.18,795.573 1262.91,798.946 1265.88,801.481 1272.31,806.754 1273.14,807.388 1281.13,813.295 1281.71,813.711 1290.06,819.203 
  1291.11,819.881 1300.19,825.11 1300.51,825.292 1309.91,830.006 1312.31,831.017 1319.31,834.011 1327.79,836.925 1328.71,837.247 1338.11,839.819 1347.51,841.604 
  1356.91,842.641 1362.64,842.832 1366.31,842.961 1369.19,842.832 1375.71,842.556 1385.11,841.442 1394.51,839.595 1403.91,836.979 1404.07,836.925 1413.31,833.658 
  1419.31,831.017 1422.71,829.498 1430.92,825.11 1432.12,824.454 1440.35,819.203 1441.52,818.424 1448.35,813.295 1450.92,811.272 1455.38,807.388 1460.32,802.857 
  1461.71,801.481 1467.44,795.573 1469.72,793.132 1472.78,789.666 1477.8,783.759 1479.12,782.186 1482.61,777.851 1487.24,771.944 1488.52,770.303 1491.76,766.037 
  1496.16,760.129 1497.92,757.731 1500.46,754.222 1504.64,748.315 1507.32,744.378 1508.66,742.407 1512.53,736.5 1516.12,730.593 1516.72,729.553 1519.54,724.685 
  1522.63,718.778 1525.38,712.87 1526.12,711.085 1527.86,706.963 1529.99,701.056 1531.75,695.148 1533.15,689.241 1534.19,683.334 1534.88,677.426 1535.23,671.519 
  1535.25,665.612 1534.95,659.704 1534.33,653.797 1533.39,647.89 1532.16,641.982 1530.62,636.075 1528.81,630.168 1526.72,624.26 1526.12,622.696 1524.46,618.353 
  1522.01,612.446 1519.37,606.538 1516.72,600.94 1516.57,600.631 1513.7,594.724 1510.69,588.816 1507.56,582.909 1507.32,582.468 1504.33,577.002 1500.94,571.094 
  1497.92,566.073 1497.37,565.187 1493.56,559.28 1489.47,553.372 1488.52,552.079 1484.99,547.465 1480.11,541.558 1479.12,540.431 1474.68,535.65 1469.72,530.677 
  1468.72,529.743 1462.06,523.836 1460.32,522.362 1454.62,517.928 1450.92,515.158 1446.3,512.021 1441.52,508.861 1436.86,506.114 1432.12,503.351 1425.94,500.206 
  1422.71,498.564 1413.31,494.481 1412.8,494.299 1403.91,491.058 1394.56,488.392 1394.51,488.378 1385.11,486.388 1375.71,485.184 1366.31,484.792 1356.91,485.249 
  1347.51,486.607 1340.24,488.392 1338.11,488.919 1328.71,492.214 1324.17,494.299 1319.31,496.602 1313.13,500.206 1309.91,502.183 1304.44,506.114 1300.51,509.123 
  1297.16,512.021 1291.11,517.645 1290.83,517.928 1285.33,523.836 1281.71,527.99 1280.27,529.743 1275.61,535.65 1272.31,539.976 1271.14,541.558 1266.79,547.465 
  1262.91,552.701 1262.42,553.372 1257.96,559.28 1253.51,565.024 1253.38,565.187 1248.62,571.094 1244.1,576.544 1243.73,577.002 1238.7,582.909 1234.7,587.559 
  1233.64,588.816 1228.56,594.724 1225.3,598.58 1223.59,600.631 1218.76,606.538 1215.9,610.195 1214.16,612.446 1209.81,618.353 1206.5,623.244 1205.81,624.26 
  1202.1,630.168 1198.83,636.075 1197.1,639.658 1195.96,641.982 1193.47,647.89 1191.45,653.797 1189.92,659.704 1188.86,665.612 1188.27,671.519 1188.14,677.426 
  1188.48,683.334 1189.28,689.241 1190.52,695.148 1192.2,701.056 1194.31,706.963 
  "/>
<polyline clip-path="url(#clip983)" style="stroke:#a02a62; stroke-linecap:butt; stroke-linejoin:round; stroke-width:4; stroke-opacity:1; fill:none" points="
  1212.76,712.87 1215.79,718.778 1215.9,718.975 1219.11,724.685 1222.79,730.593 1225.3,734.304 1226.8,736.5 1231.06,742.407 1234.7,747.137 1235.63,748.315 
  1240.43,754.222 1244.1,758.539 1245.5,760.129 1250.85,766.037 1253.51,768.88 1256.5,771.944 1262.5,777.851 1262.91,778.248 1268.95,783.759 1272.31,786.705 
  1275.94,789.666 1281.71,794.218 1283.59,795.573 1291.11,800.829 1292.15,801.481 1300.51,806.583 1302.02,807.388 1309.91,811.516 1313.94,813.295 1319.31,815.652 
  1328.71,818.995 1329.46,819.203 1338.11,821.611 1347.51,823.448 1356.91,824.525 1366.31,824.851 1375.71,824.423 1385.11,823.222 1394.51,821.216 1401.18,819.203 
  1403.91,818.367 1413.31,814.639 1416.06,813.295 1422.71,809.944 1426.98,807.388 1432.12,804.192 1435.91,801.481 1441.52,797.293 1443.58,795.573 1450.38,789.666 
  1450.92,789.191 1456.52,783.759 1460.32,779.954 1462.28,777.851 1467.7,771.944 1469.72,769.707 1472.88,766.037 1477.86,760.129 1479.12,758.625 1482.67,754.222 
  1487.3,748.315 1488.52,746.723 1491.75,742.407 1495.97,736.5 1497.92,733.616 1499.94,730.593 1503.64,724.685 1506.99,718.778 1507.32,718.136 1510.05,712.87 
  1512.73,706.963 1515.01,701.056 1516.72,695.73 1516.91,695.148 1518.47,689.241 1519.63,683.334 1520.4,677.426 1520.79,671.519 1520.8,665.612 1520.45,659.704 
  1519.74,653.797 1518.67,647.89 1517.26,641.982 1516.72,640.143 1515.54,636.075 1513.53,630.168 1511.22,624.26 1508.62,618.353 1507.32,615.601 1505.8,612.446 
  1502.77,606.538 1499.54,600.631 1497.92,597.76 1496.14,594.724 1492.58,588.816 1488.86,582.909 1488.52,582.364 1484.94,577.002 1480.85,571.094 1479.12,568.668 
  1476.48,565.187 1471.81,559.28 1469.72,556.749 1466.71,553.372 1461.17,547.465 1460.32,546.593 1454.92,541.558 1450.92,538.029 1447.93,535.65 1441.52,530.788 
  1439.96,529.743 1432.12,524.679 1430.6,523.836 1422.71,519.554 1419.15,517.928 1413.31,515.316 1404.21,512.021 1403.91,511.915 1394.51,509.343 1385.11,507.597 
  1375.71,506.7 1366.31,506.693 1356.91,507.632 1347.51,509.585 1339.95,512.021 1338.11,512.645 1328.71,516.957 1327.03,517.928 1319.31,522.685 1317.74,523.836 
  1310.22,529.743 1309.91,530.001 1303.89,535.65 1300.51,538.966 1298.1,541.558 1292.71,547.465 1291.11,549.203 1287.51,553.372 1282.31,559.28 1281.71,559.938 
  1277.1,565.187 1272.31,570.426 1271.72,571.094 1266.24,577.002 1262.91,580.464 1260.63,582.909 1254.97,588.816 1253.51,590.316 1249.32,594.724 1244.1,600.274 
  1243.78,600.631 1238.38,606.538 1234.7,610.738 1233.24,612.446 1228.39,618.353 1225.3,622.403 1223.91,624.26 1219.79,630.168 1216.15,636.075 1215.9,636.522 
  1212.89,641.982 1210.14,647.89 1207.89,653.797 1206.5,658.528 1206.15,659.704 1204.88,665.612 1204.13,671.519 1203.91,677.426 1204.2,683.334 1205,689.241 
  1206.29,695.148 1206.5,695.851 1208.01,701.056 1210.17,706.963 1212.76,712.87 
  "/>
<polyline clip-path="url(#clip983)" style="stroke:#b73456; stroke-linecap:butt; stroke-linejoin:round; stroke-width:4; stroke-opacity:1; fill:none" points="
  1223.5,706.963 1225.3,710.839 1226.24,712.87 1229.4,718.778 1232.99,724.685 1234.7,727.26 1236.96,730.593 1241.29,736.5 1244.1,740.089 1245.98,742.407 
  1251,748.315 1253.51,751.132 1256.38,754.222 1262.09,760.129 1262.91,760.957 1268.23,766.037 1272.31,769.798 1274.81,771.944 1281.71,777.693 1281.92,777.851 
  1289.82,783.759 1291.11,784.698 1298.73,789.666 1300.51,790.801 1309.09,795.573 1309.91,796.019 1319.31,800.386 1322.21,801.481 1328.71,803.917 1338.11,806.619 
  1341.93,807.388 1347.51,808.519 1356.91,809.614 1366.31,809.894 1375.71,809.35 1385.11,807.955 1387.48,807.388 1394.51,805.686 1403.91,802.481 1406.2,801.481 
  1413.31,798.29 1418.25,795.573 1422.71,793.042 1427.78,789.666 1432.12,786.693 1435.88,783.759 1441.52,779.234 1443.07,777.851 1449.6,771.944 1450.92,770.739 
  1455.66,766.037 1460.32,761.311 1461.41,760.129 1466.84,754.222 1469.72,751.014 1472.03,748.315 1476.94,742.407 1479.12,739.695 1481.59,736.5 1485.94,730.593 
  1488.52,726.827 1489.96,724.685 1493.63,718.778 1496.9,712.87 1497.92,710.812 1499.8,706.963 1502.3,701.056 1504.36,695.148 1506,689.241 1507.22,683.334 
  1507.32,682.585 1508.04,677.426 1508.45,671.519 1508.45,665.612 1508.04,659.704 1507.32,654.391 1507.24,653.797 1506.07,647.89 1504.52,641.982 1502.6,636.075 
  1500.32,630.168 1497.92,624.725 1497.71,624.26 1494.79,618.353 1491.57,612.446 1488.52,607.254 1488.08,606.538 1484.31,600.631 1480.33,594.724 1479.12,592.964 
  1476.07,588.816 1471.6,582.909 1469.72,580.472 1466.81,577.002 1461.75,571.094 1460.32,569.447 1456.22,565.187 1450.92,559.839 1450.29,559.28 1443.57,553.372 
  1441.52,551.624 1435.92,547.465 1432.12,544.724 1426.96,541.558 1422.71,539.025 1415.87,535.65 1413.31,534.421 1403.91,530.849 1399.91,529.743 1394.51,528.269 
  1385.11,526.673 1375.71,526.073 1366.31,526.525 1356.91,528.096 1351.26,529.743 1347.51,530.891 1338.11,535.028 1337.02,535.65 1328.71,540.593 1327.37,541.558 
  1319.42,547.465 1319.31,547.548 1312.5,553.372 1309.91,555.553 1305.93,559.28 1300.51,564.193 1299.5,565.187 1293.18,571.094 1291.11,572.935 1286.83,577.002 
  1281.71,581.655 1280.4,582.909 1274.01,588.816 1272.31,590.343 1267.67,594.724 1262.91,599.196 1261.44,600.631 1255.44,606.538 1253.51,608.489 1249.72,612.446 
  1244.35,618.353 1244.1,618.64 1239.37,624.26 1234.85,630.168 1234.7,630.378 1230.77,636.075 1227.22,641.982 1225.3,645.704 1224.18,647.89 1221.66,653.797 
  1219.69,659.704 1218.29,665.612 1217.43,671.519 1217.13,677.426 1217.36,683.334 1218.13,689.241 1219.41,695.148 1221.21,701.056 1223.5,706.963 
  "/>
<polyline clip-path="url(#clip983)" style="stroke:#ea6428; stroke-linecap:butt; stroke-linejoin:round; stroke-width:4; stroke-opacity:1; fill:none" points="
  1253.44,695.148 1253.51,695.348 1255.55,701.056 1258.3,706.963 1261.67,712.87 1262.91,714.75 1265.7,718.778 1270.35,724.685 1272.31,726.945 1275.7,730.593 
  1281.67,736.5 1281.71,736.538 1288.55,742.407 1291.11,744.505 1296.33,748.315 1300.51,751.272 1305.32,754.222 1309.91,756.995 1316.1,760.129 1319.31,761.747 
  1328.71,765.555 1330.28,766.037 1338.11,768.452 1347.51,770.405 1356.91,771.413 1366.31,771.477 1375.71,770.582 1385.11,768.702 1393.76,766.037 1394.51,765.806 
  1403.91,761.937 1407.4,760.129 1413.31,757.053 1417.86,754.222 1422.71,751.161 1426.63,748.315 1432.12,744.236 1434.31,742.407 1441.16,736.5 1441.52,736.179 
  1447.21,730.593 1450.92,726.698 1452.7,724.685 1457.55,718.778 1460.32,715.056 1461.85,712.87 1465.55,706.963 1468.71,701.056 1469.72,698.791 1471.29,695.148 
  1473.31,689.241 1474.79,683.334 1475.73,677.426 1476.13,671.519 1476,665.612 1475.34,659.704 1474.16,653.797 1472.44,647.89 1470.2,641.982 1469.72,640.922 
  1467.36,636.075 1463.97,630.168 1460.32,624.622 1460.06,624.26 1455.39,618.353 1450.92,613.204 1450.17,612.446 1444.06,606.538 1441.52,604.194 1437.01,600.631 
  1432.12,596.873 1428.74,594.724 1422.71,590.934 1418.46,588.816 1413.31,586.241 1404.29,582.909 1403.91,582.767 1394.51,580.379 1385.11,579.156 1375.71,579.036 
  1366.31,579.97 1356.91,581.926 1353.77,582.909 1347.51,584.749 1338.11,588.415 1337.27,588.816 1328.71,592.722 1325,594.724 1319.31,597.682 1314.37,600.631 
  1309.91,603.236 1304.88,606.538 1300.51,609.4 1296.3,612.446 1291.11,616.276 1288.52,618.353 1281.71,624.066 1281.49,624.26 1275.28,630.168 1272.31,633.251 
  1269.75,636.075 1264.95,641.982 1262.91,644.873 1260.87,647.89 1257.51,653.797 1254.85,659.704 1253.51,663.739 1252.9,665.612 1251.65,671.519 1251.09,677.426 
  1251.2,683.334 1251.99,689.241 1253.44,695.148 
  "/>
<polyline clip-path="url(#clip983)" style="stroke:#fbb51a; stroke-linecap:butt; stroke-linejoin:round; stroke-width:4; stroke-opacity:1; fill:none" points="
  1290.74,683.334 1291.11,685.481 1291.81,689.241 1293.94,695.148 1297.09,701.056 1300.51,705.941 1301.32,706.963 1307.05,712.87 1309.91,715.401 1314.44,718.778 
  1319.31,722.013 1324.33,724.685 1328.71,726.834 1338.11,730.27 1339.45,730.593 1347.51,732.454 1356.91,733.513 1366.31,733.476 1375.71,732.344 1383.09,730.593 
  1385.11,730.095 1394.51,726.641 1398.52,724.685 1403.91,721.876 1408.71,718.778 1413.31,715.522 1416.49,712.87 1422.71,706.991 1422.74,706.963 1427.49,701.056 
  1431.38,695.148 1432.12,693.707 1434.19,689.241 1436.12,683.334 1437.23,677.426 1437.5,671.519 1436.92,665.612 1435.48,659.704 1433.16,653.797 1432.12,651.852 
  1429.67,647.89 1425.02,641.982 1422.71,639.559 1418.7,636.075 1413.31,632.053 1410.06,630.168 1403.91,626.984 1396.46,624.26 1394.51,623.601 1385.11,621.628 
  1375.71,620.834 1366.31,621.117 1356.91,622.401 1349.09,624.26 1347.51,624.642 1338.11,627.868 1332.89,630.168 1328.71,632.105 1321.68,636.075 1319.31,637.521 
  1313.1,641.982 1309.91,644.546 1306.27,647.89 1300.78,653.797 1300.51,654.149 1296.71,659.704 1293.67,665.612 1291.64,671.519 1291.11,674.722 1290.69,677.426 
  1290.74,683.334 
  "/>
<path clip-path="url(#clip980)" d="
M2147.97 1423.18 L2352.76 1423.18 L2352.76 269.877 L2147.97 269.877  Z
  " fill="#ffffff" fill-rule="evenodd" fill-opacity="1"/>
<defs>
  <clipPath id="clip984">
    <rect x="2147" y="269" width="206" height="1154"/>
  </clipPath>
</defs>
<polyline clip-path="url(#clip980)" style="stroke:#000000; stroke-linecap:butt; stroke-linejoin:round; stroke-width:4; stroke-opacity:1; fill:none" points="
  2147.97,1423.18 2352.76,1423.18 
  "/>
<polyline clip-path="url(#clip980)" style="stroke:#000000; stroke-linecap:butt; stroke-linejoin:round; stroke-width:4; stroke-opacity:1; fill:none" points="
  2147.97,1423.18 2147.97,269.877 
  "/>
<polyline clip-path="url(#clip984)" style="stroke:#009af9; stroke-linecap:butt; stroke-linejoin:round; stroke-width:4; stroke-opacity:1; fill:none" points="
  2147.97,1522.18 2147.97,1514.61 2147.97,1507.04 2147.97,1499.47 2147.97,1491.9 2147.98,1484.33 2147.98,1476.76 2148,1469.19 2148.02,1461.62 2148.05,1454.05 
  2148.09,1446.48 2148.16,1438.91 2148.24,1431.34 2148.37,1423.77 2148.53,1416.2 2148.73,1408.63 2148.99,1401.06 2149.31,1393.49 2149.69,1385.92 2150.13,1378.35 
  2150.64,1370.78 2151.21,1363.21 2151.85,1355.64 2152.56,1348.07 2153.32,1340.5 2154.14,1332.93 2155,1325.36 2155.91,1317.79 2156.84,1310.22 2157.79,1302.65 
  2158.74,1295.09 2159.68,1287.52 2160.61,1279.95 2161.52,1272.38 2162.42,1264.81 2163.32,1257.24 2164.26,1249.67 2165.26,1242.1 2166.36,1234.53 2167.58,1226.96 
  2168.96,1219.39 2170.51,1211.82 2172.22,1204.25 2174.08,1196.68 2176.06,1189.11 2178.14,1181.54 2180.26,1173.97 2182.39,1166.4 2184.52,1158.83 2186.63,1151.26 
  2188.72,1143.69 2190.82,1136.12 2192.95,1128.55 2195.15,1120.98 2197.46,1113.41 2199.91,1105.84 2202.52,1098.27 2205.3,1090.7 2208.24,1083.13 2211.33,1075.56 
  2214.54,1067.99 2217.87,1060.42 2221.27,1052.85 2224.75,1045.28 2228.29,1037.71 2231.89,1030.15 2235.57,1022.58 2239.34,1015.01 2243.21,1007.44 2247.19,999.866 
  2251.29,992.297 2255.5,984.727 2259.78,977.157 2264.08,969.588 2268.34,962.018 2272.46,954.448 2276.33,946.878 2279.86,939.309 2282.94,931.739 2285.49,924.169 
  2287.49,916.6 2288.91,909.03 2289.8,901.46 2290.24,893.89 2290.34,886.321 2290.25,878.751 2290.12,871.181 2290.08,863.612 2290.27,856.042 2290.79,848.472 
  2291.7,840.902 2293.02,833.333 2294.75,825.763 2296.86,818.193 2299.28,810.624 2301.96,803.054 2304.84,795.484 2307.86,787.915 2310.96,780.345 2314.11,772.775 
  2317.26,765.205 2320.37,757.636 2323.36,750.066 2326.17,742.496 2328.7,734.927 2330.87,727.357 2332.56,719.787 2333.66,712.217 2334.07,704.648 2333.71,697.078 
  2332.52,689.508 2330.46,681.939 2327.55,674.369 2323.81,666.799 2319.33,659.229 2314.2,651.66 2308.53,644.09 2302.46,636.52 2296.11,628.951 2289.61,621.381 
  2283.1,613.811 2276.68,606.241 2270.46,598.672 2264.5,591.102 2258.84,583.532 2253.5,575.963 2248.48,568.393 2243.72,560.823 2239.18,553.254 2234.78,545.684 
  2230.46,538.114 2226.18,530.544 2221.9,522.975 2217.62,515.405 2213.36,507.835 2209.16,500.266 2205.07,492.696 2201.14,485.126 2197.41,477.556 2193.92,469.987 
  2190.68,462.417 2187.69,454.847 2184.91,447.278 2182.33,439.708 2179.9,432.138 2177.59,424.568 2175.36,416.999 2173.2,409.429 2171.07,401.859 2168.99,394.29 
  2166.96,386.72 2164.99,379.15 2163.11,371.581 2161.33,364.011 2159.67,356.441 2158.17,348.871 2156.82,341.302 2155.64,333.732 2154.63,326.162 2153.78,318.593 
  2153.07,311.023 2152.49,303.453 2152.02,295.883 2151.64,288.314 2151.32,280.744 2151.05,273.174 2150.81,265.605 2150.6,258.035 2150.4,250.465 2150.22,242.895 
  2150.04,235.326 2149.88,227.756 2149.72,220.186 2149.58,212.617 2149.44,205.047 2149.31,197.477 2149.18,189.908 2149.06,182.338 2148.93,174.768 2148.81,167.198 
  2148.69,159.629 2148.58,152.059 2148.47,144.489 2148.37,136.92 2148.29,129.35 2148.21,121.78 2148.15,114.21 2148.1,106.641 2148.06,99.071 2148.03,91.5013 
  2148.01,83.9316 2147.99,76.3619 2147.98,68.7922 2147.98,61.2225 2147.97,53.6527 2147.97,46.083 2147.97,38.5133 2147.97,30.9436 2147.97,23.3739 2147.97,15.8042 
  
  "/>
</svg>
