<?xml version="1.0" encoding="utf-8"?>
<svg xmlns="http://www.w3.org/2000/svg" xmlns:xlink="http://www.w3.org/1999/xlink" width="600" height="400" viewBox="0 0 2400 1600">
<defs>
  <clipPath id="clip470">
    <rect x="0" y="0" width="2400" height="1600"/>
  </clipPath>
</defs>
<path clip-path="url(#clip470)" d="
M0 1600 L2400 1600 L2400 0 L0 0  Z
  " fill="#ffffff" fill-rule="evenodd" fill-opacity="1"/>
<defs>
  <clipPath id="clip471">
    <rect x="480" y="0" width="1681" height="1600"/>
  </clipPath>
</defs>
<defs>
  <clipPath id="clip472">
    <rect x="235" y="47" width="2118" height="1377"/>
  </clipPath>
</defs>
<path clip-path="url(#clip470)" d="
M264.287 1423.18 L2352.76 1423.18 L2352.76 47.2441 L264.287 47.2441  Z
  " fill="#ffffff" fill-rule="evenodd" fill-opacity="1"/>
<defs>
  <clipPath id="clip473">
    <rect x="264" y="47" width="2089" height="1377"/>
  </clipPath>
</defs>
<polyline clip-path="url(#clip473)" style="stroke:#000000; stroke-linecap:butt; stroke-linejoin:round; stroke-width:2; stroke-opacity:0.1; fill:none" points="
  264.287,1423.18 264.287,47.2441 
  "/>
<polyline clip-path="url(#clip473)" style="stroke:#000000; stroke-linecap:butt; stroke-linejoin:round; stroke-width:2; stroke-opacity:0.1; fill:none" points="
  681.981,1423.18 681.981,47.2441 
  "/>
<polyline clip-path="url(#clip473)" style="stroke:#000000; stroke-linecap:butt; stroke-linejoin:round; stroke-width:2; stroke-opacity:0.1; fill:none" points="
  1099.67,1423.18 1099.67,47.2441 
  "/>
<polyline clip-path="url(#clip473)" style="stroke:#000000; stroke-linecap:butt; stroke-linejoin:round; stroke-width:2; stroke-opacity:0.1; fill:none" points="
  1517.37,1423.18 1517.37,47.2441 
  "/>
<polyline clip-path="url(#clip473)" style="stroke:#000000; stroke-linecap:butt; stroke-linejoin:round; stroke-width:2; stroke-opacity:0.1; fill:none" points="
  1935.06,1423.18 1935.06,47.2441 
  "/>
<polyline clip-path="url(#clip473)" style="stroke:#000000; stroke-linecap:butt; stroke-linejoin:round; stroke-width:2; stroke-opacity:0.1; fill:none" points="
  2352.76,1423.18 2352.76,47.2441 
  "/>
<polyline clip-path="url(#clip470)" style="stroke:#000000; stroke-linecap:butt; stroke-linejoin:round; stroke-width:4; stroke-opacity:1; fill:none" points="
  264.287,1423.18 2352.76,1423.18 
  "/>
<polyline clip-path="url(#clip470)" style="stroke:#000000; stroke-linecap:butt; stroke-linejoin:round; stroke-width:4; stroke-opacity:1; fill:none" points="
  264.287,1423.18 264.287,1404.28 
  "/>
<polyline clip-path="url(#clip470)" style="stroke:#000000; stroke-linecap:butt; stroke-linejoin:round; stroke-width:4; stroke-opacity:1; fill:none" points="
  681.981,1423.18 681.981,1404.28 
  "/>
<polyline clip-path="url(#clip470)" style="stroke:#000000; stroke-linecap:butt; stroke-linejoin:round; stroke-width:4; stroke-opacity:1; fill:none" points="
  1099.67,1423.18 1099.67,1404.28 
  "/>
<polyline clip-path="url(#clip470)" style="stroke:#000000; stroke-linecap:butt; stroke-linejoin:round; stroke-width:4; stroke-opacity:1; fill:none" points="
  1517.37,1423.18 1517.37,1404.28 
  "/>
<polyline clip-path="url(#clip470)" style="stroke:#000000; stroke-linecap:butt; stroke-linejoin:round; stroke-width:4; stroke-opacity:1; fill:none" points="
  1935.06,1423.18 1935.06,1404.28 
  "/>
<polyline clip-path="url(#clip470)" style="stroke:#000000; stroke-linecap:butt; stroke-linejoin:round; stroke-width:4; stroke-opacity:1; fill:none" points="
  2352.76,1423.18 2352.76,1404.28 
  "/>
<path clip-path="url(#clip470)" d="M196.429 1454.1 Q192.818 1454.1 190.989 1457.66 Q189.184 1461.2 189.184 1468.33 Q189.184 1475.44 190.989 1479.01 Q192.818 1482.55 196.429 1482.55 Q200.063 1482.55 201.869 1479.01 Q203.697 1475.44 203.697 1468.33 Q203.697 1461.2 201.869 1457.66 Q200.063 1454.1 196.429 1454.1 M196.429 1450.39 Q202.239 1450.39 205.295 1455 Q208.373 1459.58 208.373 1468.33 Q208.373 1477.06 205.295 1481.67 Q202.239 1486.25 196.429 1486.25 Q190.619 1486.25 187.54 1481.67 Q184.485 1477.06 184.485 1468.33 Q184.485 1459.58 187.54 1455 Q190.619 1450.39 196.429 1450.39 Z" fill="#000000" fill-rule="evenodd" fill-opacity="1" /><path clip-path="url(#clip470)" d="M216.591 1479.7 L221.475 1479.7 L221.475 1485.58 L216.591 1485.58 L216.591 1479.7 Z" fill="#000000" fill-rule="evenodd" fill-opacity="1" /><path clip-path="url(#clip470)" d="M241.66 1454.1 Q238.049 1454.1 236.22 1457.66 Q234.415 1461.2 234.415 1468.33 Q234.415 1475.44 236.22 1479.01 Q238.049 1482.55 241.66 1482.55 Q245.294 1482.55 247.1 1479.01 Q248.929 1475.44 248.929 1468.33 Q248.929 1461.2 247.1 1457.66 Q245.294 1454.1 241.66 1454.1 M241.66 1450.39 Q247.47 1450.39 250.526 1455 Q253.605 1459.58 253.605 1468.33 Q253.605 1477.06 250.526 1481.67 Q247.47 1486.25 241.66 1486.25 Q235.85 1486.25 232.771 1481.67 Q229.716 1477.06 229.716 1468.33 Q229.716 1459.58 232.771 1455 Q235.85 1450.39 241.66 1450.39 Z" fill="#000000" fill-rule="evenodd" fill-opacity="1" /><path clip-path="url(#clip470)" d="M271.822 1454.1 Q268.211 1454.1 266.382 1457.66 Q264.577 1461.2 264.577 1468.33 Q264.577 1475.44 266.382 1479.01 Q268.211 1482.55 271.822 1482.55 Q275.456 1482.55 277.262 1479.01 Q279.09 1475.44 279.09 1468.33 Q279.09 1461.2 277.262 1457.66 Q275.456 1454.1 271.822 1454.1 M271.822 1450.39 Q277.632 1450.39 280.688 1455 Q283.766 1459.58 283.766 1468.33 Q283.766 1477.06 280.688 1481.67 Q277.632 1486.25 271.822 1486.25 Q266.012 1486.25 262.933 1481.67 Q259.878 1477.06 259.878 1468.33 Q259.878 1459.58 262.933 1455 Q266.012 1450.39 271.822 1450.39 Z" fill="#000000" fill-rule="evenodd" fill-opacity="1" /><path clip-path="url(#clip470)" d="M301.984 1454.1 Q298.373 1454.1 296.544 1457.66 Q294.739 1461.2 294.739 1468.33 Q294.739 1475.44 296.544 1479.01 Q298.373 1482.55 301.984 1482.55 Q305.618 1482.55 307.424 1479.01 Q309.252 1475.44 309.252 1468.33 Q309.252 1461.2 307.424 1457.66 Q305.618 1454.1 301.984 1454.1 M301.984 1450.39 Q307.794 1450.39 310.85 1455 Q313.928 1459.58 313.928 1468.33 Q313.928 1477.06 310.85 1481.67 Q307.794 1486.25 301.984 1486.25 Q296.174 1486.25 293.095 1481.67 Q290.04 1477.06 290.04 1468.33 Q290.04 1459.58 293.095 1455 Q296.174 1450.39 301.984 1450.39 Z" fill="#000000" fill-rule="evenodd" fill-opacity="1" /><path clip-path="url(#clip470)" d="M332.146 1454.1 Q328.535 1454.1 326.706 1457.66 Q324.9 1461.2 324.9 1468.33 Q324.9 1475.44 326.706 1479.01 Q328.535 1482.55 332.146 1482.55 Q335.78 1482.55 337.586 1479.01 Q339.414 1475.44 339.414 1468.33 Q339.414 1461.2 337.586 1457.66 Q335.78 1454.1 332.146 1454.1 M332.146 1450.39 Q337.956 1450.39 341.011 1455 Q344.09 1459.58 344.09 1468.33 Q344.09 1477.06 341.011 1481.67 Q337.956 1486.25 332.146 1486.25 Q326.336 1486.25 323.257 1481.67 Q320.201 1477.06 320.201 1468.33 Q320.201 1459.58 323.257 1455 Q326.336 1450.39 332.146 1450.39 Z" fill="#000000" fill-rule="evenodd" fill-opacity="1" /><path clip-path="url(#clip470)" d="M614.921 1454.1 Q611.31 1454.1 609.481 1457.66 Q607.676 1461.2 607.676 1468.33 Q607.676 1475.44 609.481 1479.01 Q611.31 1482.55 614.921 1482.55 Q618.555 1482.55 620.361 1479.01 Q622.19 1475.44 622.19 1468.33 Q622.19 1461.2 620.361 1457.66 Q618.555 1454.1 614.921 1454.1 M614.921 1450.39 Q620.731 1450.39 623.787 1455 Q626.866 1459.58 626.866 1468.33 Q626.866 1477.06 623.787 1481.67 Q620.731 1486.25 614.921 1486.25 Q609.111 1486.25 606.032 1481.67 Q602.977 1477.06 602.977 1468.33 Q602.977 1459.58 606.032 1455 Q609.111 1450.39 614.921 1450.39 Z" fill="#000000" fill-rule="evenodd" fill-opacity="1" /><path clip-path="url(#clip470)" d="M635.083 1479.7 L639.967 1479.7 L639.967 1485.58 L635.083 1485.58 L635.083 1479.7 Z" fill="#000000" fill-rule="evenodd" fill-opacity="1" /><path clip-path="url(#clip470)" d="M660.152 1454.1 Q656.541 1454.1 654.713 1457.66 Q652.907 1461.2 652.907 1468.33 Q652.907 1475.44 654.713 1479.01 Q656.541 1482.55 660.152 1482.55 Q663.787 1482.55 665.592 1479.01 Q667.421 1475.44 667.421 1468.33 Q667.421 1461.2 665.592 1457.66 Q663.787 1454.1 660.152 1454.1 M660.152 1450.39 Q665.963 1450.39 669.018 1455 Q672.097 1459.58 672.097 1468.33 Q672.097 1477.06 669.018 1481.67 Q665.963 1486.25 660.152 1486.25 Q654.342 1486.25 651.264 1481.67 Q648.208 1477.06 648.208 1468.33 Q648.208 1459.58 651.264 1455 Q654.342 1450.39 660.152 1450.39 Z" fill="#000000" fill-rule="evenodd" fill-opacity="1" /><path clip-path="url(#clip470)" d="M690.314 1454.1 Q686.703 1454.1 684.875 1457.66 Q683.069 1461.2 683.069 1468.33 Q683.069 1475.44 684.875 1479.01 Q686.703 1482.55 690.314 1482.55 Q693.949 1482.55 695.754 1479.01 Q697.583 1475.44 697.583 1468.33 Q697.583 1461.2 695.754 1457.66 Q693.949 1454.1 690.314 1454.1 M690.314 1450.39 Q696.124 1450.39 699.18 1455 Q702.259 1459.58 702.259 1468.33 Q702.259 1477.06 699.18 1481.67 Q696.124 1486.25 690.314 1486.25 Q684.504 1486.25 681.425 1481.67 Q678.37 1477.06 678.37 1468.33 Q678.37 1459.58 681.425 1455 Q684.504 1450.39 690.314 1450.39 Z" fill="#000000" fill-rule="evenodd" fill-opacity="1" /><path clip-path="url(#clip470)" d="M720.476 1454.1 Q716.865 1454.1 715.036 1457.66 Q713.231 1461.2 713.231 1468.33 Q713.231 1475.44 715.036 1479.01 Q716.865 1482.55 720.476 1482.55 Q724.11 1482.55 725.916 1479.01 Q727.745 1475.44 727.745 1468.33 Q727.745 1461.2 725.916 1457.66 Q724.11 1454.1 720.476 1454.1 M720.476 1450.39 Q726.286 1450.39 729.342 1455 Q732.421 1459.58 732.421 1468.33 Q732.421 1477.06 729.342 1481.67 Q726.286 1486.25 720.476 1486.25 Q714.666 1486.25 711.587 1481.67 Q708.532 1477.06 708.532 1468.33 Q708.532 1459.58 711.587 1455 Q714.666 1450.39 720.476 1450.39 Z" fill="#000000" fill-rule="evenodd" fill-opacity="1" /><path clip-path="url(#clip470)" d="M744.666 1481.64 L760.985 1481.64 L760.985 1485.58 L739.041 1485.58 L739.041 1481.64 Q741.703 1478.89 746.286 1474.26 Q750.893 1469.61 752.073 1468.27 Q754.319 1465.74 755.198 1464.01 Q756.101 1462.25 756.101 1460.56 Q756.101 1457.8 754.157 1456.07 Q752.235 1454.33 749.133 1454.33 Q746.934 1454.33 744.481 1455.09 Q742.05 1455.86 739.272 1457.41 L739.272 1452.69 Q742.096 1451.55 744.55 1450.97 Q747.004 1450.39 749.041 1450.39 Q754.411 1450.39 757.606 1453.08 Q760.8 1455.77 760.8 1460.26 Q760.8 1462.39 759.99 1464.31 Q759.203 1466.2 757.096 1468.8 Q756.518 1469.47 753.416 1472.69 Q750.314 1475.88 744.666 1481.64 Z" fill="#000000" fill-rule="evenodd" fill-opacity="1" /><path clip-path="url(#clip470)" d="M1031.57 1454.1 Q1027.96 1454.1 1026.13 1457.66 Q1024.33 1461.2 1024.33 1468.33 Q1024.33 1475.44 1026.13 1479.01 Q1027.96 1482.55 1031.57 1482.55 Q1035.21 1482.55 1037.01 1479.01 Q1038.84 1475.44 1038.84 1468.33 Q1038.84 1461.2 1037.01 1457.66 Q1035.21 1454.1 1031.57 1454.1 M1031.57 1450.39 Q1037.38 1450.39 1040.44 1455 Q1043.52 1459.58 1043.52 1468.33 Q1043.52 1477.06 1040.44 1481.67 Q1037.38 1486.25 1031.57 1486.25 Q1025.76 1486.25 1022.68 1481.67 Q1019.63 1477.06 1019.63 1468.33 Q1019.63 1459.58 1022.68 1455 Q1025.76 1450.39 1031.57 1450.39 Z" fill="#000000" fill-rule="evenodd" fill-opacity="1" /><path clip-path="url(#clip470)" d="M1051.74 1479.7 L1056.62 1479.7 L1056.62 1485.58 L1051.74 1485.58 L1051.74 1479.7 Z" fill="#000000" fill-rule="evenodd" fill-opacity="1" /><path clip-path="url(#clip470)" d="M1076.8 1454.1 Q1073.19 1454.1 1071.36 1457.66 Q1069.56 1461.2 1069.56 1468.33 Q1069.56 1475.44 1071.36 1479.01 Q1073.19 1482.55 1076.8 1482.55 Q1080.44 1482.55 1082.24 1479.01 Q1084.07 1475.44 1084.07 1468.33 Q1084.07 1461.2 1082.24 1457.66 Q1080.44 1454.1 1076.8 1454.1 M1076.8 1450.39 Q1082.61 1450.39 1085.67 1455 Q1088.75 1459.58 1088.75 1468.33 Q1088.75 1477.06 1085.67 1481.67 Q1082.61 1486.25 1076.8 1486.25 Q1070.99 1486.25 1067.92 1481.67 Q1064.86 1477.06 1064.86 1468.33 Q1064.86 1459.58 1067.92 1455 Q1070.99 1450.39 1076.8 1450.39 Z" fill="#000000" fill-rule="evenodd" fill-opacity="1" /><path clip-path="url(#clip470)" d="M1106.97 1454.1 Q1103.36 1454.1 1101.53 1457.66 Q1099.72 1461.2 1099.72 1468.33 Q1099.72 1475.44 1101.53 1479.01 Q1103.36 1482.55 1106.97 1482.55 Q1110.6 1482.55 1112.41 1479.01 Q1114.23 1475.44 1114.23 1468.33 Q1114.23 1461.2 1112.41 1457.66 Q1110.6 1454.1 1106.97 1454.1 M1106.97 1450.39 Q1112.78 1450.39 1115.83 1455 Q1118.91 1459.58 1118.91 1468.33 Q1118.91 1477.06 1115.83 1481.67 Q1112.78 1486.25 1106.97 1486.25 Q1101.16 1486.25 1098.08 1481.67 Q1095.02 1477.06 1095.02 1468.33 Q1095.02 1459.58 1098.08 1455 Q1101.16 1450.39 1106.97 1450.39 Z" fill="#000000" fill-rule="evenodd" fill-opacity="1" /><path clip-path="url(#clip470)" d="M1137.13 1454.1 Q1133.52 1454.1 1131.69 1457.66 Q1129.88 1461.2 1129.88 1468.33 Q1129.88 1475.44 1131.69 1479.01 Q1133.52 1482.55 1137.13 1482.55 Q1140.76 1482.55 1142.57 1479.01 Q1144.4 1475.44 1144.4 1468.33 Q1144.4 1461.2 1142.57 1457.66 Q1140.76 1454.1 1137.13 1454.1 M1137.13 1450.39 Q1142.94 1450.39 1145.99 1455 Q1149.07 1459.58 1149.07 1468.33 Q1149.07 1477.06 1145.99 1481.67 Q1142.94 1486.25 1137.13 1486.25 Q1131.32 1486.25 1128.24 1481.67 Q1125.18 1477.06 1125.18 1468.33 Q1125.18 1459.58 1128.24 1455 Q1131.32 1450.39 1137.13 1450.39 Z" fill="#000000" fill-rule="evenodd" fill-opacity="1" /><path clip-path="url(#clip470)" d="M1170.14 1455.09 L1158.33 1473.54 L1170.14 1473.54 L1170.14 1455.09 M1168.91 1451.02 L1174.79 1451.02 L1174.79 1473.54 L1179.72 1473.54 L1179.72 1477.43 L1174.79 1477.43 L1174.79 1485.58 L1170.14 1485.58 L1170.14 1477.43 L1154.54 1477.43 L1154.54 1472.92 L1168.91 1451.02 Z" fill="#000000" fill-rule="evenodd" fill-opacity="1" /><path clip-path="url(#clip470)" d="M1449.43 1454.1 Q1445.82 1454.1 1443.99 1457.66 Q1442.18 1461.2 1442.18 1468.33 Q1442.18 1475.44 1443.99 1479.01 Q1445.82 1482.55 1449.43 1482.55 Q1453.06 1482.55 1454.87 1479.01 Q1456.7 1475.44 1456.7 1468.33 Q1456.7 1461.2 1454.87 1457.66 Q1453.06 1454.1 1449.43 1454.1 M1449.43 1450.39 Q1455.24 1450.39 1458.29 1455 Q1461.37 1459.58 1461.37 1468.33 Q1461.37 1477.06 1458.29 1481.67 Q1455.24 1486.25 1449.43 1486.25 Q1443.62 1486.25 1440.54 1481.67 Q1437.48 1477.06 1437.48 1468.33 Q1437.48 1459.58 1440.54 1455 Q1443.62 1450.39 1449.43 1450.39 Z" fill="#000000" fill-rule="evenodd" fill-opacity="1" /><path clip-path="url(#clip470)" d="M1469.59 1479.7 L1474.48 1479.7 L1474.48 1485.58 L1469.59 1485.58 L1469.59 1479.7 Z" fill="#000000" fill-rule="evenodd" fill-opacity="1" /><path clip-path="url(#clip470)" d="M1494.66 1454.1 Q1491.05 1454.1 1489.22 1457.66 Q1487.41 1461.2 1487.41 1468.33 Q1487.41 1475.44 1489.22 1479.01 Q1491.05 1482.55 1494.66 1482.55 Q1498.29 1482.55 1500.1 1479.01 Q1501.93 1475.44 1501.93 1468.33 Q1501.93 1461.2 1500.1 1457.66 Q1498.29 1454.1 1494.66 1454.1 M1494.66 1450.39 Q1500.47 1450.39 1503.53 1455 Q1506.6 1459.58 1506.6 1468.33 Q1506.6 1477.06 1503.53 1481.67 Q1500.47 1486.25 1494.66 1486.25 Q1488.85 1486.25 1485.77 1481.67 Q1482.72 1477.06 1482.72 1468.33 Q1482.72 1459.58 1485.77 1455 Q1488.85 1450.39 1494.66 1450.39 Z" fill="#000000" fill-rule="evenodd" fill-opacity="1" /><path clip-path="url(#clip470)" d="M1524.82 1454.1 Q1521.21 1454.1 1519.38 1457.66 Q1517.58 1461.2 1517.58 1468.33 Q1517.58 1475.44 1519.38 1479.01 Q1521.21 1482.55 1524.82 1482.55 Q1528.46 1482.55 1530.26 1479.01 Q1532.09 1475.44 1532.09 1468.33 Q1532.09 1461.2 1530.26 1457.66 Q1528.46 1454.1 1524.82 1454.1 M1524.82 1450.39 Q1530.63 1450.39 1533.69 1455 Q1536.77 1459.58 1536.77 1468.33 Q1536.77 1477.06 1533.69 1481.67 Q1530.63 1486.25 1524.82 1486.25 Q1519.01 1486.25 1515.93 1481.67 Q1512.88 1477.06 1512.88 1468.33 Q1512.88 1459.58 1515.93 1455 Q1519.01 1450.39 1524.82 1450.39 Z" fill="#000000" fill-rule="evenodd" fill-opacity="1" /><path clip-path="url(#clip470)" d="M1554.98 1454.1 Q1551.37 1454.1 1549.54 1457.66 Q1547.74 1461.2 1547.74 1468.33 Q1547.74 1475.44 1549.54 1479.01 Q1551.37 1482.55 1554.98 1482.55 Q1558.62 1482.55 1560.42 1479.01 Q1562.25 1475.44 1562.25 1468.33 Q1562.25 1461.2 1560.42 1457.66 Q1558.62 1454.1 1554.98 1454.1 M1554.98 1450.39 Q1560.79 1450.39 1563.85 1455 Q1566.93 1459.58 1566.93 1468.33 Q1566.93 1477.06 1563.85 1481.67 Q1560.79 1486.25 1554.98 1486.25 Q1549.17 1486.25 1546.1 1481.67 Q1543.04 1477.06 1543.04 1468.33 Q1543.04 1459.58 1546.1 1455 Q1549.17 1450.39 1554.98 1450.39 Z" fill="#000000" fill-rule="evenodd" fill-opacity="1" /><path clip-path="url(#clip470)" d="M1585.72 1466.44 Q1582.58 1466.44 1580.72 1468.59 Q1578.9 1470.74 1578.9 1474.49 Q1578.9 1478.22 1580.72 1480.39 Q1582.58 1482.55 1585.72 1482.55 Q1588.87 1482.55 1590.7 1480.39 Q1592.55 1478.22 1592.55 1474.49 Q1592.55 1470.74 1590.7 1468.59 Q1588.87 1466.44 1585.72 1466.44 M1595.01 1451.78 L1595.01 1456.04 Q1593.25 1455.21 1591.44 1454.77 Q1589.66 1454.33 1587.9 1454.33 Q1583.27 1454.33 1580.82 1457.45 Q1578.39 1460.58 1578.04 1466.9 Q1579.41 1464.89 1581.47 1463.82 Q1583.53 1462.73 1586 1462.73 Q1591.21 1462.73 1594.22 1465.9 Q1597.25 1469.05 1597.25 1474.49 Q1597.25 1479.82 1594.1 1483.03 Q1590.96 1486.25 1585.72 1486.25 Q1579.73 1486.25 1576.56 1481.67 Q1573.39 1477.06 1573.39 1468.33 Q1573.39 1460.14 1577.28 1455.28 Q1581.16 1450.39 1587.72 1450.39 Q1589.47 1450.39 1591.26 1450.74 Q1593.06 1451.09 1595.01 1451.78 Z" fill="#000000" fill-rule="evenodd" fill-opacity="1" /><path clip-path="url(#clip470)" d="M1867.25 1454.1 Q1863.64 1454.1 1861.81 1457.66 Q1860 1461.2 1860 1468.33 Q1860 1475.44 1861.81 1479.01 Q1863.64 1482.55 1867.25 1482.55 Q1870.88 1482.55 1872.69 1479.01 Q1874.52 1475.44 1874.52 1468.33 Q1874.52 1461.2 1872.69 1457.66 Q1870.88 1454.1 1867.25 1454.1 M1867.25 1450.39 Q1873.06 1450.39 1876.12 1455 Q1879.19 1459.58 1879.19 1468.33 Q1879.19 1477.06 1876.12 1481.67 Q1873.06 1486.25 1867.25 1486.25 Q1861.44 1486.25 1858.36 1481.67 Q1855.31 1477.06 1855.31 1468.33 Q1855.31 1459.58 1858.36 1455 Q1861.44 1450.39 1867.25 1450.39 Z" fill="#000000" fill-rule="evenodd" fill-opacity="1" /><path clip-path="url(#clip470)" d="M1887.41 1479.7 L1892.3 1479.7 L1892.3 1485.58 L1887.41 1485.58 L1887.41 1479.7 Z" fill="#000000" fill-rule="evenodd" fill-opacity="1" /><path clip-path="url(#clip470)" d="M1912.48 1454.1 Q1908.87 1454.1 1907.04 1457.66 Q1905.24 1461.2 1905.24 1468.33 Q1905.24 1475.44 1907.04 1479.01 Q1908.87 1482.55 1912.48 1482.55 Q1916.12 1482.55 1917.92 1479.01 Q1919.75 1475.44 1919.75 1468.33 Q1919.75 1461.2 1917.92 1457.66 Q1916.12 1454.1 1912.48 1454.1 M1912.48 1450.39 Q1918.29 1450.39 1921.35 1455 Q1924.43 1459.58 1924.43 1468.33 Q1924.43 1477.06 1921.35 1481.67 Q1918.29 1486.25 1912.48 1486.25 Q1906.67 1486.25 1903.59 1481.67 Q1900.54 1477.06 1900.54 1468.33 Q1900.54 1459.58 1903.59 1455 Q1906.67 1450.39 1912.48 1450.39 Z" fill="#000000" fill-rule="evenodd" fill-opacity="1" /><path clip-path="url(#clip470)" d="M1942.64 1454.1 Q1939.03 1454.1 1937.2 1457.66 Q1935.4 1461.2 1935.4 1468.33 Q1935.4 1475.44 1937.2 1479.01 Q1939.03 1482.55 1942.64 1482.55 Q1946.28 1482.55 1948.08 1479.01 Q1949.91 1475.44 1949.91 1468.33 Q1949.91 1461.2 1948.08 1457.66 Q1946.28 1454.1 1942.64 1454.1 M1942.64 1450.39 Q1948.45 1450.39 1951.51 1455 Q1954.59 1459.58 1954.59 1468.33 Q1954.59 1477.06 1951.51 1481.67 Q1948.45 1486.25 1942.64 1486.25 Q1936.83 1486.25 1933.75 1481.67 Q1930.7 1477.06 1930.7 1468.33 Q1930.7 1459.58 1933.75 1455 Q1936.83 1450.39 1942.64 1450.39 Z" fill="#000000" fill-rule="evenodd" fill-opacity="1" /><path clip-path="url(#clip470)" d="M1972.81 1454.1 Q1969.19 1454.1 1967.37 1457.66 Q1965.56 1461.2 1965.56 1468.33 Q1965.56 1475.44 1967.37 1479.01 Q1969.19 1482.55 1972.81 1482.55 Q1976.44 1482.55 1978.24 1479.01 Q1980.07 1475.44 1980.07 1468.33 Q1980.07 1461.2 1978.24 1457.66 Q1976.44 1454.1 1972.81 1454.1 M1972.81 1450.39 Q1978.62 1450.39 1981.67 1455 Q1984.75 1459.58 1984.75 1468.33 Q1984.75 1477.06 1981.67 1481.67 Q1978.62 1486.25 1972.81 1486.25 Q1966.99 1486.25 1963.92 1481.67 Q1960.86 1477.06 1960.86 1468.33 Q1960.86 1459.58 1963.92 1455 Q1966.99 1450.39 1972.81 1450.39 Z" fill="#000000" fill-rule="evenodd" fill-opacity="1" /><path clip-path="url(#clip470)" d="M2002.97 1469.17 Q1999.63 1469.17 1997.71 1470.95 Q1995.81 1472.73 1995.81 1475.86 Q1995.81 1478.98 1997.71 1480.77 Q1999.63 1482.55 2002.97 1482.55 Q2006.3 1482.55 2008.22 1480.77 Q2010.14 1478.96 2010.14 1475.86 Q2010.14 1472.73 2008.22 1470.95 Q2006.32 1469.17 2002.97 1469.17 M1998.29 1467.18 Q1995.28 1466.44 1993.59 1464.38 Q1991.93 1462.32 1991.93 1459.35 Q1991.93 1455.21 1994.87 1452.8 Q1997.83 1450.39 2002.97 1450.39 Q2008.13 1450.39 2011.07 1452.8 Q2014.01 1455.21 2014.01 1459.35 Q2014.01 1462.32 2012.32 1464.38 Q2010.65 1466.44 2007.67 1467.18 Q2011.05 1467.96 2012.92 1470.26 Q2014.82 1472.55 2014.82 1475.86 Q2014.82 1480.88 2011.74 1483.57 Q2008.68 1486.25 2002.97 1486.25 Q1997.25 1486.25 1994.17 1483.57 Q1991.12 1480.88 1991.12 1475.86 Q1991.12 1472.55 1993.01 1470.26 Q1994.91 1467.96 1998.29 1467.18 M1996.58 1459.79 Q1996.58 1462.48 1998.24 1463.98 Q1999.93 1465.49 2002.97 1465.49 Q2005.98 1465.49 2007.67 1463.98 Q2009.38 1462.48 2009.38 1459.79 Q2009.38 1457.11 2007.67 1455.6 Q2005.98 1454.1 2002.97 1454.1 Q1999.93 1454.1 1998.24 1455.6 Q1996.58 1457.11 1996.58 1459.79 Z" fill="#000000" fill-rule="evenodd" fill-opacity="1" /><path clip-path="url(#clip470)" d="M2284.9 1454.1 Q2281.29 1454.1 2279.46 1457.66 Q2277.65 1461.2 2277.65 1468.33 Q2277.65 1475.44 2279.46 1479.01 Q2281.29 1482.55 2284.9 1482.55 Q2288.53 1482.55 2290.34 1479.01 Q2292.17 1475.44 2292.17 1468.33 Q2292.17 1461.2 2290.34 1457.66 Q2288.53 1454.1 2284.9 1454.1 M2284.9 1450.39 Q2290.71 1450.39 2293.76 1455 Q2296.84 1459.58 2296.84 1468.33 Q2296.84 1477.06 2293.76 1481.67 Q2290.71 1486.25 2284.9 1486.25 Q2279.09 1486.25 2276.01 1481.67 Q2272.95 1477.06 2272.95 1468.33 Q2272.95 1459.58 2276.01 1455 Q2279.09 1450.39 2284.9 1450.39 Z" fill="#000000" fill-rule="evenodd" fill-opacity="1" /><path clip-path="url(#clip470)" d="M2305.06 1479.7 L2309.94 1479.7 L2309.94 1485.58 L2305.06 1485.58 L2305.06 1479.7 Z" fill="#000000" fill-rule="evenodd" fill-opacity="1" /><path clip-path="url(#clip470)" d="M2330.13 1454.1 Q2326.52 1454.1 2324.69 1457.66 Q2322.88 1461.2 2322.88 1468.33 Q2322.88 1475.44 2324.69 1479.01 Q2326.52 1482.55 2330.13 1482.55 Q2333.76 1482.55 2335.57 1479.01 Q2337.4 1475.44 2337.4 1468.33 Q2337.4 1461.2 2335.57 1457.66 Q2333.76 1454.1 2330.13 1454.1 M2330.13 1450.39 Q2335.94 1450.39 2338.99 1455 Q2342.07 1459.58 2342.07 1468.33 Q2342.07 1477.06 2338.99 1481.67 Q2335.94 1486.25 2330.13 1486.25 Q2324.32 1486.25 2321.24 1481.67 Q2318.18 1477.06 2318.18 1468.33 Q2318.18 1459.58 2321.24 1455 Q2324.32 1450.39 2330.13 1450.39 Z" fill="#000000" fill-rule="evenodd" fill-opacity="1" /><path clip-path="url(#clip470)" d="M2360.29 1454.1 Q2356.68 1454.1 2354.85 1457.66 Q2353.05 1461.2 2353.05 1468.33 Q2353.05 1475.44 2354.85 1479.01 Q2356.68 1482.55 2360.29 1482.55 Q2363.92 1482.55 2365.73 1479.01 Q2367.56 1475.44 2367.56 1468.33 Q2367.56 1461.2 2365.73 1457.66 Q2363.92 1454.1 2360.29 1454.1 M2360.29 1450.39 Q2366.1 1450.39 2369.16 1455 Q2372.23 1459.58 2372.23 1468.33 Q2372.23 1477.06 2369.16 1481.67 Q2366.1 1486.25 2360.29 1486.25 Q2354.48 1486.25 2351.4 1481.67 Q2348.35 1477.06 2348.35 1468.33 Q2348.35 1459.58 2351.4 1455 Q2354.48 1450.39 2360.29 1450.39 Z" fill="#000000" fill-rule="evenodd" fill-opacity="1" /><path clip-path="url(#clip470)" d="M2381.26 1481.64 L2388.9 1481.64 L2388.9 1455.28 L2380.59 1456.95 L2380.59 1452.69 L2388.86 1451.02 L2393.53 1451.02 L2393.53 1481.64 L2401.17 1481.64 L2401.17 1485.58 L2381.26 1485.58 L2381.26 1481.64 Z" fill="#000000" fill-rule="evenodd" fill-opacity="1" /><path clip-path="url(#clip470)" d="M2420.61 1454.1 Q2417 1454.1 2415.17 1457.66 Q2413.37 1461.2 2413.37 1468.33 Q2413.37 1475.44 2415.17 1479.01 Q2417 1482.55 2420.61 1482.55 Q2424.25 1482.55 2426.05 1479.01 Q2427.88 1475.44 2427.88 1468.33 Q2427.88 1461.2 2426.05 1457.66 Q2424.25 1454.1 2420.61 1454.1 M2420.61 1450.39 Q2426.42 1450.39 2429.48 1455 Q2432.56 1459.58 2432.56 1468.33 Q2432.56 1477.06 2429.48 1481.67 Q2426.42 1486.25 2420.61 1486.25 Q2414.8 1486.25 2411.73 1481.67 Q2408.67 1477.06 2408.67 1468.33 Q2408.67 1459.58 2411.73 1455 Q2414.8 1450.39 2420.61 1450.39 Z" fill="#000000" fill-rule="evenodd" fill-opacity="1" /><path clip-path="url(#clip470)" d="M1323.65 1554.84 Q1323.65 1558.09 1321.98 1561.34 Q1320.3 1564.6 1317.57 1567.11 Q1314.83 1569.59 1311.09 1571.2 Q1307.36 1572.81 1303.46 1572.94 L1300.95 1582.76 Q1300.46 1585.14 1300.21 1585.4 Q1299.95 1585.66 1299.56 1585.66 Q1298.76 1585.66 1298.76 1584.92 Q1298.76 1584.69 1300.21 1579.12 L1301.75 1572.94 Q1295.89 1572.62 1292.48 1569.23 Q1289.06 1565.85 1289.06 1560.99 Q1289.06 1557.7 1290.74 1554.45 Q1292.45 1551.17 1295.18 1548.69 Q1297.95 1546.21 1301.69 1544.63 Q1305.42 1543.05 1309.26 1542.92 L1313.09 1527.69 Q1313.28 1526.82 1313.44 1526.59 Q1313.6 1526.37 1314.09 1526.37 Q1314.44 1526.37 1314.63 1526.53 Q1314.83 1526.69 1314.83 1526.85 L1314.86 1527.01 L1314.67 1527.95 L1310.96 1542.92 Q1314.25 1543.15 1316.79 1544.31 Q1319.34 1545.47 1320.79 1547.21 Q1322.24 1548.91 1322.94 1550.84 Q1323.65 1552.78 1323.65 1554.84 M1308.87 1544.37 Q1305.33 1544.69 1302.33 1546.43 Q1299.34 1548.17 1297.4 1550.75 Q1295.47 1553.29 1294.41 1556.35 Q1293.35 1559.38 1293.35 1562.37 Q1293.35 1564.73 1294.12 1566.53 Q1294.92 1568.33 1296.25 1569.36 Q1297.57 1570.36 1299.02 1570.91 Q1300.5 1571.42 1302.07 1571.49 L1308.87 1544.37 M1319.34 1553.45 Q1319.34 1549.27 1316.92 1546.92 Q1314.51 1544.56 1310.58 1544.37 L1303.78 1571.49 Q1306.65 1571.26 1309.16 1570.07 Q1311.7 1568.85 1313.54 1567.04 Q1315.38 1565.21 1316.7 1562.95 Q1318.02 1560.67 1318.66 1558.25 Q1319.34 1555.8 1319.34 1553.45 Z" fill="#000000" fill-rule="evenodd" fill-opacity="1" /><polyline clip-path="url(#clip473)" style="stroke:#000000; stroke-linecap:butt; stroke-linejoin:round; stroke-width:2; stroke-opacity:0.1; fill:none" points="
  264.287,1384.24 2352.76,1384.24 
  "/>
<polyline clip-path="url(#clip473)" style="stroke:#000000; stroke-linecap:butt; stroke-linejoin:round; stroke-width:2; stroke-opacity:0.1; fill:none" points="
  264.287,1038.95 2352.76,1038.95 
  "/>
<polyline clip-path="url(#clip473)" style="stroke:#000000; stroke-linecap:butt; stroke-linejoin:round; stroke-width:2; stroke-opacity:0.1; fill:none" points="
  264.287,693.659 2352.76,693.659 
  "/>
<polyline clip-path="url(#clip473)" style="stroke:#000000; stroke-linecap:butt; stroke-linejoin:round; stroke-width:2; stroke-opacity:0.1; fill:none" points="
  264.287,348.368 2352.76,348.368 
  "/>
<polyline clip-path="url(#clip470)" style="stroke:#000000; stroke-linecap:butt; stroke-linejoin:round; stroke-width:4; stroke-opacity:1; fill:none" points="
  264.287,1423.18 264.287,47.2441 
  "/>
<polyline clip-path="url(#clip470)" style="stroke:#000000; stroke-linecap:butt; stroke-linejoin:round; stroke-width:4; stroke-opacity:1; fill:none" points="
  264.287,1384.24 283.185,1384.24 
  "/>
<polyline clip-path="url(#clip470)" style="stroke:#000000; stroke-linecap:butt; stroke-linejoin:round; stroke-width:4; stroke-opacity:1; fill:none" points="
  264.287,1038.95 283.185,1038.95 
  "/>
<polyline clip-path="url(#clip470)" style="stroke:#000000; stroke-linecap:butt; stroke-linejoin:round; stroke-width:4; stroke-opacity:1; fill:none" points="
  264.287,693.659 283.185,693.659 
  "/>
<polyline clip-path="url(#clip470)" style="stroke:#000000; stroke-linecap:butt; stroke-linejoin:round; stroke-width:4; stroke-opacity:1; fill:none" points="
  264.287,348.368 283.185,348.368 
  "/>
<path clip-path="url(#clip470)" d="M216.343 1370.04 Q212.732 1370.04 210.903 1373.61 Q209.098 1377.15 209.098 1384.28 Q209.098 1391.38 210.903 1394.95 Q212.732 1398.49 216.343 1398.49 Q219.977 1398.49 221.783 1394.95 Q223.611 1391.38 223.611 1384.28 Q223.611 1377.15 221.783 1373.61 Q219.977 1370.04 216.343 1370.04 M216.343 1366.34 Q222.153 1366.34 225.209 1370.94 Q228.287 1375.53 228.287 1384.28 Q228.287 1393 225.209 1397.61 Q222.153 1402.19 216.343 1402.19 Q210.533 1402.19 207.454 1397.61 Q204.399 1393 204.399 1384.28 Q204.399 1375.53 207.454 1370.94 Q210.533 1366.34 216.343 1366.34 Z" fill="#000000" fill-rule="evenodd" fill-opacity="1" /><path clip-path="url(#clip470)" d="M116.668 1052.3 L124.306 1052.3 L124.306 1025.93 L115.996 1027.6 L115.996 1023.34 L124.26 1021.67 L128.936 1021.67 L128.936 1052.3 L136.575 1052.3 L136.575 1056.23 L116.668 1056.23 L116.668 1052.3 Z" fill="#000000" fill-rule="evenodd" fill-opacity="1" /><path clip-path="url(#clip470)" d="M156.019 1024.75 Q152.408 1024.75 150.579 1028.31 Q148.774 1031.86 148.774 1038.99 Q148.774 1046.09 150.579 1049.66 Q152.408 1053.2 156.019 1053.2 Q159.653 1053.2 161.459 1049.66 Q163.288 1046.09 163.288 1038.99 Q163.288 1031.86 161.459 1028.31 Q159.653 1024.75 156.019 1024.75 M156.019 1021.05 Q161.829 1021.05 164.885 1025.65 Q167.964 1030.24 167.964 1038.99 Q167.964 1047.71 164.885 1052.32 Q161.829 1056.9 156.019 1056.9 Q150.209 1056.9 147.13 1052.32 Q144.075 1047.71 144.075 1038.99 Q144.075 1030.24 147.13 1025.65 Q150.209 1021.05 156.019 1021.05 Z" fill="#000000" fill-rule="evenodd" fill-opacity="1" /><path clip-path="url(#clip470)" d="M186.181 1024.75 Q182.57 1024.75 180.741 1028.31 Q178.936 1031.86 178.936 1038.99 Q178.936 1046.09 180.741 1049.66 Q182.57 1053.2 186.181 1053.2 Q189.815 1053.2 191.621 1049.66 Q193.45 1046.09 193.45 1038.99 Q193.45 1031.86 191.621 1028.31 Q189.815 1024.75 186.181 1024.75 M186.181 1021.05 Q191.991 1021.05 195.047 1025.65 Q198.125 1030.24 198.125 1038.99 Q198.125 1047.71 195.047 1052.32 Q191.991 1056.9 186.181 1056.9 Q180.371 1056.9 177.292 1052.32 Q174.237 1047.71 174.237 1038.99 Q174.237 1030.24 177.292 1025.65 Q180.371 1021.05 186.181 1021.05 Z" fill="#000000" fill-rule="evenodd" fill-opacity="1" /><path clip-path="url(#clip470)" d="M216.343 1024.75 Q212.732 1024.75 210.903 1028.31 Q209.098 1031.86 209.098 1038.99 Q209.098 1046.09 210.903 1049.66 Q212.732 1053.2 216.343 1053.2 Q219.977 1053.2 221.783 1049.66 Q223.611 1046.09 223.611 1038.99 Q223.611 1031.86 221.783 1028.31 Q219.977 1024.75 216.343 1024.75 M216.343 1021.05 Q222.153 1021.05 225.209 1025.65 Q228.287 1030.24 228.287 1038.99 Q228.287 1047.71 225.209 1052.32 Q222.153 1056.9 216.343 1056.9 Q210.533 1056.9 207.454 1052.32 Q204.399 1047.71 204.399 1038.99 Q204.399 1030.24 207.454 1025.65 Q210.533 1021.05 216.343 1021.05 Z" fill="#000000" fill-rule="evenodd" fill-opacity="1" /><path clip-path="url(#clip470)" d="M119.885 707.004 L136.204 707.004 L136.204 710.939 L114.26 710.939 L114.26 707.004 Q116.922 704.25 121.505 699.62 Q126.112 694.967 127.292 693.625 Q129.538 691.102 130.417 689.366 Q131.32 687.606 131.32 685.916 Q131.32 683.162 129.376 681.426 Q127.455 679.69 124.353 679.69 Q122.154 679.69 119.7 680.454 Q117.269 681.217 114.492 682.768 L114.492 678.046 Q117.316 676.912 119.769 676.333 Q122.223 675.754 124.26 675.754 Q129.63 675.754 132.825 678.44 Q136.019 681.125 136.019 685.616 Q136.019 687.745 135.209 689.666 Q134.422 691.565 132.316 694.157 Q131.737 694.828 128.635 698.046 Q125.533 701.24 119.885 707.004 Z" fill="#000000" fill-rule="evenodd" fill-opacity="1" /><path clip-path="url(#clip470)" d="M156.019 679.458 Q152.408 679.458 150.579 683.023 Q148.774 686.565 148.774 693.694 Q148.774 700.801 150.579 704.365 Q152.408 707.907 156.019 707.907 Q159.653 707.907 161.459 704.365 Q163.288 700.801 163.288 693.694 Q163.288 686.565 161.459 683.023 Q159.653 679.458 156.019 679.458 M156.019 675.754 Q161.829 675.754 164.885 680.361 Q167.964 684.944 167.964 693.694 Q167.964 702.421 164.885 707.027 Q161.829 711.611 156.019 711.611 Q150.209 711.611 147.13 707.027 Q144.075 702.421 144.075 693.694 Q144.075 684.944 147.13 680.361 Q150.209 675.754 156.019 675.754 Z" fill="#000000" fill-rule="evenodd" fill-opacity="1" /><path clip-path="url(#clip470)" d="M186.181 679.458 Q182.57 679.458 180.741 683.023 Q178.936 686.565 178.936 693.694 Q178.936 700.801 180.741 704.365 Q182.57 707.907 186.181 707.907 Q189.815 707.907 191.621 704.365 Q193.45 700.801 193.45 693.694 Q193.45 686.565 191.621 683.023 Q189.815 679.458 186.181 679.458 M186.181 675.754 Q191.991 675.754 195.047 680.361 Q198.125 684.944 198.125 693.694 Q198.125 702.421 195.047 707.027 Q191.991 711.611 186.181 711.611 Q180.371 711.611 177.292 707.027 Q174.237 702.421 174.237 693.694 Q174.237 684.944 177.292 680.361 Q180.371 675.754 186.181 675.754 Z" fill="#000000" fill-rule="evenodd" fill-opacity="1" /><path clip-path="url(#clip470)" d="M216.343 679.458 Q212.732 679.458 210.903 683.023 Q209.098 686.565 209.098 693.694 Q209.098 700.801 210.903 704.365 Q212.732 707.907 216.343 707.907 Q219.977 707.907 221.783 704.365 Q223.611 700.801 223.611 693.694 Q223.611 686.565 221.783 683.023 Q219.977 679.458 216.343 679.458 M216.343 675.754 Q222.153 675.754 225.209 680.361 Q228.287 684.944 228.287 693.694 Q228.287 702.421 225.209 707.027 Q222.153 711.611 216.343 711.611 Q210.533 711.611 207.454 707.027 Q204.399 702.421 204.399 693.694 Q204.399 684.944 207.454 680.361 Q210.533 675.754 216.343 675.754 Z" fill="#000000" fill-rule="evenodd" fill-opacity="1" /><path clip-path="url(#clip470)" d="M130.024 347.014 Q133.38 347.731 135.255 350 Q137.154 352.268 137.154 355.602 Q137.154 360.717 133.635 363.518 Q130.117 366.319 123.635 366.319 Q121.459 366.319 119.144 365.879 Q116.853 365.463 114.399 364.606 L114.399 360.092 Q116.343 361.227 118.658 361.805 Q120.973 362.384 123.496 362.384 Q127.894 362.384 130.186 360.648 Q132.501 358.912 132.501 355.602 Q132.501 352.546 130.348 350.833 Q128.218 349.097 124.399 349.097 L120.371 349.097 L120.371 345.255 L124.584 345.255 Q128.033 345.255 129.862 343.889 Q131.691 342.5 131.691 339.907 Q131.691 337.245 129.792 335.833 Q127.917 334.398 124.399 334.398 Q122.478 334.398 120.279 334.815 Q118.08 335.231 115.441 336.111 L115.441 331.944 Q118.103 331.204 120.418 330.833 Q122.755 330.463 124.816 330.463 Q130.14 330.463 133.242 332.893 Q136.343 335.301 136.343 339.421 Q136.343 342.292 134.7 344.282 Q133.056 346.25 130.024 347.014 Z" fill="#000000" fill-rule="evenodd" fill-opacity="1" /><path clip-path="url(#clip470)" d="M156.019 334.167 Q152.408 334.167 150.579 337.731 Q148.774 341.273 148.774 348.403 Q148.774 355.509 150.579 359.074 Q152.408 362.616 156.019 362.616 Q159.653 362.616 161.459 359.074 Q163.288 355.509 163.288 348.403 Q163.288 341.273 161.459 337.731 Q159.653 334.167 156.019 334.167 M156.019 330.463 Q161.829 330.463 164.885 335.069 Q167.964 339.653 167.964 348.403 Q167.964 357.129 164.885 361.736 Q161.829 366.319 156.019 366.319 Q150.209 366.319 147.13 361.736 Q144.075 357.129 144.075 348.403 Q144.075 339.653 147.13 335.069 Q150.209 330.463 156.019 330.463 Z" fill="#000000" fill-rule="evenodd" fill-opacity="1" /><path clip-path="url(#clip470)" d="M186.181 334.167 Q182.57 334.167 180.741 337.731 Q178.936 341.273 178.936 348.403 Q178.936 355.509 180.741 359.074 Q182.57 362.616 186.181 362.616 Q189.815 362.616 191.621 359.074 Q193.45 355.509 193.45 348.403 Q193.45 341.273 191.621 337.731 Q189.815 334.167 186.181 334.167 M186.181 330.463 Q191.991 330.463 195.047 335.069 Q198.125 339.653 198.125 348.403 Q198.125 357.129 195.047 361.736 Q191.991 366.319 186.181 366.319 Q180.371 366.319 177.292 361.736 Q174.237 357.129 174.237 348.403 Q174.237 339.653 177.292 335.069 Q180.371 330.463 186.181 330.463 Z" fill="#000000" fill-rule="evenodd" fill-opacity="1" /><path clip-path="url(#clip470)" d="M216.343 334.167 Q212.732 334.167 210.903 337.731 Q209.098 341.273 209.098 348.403 Q209.098 355.509 210.903 359.074 Q212.732 362.616 216.343 362.616 Q219.977 362.616 221.783 359.074 Q223.611 355.509 223.611 348.403 Q223.611 341.273 221.783 337.731 Q219.977 334.167 216.343 334.167 M216.343 330.463 Q222.153 330.463 225.209 335.069 Q228.287 339.653 228.287 348.403 Q228.287 357.129 225.209 361.736 Q222.153 366.319 216.343 366.319 Q210.533 366.319 207.454 361.736 Q204.399 357.129 204.399 348.403 Q204.399 339.653 207.454 335.069 Q210.533 330.463 216.343 330.463 Z" fill="#000000" fill-rule="evenodd" fill-opacity="1" /><path clip-path="url(#clip470)" d="M21.7677 848.522 L58.7206 848.522 L58.7206 840.755 Q58.7206 830.92 54.2646 826.369 Q49.8086 821.786 40.1964 821.786 Q30.6479 821.786 26.2237 826.369 Q21.7677 830.92 21.7677 840.755 L21.7677 848.522 M16.4842 854.951 L16.4842 841.742 Q16.4842 827.928 22.2451 821.467 Q27.9743 815.006 40.1964 815.006 Q52.4822 815.006 58.2432 821.499 Q64.0042 827.992 64.0042 841.742 L64.0042 854.951 L16.4842 854.951 Z" fill="#000000" fill-rule="evenodd" fill-opacity="1" /><path clip-path="url(#clip470)" d="M44.7161 774.52 L47.5806 774.52 L47.5806 801.447 Q53.6281 801.065 56.8109 797.819 Q59.9619 794.54 59.9619 788.716 Q59.9619 785.342 59.1344 782.191 Q58.3069 779.008 56.6518 775.889 L62.1899 775.889 Q63.5267 779.04 64.227 782.35 Q64.9272 785.66 64.9272 789.066 Q64.9272 797.596 59.9619 802.593 Q54.9967 807.558 46.5303 807.558 Q37.7774 807.558 32.6531 802.848 Q27.4968 798.105 27.4968 790.084 Q27.4968 782.891 32.1438 778.722 Q36.7589 774.52 44.7161 774.52 M42.9973 780.377 Q38.1912 780.44 35.3266 783.082 Q32.4621 785.692 32.4621 790.021 Q32.4621 794.922 35.2312 797.882 Q38.0002 800.811 43.0292 801.256 L42.9973 780.377 Z" fill="#000000" fill-rule="evenodd" fill-opacity="1" /><path clip-path="url(#clip470)" d="M42.4881 735.276 L64.0042 735.276 L64.0042 741.132 L42.679 741.132 Q37.6183 741.132 35.1038 743.105 Q32.5894 745.079 32.5894 749.026 Q32.5894 753.768 35.6131 756.505 Q38.6368 759.243 43.8567 759.243 L64.0042 759.243 L64.0042 765.131 L28.3562 765.131 L28.3562 759.243 L33.8944 759.243 Q30.6797 757.142 29.0883 754.309 Q27.4968 751.445 27.4968 747.721 Q27.4968 741.578 31.3163 738.427 Q35.1038 735.276 42.4881 735.276 Z" fill="#000000" fill-rule="evenodd" fill-opacity="1" /><path clip-path="url(#clip470)" d="M29.4065 700.869 L34.9447 700.869 Q33.6716 703.352 33.035 706.025 Q32.3984 708.699 32.3984 711.563 Q32.3984 715.924 33.7352 718.12 Q35.072 720.284 37.7456 720.284 Q39.7826 720.284 40.9603 718.725 Q42.1061 717.165 43.1565 712.455 L43.6021 710.449 Q44.9389 704.211 47.3897 701.601 Q49.8086 698.959 54.1691 698.959 Q59.1344 698.959 62.0308 702.906 Q64.9272 706.821 64.9272 713.696 Q64.9272 716.56 64.3543 719.68 Q63.8132 722.767 62.6992 726.204 L56.6518 726.204 Q58.3387 722.958 59.198 719.807 Q60.0256 716.656 60.0256 713.569 Q60.0256 709.431 58.6251 707.203 Q57.1929 704.975 54.6147 704.975 Q52.2276 704.975 50.9545 706.598 Q49.6813 708.19 48.5037 713.632 L48.0262 715.669 Q46.8804 721.112 44.5251 723.531 Q42.138 725.95 38.0002 725.95 Q32.9713 725.95 30.2341 722.385 Q27.4968 718.82 27.4968 712.264 Q27.4968 709.017 27.9743 706.153 Q28.4517 703.288 29.4065 700.869 Z" fill="#000000" fill-rule="evenodd" fill-opacity="1" /><path clip-path="url(#clip470)" d="M28.3562 689.634 L28.3562 683.777 L64.0042 683.777 L64.0042 689.634 L28.3562 689.634 M14.479 689.634 L14.479 683.777 L21.895 683.777 L21.895 689.634 L14.479 689.634 Z" fill="#000000" fill-rule="evenodd" fill-opacity="1" /><path clip-path="url(#clip470)" d="M18.2347 665.73 L28.3562 665.73 L28.3562 653.667 L32.9077 653.667 L32.9077 665.73 L52.2594 665.73 Q56.6199 665.73 57.8613 664.553 Q59.1026 663.343 59.1026 659.683 L59.1026 653.667 L64.0042 653.667 L64.0042 659.683 Q64.0042 666.462 61.4897 669.04 Q58.9434 671.619 52.2594 671.619 L32.9077 671.619 L32.9077 675.915 L28.3562 675.915 L28.3562 671.619 L18.2347 671.619 L18.2347 665.73 Z" fill="#000000" fill-rule="evenodd" fill-opacity="1" /><path clip-path="url(#clip470)" d="M67.3143 631.133 Q73.68 633.615 75.6216 635.971 Q77.5631 638.326 77.5631 642.273 L77.5631 646.951 L72.6615 646.951 L72.6615 643.514 Q72.6615 641.095 71.5157 639.758 Q70.3699 638.421 66.1048 636.798 L63.4312 635.748 L28.3562 650.166 L28.3562 643.96 L56.238 632.82 L28.3562 621.68 L28.3562 615.473 L67.3143 631.133 Z" fill="#000000" fill-rule="evenodd" fill-opacity="1" /><polyline clip-path="url(#clip473)" style="stroke:#009af9; stroke-linecap:butt; stroke-linejoin:round; stroke-width:8; stroke-opacity:1; fill:none" points="
  269.428,86.1857 274.568,730.861 279.708,946.993 284.849,1055.44 289.989,1120.68 295.13,1164.26 300.27,1195.44 305.41,1218.86 310.551,1237.1 315.691,1251.71 
  320.832,1263.67 325.972,1273.65 336.253,1289.35 346.534,1301.14 356.814,1310.32 367.095,1317.68 377.376,1323.7 387.657,1328.73 408.218,1336.63 428.78,1342.57 
  449.341,1347.19 469.903,1350.89 490.465,1353.93 511.026,1356.46 552.149,1360.44 593.272,1363.42 634.396,1365.75 675.519,1367.62 716.642,1369.14 757.765,1370.42 
  798.888,1371.5 840.011,1372.42 881.134,1373.22 922.257,1373.92 1302.5,1377.79 1682.74,1379.59 2062.99,1380.63 2443.23,1381.31 3203.71,1382.14 3964.2,1382.63 
  5485.17,1383.18 7006.14,1383.47 8834.22,1383.69 10662.3,1383.82 12207.9,1383.9 13753.5,1383.96 17111.5,1384.05 20207.2,1384.1 23526.2,1384.14 27371.5,1384.17 
  30788.8,1384.19 33785.4,1384.2 37052.6,1384.21 40339.1,1384.22 43972.9,1384.22 47430.3,1384.23 51025.1,1384.23 54051.3,1384.23 57745.8,1384.23 61218.8,1384.24 
  66782.8,1384.24 67639.1,1384.24 
  "/>
</svg>
